<svg width="200" height="200" viewBox="0 0 301 301" fill="none" xmlns="http://www.w3.org/2000/svg">
<path d="M83.39 207.824C101.63 215.954 124.58 216.53 146.216 209.744C167.48 203.078 168.734 183.944 184.286 168.518C196.886 155.996 214.82 149.402 227.828 137.348C240.236 125.852 248.228 110.672 249.008 95.474C250.016 75.674 238.904 61.226 223.808 49.616C214.46 42.416 204.692 36.098 192.686 32.528C179.289 28.5654 165.037 28.5257 151.618 32.4134C138.199 36.3011 126.176 43.9535 116.972 54.464C109.544 62.864 106.286 77.156 104.93 87.866C101.558 114.53 71.684 129.086 58.418 152.756C56.018 157.028 53.618 161.384 52.7 165.956C51.242 173.39 54.014 180.548 57.962 186.602C64.178 196.142 73.022 203.204 83.39 207.824Z" fill="#7049A3"/>
<path opacity="0.9" d="M83.39 207.824C101.63 215.954 124.58 216.53 146.216 209.744C167.48 203.078 168.734 183.944 184.286 168.518C196.886 155.996 214.82 149.402 227.828 137.348C240.236 125.852 248.228 110.672 249.008 95.474C250.016 75.674 238.904 61.226 223.808 49.616C214.46 42.416 204.692 36.098 192.686 32.528C179.289 28.5654 165.037 28.5257 151.618 32.4134C138.199 36.3011 126.176 43.9535 116.972 54.464C109.544 62.864 106.286 77.156 104.93 87.866C101.558 114.53 71.684 129.086 58.418 152.756C56.018 157.028 53.618 161.384 52.7 165.956C51.242 173.39 54.014 180.548 57.962 186.602C64.178 196.142 73.022 203.204 83.39 207.824Z" fill="white"/>
<path d="M150.5 263.036C214.749 263.036 266.834 259.995 266.834 256.244C266.834 252.493 214.749 249.452 150.5 249.452C86.2505 249.452 34.166 252.493 34.166 256.244C34.166 259.995 86.2505 263.036 150.5 263.036Z" fill="#F5F5F5"/>
<path d="M229.322 49.7L228.752 49.508C229.105 48.4478 229.286 47.3375 229.286 46.22H229.886C229.885 47.4026 229.694 48.5774 229.322 49.7Z" fill="#7049A3"/>
<path d="M228.848 43.208C228.369 41.624 227.528 40.1734 226.39 38.9715C225.253 37.7696 223.851 36.8494 222.296 36.284L222.5 35.72C224.144 36.3166 225.625 37.2892 226.827 38.5601C228.028 39.831 228.915 41.3651 229.418 43.04L228.848 43.208Z" fill="#7049A3"/>
<path d="M227.786 46.226C227.787 44.5641 227.332 42.9337 226.471 41.5127C225.609 40.0918 224.373 38.9349 222.898 38.1683C221.424 37.4018 219.767 37.055 218.109 37.1658C216.451 37.2767 214.855 37.8409 213.495 38.797C212.136 39.753 211.065 41.0641 210.4 42.5871C209.735 44.1101 209.501 45.7866 209.724 47.4335C209.947 49.0805 210.617 50.6346 211.663 51.9262C212.709 53.2178 214.089 54.1974 215.654 54.758L221.882 57.158L220.7 55.1C222.715 54.648 224.515 53.5223 225.803 51.9088C227.092 50.2954 227.791 48.2907 227.786 46.226Z" fill="#7049A3"/>
<path d="M204.704 52.028C204.703 50.8102 205.036 49.6155 205.668 48.5743C206.3 47.5331 207.205 46.6854 208.285 46.1237C209.366 45.5619 210.58 45.3078 211.795 45.3889C213.01 45.4701 214.179 45.8834 215.176 46.5838C216.172 47.2843 216.957 48.2449 217.444 49.3608C217.932 50.4767 218.103 51.7051 217.94 52.912C217.777 54.1188 217.286 55.2576 216.52 56.2043C215.754 57.1509 214.742 57.8689 213.596 58.28L209.03 60.08L209.9 58.514C208.427 58.182 207.11 57.3594 206.166 56.1809C205.222 55.0024 204.706 53.538 204.704 52.028Z" fill="#263238"/>
<path d="M240.044 71.546C237.53 73.766 232.19 75.41 229.118 75.146C227.552 85.214 235.97 93.23 235.97 93.23C235.97 93.23 246.728 88.82 248.918 78.866C245.96 78.002 241.58 74.528 240.044 71.546Z" fill="#7049A3"/>
<path opacity="0.3" d="M230.45 76.64C229.976 83.6 234.536 89.4319 236.312 91.4179C238.712 90.2179 245.048 86.432 247.112 79.778C244.185 78.357 241.628 76.2765 239.642 73.7C236.847 75.3784 233.7 76.3849 230.45 76.64Z" fill="white"/>
<path d="M128.03 44.0179L136.238 35.2939L147.11 40.3039L128.03 44.0179Z" fill="#7049A3"/>
<path d="M147.113 40.308L128.031 44.0207C127.156 44.1909 126.585 45.0382 126.755 45.9132L128.81 56.4732C128.98 57.3482 129.827 57.9195 130.702 57.7492L149.784 54.0366C150.659 53.8663 151.231 53.019 151.06 52.1441L149.006 41.5841C148.836 40.7091 147.988 40.1378 147.113 40.308Z" fill="#7049A3"/>
<path opacity="0.4" d="M128.03 44.018L138.908 49.022L147.11 40.304L128.03 44.018Z" fill="black"/>
<path d="M128.228 37.364L130.958 45.362L138.908 49.022L145.316 42.212L142.046 32.642L128.228 37.364Z" fill="#7049A3"/>
<g opacity="0.7">
<path d="M128.228 37.364L130.958 45.362L138.908 49.022L145.316 42.212L142.046 32.642L128.228 37.364Z" fill="white"/>
</g>
<path d="M126.986 72.074L125.906 72.014C125.682 71.6662 125.423 71.3424 125.132 71.048L125.312 69.98L122.666 68.522L121.862 69.242C121.455 69.1569 121.041 69.1107 120.626 69.104L120.026 68.222L117.122 69.062L117.062 70.148C116.711 70.37 116.385 70.6296 116.09 70.922L115.028 70.736L113.57 73.388L114.284 74.186C114.198 74.5946 114.152 75.0105 114.146 75.428L113.27 76.028L114.11 78.932L115.184 78.992C115.41 79.34 115.669 79.6655 115.958 79.964L115.778 81.026L118.43 82.484L119.228 81.764C119.637 81.8494 120.053 81.8956 120.47 81.902L121.07 82.784L123.974 81.944L124.028 80.864C124.375 80.6341 124.7 80.373 125 80.084L126.062 80.264L127.52 77.618L126.794 76.814C126.882 76.4198 126.93 76.0178 126.938 75.614L127.82 75.014L126.986 72.074ZM121.37 78.398C120.8 78.5618 120.194 78.5531 119.629 78.3729C119.065 78.1927 118.566 77.8491 118.196 77.3856C117.826 76.922 117.602 76.3592 117.552 75.7684C117.502 75.1775 117.628 74.585 117.914 74.0658C118.201 73.5465 118.635 73.1238 119.161 72.851C119.688 72.5783 120.283 72.4676 120.873 72.5331C121.462 72.5986 122.019 72.8374 122.472 73.2191C122.926 73.6009 123.257 74.1085 123.422 74.678C123.532 75.057 123.566 75.454 123.523 75.8462C123.479 76.2384 123.359 76.6182 123.168 76.9638C122.977 77.3094 122.72 77.6139 122.412 77.86C122.103 78.1061 121.749 78.2889 121.37 78.398Z" fill="#7049A3"/>
<path d="M112.802 70.532L112.142 70.496C112.006 70.2792 111.847 70.078 111.668 69.896L111.782 69.242L110.162 68.348L109.664 68.792C109.418 68.737 109.166 68.7089 108.914 68.708L108.53 68.168L106.73 68.684L106.694 69.344C106.477 69.4795 106.276 69.6385 106.094 69.818L105.44 69.704L104.546 71.324L104.984 71.816C104.934 72.0671 104.906 72.322 104.9 72.578L104.366 72.956L104.876 74.756L105.536 74.792C105.677 75.0061 105.838 75.2069 106.016 75.392L105.902 76.04L107.522 76.934L108.014 76.496C108.265 76.5453 108.52 76.5734 108.776 76.58L109.154 77.12L110.954 76.604L110.99 75.944C111.204 75.8045 111.405 75.6459 111.59 75.47L112.238 75.578L113.132 73.958L112.688 73.466C112.742 73.2175 112.772 72.9643 112.778 72.71L113.312 72.326L112.802 70.532ZM109.7 75.5C109.13 75.6662 108.523 75.6593 107.956 75.4801C107.39 75.301 106.889 74.9577 106.518 74.4938C106.147 74.0298 105.922 73.4662 105.872 72.8742C105.821 72.2822 105.948 71.6886 106.235 71.1686C106.522 70.6486 106.958 70.2257 107.486 69.9534C108.014 69.6811 108.611 69.5717 109.201 69.6391C109.791 69.7065 110.348 69.9477 110.801 70.332C111.254 70.7164 111.583 71.2266 111.746 71.798C111.963 72.5602 111.87 73.3773 111.486 74.0709C111.103 74.7645 110.461 75.2783 109.7 75.5Z" fill="#263238"/>
<path d="M176.81 58.328C174.026 57.806 172.844 59.528 172.934 61.988C173.024 64.448 171.098 67.988 173.534 68.462C175.97 68.936 179.816 58.886 176.81 58.328Z" fill="#263238"/>
<path d="M166.556 184.1C174.896 160.28 181.214 129.296 181.214 129.296L158.372 128.924C158.372 128.924 154.856 168.074 152.9 184.7C150.854 201.986 143.858 240.332 143.858 240.332L153.884 243.164C153.884 243.164 165.146 205.61 166.556 184.1Z" fill="#263238"/>
<path opacity="0.2" d="M170.9 146.504C170.9 146.504 170.234 164.798 169.418 175.382C171.566 168.512 173.516 161.45 175.184 154.982L170.9 146.504Z" fill="black"/>
<path d="M150.56 250.658L149.702 255.542C149.677 255.663 149.627 255.777 149.556 255.878C149.485 255.979 149.395 256.064 149.29 256.129C149.185 256.193 149.067 256.236 148.945 256.254C148.823 256.271 148.699 256.264 148.58 256.232C147.098 255.812 146.486 255.38 143.912 254.612C140.912 253.706 138.23 253.37 134.702 252.314C132.566 251.672 133.502 249.068 135.302 249.086C139.106 249.128 141.26 247.79 143.246 247.214C144.2 245.642 145.472 239.732 145.472 239.732L153.548 242.618C153.548 242.618 151.19 248.156 150.56 250.658Z" fill="#7049A3"/>
<path d="M143.9 241.796L153.074 244.544C153.26 244.597 153.458 244.581 153.634 244.5C153.809 244.418 153.949 244.276 154.028 244.1L155.384 241.142C155.431 241.044 155.457 240.937 155.46 240.828C155.462 240.72 155.441 240.612 155.399 240.512C155.356 240.412 155.293 240.322 155.213 240.249C155.132 240.175 155.037 240.12 154.934 240.086L144.992 236.936C144.882 236.904 144.767 236.895 144.654 236.91C144.541 236.926 144.432 236.964 144.334 237.024C144.237 237.084 144.154 237.164 144.089 237.258C144.025 237.353 143.981 237.46 143.96 237.572L143.36 240.932C143.327 241.117 143.365 241.308 143.464 241.468C143.564 241.627 143.719 241.744 143.9 241.796Z" fill="#263238"/>
<path opacity="0.1" d="M143.9 241.796L153.074 244.544C153.26 244.597 153.458 244.581 153.634 244.5C153.809 244.418 153.949 244.276 154.028 244.1L155.384 241.142C155.431 241.044 155.457 240.937 155.46 240.828C155.462 240.72 155.441 240.612 155.399 240.512C155.356 240.412 155.293 240.322 155.213 240.249C155.132 240.175 155.037 240.12 154.934 240.086L144.992 236.936C144.882 236.904 144.767 236.895 144.654 236.91C144.541 236.926 144.432 236.964 144.334 237.024C144.237 237.084 144.154 237.164 144.089 237.258C144.025 237.353 143.981 237.46 143.96 237.572L143.36 240.932C143.327 241.117 143.365 241.308 143.464 241.468C143.564 241.627 143.719 241.744 143.9 241.796Z" fill="white"/>
<path d="M192.044 254.546L191.108 250.346C190.82 247.79 191.012 241.868 191.012 241.868L182.948 242.072C182.948 242.072 183.548 247.472 183.518 249.374C181.97 250.46 180.416 251.978 177.062 252.974C175.484 253.436 175.634 256.172 177.722 256.208C181.184 256.268 183.638 255.866 186.59 255.92C189.11 255.962 189.404 256.208 190.85 256.208C191.05 256.207 191.246 256.158 191.423 256.067C191.6 255.975 191.753 255.843 191.87 255.681C191.986 255.519 192.063 255.331 192.093 255.134C192.123 254.937 192.106 254.736 192.044 254.546Z" fill="#7049A3"/>
<path d="M189.218 182.672C188.522 158.03 191.288 143.852 187.658 129.416L166.88 129.104C166.88 129.104 172.442 168.2 175.172 184.484C177.902 200.768 181.772 241.886 181.772 241.886L191.972 242.012C191.972 242.012 193.154 201.74 189.218 182.672Z" fill="#263238"/>
<path d="M182 243.716L191.648 243.866C191.855 243.875 192.059 243.805 192.217 243.67C192.375 243.536 192.476 243.346 192.5 243.14L192.83 239.948C192.843 239.845 192.833 239.741 192.803 239.641C192.773 239.542 192.722 239.45 192.655 239.372C192.587 239.293 192.503 239.23 192.41 239.185C192.316 239.141 192.214 239.117 192.11 239.114L181.604 238.79C181.486 238.787 181.368 238.81 181.259 238.857C181.15 238.904 181.053 238.975 180.975 239.063C180.896 239.152 180.837 239.256 180.803 239.37C180.769 239.483 180.759 239.603 180.776 239.72L181.298 243.08C181.323 243.251 181.407 243.408 181.535 243.524C181.663 243.64 181.827 243.708 182 243.716Z" fill="#263238"/>
<path opacity="0.1" d="M182 243.716L191.648 243.866C191.855 243.875 192.059 243.805 192.217 243.67C192.375 243.536 192.476 243.346 192.5 243.14L192.83 239.948C192.843 239.845 192.833 239.741 192.803 239.641C192.773 239.542 192.722 239.45 192.655 239.372C192.587 239.293 192.503 239.23 192.41 239.185C192.316 239.141 192.214 239.117 192.11 239.114L181.604 238.79C181.486 238.787 181.368 238.81 181.259 238.857C181.15 238.904 181.053 238.975 180.975 239.063C180.896 239.152 180.837 239.256 180.803 239.37C180.769 239.483 180.759 239.603 180.776 239.72L181.298 243.08C181.323 243.251 181.407 243.408 181.535 243.524C181.663 243.64 181.827 243.708 182 243.716Z" fill="white"/>
<path d="M165.572 83.93H165.5L155.768 83.192C153.032 82.968 150.31 82.708 147.602 82.412C147.261 81.8108 146.957 81.1897 146.69 80.552C146.148 79.2427 145.697 77.8975 145.34 76.526C144.962 75.116 144.65 73.652 144.386 72.17C144.122 70.688 143.9 69.17 143.714 67.7V67.58C143.649 67.0907 143.413 66.6403 143.046 66.3098C142.679 65.9793 142.207 65.7902 141.714 65.7765C141.22 65.7628 140.738 65.9253 140.354 66.2349C139.969 66.5445 139.708 66.981 139.616 67.466C139.328 69.13 139.155 70.8121 139.1 72.5C139.027 74.1927 139.066 75.8883 139.214 77.576C139.369 79.3309 139.674 81.0692 140.126 82.772C140.614 84.6163 141.357 86.3834 142.334 88.022C142.575 88.4174 142.894 88.7596 143.272 89.0277C143.649 89.2959 144.077 89.4845 144.53 89.582L144.824 89.642C146.504 90.002 148.19 90.35 149.876 90.62C151.562 90.89 153.248 91.166 154.94 91.382C156.632 91.598 158.324 91.778 160.022 91.928C161.72 92.078 163.394 92.186 165.164 92.234C166.236 92.2431 167.271 91.8374 168.051 91.1018C168.832 90.3661 169.298 89.3574 169.352 88.2863C169.406 87.2153 169.044 86.1646 168.342 85.354C167.64 84.5433 166.652 84.0353 165.584 83.936L165.572 83.93Z" fill="#FF8B7B"/>
<path d="M171.692 84.5C166.433 83.5019 161.113 82.8564 155.768 82.568C154.728 86.8259 154.809 91.2805 156.002 95.498C156.002 95.498 158.372 96.698 165.098 95.87C172.616 94.898 178.022 85.79 171.692 84.5Z" fill="#7049A3"/>
<path d="M189.224 86.726C183.59 85.3896 177.834 84.6316 172.046 84.464C165.782 84.338 160.88 87.434 159.686 93.59C157.335 105.913 156.683 118.5 157.748 131C157.796 133.226 186.02 133.034 188.348 131C189.362 123.05 188.246 114.53 193.46 96.734C194.528 93.074 192.896 87.602 189.224 86.726Z" fill="#7049A3"/>
<path d="M172.328 92.9C172.208 93.416 171.89 93.782 171.614 93.716C171.338 93.65 171.218 93.182 171.338 92.666C171.458 92.15 171.776 91.784 172.052 91.85C172.328 91.916 172.448 92.408 172.328 92.9Z" fill="white"/>
<path d="M220.796 78.236C220.989 76.4569 221.055 74.6664 220.994 72.878C220.972 72.3559 220.765 71.8586 220.41 71.4754C220.054 71.0923 219.574 70.8485 219.055 70.7878C218.536 70.727 218.012 70.8534 217.578 71.1441C217.144 71.4349 216.828 71.8709 216.686 72.374L216.65 72.5C216.236 73.976 215.78 75.578 215.27 77.078C214.76 78.578 214.22 80.078 213.602 81.494C213.021 82.8789 212.346 84.2221 211.58 85.514C211.201 86.1377 210.787 86.7387 210.338 87.314C207.458 87.214 204.566 87.072 201.662 86.888L191.354 86.18H191.3C190.138 86.0726 188.982 86.431 188.084 87.1765C187.187 87.9219 186.622 88.9933 186.515 90.155C186.408 91.3166 186.766 92.4734 187.512 93.3707C188.257 94.2681 189.328 94.8326 190.49 94.94C192.35 95.162 194.09 95.294 195.92 95.408C197.75 95.522 199.52 95.582 201.32 95.606C203.12 95.63 204.92 95.606 206.72 95.606C208.52 95.606 210.35 95.468 212.168 95.348H212.492C212.98 95.3145 213.457 95.1818 213.892 94.9579C214.328 94.7341 214.713 94.4238 215.024 94.046C216.296 92.4789 217.341 90.7397 218.126 88.88C218.862 87.168 219.448 85.3953 219.878 83.582C220.302 81.8222 220.608 80.0363 220.796 78.236Z" fill="#FF8B7B"/>
<path d="M184.808 85.79C190.469 85.5454 196.139 85.6797 201.782 86.192C202.227 90.8112 201.466 95.4668 199.574 99.704C199.574 99.704 196.904 100.61 189.974 98.708C182.252 96.578 177.974 86.204 184.808 85.79Z" fill="#7049A3"/>
<path d="M219.932 75.5L224.636 72.038L219.176 67.61C219.176 67.61 215.3 71.3 216.854 73.7L219.932 75.5Z" fill="#FF8B7B"/>
<path d="M225.662 65.9L223.496 64.7C223.078 64.4658 222.589 64.3921 222.121 64.4926C221.653 64.5931 221.237 64.861 220.952 65.246L219.152 67.598L224.612 72.026L226.412 68.762C226.688 68.2822 226.765 67.7128 226.624 67.1771C226.484 66.6415 226.138 66.1827 225.662 65.9Z" fill="#FF8B7B"/>
<path d="M226.154 100.73C225.956 100.217 225.564 99.8036 225.063 99.5789C224.562 99.3541 223.992 99.3365 223.478 99.53H223.406C221.99 100.064 220.496 100.634 219.044 101.144C217.592 101.654 216.122 102.164 214.664 102.608C213.206 103.052 211.754 103.442 210.326 103.808C209.516 103.988 208.712 104.138 207.926 104.252C205.926 102.4 203.926 100.508 201.926 98.576L194.984 91.7L194.942 91.658C194.164 90.921 193.132 90.5127 192.06 90.5184C190.989 90.5241 189.96 90.9433 189.19 91.6886C188.42 92.4338 187.968 93.4476 187.927 94.5184C187.886 95.5892 188.261 96.6344 188.972 97.436C190.172 98.738 191.372 99.92 192.572 101.114C193.772 102.308 195.038 103.46 196.322 104.588C197.606 105.716 198.89 106.826 200.216 107.906C201.542 108.986 202.904 110.042 204.278 111.074L204.542 111.278C204.91 111.55 205.33 111.743 205.776 111.846C206.222 111.949 206.684 111.96 207.134 111.878C208.901 111.547 210.637 111.067 212.324 110.444C213.924 109.848 215.49 109.164 217.016 108.398C218.516 107.638 219.97 106.818 221.378 105.938C222.8 105.063 224.176 104.116 225.5 103.1C225.846 102.826 226.097 102.448 226.214 102.022C226.332 101.596 226.311 101.143 226.154 100.73Z" fill="#FF8B7B"/>
<path d="M191.006 87.428C195.211 90.7389 199.189 94.3269 202.916 98.168C200.39 101.749 196.979 104.614 193.016 106.484C193.016 106.484 190.544 105.488 186.764 99.884C182.534 93.578 185.852 83.516 191.006 87.428Z" fill="#7049A3"/>
<path d="M225.272 103.226L230.51 101.426L226.622 96.026C226.622 96.026 222.176 98.426 223.022 101.036L225.272 103.226Z" fill="#FF8B7B"/>
<path d="M232.826 96.158L231.152 94.514C230.83 94.1978 230.404 94.01 229.953 93.9857C229.502 93.9614 229.058 94.1023 228.704 94.382L226.502 96.092L230.492 101.408L232.838 98.948C233.202 98.574 233.404 98.0723 233.402 97.5506C233.4 97.0289 233.193 96.5289 232.826 96.158Z" fill="#FF8B7B"/>
<path d="M173.3 89.69C174.142 90.7016 174.606 91.9741 174.614 93.29C180.188 92.336 184.814 89.57 185.414 85.874C184.472 84.986 183.848 85.142 183.848 85.142C183.848 85.142 180.014 88.448 173.3 89.69Z" fill="white"/>
<path d="M173.3 89.69C171.798 89.9494 170.428 90.7084 169.412 91.844C167.27 89.762 170.06 85.298 171.77 84.458C172.518 84.2425 173.303 84.1873 174.074 84.296C174.074 84.296 171.704 85.562 173.3 89.69Z" fill="white"/>
<path d="M184.82 72.164C183.746 75.572 182.39 81.536 183.758 84.962C183.924 85.3746 183.946 85.8309 183.821 86.2576C183.696 86.6843 183.43 87.0564 183.068 87.314C180.541 89.2339 177.393 90.1526 174.23 89.894C170.666 89.6 170.444 87.752 171.158 86.186C171.347 85.7912 171.622 85.4436 171.962 85.1685C172.303 84.8934 172.7 84.6978 173.126 84.596C176.726 83.714 176.888 80.678 176.492 77.75L184.82 72.164Z" fill="#FF8B7B"/>
<path opacity="0.2" d="M181.424 74.444L176.498 77.75C176.606 78.4909 176.652 79.2395 176.636 79.988C178.358 79.946 180.902 78.356 181.28 76.604C181.46 75.8989 181.508 75.1668 181.424 74.444Z" fill="black"/>
<path d="M187.958 67.1C186.248 72.302 185.51 75.428 182.144 77.492C177.08 80.6 171.224 76.616 171.344 71.048C171.464 66.032 174.236 58.376 179.936 57.518C181.181 57.3136 182.457 57.437 183.639 57.876C184.822 58.315 185.87 59.0545 186.679 60.0216C187.489 60.9888 188.033 62.1501 188.257 63.3913C188.481 64.6325 188.378 65.9107 187.958 67.1Z" fill="#FF8B7B"/>
<path d="M173.3 68.132C173.061 68.1307 172.824 68.0901 172.598 68.012C172.206 67.852 171.859 67.5973 171.589 67.2706C171.319 66.944 171.133 66.5556 171.05 66.14C170.829 65.1258 170.895 64.07 171.242 63.0915C171.589 62.1131 172.202 61.2508 173.012 60.602C173.328 60.3136 173.717 60.1165 174.136 60.0317C174.556 59.9469 174.991 59.9776 175.394 60.1205C175.798 60.2634 176.155 60.5132 176.427 60.8431C176.7 61.1731 176.878 61.5708 176.942 61.994C177.184 63.0084 177.117 64.0719 176.75 65.048C176.12 66.89 174.68 68.132 173.3 68.132ZM174.68 60.296C174.137 60.3127 173.614 60.5019 173.186 60.836C172.42 61.4482 171.84 62.2627 171.512 63.1873C171.184 64.1119 171.122 65.1098 171.332 66.068C171.403 66.4371 171.565 66.7828 171.802 67.074C172.04 67.3651 172.347 67.5926 172.694 67.736C174.062 68.222 175.76 66.974 176.48 64.946C176.824 64.0273 176.889 63.0274 176.666 62.072C176.593 61.7022 176.43 61.356 176.191 61.0641C175.953 60.7722 175.646 60.5434 175.298 60.398C175.107 60.3309 174.906 60.2964 174.704 60.296H174.68Z" fill="#263238"/>
<path d="M179.438 70.298C179.199 70.3001 178.961 70.2594 178.736 70.178C177.218 69.638 176.606 67.43 177.38 65.258C177.708 64.2695 178.324 63.4021 179.15 62.768C179.471 62.4914 179.859 62.3045 180.275 62.2263C180.691 62.1481 181.12 62.1814 181.519 62.3227C181.918 62.4641 182.273 62.7085 182.547 63.0312C182.821 63.3538 183.005 63.7433 183.08 64.16C183.322 65.1744 183.255 66.2379 182.888 67.214C182.234 69.062 180.788 70.298 179.438 70.298ZM180.818 62.462C180.274 62.4823 179.75 62.671 179.318 63.002C178.541 63.6033 177.961 64.422 177.65 65.354C176.936 67.376 177.464 69.422 178.85 69.908C180.236 70.394 181.916 69.14 182.636 67.118C182.981 66.1972 183.044 65.1945 182.816 64.238C182.744 63.8686 182.582 63.5226 182.344 63.2306C182.107 62.9387 181.801 62.7097 181.454 62.564C181.249 62.4952 181.034 62.4607 180.818 62.462Z" fill="#263238"/>
<path d="M177.5 65.45C177.459 65.4482 177.421 65.431 177.392 65.402C177.31 65.2935 177.198 65.2109 177.071 65.1641C176.943 65.1173 176.805 65.1082 176.672 65.138C176.635 65.1477 176.597 65.1431 176.563 65.1253C176.53 65.1075 176.504 65.0778 176.492 65.042C176.48 65.0054 176.483 64.9657 176.5 64.931C176.517 64.8964 176.546 64.8696 176.582 64.856C176.77 64.8113 176.967 64.8208 177.149 64.8834C177.332 64.9461 177.493 65.0593 177.614 65.21C177.64 65.2377 177.654 65.2742 177.654 65.312C177.654 65.3498 177.64 65.3863 177.614 65.414C177.599 65.4282 177.581 65.4388 177.561 65.445C177.541 65.4512 177.52 65.4529 177.5 65.45Z" fill="#263238"/>
<path d="M186.926 70.046C186.899 70.0543 186.869 70.0543 186.842 70.046C183.794 67.844 182.642 67.586 182.642 67.586C182.604 67.5788 182.57 67.5568 182.548 67.5247C182.526 67.4926 182.518 67.4532 182.525 67.415C182.532 67.3768 182.554 67.343 182.586 67.3211C182.618 67.2991 182.658 67.2908 182.696 67.298C182.744 67.298 183.896 67.55 187.022 69.812C187.053 69.8348 187.074 69.8688 187.081 69.9068C187.088 69.9448 187.079 69.9839 187.058 70.016C187.04 70.0306 187.018 70.0408 186.995 70.046C186.973 70.0512 186.949 70.0512 186.926 70.046Z" fill="#263238"/>
<path d="M184.484 71.51C182.444 69.608 184.412 67.484 185.684 66.71C187.082 65.846 184.976 64.844 186.692 62.744C179.732 62.912 181.22 59.69 177.548 60.068C175.544 60.272 173.54 58.502 173.792 55.676C174.266 50.336 181.904 49.13 183.116 51.134C180.242 51.644 180.848 53.408 182.108 53.534C185.384 53.804 184.754 55.472 186.494 57.038C188.966 59.258 192.008 57.338 191.624 61.976C196.484 63.176 193.79 68.576 190.706 70.016C188.719 70.8253 186.622 71.329 184.484 71.51Z" fill="#263238"/>
<path d="M189.95 61.886C190.438 61.8922 190.923 61.7938 191.37 61.5975C191.817 61.4011 192.217 61.1114 192.544 60.7478C192.87 60.3841 193.114 59.9549 193.261 59.4889C193.408 59.0229 193.453 58.531 193.394 58.046C195.218 61.466 193.004 62.54 189.95 61.886Z" fill="#263238"/>
<path d="M188.492 72.722C187.577 73.6623 186.346 74.2308 185.036 74.318C183.398 74.378 183.2 72.722 184.178 71.318C185.06 70.034 186.98 68.456 188.378 69.074C189.776 69.692 189.68 71.528 188.492 72.722Z" fill="#FF8B7B"/>
<path d="M188.342 73.376C187.55 74.162 186.404 74.306 185.792 73.688C185.18 73.07 185.33 71.936 186.128 71.144C186.926 70.352 188.066 70.208 188.678 70.826C189.29 71.444 189.14 72.584 188.342 73.376Z" fill="#263238"/>
<path d="M176.114 75.272C175.954 75.1546 175.83 74.9945 175.756 74.8101C175.682 74.6256 175.662 74.4242 175.697 74.2286C175.731 74.0331 175.821 73.8513 175.954 73.7038C176.087 73.5564 176.259 73.4493 176.45 73.3946C176.641 73.3399 176.843 73.3399 177.034 73.3946C177.225 73.4492 177.397 73.5564 177.53 73.7038C177.663 73.8512 177.752 74.033 177.787 74.2286C177.822 74.4241 177.802 74.6256 177.728 74.81C177.573 75.0828 177.317 75.2839 177.015 75.3703C176.714 75.4566 176.39 75.4214 176.114 75.272Z" fill="#263238"/>
<path d="M179.786 74.93C178.753 74.9386 177.723 74.8319 176.714 74.612C176.675 74.6029 176.637 74.5862 176.605 74.5628C176.572 74.5393 176.544 74.5096 176.522 74.4753C176.501 74.4411 176.486 74.4029 176.479 74.3631C176.473 74.3232 176.474 74.2824 176.483 74.243C176.492 74.2036 176.509 74.1664 176.532 74.1335C176.556 74.1005 176.585 74.0725 176.62 74.0511C176.654 74.0296 176.692 74.0151 176.732 74.0084C176.772 74.0017 176.813 74.0029 176.852 74.012C179.798 74.714 184.562 74.246 186.284 72.596C186.312 72.5679 186.345 72.5456 186.382 72.5303C186.418 72.5151 186.457 72.5073 186.497 72.5073C186.537 72.5073 186.576 72.5151 186.612 72.5303C186.649 72.5456 186.682 72.5679 186.71 72.596C186.738 72.6234 186.76 72.656 186.775 72.6921C186.79 72.7282 186.798 72.7669 186.798 72.806C186.798 72.8451 186.79 72.8838 186.775 72.9199C186.76 72.956 186.738 72.9886 186.71 73.016C185.384 74.3 182.474 74.93 179.786 74.93Z" fill="#263238"/>
<path d="M179.66 66.5C179.516 66.92 179.18 67.19 178.904 67.1C178.628 67.01 178.526 66.602 178.67 66.182C178.814 65.762 179.156 65.492 179.426 65.582C179.696 65.672 179.804 66.05 179.66 66.5Z" fill="#263238"/>
<path d="M174.5 64.7C174.356 65.12 174.02 65.39 173.744 65.3C173.468 65.21 173.366 64.802 173.51 64.382C173.654 63.962 173.996 63.692 174.266 63.782C174.536 63.872 174.668 64.28 174.5 64.7Z" fill="#263238"/>
<path d="M176.39 66.098C175.094 66.7711 173.838 67.5183 172.628 68.336C172.928 69.35 174.506 69.71 174.506 69.71L176.39 66.098Z" fill="#FF5652"/>
<path d="M175.1 71.582C175.574 71.7347 176.074 71.79 176.57 71.7447C177.066 71.6993 177.547 71.5542 177.986 71.318C178.016 71.3004 178.038 71.2716 178.047 71.2379C178.056 71.2042 178.051 71.1683 178.034 71.138C178.015 71.1088 177.986 71.0881 177.953 71.0802C177.919 71.0724 177.883 71.078 177.854 71.096C177.366 71.3513 176.825 71.4882 176.275 71.4955C175.725 71.5028 175.18 71.3803 174.686 71.138C174.655 71.1234 174.619 71.1215 174.587 71.1327C174.554 71.1439 174.527 71.1673 174.512 71.198C174.504 71.2129 174.499 71.2293 174.497 71.2462C174.495 71.2632 174.497 71.2803 174.502 71.2965C174.507 71.3128 174.515 71.3279 174.526 71.3408C174.537 71.3538 174.551 71.3644 174.566 71.372C174.739 71.4529 174.918 71.523 175.1 71.582Z" fill="#263238"/>
<path d="M182.18 65.75C182.223 65.7621 182.269 65.7621 182.312 65.75C182.345 65.7398 182.376 65.7231 182.402 65.7009C182.428 65.6787 182.45 65.6513 182.466 65.6206C182.481 65.5898 182.491 65.5562 182.493 65.5217C182.496 65.4873 182.491 65.4527 182.48 65.42C182.361 65.0294 182.149 64.6737 181.861 64.3841C181.574 64.0944 181.22 63.8794 180.83 63.758C180.762 63.7415 180.69 63.7523 180.629 63.7882C180.568 63.8241 180.524 63.8821 180.506 63.95C180.49 64.0161 180.5 64.0859 180.535 64.1443C180.57 64.2027 180.626 64.245 180.692 64.262C181 64.3624 181.279 64.5361 181.504 64.7682C181.73 65.0002 181.896 65.2836 181.988 65.594C182.004 65.634 182.031 65.6693 182.064 65.6965C182.098 65.7238 182.137 65.7422 182.18 65.75Z" fill="#263238"/>
<path d="M173.528 62.372C173.566 62.3925 173.608 62.4032 173.651 62.4032C173.694 62.4032 173.736 62.3925 173.774 62.372C174.057 62.2079 174.375 62.1137 174.701 62.097C175.028 62.0803 175.354 62.1416 175.652 62.276C175.713 62.308 175.785 62.3146 175.851 62.2944C175.917 62.2742 175.973 62.2288 176.006 62.168C176.024 62.1392 176.036 62.107 176.04 62.0734C176.045 62.0399 176.043 62.0057 176.034 61.973C176.025 61.9403 176.009 61.9099 175.988 61.8836C175.967 61.8572 175.94 61.8356 175.91 61.82C175.532 61.6392 175.116 61.5534 174.698 61.5701C174.28 61.5868 173.872 61.7056 173.51 61.916C173.469 61.9379 173.434 61.9708 173.41 62.0109C173.386 62.0511 173.373 62.0971 173.373 62.144C173.373 62.1909 173.386 62.2369 173.41 62.2771C173.434 62.3172 173.469 62.3501 173.51 62.372H173.528Z" fill="#263238"/>
<path d="M140.588 69.5L136.43 65.9L141.914 62.162C141.914 62.162 145.286 65.918 143.63 68.102L140.588 69.5Z" fill="#FF8B7B"/>
<path d="M135.944 60.038L138.074 59.054C138.485 58.8674 138.95 58.8363 139.383 58.9665C139.815 59.0967 140.186 59.3793 140.426 59.762L141.914 62.12L136.43 65.858L134.984 62.654C134.767 62.1795 134.746 61.6384 134.926 61.1486C135.106 60.6587 135.472 60.2596 135.944 60.038Z" fill="#FF8B7B"/>
<path d="M164.954 94.4C164.73 93.9155 164.412 93.4801 164.018 93.119C163.625 92.7578 163.164 92.478 162.662 92.2957C162.16 92.1133 161.627 92.032 161.094 92.0565C160.56 92.0809 160.037 92.2106 159.554 92.438L159.368 92.522L158.456 92.948L157.466 93.398C156.794 93.686 156.116 93.998 155.432 94.256C154.07 94.856 152.684 95.33 151.292 95.816C149.9 96.302 148.49 96.728 147.092 97.106C145.856 97.442 144.614 97.706 143.366 97.946C142.286 97.67 141.146 97.304 140.006 96.89C138.572 96.368 137.114 95.762 135.662 95.126C134.21 94.49 132.746 93.818 131.288 93.134L126.914 91.052H126.872C126.433 90.8459 125.934 90.8043 125.466 90.9347C124.999 91.0651 124.593 91.3588 124.324 91.7625C124.055 92.1663 123.939 92.6532 123.998 93.135C124.057 93.6167 124.287 94.0613 124.646 94.388C125.93 95.546 127.238 96.578 128.588 97.604C129.938 98.63 131.33 99.59 132.788 100.514C134.239 101.457 135.737 102.326 137.276 103.118C138.905 103.97 140.603 104.683 142.352 105.248C142.706 105.353 143.076 105.392 143.444 105.362H143.696C145.405 105.24 147.106 105.019 148.79 104.702C149.636 104.558 150.452 104.36 151.286 104.18C152.12 104 152.924 103.766 153.734 103.52C155.36 103.058 156.95 102.506 158.534 101.888C159.314 101.576 160.1 101.288 160.868 100.898C161.252 100.718 161.642 100.544 162.026 100.352C162.41 100.16 162.77 99.974 163.226 99.716C164.141 99.2206 164.83 98.3926 165.152 97.4032C165.474 96.4138 165.403 95.3386 164.954 94.4Z" fill="#FF8B7B"/>
<path d="M164.546 89.3C159.615 91.0199 154.805 93.0664 150.146 95.426C151.343 99.5252 153.58 103.245 156.638 106.226C156.638 106.226 159.236 106.094 164.51 102.11C170.414 97.7 170.546 87.344 164.546 89.3Z" fill="#7049A3"/>
<path d="M125.81 94.934L120.452 94.418L122.678 88.334C122.678 88.334 127.478 89.402 127.412 92.078L125.81 94.934Z" fill="#FF8B7B"/>
<path d="M116.756 90.074L117.89 88.088C118.107 87.7031 118.458 87.4114 118.876 87.2687C119.295 87.126 119.751 87.1421 120.158 87.314L122.678 88.334L120.452 94.418L117.5 92.696C117.056 92.4449 116.729 92.0288 116.589 91.5379C116.45 91.047 116.51 90.521 116.756 90.074Z" fill="#FF8B7B"/>
<path d="M245.84 145.4H55.16C54.7494 145.4 54.3557 145.237 54.0654 144.947C53.775 144.656 53.612 144.263 53.612 143.852C53.6112 143.648 53.6506 143.446 53.7281 143.258C53.8055 143.069 53.9194 142.898 54.0632 142.753C54.207 142.609 54.378 142.495 54.5662 142.416C54.7544 142.338 54.9562 142.298 55.16 142.298H245.84C246.044 142.298 246.246 142.338 246.434 142.416C246.622 142.495 246.793 142.609 246.937 142.753C247.081 142.898 247.194 143.069 247.272 143.258C247.349 143.446 247.389 143.648 247.388 143.852C247.388 144.263 247.225 144.656 246.935 144.947C246.644 145.237 246.251 145.4 245.84 145.4Z" fill="#7049A3"/>
<path d="M212.738 130.802H205.22C204.783 130.802 204.428 131.157 204.428 131.594V141.512C204.428 141.949 204.783 142.304 205.22 142.304H212.738C213.175 142.304 213.53 141.949 213.53 141.512V131.594C213.53 131.157 213.175 130.802 212.738 130.802Z" fill="#7049A3"/>
<path d="M213.53 140.678C212.713 140.679 211.915 140.438 211.235 139.985C210.555 139.532 210.025 138.888 209.712 138.134C209.399 137.38 209.316 136.549 209.475 135.748C209.633 134.947 210.026 134.211 210.603 133.633C211.18 133.055 211.916 132.662 212.716 132.502C213.517 132.342 214.348 132.423 215.102 132.736C215.857 133.048 216.502 133.577 216.956 134.256C217.41 134.935 217.652 135.733 217.652 136.55C217.65 137.643 217.216 138.691 216.443 139.465C215.671 140.239 214.623 140.675 213.53 140.678ZM213.53 133.628C212.95 133.627 212.383 133.798 211.901 134.119C211.419 134.44 211.042 134.897 210.82 135.433C210.598 135.968 210.539 136.557 210.652 137.126C210.765 137.694 211.044 138.217 211.454 138.626C211.863 139.036 212.386 139.315 212.954 139.428C213.523 139.541 214.112 139.482 214.647 139.26C215.183 139.038 215.64 138.661 215.961 138.179C216.282 137.697 216.453 137.13 216.452 136.55C216.45 135.776 216.142 135.033 215.594 134.486C215.047 133.938 214.304 133.63 213.53 133.628Z" fill="#7049A3"/>
<path opacity="0.3" d="M245.84 145.4H192.842C192.431 145.4 192.036 145.237 191.745 144.947C191.454 144.657 191.29 144.263 191.288 143.852C191.288 143.44 191.452 143.045 191.743 142.753C192.035 142.462 192.43 142.298 192.842 142.298H245.84C246.044 142.298 246.246 142.338 246.434 142.416C246.622 142.495 246.793 142.609 246.937 142.753C247.081 142.898 247.194 143.069 247.272 143.258C247.349 143.446 247.389 143.648 247.388 143.852C247.388 144.263 247.225 144.656 246.935 144.947C246.644 145.237 246.251 145.4 245.84 145.4Z" fill="black"/>
<path d="M222.266 145.4H216.416V192.2H222.266V145.4Z" fill="#263238"/>
<path d="M228.182 145.4H239.342V146.516C239.342 146.857 239.207 147.183 238.966 147.424C238.725 147.665 238.398 147.8 238.058 147.8H229.466C229.125 147.8 228.799 147.665 228.558 147.424C228.317 147.183 228.182 146.857 228.182 146.516V145.4Z" fill="#263238"/>
<path d="M223.712 180.602H214.97V227.402H223.712V180.602Z" fill="#263238"/>
<path d="M225.182 209.444H213.5V256.244H225.182V209.444Z" fill="#263238"/>
<path d="M231.974 256.244H206.708C206.708 255.552 206.983 254.888 207.472 254.398C207.962 253.909 208.626 253.634 209.318 253.634H229.364C230.056 253.634 230.72 253.909 231.21 254.398C231.699 254.888 231.974 255.552 231.974 256.244Z" fill="#263238"/>
<path d="M84.584 145.4H78.734V192.2H84.584V145.4Z" fill="#263238"/>
<path d="M86.03 180.602H77.288V227.402H86.03V180.602Z" fill="#263238"/>
<path d="M87.5 209.444H75.818V256.244H87.5V209.444Z" fill="#263238"/>
<path d="M94.292 256.244H69.026C69.026 255.552 69.301 254.888 69.7905 254.398C70.2799 253.909 70.9438 253.634 71.636 253.634H91.7C92.3922 253.634 93.0561 253.909 93.5455 254.398C94.035 254.888 94.31 255.552 94.31 256.244H94.292Z" fill="#263238"/>
<path d="M154.262 140.432H82.394C82.1468 140.434 81.9102 140.533 81.736 140.708C81.5618 140.884 81.464 141.121 81.464 141.368C81.4656 141.614 81.564 141.85 81.7381 142.024C81.9122 142.198 82.1478 142.296 82.394 142.298H154.262C154.509 142.298 154.746 142.2 154.922 142.026C155.097 141.852 155.196 141.615 155.198 141.368C155.198 141.12 155.099 140.882 154.924 140.706C154.748 140.531 154.51 140.432 154.262 140.432Z" fill="#7049A3"/>
<path opacity="0.3" d="M154.262 140.432H82.394C82.1468 140.434 81.9102 140.533 81.736 140.708C81.5618 140.884 81.464 141.121 81.464 141.368C81.4656 141.614 81.564 141.85 81.7381 142.024C81.9122 142.198 82.1478 142.296 82.394 142.298H154.262C154.509 142.298 154.746 142.2 154.922 142.026C155.097 141.852 155.196 141.615 155.198 141.368C155.198 141.12 155.099 140.882 154.924 140.706C154.748 140.531 154.51 140.432 154.262 140.432Z" fill="black"/>
<path d="M129.17 106.922H78.17C77.8344 106.914 77.5012 106.981 77.1946 107.117C76.888 107.254 76.6156 107.457 76.3974 107.713C76.1791 107.968 76.0203 108.268 75.9325 108.592C75.8448 108.916 75.8302 109.256 75.89 109.586L80.09 138.704C80.2128 139.431 80.5833 140.094 81.1388 140.58C81.6944 141.065 82.4006 141.344 83.138 141.368H134.138C134.474 141.376 134.807 141.309 135.113 141.173C135.42 141.036 135.692 140.832 135.911 140.577C136.129 140.322 136.288 140.022 136.375 139.698C136.463 139.374 136.478 139.034 136.418 138.704L132.218 109.586C132.095 108.858 131.725 108.196 131.169 107.71C130.614 107.225 129.907 106.946 129.17 106.922Z" fill="#7049A3"/>
<path opacity="0.2" d="M113.348 110.942C113.586 110.536 113.712 110.075 113.714 109.605C113.717 109.135 113.595 108.672 113.361 108.264C113.127 107.856 112.79 107.517 112.383 107.282C111.976 107.046 111.514 106.922 111.044 106.922H78.17C77.8344 106.914 77.5012 106.981 77.1946 107.117C76.888 107.254 76.6156 107.457 76.3974 107.713C76.1791 107.968 76.0203 108.268 75.9325 108.592C75.8448 108.916 75.8302 109.256 75.89 109.586L80.09 138.704C80.2128 139.431 80.5833 140.094 81.1388 140.58C81.6944 141.065 82.4006 141.344 83.138 141.368H92.618C93.5101 141.367 94.3865 141.133 95.1602 140.689C95.9338 140.245 96.5778 139.606 97.028 138.836L113.348 110.942Z" fill="white"/>
</svg>
