<svg width="200" height="200" viewBox="0 0 301 300" fill="none" xmlns="http://www.w3.org/2000/svg">
<path d="M133.322 117.372C123.266 121.656 101.366 110.058 90.764 107.418C64.01 100.758 32.894 111.996 35.564 149.418C39.164 200.568 114.692 256.782 193.634 229.872C233.51 216.276 266.162 178.272 266.084 132.672C265.916 49.86 187.382 47.052 162.704 67.8C139.592 87.276 146.57 111.726 133.322 117.372Z" fill="#E76D3B"/>
<path opacity="0.9" d="M133.322 117.372C123.266 121.656 101.366 110.058 90.764 107.418C64.01 100.758 32.894 111.996 35.564 149.418C39.164 200.568 114.692 256.782 193.634 229.872C233.51 216.276 266.162 178.272 266.084 132.672C265.916 49.86 187.382 47.052 162.704 67.8C139.592 87.276 146.57 111.726 133.322 117.372Z" fill="white"/>
<path d="M147.608 254.226C211.858 254.226 263.942 251.185 263.942 247.434C263.942 243.683 211.858 240.642 147.608 240.642C83.3585 240.642 31.274 243.683 31.274 247.434C31.274 251.185 83.3585 254.226 147.608 254.226Z" fill="#F5F5F5"/>
<path d="M208.526 243.858C208.526 243.792 208.526 243.732 208.478 243.666C208.43 243.6 208.424 243.468 208.394 243.372L208.292 243.09L208.184 242.844L197.588 219.396L195.728 215.274L194.264 212.04H161.744L162.302 215.274L163.016 219.396L166.736 240.882C166.736 240.96 166.736 241.032 166.766 241.11C166.772 241.184 166.772 241.258 166.766 241.332V241.386C166.766 241.458 166.766 241.53 166.766 241.608L166.7 241.8C166.686 241.882 166.666 241.962 166.64 242.04C166.627 242.096 166.609 242.15 166.586 242.202V242.25V242.292C166.558 242.356 166.526 242.418 166.49 242.478C166.456 242.549 166.416 242.618 166.37 242.682L166.334 242.736L166.22 242.88C166.169 242.945 166.115 243.007 166.058 243.066C165.959 243.17 165.85 243.264 165.734 243.348C165.642 243.417 165.543 243.477 165.44 243.528C165.374 243.57 165.304 243.605 165.23 243.63C165.156 243.663 165.08 243.691 165.002 243.714H164.972C164.903 243.736 164.833 243.754 164.762 243.768C164.586 243.805 164.407 243.823 164.228 243.822H149.93C149.794 243.821 149.658 243.841 149.528 243.882C149.441 243.912 149.357 243.948 149.276 243.99C149.082 244.096 148.916 244.246 148.79 244.428C148.741 244.502 148.699 244.58 148.664 244.662C148.591 244.833 148.555 245.017 148.556 245.202V246.738C148.555 246.924 148.591 247.107 148.664 247.278C148.699 247.36 148.741 247.438 148.79 247.512C148.916 247.694 149.082 247.844 149.276 247.95C149.357 247.992 149.441 248.028 149.528 248.058C149.658 248.099 149.794 248.119 149.93 248.118H207.176C207.474 248.119 207.765 248.029 208.01 247.86C208.092 247.808 208.166 247.745 208.232 247.674C208.301 247.606 208.363 247.532 208.418 247.452C208.47 247.375 208.514 247.292 208.55 247.206C208.627 247.015 208.666 246.812 208.664 246.606V245.01C208.659 244.622 208.613 244.236 208.526 243.858Z" fill="#263238"/>
<path opacity="0.2" d="M148.556 245.286V246.828C148.555 247.009 148.59 247.189 148.659 247.357C148.729 247.525 148.83 247.677 148.958 247.806C149.087 247.934 149.239 248.036 149.407 248.105C149.575 248.174 149.755 248.209 149.936 248.208H207.176C207.572 248.206 207.952 248.049 208.233 247.769C208.514 247.489 208.673 247.11 208.676 246.714V245.112C208.676 244.69 208.628 244.269 208.532 243.858C208.45 243.5 208.333 243.15 208.184 242.814L194.258 212.016H161.744L166.736 240.858C166.768 241.026 166.782 241.197 166.778 241.368C166.764 242.05 166.482 242.699 165.994 243.174C165.506 243.65 164.85 243.915 164.168 243.912H149.936C149.755 243.911 149.576 243.946 149.408 244.015C149.241 244.084 149.089 244.185 148.961 244.312C148.832 244.44 148.731 244.592 148.661 244.759C148.592 244.926 148.556 245.105 148.556 245.286Z" fill="white"/>
<path d="M210.02 242.82L196.1 212.016H194.258L208.178 242.82C208.504 243.54 208.674 244.321 208.676 245.112V246.708C208.676 247.106 208.518 247.487 208.237 247.769C207.955 248.05 207.574 248.208 207.176 248.208H209.018C209.215 248.208 209.41 248.169 209.591 248.094C209.773 248.018 209.938 247.908 210.077 247.768C210.215 247.629 210.325 247.464 210.4 247.282C210.475 247.1 210.513 246.905 210.512 246.708V245.112C210.512 244.322 210.345 243.541 210.02 242.82Z" fill="#263238"/>
<path opacity="0.3" d="M194.258 212.016H161.744L163.022 219.378H197.582L194.258 212.016Z" fill="black"/>
<path d="M258.35 109.938L250.55 199.338L249.602 210.174C249.463 211.548 248.825 212.824 247.809 213.759C246.793 214.694 245.469 215.225 244.088 215.25H105.344C104.695 215.261 104.05 215.133 103.454 214.876C102.857 214.618 102.323 214.236 101.885 213.756C101.448 213.276 101.117 212.708 100.916 212.091C100.715 211.473 100.647 210.82 100.718 210.174L101.666 199.338L109.466 109.938C109.605 108.565 110.244 107.29 111.26 106.356C112.276 105.421 113.6 104.892 114.98 104.868H253.7C254.791 104.856 255.852 105.225 256.7 105.912C256.815 106.004 256.923 106.104 257.024 106.212C257.339 106.523 257.605 106.882 257.81 107.274C257.956 107.536 258.07 107.814 258.152 108.102C258.334 108.696 258.402 109.319 258.35 109.938Z" fill="#263238"/>
<path d="M101.672 199.338L100.7 210.174C100.63 210.82 100.699 211.474 100.9 212.091C101.102 212.709 101.433 213.277 101.871 213.757C102.309 214.237 102.844 214.618 103.441 214.875C104.038 215.133 104.682 215.261 105.332 215.25H244.064C245.445 215.225 246.769 214.694 247.785 213.759C248.801 212.823 249.439 211.548 249.578 210.174L250.526 199.338H101.672Z" fill="#E76D3B"/>
<path opacity="0.6" d="M101.672 199.338L100.7 210.174C100.63 210.82 100.699 211.474 100.9 212.091C101.102 212.709 101.433 213.277 101.871 213.757C102.309 214.237 102.844 214.618 103.441 214.875C104.038 215.133 104.682 215.261 105.332 215.25H244.064C245.445 215.225 246.769 214.694 247.785 213.759C248.801 212.823 249.439 211.548 249.578 210.174L250.526 199.338H101.672Z" fill="white"/>
<path d="M245.636 196.272H107.102C106.75 196.278 106.401 196.21 106.077 196.071C105.754 195.931 105.464 195.725 105.227 195.465C104.99 195.205 104.81 194.897 104.701 194.563C104.592 194.228 104.556 193.874 104.594 193.524L111.842 110.682C111.917 109.935 112.264 109.241 112.817 108.734C113.371 108.226 114.091 107.939 114.842 107.928H253.364C253.717 107.922 254.066 107.99 254.39 108.13C254.714 108.269 255.004 108.476 255.242 108.737C255.479 108.998 255.658 109.306 255.767 109.642C255.875 109.977 255.911 110.332 255.872 110.682L248.624 193.524C248.548 194.268 248.202 194.959 247.651 195.465C247.101 195.971 246.384 196.258 245.636 196.272Z" fill="#E76D3B"/>
<path d="M256.79 104.868H253.7C254.349 104.856 254.993 104.983 255.59 105.24C256.186 105.497 256.721 105.878 257.159 106.358C257.596 106.837 257.927 107.405 258.128 108.022C258.329 108.639 258.397 109.293 258.326 109.938L249.578 210.174C249.439 211.548 248.801 212.823 247.785 213.759C246.769 214.694 245.445 215.225 244.064 215.25H247.13C248.511 215.225 249.836 214.695 250.853 213.759C251.87 212.824 252.509 211.549 252.65 210.174L261.416 109.938C261.488 109.292 261.421 108.639 261.22 108.021C261.019 107.403 260.689 106.835 260.251 106.356C259.813 105.876 259.278 105.495 258.681 105.238C258.084 104.982 257.439 104.856 256.79 104.868Z" fill="#263238"/>
<g opacity="0.2">
<path d="M256.79 104.868H253.7C254.349 104.856 254.993 104.983 255.59 105.24C256.186 105.497 256.721 105.878 257.159 106.358C257.596 106.837 257.927 107.405 258.128 108.022C258.329 108.639 258.397 109.293 258.326 109.938L249.578 210.174C249.439 211.548 248.801 212.823 247.785 213.759C246.769 214.694 245.445 215.225 244.064 215.25H247.13C248.511 215.225 249.836 214.695 250.853 213.759C251.87 212.824 252.509 211.549 252.65 210.174L261.416 109.938C261.488 109.292 261.421 108.639 261.22 108.021C261.019 107.403 260.689 106.835 260.251 106.356C259.813 105.876 259.278 105.495 258.681 105.238C258.084 104.982 257.439 104.856 256.79 104.868Z" fill="white"/>
</g>
<g opacity="0.1">
<path d="M158.972 107.928H153.644L134.87 196.272H140.198L158.972 107.928Z" fill="white"/>
<path d="M129.482 196.272L148.262 107.928H128.24L109.46 196.272H129.482Z" fill="white"/>
</g>
<path opacity="0.2" d="M198.782 245.298V246.762C198.782 247.144 198.63 247.511 198.361 247.782C198.091 248.053 197.724 248.206 197.342 248.208H149.942C149.576 248.208 149.225 248.063 148.966 247.804C148.707 247.545 148.562 247.194 148.562 246.828V245.292C148.562 244.926 148.707 244.575 148.966 244.316C149.225 244.057 149.576 243.912 149.942 243.912H164.18C164.359 243.912 164.538 243.894 164.714 243.858H197.348C197.729 243.86 198.094 244.012 198.362 244.282C198.631 244.552 198.782 244.917 198.782 245.298Z" fill="white"/>
<path opacity="0.2" d="M208.532 243.858H164.732C165.307 243.737 165.824 243.425 166.2 242.973C166.576 242.521 166.788 241.956 166.802 241.368H207.434L208.532 243.858Z" fill="black"/>
<path opacity="0.3" d="M249.962 122.514H183.29V199.326H249.962V122.514Z" fill="black"/>
<path d="M246.446 114.408H179.9V195.966H246.446V114.408Z" fill="white"/>
<path d="M246.446 114.408H179.9V119.232H246.446V114.408Z" fill="#263238"/>
<path opacity="0.1" d="M246.446 119.232H198.35V195.966H246.446V119.232Z" fill="black"/>
<path opacity="0.1" d="M214.232 121.068H200.72V136.692H214.232V121.068Z" fill="black"/>
<path opacity="0.1" d="M244.826 121.068H216.8V127.5H244.826V121.068Z" fill="black"/>
<path opacity="0.1" d="M244.826 130.26H216.8V164.952H244.826V130.26Z" fill="black"/>
<path opacity="0.1" d="M244.826 167.706H216.8V193.668H244.826V167.706Z" fill="black"/>
<path d="M216.806 142.662H198.2V148.638H216.806V142.662Z" fill="#E76D3B"/>
<path d="M198.506 130.26H179.9V136.236H198.506V130.26Z" fill="#E76D3B"/>
<path d="M244.826 173.394H216.8V176.496H244.826V173.394Z" fill="black"/>
<path d="M219.62 123.672L220.202 122.49L220.784 123.672L222.086 123.858L221.144 124.782L221.366 126.078L220.202 125.466L219.038 126.078L219.26 124.782L218.312 123.864L219.62 123.672Z" fill="#E76D3B"/>
<path d="M224.924 123.672L225.506 122.49L226.094 123.672L227.396 123.858L226.454 124.782L226.676 126.078L225.512 125.466L224.342 126.078L224.564 124.782L223.622 123.864L224.924 123.672Z" fill="#E76D3B"/>
<path d="M230.234 123.672L230.816 122.49L231.398 123.672L232.7 123.858L231.758 124.782L231.986 126.078L230.816 125.466L229.652 126.078L229.874 124.782L228.932 123.864L230.234 123.672Z" fill="#E76D3B"/>
<path d="M235.538 123.672L236.12 122.49L236.708 123.672L238.01 123.858L237.068 124.782L237.29 126.078L236.126 125.466L234.962 126.078L235.178 124.782L234.236 123.864L235.538 123.672Z" fill="black"/>
<path d="M240.848 123.672L241.43 122.49L242.012 123.672L243.314 123.858L242.378 124.782L242.6 126.078L241.43 125.466L240.266 126.078L240.488 124.782L239.546 123.864L240.848 123.672Z" fill="black"/>
<path d="M229.82 133.32H218.798V133.92H229.82V133.32Z" fill="#263238"/>
<path d="M227.498 138.486H218.798V139.086H227.498V138.486Z" fill="#263238"/>
<path d="M227.498 143.004H218.798V143.604H227.498V143.004Z" fill="#263238"/>
<path d="M227.498 147.516H218.798V148.116H227.498V147.516Z" fill="#263238"/>
<path d="M227.498 152.028H218.798V152.628H227.498V152.028Z" fill="#263238"/>
<path d="M227.498 156.546H218.798V157.146H227.498V156.546Z" fill="#263238"/>
<path d="M227.498 161.058H218.798V161.658H227.498V161.058Z" fill="#263238"/>
<path d="M237.398 138.486H228.698V139.086H237.398V138.486Z" fill="#263238"/>
<path d="M237.398 143.004H228.698V143.604H237.398V143.004Z" fill="#263238"/>
<path d="M237.398 147.516H228.698V148.116H237.398V147.516Z" fill="#263238"/>
<path d="M237.398 152.028H228.698V152.628H237.398V152.028Z" fill="#263238"/>
<path d="M237.398 156.546H228.698V157.146H237.398V156.546Z" fill="#263238"/>
<path d="M237.398 161.058H228.698V161.658H237.398V161.058Z" fill="#263238"/>
<path d="M237.398 135.042H218.798V135.642H237.398V135.042Z" fill="#263238"/>
<path d="M237.398 170.676H218.798V171.276H237.398V170.676Z" fill="#263238"/>
<path d="M214.232 138.486H200.72V139.086H214.232V138.486Z" fill="#263238"/>
<path d="M214.232 151.632H200.72V152.232H214.232V151.632Z" fill="#263238"/>
<path d="M214.232 156.66H200.72V157.26H214.232V156.66Z" fill="#263238"/>
<path d="M214.232 161.682H200.72V162.282H214.232V161.682Z" fill="#263238"/>
<path d="M214.232 166.71H200.72V167.31H214.232V166.71Z" fill="#263238"/>
<path d="M214.232 171.738H200.72V172.338H214.232V171.738Z" fill="#263238"/>
<path d="M214.232 176.76H200.72V177.36H214.232V176.76Z" fill="#263238"/>
<path d="M214.232 181.788H200.72V182.388H214.232V181.788Z" fill="#263238"/>
<path d="M214.232 186.81H200.72V187.41H214.232V186.81Z" fill="#263238"/>
<path d="M207.476 140.424H200.72V141.024H207.476V140.424Z" fill="#263238"/>
<path d="M196.184 122.19H182.228V122.79H196.184V122.19Z" fill="#263238"/>
<path d="M196.184 126.066H182.228V126.666H196.184V126.066Z" fill="#263238"/>
<path d="M196.184 140.424H182.228V141.024H196.184V140.424Z" fill="#263238"/>
<path d="M200.744 136.614V134.712C204.973 133.2 209.588 133.152 213.848 134.574L214.256 134.712V136.614H200.744Z" fill="white"/>
<path d="M206.828 136.098C207.896 135.976 208.873 135.437 209.546 134.598C209.641 134.459 209.686 134.291 209.673 134.123C209.66 133.955 209.59 133.797 209.474 133.674C208.514 132.54 208.34 130.014 208.352 128.526L207.272 129.912L205.802 131.802C205.904 132.036 206 132.27 206.078 132.51C206.137 132.682 206.179 132.858 206.204 133.038C206.265 133.367 206.225 133.706 206.089 134.012C205.953 134.317 205.727 134.574 205.442 134.748C205.332 134.821 205.244 134.923 205.188 135.042C205.132 135.162 205.109 135.295 205.124 135.426C205.138 135.557 205.188 135.682 205.269 135.787C205.349 135.892 205.457 135.972 205.58 136.02C205.983 136.148 206.412 136.174 206.828 136.098Z" fill="#F7978D"/>
<path opacity="0.2" d="M205.802 131.802C205.904 132.036 206 132.27 206.078 132.51C206.137 132.681 206.179 132.858 206.204 133.038C206.569 132.862 206.883 132.594 207.114 132.261C207.346 131.927 207.487 131.54 207.524 131.136C207.506 130.902 207.464 130.671 207.398 130.446L205.802 131.802Z" fill="black"/>
<path d="M204.446 128.322C204.375 128.447 204.272 128.55 204.147 128.622C204.023 128.694 203.882 128.732 203.738 128.732C203.594 128.732 203.453 128.694 203.329 128.622C203.205 128.55 203.101 128.447 203.03 128.322C203.54 127.254 203.156 127.152 203.126 126.354C203.074 125.892 203.149 125.425 203.342 125.002C203.536 124.579 203.84 124.217 204.224 123.954H205.046C208.004 124.566 204.446 128.322 204.446 128.322Z" fill="#263238"/>
<path d="M209.204 125.766C209.113 125.394 208.949 125.044 208.722 124.735C208.495 124.427 208.21 124.166 207.883 123.967C207.555 123.769 207.191 123.637 206.813 123.579C206.434 123.521 206.048 123.539 205.676 123.63C203.378 124.134 202.418 127.29 202.49 129.312C202.502 129.895 202.688 130.461 203.024 130.938C203.243 131.246 203.521 131.508 203.841 131.708C204.162 131.909 204.519 132.044 204.892 132.107C205.265 132.169 205.646 132.158 206.014 132.072C206.383 131.987 206.731 131.83 207.038 131.61C208.37 130.686 208.598 129.408 209.174 127.266C209.313 126.777 209.323 126.26 209.204 125.766Z" fill="#F7978D"/>
<path d="M203.498 129.492C204.236 129.344 204.989 129.277 205.742 129.294C205.679 129.599 205.507 129.87 205.259 130.058C205.011 130.245 204.702 130.337 204.392 130.314C204.176 130.329 203.963 130.259 203.798 130.119C203.633 129.979 203.53 129.779 203.51 129.564C203.51 129.564 203.504 129.516 203.498 129.492Z" fill="#263238"/>
<path d="M204.758 129.87C204.43 129.855 204.107 129.957 203.846 130.158C204.005 130.265 204.195 130.318 204.386 130.308C204.713 130.326 205.035 130.223 205.292 130.02C205.135 129.913 204.948 129.86 204.758 129.87Z" fill="#FF5652"/>
<path d="M203.576 129.474C203.593 129.539 203.628 129.598 203.677 129.645C203.726 129.691 203.786 129.724 203.852 129.738C204.342 129.727 204.83 129.671 205.31 129.57C205.389 129.558 205.462 129.525 205.525 129.476C205.587 129.427 205.635 129.362 205.664 129.288C204.964 129.29 204.265 129.352 203.576 129.474Z" fill="white"/>
<path d="M208.412 130.104C208.412 130.104 207.458 127.944 207.536 127.242C207.556 126.824 207.7 126.421 207.95 126.085C208.2 125.749 208.545 125.496 208.94 125.358L209.744 125.526C213.242 126.972 208.412 130.104 208.412 130.104Z" fill="#263238"/>
<path d="M204.032 128.838C203.884 128.85 203.735 128.83 203.597 128.778C203.458 128.726 203.332 128.644 203.228 128.538C203.67 128.146 204.058 127.696 204.38 127.2L204.032 128.838Z" fill="#FF5652"/>
<path d="M209.156 127.8C208.604 127.716 208.016 128.4 207.776 128.892C207.536 129.384 207.692 129.972 208.274 129.84C208.737 129.714 209.142 129.432 209.42 129.042C209.774 128.538 209.702 127.878 209.156 127.8Z" fill="#F7978D"/>
<path d="M205.652 127.152C205.532 127.152 205.406 127.278 205.376 127.44C205.346 127.602 205.412 127.758 205.526 127.776C205.64 127.794 205.748 127.668 205.796 127.494C205.844 127.32 205.766 127.2 205.652 127.152Z" fill="#263238"/>
<path d="M203.678 126.714C203.564 126.714 203.438 126.816 203.402 126.996C203.366 127.176 203.432 127.332 203.546 127.35C203.66 127.368 203.786 127.242 203.822 127.062C203.858 126.882 203.792 126.732 203.678 126.714Z" fill="#263238"/>
<path d="M204.116 126.03C204.101 126.037 204.085 126.041 204.068 126.041C204.051 126.041 204.035 126.037 204.02 126.03C203.892 125.987 203.755 125.974 203.621 125.991C203.487 126.009 203.359 126.057 203.246 126.132C203.227 126.151 203.201 126.162 203.174 126.162C203.147 126.162 203.121 126.151 203.102 126.132C203.085 126.111 203.076 126.084 203.076 126.057C203.076 126.03 203.085 126.003 203.102 125.982C203.242 125.886 203.401 125.824 203.569 125.8C203.736 125.776 203.907 125.791 204.068 125.844C204.094 125.853 204.115 125.872 204.127 125.897C204.139 125.921 204.142 125.95 204.134 125.976C204.132 125.995 204.126 126.013 204.116 126.03Z" fill="#263238"/>
<path d="M206.264 126.894C206.228 126.893 206.194 126.878 206.168 126.852C206.094 126.74 205.996 126.646 205.881 126.577C205.765 126.509 205.636 126.467 205.502 126.456C205.488 126.457 205.474 126.455 205.461 126.45C205.448 126.445 205.436 126.438 205.426 126.428C205.416 126.419 205.408 126.407 205.402 126.394C205.397 126.382 205.394 126.368 205.394 126.354C205.395 126.327 205.407 126.302 205.426 126.283C205.444 126.265 205.469 126.253 205.496 126.252C205.664 126.262 205.828 126.31 205.975 126.393C206.122 126.476 206.247 126.592 206.342 126.732C206.36 126.753 206.37 126.779 206.37 126.807C206.37 126.835 206.36 126.861 206.342 126.882C206.331 126.889 206.318 126.894 206.304 126.896C206.291 126.898 206.277 126.898 206.264 126.894Z" fill="#263238"/>
<path d="M203.654 125.1C203.546 124.71 203.511 124.303 203.552 123.9C203.614 123.699 203.717 123.513 203.856 123.355C203.994 123.197 204.165 123.07 204.356 122.982C204.959 122.786 205.608 122.786 206.21 122.982C206.356 123.004 206.496 123.053 206.624 123.126C206.69 123.162 206.745 123.215 206.783 123.279C206.821 123.344 206.84 123.417 206.84 123.492C206.83 123.567 206.8 123.637 206.754 123.696C206.708 123.755 206.646 123.801 206.576 123.828C206.438 123.894 205.376 124.146 204.896 124.32C204.425 124.475 203.999 124.743 203.654 125.1Z" fill="#263238"/>
<path d="M210.416 123.936C210.803 124.299 211.073 124.77 211.188 125.288C211.304 125.806 211.26 126.347 211.064 126.84C210.896 127.187 210.71 127.526 210.506 127.854L209.018 126.834C208.34 126.472 207.812 125.881 207.53 125.166C207.377 124.79 207.097 124.479 206.738 124.288C206.38 124.098 205.966 124.039 205.568 124.122C205.364 124.164 205.082 124.206 204.968 124.014C204.854 123.822 205.178 123.414 205.406 123.24C206.3 122.448 207.95 122.022 210.416 123.936Z" fill="#263238"/>
<path opacity="0.2" d="M207.5 125.064C206.948 124.104 206.246 124.014 205.316 124.158C205.323 124.043 205.353 123.93 205.405 123.827C205.456 123.724 205.528 123.632 205.616 123.558C206.348 122.958 207.344 124.368 207.5 125.064Z" fill="black"/>
<path d="M204.908 124.002C204.836 124.08 204.785 124.175 204.758 124.278C204.688 124.545 204.673 124.824 204.715 125.098C204.756 125.371 204.852 125.633 204.998 125.868C204.759 125.603 204.588 125.284 204.5 124.938C204.427 124.725 204.388 124.503 204.386 124.278C204.39 124.053 204.481 123.839 204.638 123.678C204.716 123.602 204.814 123.551 204.92 123.53C205.027 123.508 205.137 123.518 205.238 123.558C205.358 123.618 205.562 123.846 205.418 123.954C205.274 124.062 205.1 123.81 204.908 124.002Z" fill="#263238"/>
<path opacity="0.3" d="M203.576 106.056V166.926H136.91V90.114H200.072V106.056H203.576Z" fill="black"/>
<path d="M200.072 82.002H133.526V163.56H200.072V82.002Z" fill="white"/>
<path d="M200.066 82.002H133.52V86.826H200.066V82.002Z" fill="#263238"/>
<path opacity="0.1" d="M200.072 86.8259H151.976V163.56H200.072V86.8259Z" fill="black"/>
<path opacity="0.1" d="M167.846 88.662H154.34V104.286H167.846V88.662Z" fill="black"/>
<path opacity="0.1" d="M198.452 88.662H170.426V95.094H198.452V88.662Z" fill="black"/>
<path opacity="0.1" d="M198.452 97.854H170.426V132.546H198.452V97.854Z" fill="black"/>
<path opacity="0.1" d="M198.452 135.3H170.426V161.262H198.452V135.3Z" fill="black"/>
<path d="M170.426 110.262H151.82V116.238H170.426V110.262Z" fill="#E76D3B"/>
<path d="M152.126 97.854H133.52V103.83H152.126V97.854Z" fill="#E76D3B"/>
<path d="M198.452 140.988H170.426V144.09H198.452V140.988Z" fill="black"/>
<path d="M173.24 91.266L173.822 90.084L174.404 91.266L175.706 91.458L174.764 92.376L174.992 93.672L173.822 93.06L172.658 93.678L172.88 92.376L171.938 91.458L173.24 91.266Z" fill="#E76D3B"/>
<path d="M178.55 91.266L179.126 90.084L179.714 91.266L181.016 91.458L180.074 92.376L180.296 93.672L179.132 93.06L177.968 93.678L178.19 92.376L177.242 91.458L178.55 91.266Z" fill="#E76D3B"/>
<path d="M183.854 91.266L184.436 90.084L185.018 91.266L186.326 91.458L185.384 92.376L185.606 93.672L184.436 93.06L183.272 93.678L183.494 92.376L182.552 91.458L183.854 91.266Z" fill="#E76D3B"/>
<path d="M189.164 91.266L189.746 90.084L190.328 91.266L191.63 91.458L190.688 92.376L190.916 93.672L189.746 93.06L188.582 93.678L188.804 92.376L187.856 91.458L189.164 91.266Z" fill="black"/>
<path d="M194.468 91.266L195.05 90.084L195.638 91.266L196.94 91.458L195.998 92.376L196.22 93.672L195.056 93.06L193.886 93.678L194.108 92.376L193.166 91.458L194.468 91.266Z" fill="black"/>
<path d="M183.44 100.914H172.418V101.514H183.44V100.914Z" fill="#263238"/>
<path d="M181.118 106.086H172.418V106.686H181.118V106.086Z" fill="#263238"/>
<path d="M181.118 110.598H172.418V111.198H181.118V110.598Z" fill="#263238"/>
<path d="M181.118 115.11H172.418V115.71H181.118V115.11Z" fill="#263238"/>
<path d="M181.118 119.628H172.418V120.228H181.118V119.628Z" fill="#263238"/>
<path d="M181.118 124.14H172.418V124.74H181.118V124.14Z" fill="#263238"/>
<path d="M181.118 128.658H172.418V129.258H181.118V128.658Z" fill="#263238"/>
<path d="M191.018 106.086H182.318V106.686H191.018V106.086Z" fill="#263238"/>
<path d="M191.018 110.598H182.318V111.198H191.018V110.598Z" fill="#263238"/>
<path d="M191.018 115.11H182.318V115.71H191.018V115.11Z" fill="#263238"/>
<path d="M191.018 119.628H182.318V120.228H191.018V119.628Z" fill="#263238"/>
<path d="M191.018 124.14H182.318V124.74H191.018V124.14Z" fill="#263238"/>
<path d="M191.018 128.658H182.318V129.258H191.018V128.658Z" fill="#263238"/>
<path d="M191.018 102.636H172.418V103.236H191.018V102.636Z" fill="#263238"/>
<path d="M191.018 138.276H172.418V138.876H191.018V138.276Z" fill="#263238"/>
<path d="M167.852 106.086H154.34V106.686H167.852V106.086Z" fill="#263238"/>
<path d="M167.852 119.226H154.34V119.826H167.852V119.226Z" fill="#263238"/>
<path d="M167.852 124.254H154.34V124.854H167.852V124.254Z" fill="#263238"/>
<path d="M167.852 129.282H154.34V129.882H167.852V129.282Z" fill="#263238"/>
<path d="M167.852 134.304H154.34V134.904H167.852V134.304Z" fill="#263238"/>
<path d="M167.852 139.332H154.34V139.932H167.852V139.332Z" fill="#263238"/>
<path d="M167.852 144.36H154.34V144.96H167.852V144.36Z" fill="#263238"/>
<path d="M167.852 149.382H154.34V149.982H167.852V149.382Z" fill="#263238"/>
<path d="M167.852 154.41H154.34V155.01H167.852V154.41Z" fill="#263238"/>
<path d="M161.096 108.024H154.34V108.624H161.096V108.024Z" fill="#263238"/>
<path d="M149.804 89.7839H135.848V90.3839H149.804V89.7839Z" fill="#263238"/>
<path d="M149.804 93.666H135.848V94.266H149.804V93.666Z" fill="#263238"/>
<path d="M149.804 108.024H135.848V108.624H149.804V108.024Z" fill="#263238"/>
<path d="M154.376 104.232V102.33C158.603 100.818 163.216 100.769 167.474 102.192L167.882 102.33V104.232H154.376Z" fill="#263238"/>
<path d="M163.178 97.392L161.756 98.52L159.83 100.056C159.94 100.28 160.009 100.522 160.034 100.77C160.096 101.038 160.059 101.319 159.93 101.561C159.801 101.804 159.588 101.991 159.332 102.09C159.068 102.156 158.732 103.398 160.322 103.566C160.778 103.644 161.245 103.628 161.694 103.517C162.143 103.407 162.565 103.205 162.932 102.924C163.298 102.588 163.412 102.39 163.196 101.904C162.56 100.536 162.818 98.772 163.178 97.392Z" fill="#DD8C6A"/>
<path opacity="0.2" d="M160.298 99.678L161.546 98.538C161.543 98.5839 161.543 98.63 161.546 98.676C161.562 98.8757 161.562 99.0763 161.546 99.276C161.447 99.6514 161.258 99.9971 160.995 100.283C160.733 100.57 160.405 100.788 160.04 100.92V100.776C160.01 100.545 159.949 100.319 159.86 100.104V100.068L160.298 99.678Z" fill="black"/>
<path d="M159.314 96.3839C158.636 94.3499 159.008 93.3119 158.228 92.1839C157.76 91.8839 156.746 92.6699 157.082 94.3319C157.418 95.9939 159.314 96.3839 159.314 96.3839Z" fill="#263238"/>
<path d="M163.532 94.896C163.31 97.104 163.268 98.4 162.104 99.462C160.346 101.064 157.664 99.876 157.238 97.662C156.848 95.64 157.304 92.376 159.512 91.662C160.287 91.4059 161.132 91.4681 161.861 91.8349C162.59 92.2018 163.144 92.8431 163.4 93.618C163.535 94.0297 163.58 94.4655 163.532 94.896Z" fill="#DD8C6A"/>
<path d="M163.49 96.876L162.53 96.93L162.344 95.46L161.456 94.752L161.204 92.454C161.204 92.454 163.232 92.454 164.012 92.454C164.288 92.454 165.116 93.336 165.212 93.654C165.326 94.1138 165.309 94.5961 165.165 95.0473C165.021 95.4986 164.755 95.901 164.396 96.21C164.118 96.4629 163.814 96.6861 163.49 96.876Z" fill="#263238"/>
<path d="M163.52 93.3659C162.956 93.6599 162.254 93.3359 161.648 93.1679C161.045 92.9796 160.432 92.8234 159.812 92.6999C159.269 92.5878 158.704 92.6774 158.222 92.9519C157.989 93.0954 157.816 93.3188 157.735 93.5805C157.655 93.8421 157.672 94.1241 157.784 94.3739C157.445 94.1969 157.155 93.9397 156.938 93.6247C156.721 93.3098 156.585 92.9467 156.54 92.5669C156.496 92.1872 156.545 91.8024 156.683 91.446C156.822 91.0895 157.045 90.7723 157.334 90.5219C157.888 90.0781 158.574 89.833 159.284 89.8259C159.988 89.8222 160.69 89.8967 161.378 90.0479C162.296 90.2099 163.616 90.1979 164.462 90.5879C165.308 90.9779 165.23 92.4719 163.52 93.3659Z" fill="#263238"/>
<path d="M164.366 96.636C164.228 97.1125 163.921 97.5222 163.502 97.788C162.956 98.124 162.482 97.554 162.53 96.93C162.578 96.306 163.004 95.61 163.598 95.532C164.192 95.454 164.528 96.042 164.366 96.636Z" fill="#DD8C6A"/>
<path d="M160.028 95.586C160.028 95.772 159.932 95.922 159.812 95.928C159.692 95.934 159.602 95.79 159.59 95.604C159.578 95.418 159.692 95.262 159.812 95.262C159.932 95.262 160.028 95.4 160.028 95.586Z" fill="#263238"/>
<path d="M157.94 95.6519C157.94 95.8379 157.844 95.9939 157.724 95.9939C157.604 95.9939 157.502 95.8499 157.502 95.6699C157.502 95.4899 157.604 95.3339 157.724 95.3279C157.844 95.3219 157.94 95.4659 157.94 95.6519Z" fill="#263238"/>
<path d="M158.612 95.766C158.456 96.2654 158.234 96.7416 157.952 97.182C158.065 97.2486 158.192 97.289 158.323 97.3005C158.453 97.3119 158.585 97.294 158.708 97.248L158.612 95.766Z" fill="#FF5652"/>
<path d="M158.9 98.3279C159.114 98.3282 159.326 98.2852 159.523 98.2017C159.72 98.1182 159.898 97.9959 160.046 97.8419C160.056 97.8308 160.06 97.8163 160.059 97.8017C160.058 97.7871 160.051 97.7735 160.04 97.7639C160.029 97.7544 160.014 97.7496 160 97.7508C159.985 97.7519 159.972 97.7588 159.962 97.7699C159.799 97.9352 159.6 98.0612 159.38 98.1381C159.161 98.215 158.927 98.241 158.696 98.2139C158.689 98.2122 158.682 98.2119 158.674 98.213C158.667 98.2142 158.66 98.2168 158.654 98.2208C158.648 98.2247 158.643 98.2299 158.638 98.2359C158.634 98.2419 158.631 98.2487 158.63 98.2559C158.628 98.271 158.632 98.2861 158.641 98.2983C158.65 98.3106 158.663 98.319 158.678 98.3219C158.752 98.3302 158.826 98.3323 158.9 98.3279Z" fill="#263238"/>
<path d="M160.436 94.92C160.454 94.9246 160.472 94.9246 160.49 94.92C160.5 94.9104 160.509 94.8988 160.514 94.8859C160.52 94.873 160.523 94.8591 160.523 94.845C160.523 94.8309 160.52 94.8169 160.514 94.804C160.509 94.7911 160.5 94.7795 160.49 94.77C160.387 94.6346 160.252 94.527 160.097 94.4568C159.942 94.3866 159.772 94.3561 159.602 94.368C159.573 94.371 159.546 94.3852 159.527 94.4075C159.508 94.4299 159.498 94.4587 159.5 94.488C159.502 94.5022 159.506 94.516 159.513 94.5285C159.52 94.5411 159.529 94.5521 159.54 94.5611C159.551 94.57 159.564 94.5766 159.578 94.5805C159.591 94.5845 159.606 94.5857 159.62 94.584C159.753 94.5781 159.885 94.6038 160.006 94.6591C160.127 94.7144 160.234 94.7977 160.316 94.902C160.331 94.9174 160.351 94.9275 160.373 94.9308C160.395 94.934 160.417 94.9302 160.436 94.92Z" fill="#263238"/>
<path d="M157.928 94.452C157.933 94.4344 157.933 94.4156 157.928 94.398C157.927 94.3838 157.922 94.37 157.915 94.3575C157.909 94.3449 157.899 94.3339 157.888 94.3249C157.877 94.316 157.864 94.3094 157.85 94.3054C157.837 94.3015 157.822 94.3003 157.808 94.302C157.638 94.3103 157.473 94.3607 157.327 94.4487C157.182 94.5367 157.06 94.6594 156.974 94.806C156.967 94.8185 156.962 94.8324 156.96 94.8469C156.958 94.8613 156.959 94.8759 156.963 94.89C156.967 94.904 156.974 94.917 156.983 94.9284C156.992 94.9397 157.003 94.9491 157.016 94.956C157.042 94.9688 157.073 94.971 157.101 94.9621C157.129 94.9531 157.152 94.9338 157.166 94.908C157.235 94.7932 157.331 94.6974 157.447 94.6293C157.562 94.5612 157.692 94.5229 157.826 94.518C157.848 94.5185 157.869 94.5125 157.887 94.5007C157.905 94.4889 157.92 94.472 157.928 94.452Z" fill="#263238"/>
<path opacity="0.3" d="M175.628 122.694H108.956V199.506H175.628V122.694Z" fill="black"/>
<path d="M172.112 114.582H105.566V196.14H172.112V114.582Z" fill="white"/>
<path d="M172.112 114.582H105.566V119.406H172.112V114.582Z" fill="#263238"/>
<path opacity="0.1" d="M172.118 119.412H124.022V196.146H172.118V119.412Z" fill="black"/>
<path opacity="0.1" d="M139.892 121.248H126.386V136.872H139.892V121.248Z" fill="black"/>
<path opacity="0.1" d="M170.498 121.248H142.472V127.68H170.498V121.248Z" fill="black"/>
<path opacity="0.1" d="M170.498 130.434H142.472V165.126H170.498V130.434Z" fill="black"/>
<path opacity="0.1" d="M170.498 167.886H142.472V193.848H170.498V167.886Z" fill="black"/>
<path d="M142.472 142.842H123.866V148.818H142.472V142.842Z" fill="#E76D3B"/>
<path d="M124.172 130.434H105.566V136.41H124.172V130.434Z" fill="#E76D3B"/>
<path d="M170.498 173.568H142.472V176.67H170.498V173.568Z" fill="black"/>
<path d="M145.286 123.852L145.868 122.67L146.45 123.852L147.758 124.038L146.81 124.956L147.038 126.258L145.868 125.646L144.704 126.258L144.926 124.962L143.984 124.044L145.286 123.852Z" fill="#E76D3B"/>
<path d="M150.596 123.852L151.178 122.67L151.76 123.852L153.062 124.038L152.12 124.956L152.342 126.258L151.178 125.646L150.014 126.258L150.236 124.962L149.288 124.044L150.596 123.852Z" fill="#E76D3B"/>
<path d="M155.9 123.852L156.482 122.67L157.064 123.852L158.372 124.038L157.43 124.956L157.652 126.258L156.488 125.646L155.318 126.258L155.54 124.962L154.598 124.044L155.9 123.852Z" fill="#E76D3B"/>
<path d="M161.21 123.852L161.792 122.67L162.374 123.852L163.676 124.038L162.734 124.956L162.956 126.258L161.792 125.646L160.628 126.258L160.85 124.962L159.908 124.044L161.21 123.852Z" fill="#E76D3B"/>
<path d="M166.514 123.852L167.096 122.67L167.684 123.852L168.986 124.038L168.044 124.956L168.266 126.258L167.102 125.646L165.938 126.258L166.154 124.962L165.212 124.044L166.514 123.852Z" fill="black"/>
<path d="M155.486 133.5H144.464V134.1H155.486V133.5Z" fill="#263238"/>
<path d="M153.164 138.666H144.464V139.266H153.164V138.666Z" fill="#263238"/>
<path d="M153.164 143.184H144.464V143.784H153.164V143.184Z" fill="#263238"/>
<path d="M153.164 147.696H144.464V148.296H153.164V147.696Z" fill="#263238"/>
<path d="M153.164 152.208H144.464V152.808H153.164V152.208Z" fill="#263238"/>
<path d="M153.164 156.726H144.464V157.326H153.164V156.726Z" fill="#263238"/>
<path d="M153.164 161.238H144.464V161.838H153.164V161.238Z" fill="#263238"/>
<path d="M163.07 138.666H154.37V139.266H163.07V138.666Z" fill="#263238"/>
<path d="M163.07 143.184H154.37V143.784H163.07V143.184Z" fill="#263238"/>
<path d="M163.07 147.696H154.37V148.296H163.07V147.696Z" fill="#263238"/>
<path d="M163.07 152.208H154.37V152.808H163.07V152.208Z" fill="#263238"/>
<path d="M163.07 156.726H154.37V157.326H163.07V156.726Z" fill="#263238"/>
<path d="M163.07 161.238H154.37V161.838H163.07V161.238Z" fill="#263238"/>
<path d="M163.064 135.222H144.464V135.822H163.064V135.222Z" fill="#263238"/>
<path d="M163.064 170.856H144.464V171.456H163.064V170.856Z" fill="#263238"/>
<path d="M139.898 138.666H126.386V139.266H139.898V138.666Z" fill="#263238"/>
<path d="M139.898 151.812H126.386V152.412H139.898V151.812Z" fill="#263238"/>
<path d="M139.898 156.84H126.386V157.44H139.898V156.84Z" fill="#263238"/>
<path d="M139.898 161.862H126.386V162.462H139.898V161.862Z" fill="#263238"/>
<path d="M139.898 166.89H126.386V167.49H139.898V166.89Z" fill="#263238"/>
<path d="M139.898 171.912H126.386V172.512H139.898V171.912Z" fill="#263238"/>
<path d="M139.898 176.94H126.386V177.54H139.898V176.94Z" fill="#263238"/>
<path d="M139.898 181.968H126.386V182.568H139.898V181.968Z" fill="#263238"/>
<path d="M139.898 186.99H126.386V187.59H139.898V186.99Z" fill="#263238"/>
<path d="M133.142 140.604H126.386V141.204H133.142V140.604Z" fill="#263238"/>
<path d="M121.85 122.37H107.894V122.97H121.85V122.37Z" fill="#263238"/>
<path d="M121.85 126.246H107.894V126.846H121.85V126.246Z" fill="#263238"/>
<path d="M121.85 140.604H107.894V141.204H121.85V140.604Z" fill="#263238"/>
<path d="M126.386 136.872V134.964C130.616 133.458 135.229 133.41 139.49 134.826L139.898 134.964V136.872H126.386Z" fill="#E76D3B"/>
<path d="M131.96 123.216C131.53 123.096 131.077 123.077 130.639 123.163C130.2 123.248 129.788 123.435 129.434 123.708C128.726 124.258 128.18 124.99 127.856 125.826C127.732 126.041 127.667 126.286 127.667 126.534C127.667 126.782 127.732 127.027 127.856 127.242C128.174 127.644 128.786 127.62 129.302 127.56C130.1 126.048 131.048 124.668 131.96 123.216Z" fill="#263238"/>
<path d="M131.486 132.336C131.87 133.26 132.086 134.292 130.886 135.12C130.639 135.291 130.457 135.54 130.37 135.828C130.244 136.296 130.406 136.824 132.14 136.284C134.648 135.504 134.816 133.986 134.816 133.986C133.748 133.356 133.616 130.758 133.712 129.306L131.486 132.336Z" fill="#FFB573"/>
<path opacity="0.2" d="M133.1 131.358C133.1 131.994 132.272 132.792 131.708 133.05C131.654 132.803 131.575 132.562 131.474 132.33L132.806 130.53C132.962 130.782 133.062 131.064 133.1 131.358Z" fill="black"/>
<path d="M135.104 125.814C134.985 125.419 134.789 125.051 134.527 124.732C134.265 124.413 133.943 124.149 133.579 123.954C133.215 123.76 132.817 123.639 132.406 123.599C131.995 123.559 131.581 123.6 131.186 123.72C128.84 124.416 128.186 127.8 128.456 129.918C128.762 132.288 131.504 133.236 133.43 131.616C134.72 130.536 134.828 129.558 135.194 127.266C135.276 126.781 135.245 126.285 135.104 125.814Z" fill="#FFB573"/>
<path d="M129.86 129.21C129.738 129.228 129.613 129.219 129.494 129.185C129.375 129.151 129.265 129.092 129.17 129.012C129.503 128.653 129.784 128.249 130.004 127.812L129.86 129.21Z" fill="#ED893E"/>
<path d="M131.624 129.54C131.633 129.529 131.638 129.515 131.638 129.501C131.638 129.487 131.633 129.473 131.624 129.462C131.619 129.457 131.613 129.453 131.606 129.45C131.599 129.447 131.592 129.445 131.585 129.445C131.578 129.445 131.57 129.447 131.564 129.45C131.557 129.453 131.551 129.457 131.546 129.462C131.387 129.634 131.189 129.766 130.969 129.846C130.749 129.926 130.513 129.953 130.28 129.924C130.265 129.925 130.252 129.931 130.241 129.941C130.23 129.951 130.223 129.964 130.22 129.978C130.22 129.992 130.224 130.006 130.233 130.017C130.242 130.028 130.254 130.035 130.268 130.038C130.358 130.044 130.448 130.044 130.538 130.038C130.951 130.02 131.341 129.841 131.624 129.54Z" fill="#263238"/>
<path d="M129.83 123.996C130.251 123.967 130.672 124.066 131.036 124.28C131.4 124.494 131.691 124.814 131.87 125.196C132.014 125.57 132.118 125.958 132.182 126.354C132.246 126.753 132.419 127.126 132.68 127.434C132.815 127.583 132.993 127.685 133.189 127.726C133.385 127.767 133.589 127.744 133.772 127.662C133.881 128.015 134.081 128.332 134.353 128.581C134.626 128.83 134.959 129.001 135.32 129.078C134.804 129.828 134.162 130.614 133.646 131.364C133.832 131.964 133.85 132.06 134.036 132.642C134.679 132.436 135.275 132.106 135.79 131.669C136.305 131.233 136.728 130.699 137.036 130.098C137.636 128.898 137.768 127.392 136.628 127.356C137.03 126.546 136.292 124.848 135.686 124.176C135.123 123.671 134.452 123.3 133.724 123.092C132.997 122.884 132.231 122.845 131.486 122.976C130.832 123.112 130.246 123.473 129.83 123.996Z" fill="#263238"/>
<path d="M135.74 128.886C135.76 128.687 135.701 128.487 135.575 128.331C135.449 128.175 135.267 128.075 135.068 128.052C134.468 128.004 134.054 128.694 133.934 129.192C133.814 129.69 134.114 130.236 134.678 130.044C135.101 129.897 135.448 129.588 135.644 129.186C135.697 129.094 135.73 128.992 135.74 128.886Z" fill="#FFB573"/>
<path d="M132.074 126.678C132.092 126.682 132.11 126.682 132.128 126.678C132.148 126.656 132.159 126.627 132.159 126.597C132.159 126.567 132.148 126.538 132.128 126.516C131.997 126.348 131.827 126.215 131.632 126.128C131.438 126.041 131.225 126.003 131.012 126.018C130.997 126.019 130.983 126.024 130.97 126.031C130.957 126.038 130.946 126.048 130.937 126.06C130.928 126.072 130.921 126.085 130.918 126.1C130.914 126.114 130.913 126.129 130.916 126.144C130.918 126.158 130.922 126.172 130.929 126.185C130.936 126.197 130.945 126.208 130.956 126.217C130.967 126.226 130.98 126.233 130.994 126.237C131.007 126.24 131.022 126.242 131.036 126.24C131.211 126.233 131.386 126.268 131.545 126.341C131.704 126.414 131.844 126.523 131.954 126.66C131.97 126.674 131.99 126.683 132.011 126.686C132.033 126.689 132.054 126.687 132.074 126.678Z" fill="#263238"/>
<path d="M128.6 126.798C128.619 126.793 128.635 126.783 128.648 126.768C128.755 126.629 128.894 126.518 129.052 126.443C129.211 126.368 129.385 126.331 129.56 126.336C129.575 126.338 129.59 126.336 129.605 126.332C129.619 126.328 129.633 126.321 129.644 126.311C129.656 126.302 129.666 126.29 129.673 126.277C129.68 126.264 129.685 126.249 129.686 126.234C129.686 126.203 129.676 126.174 129.656 126.151C129.636 126.128 129.608 126.112 129.578 126.108C129.365 126.1 129.154 126.143 128.961 126.232C128.768 126.322 128.599 126.456 128.468 126.624C128.448 126.642 128.436 126.666 128.433 126.693C128.43 126.719 128.437 126.746 128.453 126.768C128.468 126.789 128.491 126.804 128.518 126.81C128.544 126.816 128.571 126.811 128.594 126.798H128.6Z" fill="#263238"/>
<path d="M131.522 127.248C131.522 127.452 131.396 127.62 131.258 127.614C131.12 127.608 131.018 127.434 131.03 127.224C131.042 127.014 131.156 126.858 131.288 126.858C131.42 126.858 131.528 127.038 131.522 127.248Z" fill="#263238"/>
<path d="M129.434 127.422C129.434 127.62 129.314 127.776 129.182 127.77C129.05 127.764 128.96 127.602 128.966 127.398C128.972 127.194 129.086 127.044 129.218 127.05C129.35 127.056 129.446 127.2 129.434 127.422Z" fill="#263238"/>
<path d="M129.272 127.062L128.804 126.906C128.804 126.906 129.032 127.29 129.272 127.062Z" fill="#263238"/>
<path d="M131.348 126.876L130.856 126.708C130.856 126.708 131.096 127.11 131.348 126.876Z" fill="#263238"/>
<path d="M54.884 150C50.24 150 50.24 146.022 50.24 146.022L89.69 103.614L89.894 102.696L92.156 104.802C92.1387 104.834 92.1187 104.864 92.096 104.892C91.97 105.126 57.5 150 54.884 150Z" fill="#263238"/>
<g opacity="0.5">
<path opacity="0.4" d="M114.278 93.924C109.1 101.928 100.43 108.072 94.9759 105.222C95.0037 105.196 95.0243 105.163 95.0359 105.126L92.0359 103.494C90.0259 101.694 88.8919 99.048 88.6039 95.94C88.1479 91.14 89.6659 85.332 92.9779 79.95C98.8159 70.458 108.332 66.24 112.724 68.862C113.442 69.2907 114.135 69.7594 114.8 70.266H114.83C115.411 70.648 115.963 71.0732 116.48 71.538C116.725 71.7781 116.946 72.0414 117.14 72.324C118.258 73.955 118.895 75.8681 118.976 77.844C119.384 82.5 117.842 88.434 114.278 93.924Z" fill="white"/>
</g>
<path opacity="0.2" d="M118.982 77.73L92.0419 103.35C90.0319 101.55 88.8979 98.904 88.6039 95.796V95.748L117.128 72.21C118.25 73.8404 118.892 75.7528 118.982 77.73Z" fill="white"/>
<path d="M116.33 94.74C122.876 84.168 122.06 71.778 114.476 67.086C106.892 62.394 95.4499 67.182 88.8979 77.748C82.5199 88.056 83.1259 100.062 90.1519 105.018C90.3439 105.168 90.5419 105.288 90.7519 105.42C91.5716 105.929 92.4526 106.333 93.3739 106.62C100.772 108.996 110.492 104.166 116.33 94.74ZM94.3699 104.628C93.95 104.512 93.5467 104.343 93.1699 104.124C93.1109 104.1 93.0546 104.07 93.0019 104.034L92.7499 103.872L92.6779 103.824C92.3172 103.595 91.9778 103.334 91.6639 103.044C87.0079 98.808 87.4639 88.644 92.9779 79.806C98.8519 70.332 108.464 66.138 112.514 68.532C113.173 68.9249 113.81 69.3536 114.422 69.816C114.735 70.0328 115.025 70.2822 115.286 70.56C118.886 74.322 117.776 83.574 112.376 92.292C106.976 101.01 99.3499 106.08 94.3699 104.628Z" fill="#263238"/>
<g opacity="0.4">
<path opacity="0.4" d="M114.26 93.768C109.076 101.79 100.412 107.934 94.958 105.072C94.9857 105.046 95.0064 105.013 95.018 104.976L94.376 104.622C99.344 106.08 107.048 100.95 112.412 92.304C117.776 83.658 118.94 74.352 115.316 70.584C115.197 70.4545 115.071 70.3323 114.938 70.218C115.484 70.5778 116.001 70.979 116.486 71.418C116.73 71.6529 116.949 71.9123 117.14 72.192C118.252 73.8248 118.891 75.7329 118.988 77.706C119.354 82.35 117.818 88.296 114.26 93.768Z" fill="black"/>
</g>
<path d="M39.1999 187.596C39.4339 189.168 40.9999 190.14 42.4819 190.752C45.1319 191.85 47.9509 192.486 50.8159 192.63C52.9868 184.93 54.5003 177.06 55.3399 169.104C48.2659 173.496 37.9699 179.364 39.1999 187.596Z" fill="#263238"/>
<path opacity="0.2" d="M39.1999 187.596C39.4339 189.168 40.9999 190.14 42.4819 190.752C45.1319 191.85 47.9509 192.486 50.8159 192.63C52.9868 184.93 54.5003 177.06 55.3399 169.104C48.2659 173.496 37.9699 179.364 39.1999 187.596Z" fill="black"/>
<path d="M75.02 92.592C75.242 92.556 75.482 92.7959 75.548 93.1379C75.614 93.4799 75.488 93.8039 75.26 93.8399C75.032 93.8759 74.798 93.6419 74.732 93.2939C74.666 92.9459 74.792 92.634 75.02 92.592Z" fill="#263238"/>
<path d="M75.626 97.152C75.9187 97.1737 76.2126 97.1313 76.4873 97.0277C76.7619 96.9241 77.0106 96.7617 77.216 96.552C76.3639 95.7765 75.6193 94.8907 75.002 93.918L75.626 97.152Z" fill="#B74D3C"/>
<path d="M73.25 91.5899C73.4146 91.3862 73.6261 91.2252 73.8664 91.1207C74.1067 91.0162 74.3686 90.9714 74.63 90.9899H74.702C74.7566 90.99 74.8092 90.9687 74.8484 90.9306C74.8876 90.8925 74.9104 90.8406 74.912 90.7859C74.9128 90.7584 74.9081 90.7309 74.8983 90.7051C74.8885 90.6793 74.8737 90.6557 74.8547 90.6357C74.8358 90.6156 74.8131 90.5995 74.7879 90.5882C74.7627 90.5769 74.7356 90.5707 74.708 90.5699C74.384 90.5333 74.056 90.5747 73.7512 90.6905C73.4465 90.8064 73.1738 90.9934 72.956 91.2359C72.9387 91.2533 72.9251 91.2739 72.9158 91.2966C72.9066 91.3192 72.9018 91.3435 72.902 91.3679C72.9004 91.3952 72.9042 91.4226 72.9134 91.4483C72.9225 91.4741 72.9368 91.4977 72.9552 91.5179C72.9737 91.538 72.996 91.5543 73.0209 91.5656C73.0458 91.577 73.0726 91.5832 73.1 91.5839C73.1476 91.6038 73.2009 91.6059 73.25 91.5899Z" fill="#263238"/>
<path d="M70.538 112.47C64.628 112.41 63.788 109.176 63.788 109.176C65.588 107.496 65.738 104.34 65.42 101.52C65.8808 102.197 66.4649 102.781 67.142 103.242C67.7594 103.68 68.462 103.983 69.2041 104.132C69.9463 104.281 70.7114 104.272 71.45 104.106C71.4757 104.111 71.5022 104.111 71.528 104.106C71.5103 104.161 71.4982 104.217 71.492 104.274C71.09 106.524 71.354 108.936 73.706 109.674C73.7 109.668 77.048 112.536 70.538 112.47Z" fill="#CB7A63"/>
<path d="M71.7079 103.254C71.6317 103.526 71.5716 103.803 71.5279 104.082C71.5022 104.087 71.4757 104.087 71.4499 104.082C70.7114 104.248 69.9462 104.257 69.2041 104.108C68.4619 103.959 67.7593 103.656 67.1419 103.218C66.4649 102.757 65.8807 102.173 65.4199 101.496C65.3419 100.782 65.2279 100.086 65.1079 99.444L71.4679 103.092L71.7079 103.254Z" fill="#CB7A63"/>
<path d="M61.9819 109.68C61.9819 109.68 62.9719 106.818 64.3819 105.936C65.7919 105.054 71.9779 106.128 72.9379 106.536C73.8979 106.944 74.8339 109.188 74.8339 109.188L61.9819 109.68Z" fill="#263238"/>
<path opacity="0.5" d="M61.9819 109.68C61.9819 109.68 62.9719 106.818 64.3819 105.936C65.7919 105.054 71.9779 106.128 72.9379 106.536C73.8979 106.944 74.8339 109.188 74.8339 109.188L61.9819 109.68Z" fill="white"/>
<path d="M76.04 98.52C76.001 99.5342 75.7053 100.522 75.1806 101.391C74.6559 102.26 73.9194 102.981 73.04 103.488H73.004C72.5514 103.765 72.0571 103.968 71.54 104.088C71.5142 104.093 71.4877 104.093 71.462 104.088C70.7235 104.254 69.9583 104.263 69.2161 104.114C68.474 103.965 67.7714 103.662 67.154 103.224C66.477 102.763 65.8928 102.179 65.432 101.502C64.304 99.894 63.866 97.764 63.098 94.764C62.8386 93.794 62.8309 92.7738 63.0756 91.8C63.3203 90.8261 63.8094 89.9308 64.4965 89.1986C65.1836 88.4664 66.0461 87.9216 67.0025 87.6156C67.9589 87.3096 68.9774 87.2526 69.962 87.45C74.426 88.362 76.214 94.53 76.04 98.52Z" fill="#CB7A63"/>
<path opacity="0.2" d="M72.992 103.494C72.5394 103.771 72.0451 103.974 71.528 104.094L71.744 101.466C71.744 101.466 72.68 103.494 72.992 103.494Z" fill="black"/>
<path d="M61.982 93.216C61.382 94.416 60.038 95.778 59.468 96.972C59.0997 97.5752 58.9239 98.2763 58.964 98.982C59.0176 99.3487 59.2129 99.6798 59.5079 99.9042C59.803 100.129 60.1742 100.228 60.542 100.182C59.942 101.034 60.386 102.438 61.304 103.02C61.778 103.303 62.3354 103.414 62.8819 103.335C63.4284 103.255 63.9307 102.989 64.304 102.582C64.904 103.23 65.354 103.71 66.266 103.722C66.712 103.726 67.1543 103.641 67.5666 103.471C67.9789 103.301 68.3528 103.05 68.666 102.732C69.0784 103.172 69.6158 103.475 70.2058 103.601C70.7958 103.726 71.4101 103.668 71.966 103.434C72.4922 103.184 72.9166 102.761 73.1679 102.236C73.4192 101.71 73.482 101.114 73.346 100.548C73.0191 99.5578 72.8669 98.5183 72.896 97.476C72.896 97.476 74.186 95.58 73.658 94.434L73.094 90.834C72.0877 90.0707 70.8457 89.6843 69.584 89.742C68.3261 89.8017 67.088 90.0778 65.924 90.558C64.298 91.2 62.684 91.74 61.982 93.216Z" fill="#263238"/>
<path d="M71.7919 93C73.0219 93.39 73.6339 95.238 73.6639 96.402C73.6999 97.686 72.8239 98.478 71.7199 97.602C70.8912 96.9206 70.3077 95.9873 70.0579 94.944C69.7819 93.696 70.5559 92.634 71.7919 93Z" fill="#CB7A63"/>
<path d="M60.1279 244.98C59.5279 244.95 58.9639 244.836 58.8019 244.56C58.7574 244.486 58.738 244.4 58.7466 244.315C58.7553 244.229 58.7915 244.149 58.8499 244.086C58.8918 244.023 58.9466 243.969 59.0107 243.929C59.0748 243.889 59.1468 243.862 59.2219 243.852C60.0079 243.684 61.5379 244.686 61.6219 244.728C61.6395 244.741 61.653 244.758 61.6604 244.779C61.6679 244.799 61.6691 244.821 61.6639 244.842C61.6598 244.865 61.6481 244.886 61.6306 244.901C61.6132 244.916 61.5911 244.925 61.5679 244.926C61.0904 244.986 60.6086 245.004 60.1279 244.98ZM59.4799 244.05C59.4102 244.041 59.3396 244.041 59.2699 244.05C59.2229 244.056 59.1778 244.072 59.1375 244.097C59.0972 244.122 59.0626 244.155 59.0359 244.194C58.9519 244.326 58.9699 244.386 59.0359 244.434C59.2219 244.74 60.3919 244.806 61.2619 244.74C60.7274 244.396 60.1298 244.161 59.5039 244.05H59.4799Z" fill="#E76D3B"/>
<path d="M61.538 244.914H61.49C60.956 244.632 59.948 243.594 60.086 243.066C60.086 242.94 60.218 242.796 60.524 242.778C60.6334 242.772 60.7429 242.788 60.8459 242.825C60.949 242.862 61.0436 242.92 61.124 242.994C61.694 243.516 61.67 244.758 61.67 244.794C61.6673 244.813 61.6606 244.832 61.6503 244.848C61.6399 244.865 61.6262 244.879 61.61 244.89C61.5899 244.907 61.5642 244.916 61.538 244.914ZM60.584 243H60.5C60.302 243 60.278 243.09 60.272 243.114C60.194 243.426 60.872 244.242 61.406 244.62C61.4022 244.098 61.2343 243.59 60.926 243.168C60.8792 243.115 60.8222 243.071 60.7583 243.04C60.6944 243.009 60.6249 242.991 60.554 242.988L60.584 243Z" fill="#E76D3B"/>
<path d="M67.178 234.456L62.582 234.21L62.012 244.83L66.632 245.076L67.178 234.456Z" fill="#CB7A63"/>
<path d="M60.9379 244.596C57.6199 246.348 56.6479 246.396 52.9399 246.996C52.1299 247.128 52.4599 249.072 54.3619 249.174C57.5119 249.348 57.8539 249.216 60.5359 249.36C62.8339 249.486 65.4679 249.732 67.2919 249.858C67.3475 249.867 67.4042 249.867 67.4599 249.858C67.6422 249.833 67.8072 249.737 67.9194 249.591C68.0317 249.445 68.0821 249.261 68.0599 249.078L67.5379 244.932C67.5244 244.843 67.4807 244.761 67.4141 244.699C67.3476 244.638 67.2621 244.602 67.1719 244.596L62.1139 244.326C61.7047 244.309 61.2985 244.402 60.9379 244.596Z" fill="#263238"/>
<path opacity="0.2" d="M67.1839 234.462L66.8419 240.876L62.2279 240.63L62.5819 234.216L67.1839 234.462Z" fill="black"/>
<path d="M73.574 141.852C73.574 141.852 73.184 172.494 72.146 186.936C71.174 200.388 68.168 239.598 68.168 239.598L60.368 239.172C60.368 239.172 58.73 198.888 58.568 185.172C58.424 172.176 57.788 141.264 57.788 141.264L73.574 141.852Z" fill="#E76D3B"/>
<path d="M73.574 141.852C73.574 141.852 73.184 172.494 72.146 186.936C71.174 200.388 68.168 239.598 68.168 239.598L60.368 239.172C60.368 239.172 58.73 198.888 58.568 185.172C58.424 172.176 57.788 141.264 57.788 141.264L73.574 141.852Z" fill="#263238"/>
<path opacity="0.6" d="M73.574 141.852C73.574 141.852 73.184 172.494 72.146 186.936C71.174 200.388 68.168 239.598 68.168 239.598L60.368 239.172C60.368 239.172 58.73 198.888 58.568 185.172C58.424 172.176 57.788 141.264 57.788 141.264L73.574 141.852Z" fill="white"/>
<path d="M69.5779 236.928L69.0499 239.772L59.5519 239.262C59.5519 239.262 59.3959 236.028 59.4319 236.028L69.5779 236.928Z" fill="#263238"/>
<g opacity="0.5">
<path d="M69.5779 236.928L69.0499 239.772L59.5519 239.262C59.5519 239.262 59.3959 236.028 59.4319 236.028L69.5779 236.928Z" fill="white"/>
</g>
<path d="M107.654 244.122C107.6 243.522 107.624 242.952 107.87 242.73C107.935 242.673 108.016 242.637 108.101 242.627C108.187 242.617 108.274 242.635 108.35 242.676C108.416 242.708 108.475 242.752 108.523 242.806C108.572 242.861 108.609 242.925 108.632 242.994C108.914 243.726 108.158 245.448 108.122 245.532C108.114 245.554 108.099 245.572 108.079 245.584C108.06 245.596 108.037 245.601 108.014 245.598C107.992 245.596 107.971 245.588 107.954 245.574C107.937 245.56 107.924 245.541 107.918 245.52C107.791 245.062 107.703 244.595 107.654 244.122ZM108.482 243.288C108.488 243.218 108.488 243.148 108.482 243.078C108.47 243.034 108.448 242.993 108.418 242.959C108.388 242.925 108.35 242.898 108.308 242.88C108.164 242.82 108.098 242.88 108.068 242.91C107.792 243.156 107.894 244.314 108.098 245.154C108.347 244.563 108.483 243.93 108.5 243.288H108.482Z" fill="#E76D3B"/>
<path d="M107.9 245.49C107.897 245.476 107.897 245.462 107.9 245.448C108.098 244.848 108.986 243.648 109.514 243.648C109.64 243.648 109.802 243.726 109.856 244.014C109.879 244.123 109.88 244.236 109.858 244.345C109.837 244.454 109.793 244.558 109.73 244.65C109.31 245.316 108.074 245.562 108.026 245.574C108.007 245.577 107.988 245.576 107.97 245.57C107.952 245.563 107.936 245.552 107.924 245.538C107.91 245.525 107.902 245.508 107.9 245.49ZM109.646 244.158V244.086C109.646 243.894 109.526 243.888 109.502 243.894C109.184 243.894 108.476 244.716 108.188 245.322C108.708 245.208 109.183 244.94 109.55 244.554C109.633 244.437 109.676 244.296 109.67 244.152L109.646 244.158Z" fill="#E76D3B"/>
<path d="M104.528 235.11L100.094 235.92L103.52 246.33L107.99 245.514L104.528 235.11Z" fill="#CB7A63"/>
<path d="M109.016 244.8C110.36 246.102 111.068 246.768 114.692 247.488C115.49 247.644 114.962 249.582 113.06 249.624C109.916 249.696 111.638 249.51 108.956 249.57C106.664 249.618 104.03 249.786 102.206 249.858C102.144 249.867 102.082 249.867 102.02 249.858C101.934 249.84 101.853 249.804 101.78 249.754C101.708 249.704 101.647 249.639 101.6 249.565C101.553 249.491 101.521 249.408 101.507 249.321C101.493 249.234 101.496 249.146 101.516 249.06L102.44 244.92C102.459 244.829 102.509 244.747 102.581 244.688C102.653 244.629 102.743 244.597 102.836 244.596L107.876 244.482C108.078 244.456 108.282 244.471 108.478 244.525C108.674 244.58 108.857 244.673 109.016 244.8Z" fill="#263238"/>
<path opacity="0.2" d="M104.534 235.116L106.31 240.462L101.858 241.278L100.094 235.92L104.534 235.116Z" fill="black"/>
<path opacity="0.3" d="M73.4419 162C72.8419 172.38 72.3199 184.8 71.8939 191.706C71.8939 192.042 71.8459 192.384 71.8339 192.756C69.9139 181.8 67.0339 163.956 72.3439 162.114C72.7011 162.016 73.0721 161.977 73.4419 162Z" fill="black"/>
<path d="M59.8999 143.274C59.8999 143.274 60.9319 153.948 62.5939 158.634C64.9459 165.264 67.8799 167.4 70.1359 171.366C74.1139 178.356 76.3279 184.362 79.0099 189.924C87.4099 207.324 99.0379 237.966 99.0379 237.966L107.438 237.366L77.6839 142.764L59.8999 143.274Z" fill="#263238"/>
<path opacity="0.6" d="M59.8999 143.274C59.8999 143.274 60.9319 153.948 62.5939 158.634C64.9459 165.264 67.8799 167.4 70.1359 171.366C74.1139 178.356 76.3279 184.362 79.0099 189.924C87.4099 207.324 99.0379 237.966 99.0379 237.966L107.438 237.366L77.6839 142.764L59.8999 143.274Z" fill="white"/>
<path d="M108.926 235.584L109.028 238.47L99.2659 239.928C99.2659 239.928 98.3839 236.808 98.4199 236.808L108.926 235.584Z" fill="#263238"/>
<g opacity="0.5">
<path d="M108.926 235.584L109.028 238.47L99.2659 239.928C99.2659 239.928 98.3839 236.808 98.4199 236.808L108.926 235.584Z" fill="white"/>
</g>
<path d="M62.432 135.342C62.024 136.362 61.064 138.396 59.594 139.596C59.4291 139.732 59.231 139.821 59.0201 139.855C58.8091 139.889 58.593 139.866 58.394 139.788C58.394 139.788 55.808 138.192 55.604 137.472C55.5952 137.428 55.5952 137.384 55.604 137.34L56.246 134.34L56.324 134.31C56.792 134.154 59.324 133.38 60.392 133.812L62.066 134.484C62.152 134.508 62.2314 134.552 62.2985 134.611C62.3656 134.67 62.4186 134.743 62.4537 134.826C62.4887 134.908 62.505 134.997 62.5012 135.086C62.4975 135.176 62.4738 135.263 62.432 135.342Z" fill="#CB7A63"/>
<path d="M58.2139 116.88L49.4359 125.43L56.3419 134.334L56.2639 134.364L55.6219 137.364C55.6132 137.408 55.6132 137.452 55.6219 137.496C55.1868 137.657 54.7171 137.7 54.2599 137.622C54.2599 137.622 41.1619 126.984 41.8999 125.148C42.6028 123.695 43.4047 122.291 44.2999 120.948L44.3899 120.81C45.5479 118.89 52.8319 107.988 58.3099 108.048C62.6419 108.084 62.4079 113.07 58.2139 116.88Z" fill="#E76D3B"/>
<path opacity="0.5" d="M58.2139 116.88L49.4359 125.43L56.3419 134.334L56.2639 134.364L55.6219 137.364C55.6132 137.408 55.6132 137.452 55.6219 137.496C55.1868 137.657 54.7171 137.7 54.2599 137.622C54.2599 137.622 40.9999 128.52 41.8999 125.148C42.1519 124.182 43.3039 122.484 44.2999 120.948L44.3899 120.81C45.5479 118.89 52.8319 107.988 58.3099 108.048C62.6419 108.084 62.4079 113.07 58.2139 116.88Z" fill="black"/>
<path d="M55.6279 137.472C55.6192 137.428 55.6192 137.384 55.6279 137.34L56.2699 134.34L56.3479 134.31L56.5639 134.4C56.5639 134.4 57.2599 136.848 55.6279 137.472Z" fill="#263238"/>
<path d="M98.9839 188.076C85.4959 191.358 86.8279 180.276 68.2879 187.476C62.8279 189.6 59.6539 184.116 56.7019 183.216C50.8159 181.416 44.2699 181.968 39.0859 185.286C42.8246 170.141 48.8627 155.659 56.9899 142.344C57.4159 139.212 58.6639 132.588 55.2739 114.06C54.6739 110.658 58.1779 107.742 61.6279 107.562L63.8059 107.4C67.0992 107.245 70.3986 107.279 73.6879 107.502C74.7859 107.61 75.8539 107.778 76.8019 107.958C78.033 108.188 79.1649 108.787 80.0478 109.676C80.9307 110.564 81.5229 111.7 81.7459 112.932C82.3323 116.264 82.5337 119.652 82.3459 123.03C82.2139 126.552 81.8059 131.154 80.9659 137.514C80.7559 139.11 80.5159 140.82 80.2459 142.656C80.2459 142.656 89.0899 163.89 98.9839 188.076Z" fill="#E76D3B"/>
<path opacity="0.5" d="M98.9839 188.076C85.4959 191.358 86.8279 180.276 68.2879 187.476C62.8279 189.6 59.6539 184.116 56.7019 183.216C50.8159 181.416 44.2699 181.968 39.0859 185.286C42.8246 170.141 48.8627 155.659 56.9899 142.344C57.4159 139.212 58.6639 132.588 55.2739 114.06C54.6739 110.658 58.1779 107.742 61.6279 107.562L63.8059 107.4C67.0992 107.245 70.3986 107.279 73.6879 107.502C74.7859 107.61 75.8539 107.778 76.8019 107.958C78.033 108.188 79.1649 108.787 80.0478 109.676C80.9307 110.564 81.5229 111.7 81.7459 112.932C82.3323 116.264 82.5337 119.652 82.3459 123.03C82.2139 126.552 81.8059 131.154 80.9659 137.514C80.7559 139.11 80.5159 140.82 80.2459 142.656C80.2459 142.656 89.0899 163.89 98.9839 188.076Z" fill="black"/>
<path opacity="0.2" d="M82.3459 123.042C82.2139 126.564 81.8059 131.166 80.9659 137.526C80.4499 131.958 79.5319 126.492 76.2319 115.326L82.2319 117.24C82.3519 119.094 82.3699 121.068 82.3459 123.042Z" fill="black"/>
<path d="M79.3639 98.8019C79.2963 98.621 79.1737 98.4659 79.0134 98.3583C78.853 98.2506 78.663 98.196 78.4699 98.2019C77.2039 98.0999 76.5439 98.0039 75.3619 98.4719C75.2729 98.5017 75.1939 98.5557 75.1339 98.6279C75.1003 98.7012 75.0839 98.7813 75.0859 98.8619C75.0859 99.5639 75.0439 100.266 75.0199 100.962C74.9893 101.118 75.0109 101.279 75.0814 101.421C75.1519 101.563 75.2674 101.678 75.4099 101.748C76.0579 102.204 79.1239 103.764 79.1239 103.764C79.7239 103.83 81.0199 102.672 81.5599 102.366L79.3639 98.8019Z" fill="#CB7A63"/>
<path d="M78.2899 103.842L81.7339 101.994C81.7339 101.994 90.6619 113.394 91.1899 114.312C95.3899 121.71 89.6179 121.512 87.9799 120.492C84.2179 118.158 84.5839 114.786 83.1079 111.834L78.2899 103.842Z" fill="#E76D3B"/>
<g opacity="0.5">
<path d="M78.2899 103.842L81.7339 101.994C81.7339 101.994 90.6619 113.394 91.1899 114.312C95.3899 121.71 89.6179 121.512 87.9799 120.492C84.2179 118.158 84.5839 114.786 83.1079 111.834L78.2899 103.842Z" fill="black"/>
</g>
<path d="M80.4679 109.53C84.3578 112.425 88.4369 115.057 92.6779 117.408L92.8879 118.29C92.992 118.717 92.9806 119.165 92.855 119.587C92.7294 120.008 92.4941 120.389 92.1731 120.69C91.852 120.991 91.4569 121.201 91.0279 121.299C90.599 121.397 90.1518 121.38 89.7319 121.248L88.6879 120.924C88.6879 120.924 75.0199 117.186 74.7199 113.25C72.9019 111 76.2859 105.702 80.4679 109.53Z" fill="#E76D3B"/>
<path opacity="0.5" d="M80.4679 109.53C84.3578 112.425 88.4369 115.057 92.6779 117.408L92.8879 118.29C92.992 118.717 92.9806 119.165 92.855 119.587C92.7294 120.008 92.4941 120.389 92.1731 120.69C91.852 120.991 91.4569 121.201 91.0279 121.299C90.599 121.397 90.1518 121.38 89.7319 121.248L88.6879 120.924C88.6879 120.924 75.0199 117.186 74.7199 113.25C72.9019 111 76.2859 105.702 80.4679 109.53Z" fill="black"/>
<path d="M74.954 89.856L73.046 90.312L60.644 93.27C60.6129 93.178 60.5889 93.0837 60.572 92.988C60.4367 92.4311 60.3385 91.8659 60.278 91.296C60.236 90.9 60.206 90.504 60.2 90.096C60.128 85.896 62.174 82.296 65.408 81.534C68.642 80.772 72.08 83.028 73.916 86.82C74.078 87.156 74.228 87.516 74.366 87.876C74.5785 88.4213 74.753 88.9806 74.888 89.55C74.9 89.676 74.936 89.772 74.954 89.856Z" fill="#263238"/>
<path opacity="0.5" d="M74.9 89.856L72.992 90.324L60.59 93.282C60.59 93.198 60.542 93.096 60.518 93C60.3847 92.443 60.2885 91.8778 60.23 91.308L74.3 87.906C74.5126 88.4512 74.687 89.0106 74.822 89.58C74.9 89.676 74.9 89.772 74.9 89.856Z" fill="black"/>
<path d="M79.544 89.952C79.5865 90.1301 79.5932 90.3149 79.5636 90.4957C79.534 90.6764 79.4687 90.8495 79.3715 91.0047C79.2743 91.16 79.1472 91.2943 78.9976 91.4C78.848 91.5056 78.6788 91.5804 78.5 91.62L58.94 96.294C58.5827 96.3787 58.2065 96.3183 57.8938 96.126C57.581 95.9336 57.3574 95.625 57.272 95.268C57.2259 95.0879 57.2171 94.9003 57.246 94.7166C57.2749 94.533 57.3409 94.3572 57.44 94.2C57.6361 93.895 57.9443 93.6795 58.298 93.6L77.876 88.92C78.0533 88.8781 78.2371 88.8715 78.4169 88.9007C78.5967 88.9299 78.769 88.9943 78.9239 89.0902C79.0788 89.186 79.2133 89.3115 79.3197 89.4593C79.4261 89.6072 79.5023 89.7746 79.544 89.952Z" fill="#263238"/>
</svg>
