<svg width="200" height="200" viewBox="0 0 301 300" fill="none" xmlns="http://www.w3.org/2000/svg">
<path d="M116.168 276.198C133.466 287.37 165.968 273.798 178.334 261.054C218.54 219.6 289.658 149.592 275.9 76.62C270.038 45.606 239.12 36.102 226.7 34.134C196.796 29.4 166.244 33.252 136.58 39.09C105.602 45.186 72.98 54.264 49.028 75.936C39.956 84.15 31.862 93.816 27.5 105.378C23.096 117.12 22.1 130.074 23.978 142.44C27.05 162.378 37.076 180.678 49.382 196.662C61.688 212.646 76.334 226.662 90.182 241.308C99.278 250.866 101.6 266.79 116.168 276.198Z" fill="#D9A322"/>
<path opacity="0.7" d="M116.168 276.198C133.466 287.37 165.968 273.798 178.334 261.054C218.54 219.6 289.658 149.592 275.9 76.62C270.038 45.606 239.12 36.102 226.7 34.134C196.796 29.4 166.244 33.252 136.58 39.09C105.602 45.186 72.98 54.264 49.028 75.936C39.956 84.15 31.862 93.816 27.5 105.378C23.096 117.12 22.1 130.074 23.978 142.44C27.05 162.378 37.076 180.678 49.382 196.662C61.688 212.646 76.334 226.662 90.182 241.308C99.278 250.866 101.6 266.79 116.168 276.198Z" fill="white"/>
<path d="M53.9 112.452L51.548 112.248C51.3491 111.528 51.063 110.835 50.696 110.184L52.928 107.532L49.664 104.268M52.928 122.178L50.696 119.526C51.063 118.873 51.3491 118.178 51.548 117.456L55.004 117.162V112.548M47 123.21L49.646 125.436L51.866 123.216M33.116 117.456C33.3176 118.177 33.6035 118.872 33.968 119.526L31.742 122.178L35 125.436L37.652 123.21C38.3061 123.575 39.0009 123.86 39.722 124.062L40.016 127.518H44.63L44.93 124.062M33.092 106.2L31.742 107.556L33.968 110.208C33.6036 110.86 33.3176 111.553 33.116 112.272L29.66 112.572V117.186L31.742 117.39M47 106.5C46.3455 106.137 45.6508 105.851 44.93 105.648L44.63 102.192H40.016L39.722 105.648C39.0009 105.85 38.3061 106.136 37.652 106.5L35 104.268L33.962 105.306M38.642 110.958C39.2708 110.364 40.034 109.93 40.8666 109.694C41.6992 109.459 42.5764 109.428 43.4234 109.605C44.2704 109.782 45.0621 110.161 45.7309 110.71C46.3996 111.259 46.9257 111.962 47.264 112.758M40.472 119.886C39.4434 119.506 38.5561 118.819 37.9296 117.919C37.303 117.019 36.9675 115.949 36.968 114.852M47.684 114.852C47.684 116.273 47.1195 117.636 46.1147 118.641C45.1099 119.646 43.7471 120.21 42.326 120.21" stroke="#263238" stroke-linecap="round" stroke-linejoin="round"/>
<path d="M262.1 52.32L258.368 51.996C258.049 50.8518 257.593 49.75 257.012 48.714L260.552 44.514L255.374 39.336M260.552 67.752L257.012 63.552C257.593 62.516 258.049 61.4142 258.368 60.27L263.846 59.796V52.47M251.174 69.384L255.374 72.924L258.896 69.402M244.268 76.2H247.382L247.856 70.722M229.1 42.36L226.952 44.508L230.492 48.708C229.9 49.7455 229.433 50.8491 229.1 51.996L223.622 52.47M251.132 42.87C250.092 42.2922 248.989 41.8372 247.844 41.514L247.37 36.036H240.068L239.594 41.514C238.447 41.8352 237.341 42.2903 236.3 42.87L232.1 39.33L230.456 40.974M237.878 49.974C238.872 49.0266 240.081 48.3344 241.401 47.9564C242.721 47.5785 244.113 47.5262 245.458 47.804C246.803 48.0818 248.06 48.6814 249.123 49.5516C250.185 50.4217 251.021 51.5363 251.558 52.8M252.23 56.106C252.23 58.3614 251.335 60.5246 249.74 62.12C248.146 63.7153 245.983 64.6124 243.728 64.614" stroke="#263238" stroke-linecap="round" stroke-linejoin="round"/>
<g opacity="0.3">
<path d="M231.026 223.8C230.84 223.442 230.586 223.125 230.277 222.867C229.968 222.608 229.611 222.414 229.226 222.294L191.426 210.348C191.03 210.225 190.612 210.184 190.199 210.228C189.786 210.273 189.387 210.401 189.026 210.606L187.226 210.048C187.266 209.821 187.218 209.588 187.093 209.395C186.967 209.202 186.773 209.063 186.55 209.007C186.327 208.951 186.091 208.981 185.889 209.092C185.687 209.203 185.535 209.386 185.462 209.604L185.252 210.252L153.824 200.316C153.775 200.304 153.723 200.304 153.674 200.316L151.658 200.724C151.605 200.734 151.556 200.758 151.515 200.794C151.475 200.83 151.446 200.876 151.43 200.928C151.415 200.979 151.413 201.032 151.424 201.084C151.436 201.135 151.461 201.183 151.496 201.222L152.912 202.716C152.948 202.753 152.994 202.78 153.044 202.794L184.472 212.73L184.268 213.378C184.231 213.492 184.218 213.613 184.228 213.732C184.239 213.851 184.272 213.968 184.328 214.074C184.44 214.288 184.632 214.45 184.862 214.524C184.976 214.561 185.097 214.574 185.216 214.564C185.335 214.553 185.452 214.52 185.558 214.464C185.739 214.373 185.883 214.223 185.966 214.038L187.766 214.596C187.944 214.976 188.2 215.315 188.516 215.592C188.832 215.869 189.202 216.077 189.602 216.204L227.402 228.15C227.786 228.272 228.191 228.317 228.593 228.282C228.995 228.247 229.386 228.134 229.744 227.947C230.102 227.761 230.419 227.506 230.678 227.197C230.938 226.888 231.133 226.531 231.254 226.146C231.373 225.759 231.415 225.353 231.375 224.95C231.336 224.547 231.218 224.156 231.026 223.8Z" fill="black"/>
<path d="M106.754 216.948L104.852 216.348C104.866 216.277 104.854 216.203 104.817 216.14C104.781 216.077 104.723 216.029 104.654 216.006L102.098 215.214C102.022 215.191 101.939 215.199 101.869 215.236C101.798 215.273 101.745 215.336 101.72 215.412L101.03 217.65C101.008 217.726 101.016 217.807 101.053 217.877C101.09 217.946 101.153 217.998 101.228 218.022L103.784 218.814H103.874C103.932 218.813 103.988 218.796 104.036 218.764C104.083 218.732 104.121 218.687 104.144 218.634L106.046 219.234C106.262 219.303 106.443 219.454 106.548 219.655C106.654 219.856 106.676 220.091 106.61 220.308L101.21 237.678C101.194 237.734 101.194 237.794 101.209 237.85C101.225 237.906 101.257 237.957 101.3 237.996L100.76 239.748C100.731 239.821 100.731 239.903 100.76 239.976C100.798 240.044 100.86 240.095 100.934 240.12L102.314 240.546C102.342 240.552 102.37 240.552 102.398 240.546C102.462 240.546 102.525 240.526 102.577 240.488C102.628 240.451 102.667 240.397 102.686 240.336L103.232 238.578C103.265 238.587 103.301 238.587 103.334 238.578C103.369 238.561 103.4 238.536 103.425 238.506C103.449 238.476 103.468 238.442 103.478 238.404L108.878 221.004C109.13 220.179 109.045 219.288 108.643 218.525C108.241 217.762 107.553 217.188 106.73 216.93L106.754 216.948Z" fill="black"/>
<path d="M89.588 229.896C89.6305 229.844 89.6519 229.777 89.648 229.71C89.6481 229.67 89.6396 229.631 89.623 229.594C89.6065 229.558 89.5822 229.526 89.552 229.5L87.566 227.7C87.5371 227.673 87.5031 227.652 87.4659 227.639C87.4288 227.626 87.3894 227.62 87.35 227.622C87.2696 227.628 87.1945 227.665 87.14 227.724L85.574 229.458C85.5459 229.486 85.5236 229.519 85.5083 229.556C85.4931 229.592 85.4853 229.631 85.4853 229.671C85.4853 229.711 85.4931 229.75 85.5083 229.786C85.5236 229.823 85.5459 229.856 85.574 229.884L87.554 231.684C87.6112 231.732 87.6831 231.76 87.758 231.762C87.8276 231.76 87.8941 231.733 87.944 231.684L89.42 233.016C89.5895 233.171 89.6909 233.387 89.702 233.616C89.7101 233.837 89.6303 234.053 89.48 234.216L77.294 247.71C77.2548 247.753 77.2293 247.807 77.2207 247.865C77.2122 247.922 77.221 247.981 77.246 248.034L76.046 249.396C76.0179 249.424 75.9956 249.457 75.9803 249.494C75.9651 249.53 75.9573 249.569 75.9573 249.609C75.9573 249.649 75.9651 249.688 75.9803 249.724C75.9956 249.761 76.0179 249.794 76.046 249.822L77.114 250.782C77.1683 250.831 77.2387 250.859 77.312 250.86C77.3546 250.861 77.3969 250.853 77.4361 250.836C77.4754 250.82 77.5108 250.795 77.54 250.764L78.74 249.402C78.7718 249.408 78.8043 249.408 78.836 249.402C78.9146 249.396 78.9877 249.359 79.04 249.3L91.226 235.806C91.8038 235.164 92.1036 234.319 92.0598 233.457C92.0159 232.594 91.632 231.784 90.992 231.204L89.588 229.896Z" fill="black"/>
<path d="M189.77 236.52L184.436 237.948L182.846 236.352L183.446 234.18L188.78 232.758C188.828 232.744 188.871 232.719 188.906 232.684C188.942 232.65 188.969 232.607 188.984 232.56C189.001 232.514 189.006 232.465 188.999 232.417C188.991 232.368 188.972 232.323 188.942 232.284C188.281 231.422 187.404 230.751 186.399 230.34C185.394 229.928 184.298 229.79 183.223 229.94C182.148 230.09 181.131 230.523 180.278 231.194C179.424 231.865 178.764 232.75 178.364 233.76L127.364 247.398C126.555 246.822 125.612 246.466 124.625 246.362C123.637 246.259 122.64 246.413 121.73 246.81C120.82 247.206 120.028 247.831 119.431 248.623C118.834 249.416 118.452 250.35 118.322 251.334C118.316 251.383 118.321 251.432 118.338 251.478C118.355 251.524 118.384 251.565 118.42 251.598C118.457 251.63 118.501 251.653 118.549 251.665C118.597 251.677 118.647 251.676 118.694 251.664L123.662 250.332L125.132 251.802L124.592 253.806L119.624 255.138C119.576 255.151 119.533 255.176 119.497 255.21C119.462 255.244 119.435 255.286 119.419 255.333C119.404 255.38 119.4 255.43 119.409 255.479C119.417 255.527 119.438 255.573 119.468 255.612C120.004 256.31 120.694 256.876 121.484 257.265C122.273 257.654 123.142 257.856 124.022 257.856C124.528 257.857 125.032 257.793 125.522 257.664C126.341 257.444 127.101 257.047 127.748 256.499C128.396 255.951 128.914 255.267 129.266 254.496L180.23 240.858C180.463 241.042 180.707 241.21 180.962 241.362C181.837 241.866 182.824 242.147 183.833 242.181C184.843 242.214 185.845 241.998 186.752 241.552C187.659 241.106 188.442 240.444 189.032 239.624C189.622 238.804 190.001 237.851 190.136 236.85C190.142 236.802 190.137 236.752 190.12 236.706C190.103 236.66 190.076 236.619 190.04 236.586C190.003 236.555 189.96 236.533 189.913 236.521C189.866 236.51 189.817 236.509 189.77 236.52Z" fill="black"/>
</g>
<path d="M194.804 212.364L194.204 214.266L153.146 201.282L151.73 199.794L153.746 199.386L194.804 212.364Z" fill="#999999" stroke="#263238" stroke-linecap="round" stroke-linejoin="round"/>
<path d="M189.056 209.718L186.872 209.028L186.926 208.848C186.975 208.693 186.961 208.524 186.886 208.38C186.811 208.235 186.682 208.126 186.527 208.077C186.372 208.028 186.203 208.042 186.059 208.117C185.914 208.192 185.805 208.321 185.756 208.476L184.556 212.244C184.507 212.403 184.523 212.575 184.6 212.723C184.678 212.87 184.811 212.981 184.97 213.03C185.129 213.079 185.301 213.063 185.449 212.986C185.596 212.908 185.707 212.775 185.756 212.616L185.81 212.436L187.994 213.126C188.148 213.496 188.381 213.829 188.676 214.1C188.971 214.372 189.322 214.576 189.704 214.698L227.504 226.638C228.204 226.859 228.964 226.793 229.615 226.454C230.267 226.116 230.757 225.532 230.978 224.832C231.199 224.132 231.133 223.372 230.794 222.721C230.456 222.069 229.872 221.579 229.172 221.358L191.372 209.412C190.987 209.291 190.58 209.256 190.18 209.309C189.78 209.361 189.396 209.501 189.056 209.718Z" fill="#D9A322" stroke="#263238" stroke-linecap="round" stroke-linejoin="round"/>
<path d="M189.056 209.718L188.288 212.148" stroke="#263238" stroke-linecap="round" stroke-linejoin="round"/>
<path d="M185.792 212.436L186.488 210.24" stroke="#263238" stroke-linecap="round" stroke-linejoin="round"/>
<path d="M101.77 236.398L101.075 238.645L102.451 239.071L103.146 236.824L101.77 236.398Z" fill="#999999" stroke="#263238" stroke-linecap="round" stroke-linejoin="round"/>
<path d="M103.244 237.108L101.522 236.574L106.922 219.174C107.012 218.88 106.981 218.563 106.837 218.292C106.693 218.021 106.448 217.818 106.154 217.728L102.29 216.528L102.824 214.812L106.688 216.012C107.059 216.127 107.404 216.314 107.703 216.562C108.002 216.81 108.249 217.115 108.43 217.459C108.611 217.803 108.723 218.179 108.758 218.566C108.794 218.953 108.753 219.343 108.638 219.714L103.244 237.108Z" fill="#999999" stroke="#263238" stroke-linecap="round" stroke-linejoin="round"/>
<path d="M102.005 214.322L101.314 216.558L103.87 217.349L104.562 215.113L102.005 214.322Z" fill="#999999" stroke="#263238" stroke-linecap="round" stroke-linejoin="round"/>
<path d="M77.8471 246.661L76.2709 248.406L77.3397 249.371L78.9159 247.626L77.8471 246.661Z" fill="#999999" stroke="#263238" stroke-linecap="round" stroke-linejoin="round"/>
<path d="M78.89 247.926L77.552 246.726L89.738 233.226C89.8401 233.114 89.9189 232.982 89.97 232.839C90.021 232.696 90.0433 232.544 90.0355 232.393C90.0277 232.241 89.9899 232.092 89.9245 231.955C89.859 231.818 89.7671 231.695 89.654 231.594L86.654 228.882L87.854 227.544L90.854 230.256C91.1458 230.516 91.383 230.832 91.552 231.185C91.721 231.538 91.8184 231.92 91.8384 232.311C91.8585 232.702 91.8009 233.092 91.669 233.46C91.5371 233.829 91.3335 234.167 91.07 234.456L78.89 247.926Z" fill="#999999" stroke="#263238" stroke-linecap="round" stroke-linejoin="round"/>
<path d="M87.3634 226.733L85.7952 228.47L87.7813 230.263L89.3495 228.527L87.3634 226.733Z" fill="#999999" stroke="#263238" stroke-linecap="round" stroke-linejoin="round"/>
<path d="M180.485 232.31L125.3 247.076L127.043 253.591L182.228 238.825L180.485 232.31Z" fill="#D9A322" stroke="#263238" stroke-linecap="round" stroke-linejoin="round"/>
<path d="M122.624 245.622C121.583 245.9 120.647 246.481 119.934 247.29C119.222 248.099 118.766 249.102 118.622 250.17L123.758 248.796L125.468 250.512L124.868 252.852L119.732 254.226C120.335 255.009 121.139 255.614 122.058 255.977C122.978 256.339 123.979 256.445 124.954 256.283C125.929 256.121 126.841 255.697 127.595 255.057C128.348 254.417 128.913 253.585 129.23 252.649C129.548 251.713 129.605 250.708 129.396 249.742C129.187 248.776 128.72 247.885 128.044 247.164C127.369 246.442 126.51 245.918 125.559 245.647C124.609 245.375 123.603 245.367 122.648 245.622H122.624Z" fill="#D9A322" stroke="#263238" stroke-linecap="round" stroke-linejoin="round"/>
<path d="M185.558 240.486C186.675 240.187 187.678 239.564 188.441 238.696C189.205 237.828 189.694 236.754 189.848 235.608L184.346 237.078L182.516 235.242L183.188 232.74L188.684 231.264C188.038 230.425 187.176 229.778 186.191 229.39C185.206 229.002 184.134 228.889 183.09 229.063C182.046 229.237 181.068 229.69 180.261 230.376C179.455 231.062 178.849 231.953 178.509 232.956C178.169 233.958 178.108 235.035 178.331 236.069C178.555 237.104 179.055 238.059 179.779 238.832C180.502 239.605 181.422 240.167 182.44 240.458C183.457 240.749 184.535 240.759 185.558 240.486Z" fill="#D9A322" stroke="#263238" stroke-linecap="round" stroke-linejoin="round"/>
<path d="M172.598 239.274L136.418 248.958C136.249 249.004 136.072 249.016 135.899 248.994C135.725 248.972 135.557 248.915 135.406 248.827C135.254 248.74 135.121 248.623 135.015 248.484C134.908 248.344 134.831 248.185 134.786 248.016C134.696 247.675 134.745 247.313 134.921 247.009C135.098 246.704 135.388 246.481 135.728 246.39L171.914 236.706C172.254 236.616 172.617 236.665 172.921 236.841C173.226 237.018 173.449 237.308 173.54 237.648C173.63 237.989 173.581 238.351 173.405 238.655C173.228 238.96 172.938 239.183 172.598 239.274Z" fill="#999999" stroke="#263238" stroke-linecap="round" stroke-linejoin="round"/>
<path d="M204.818 55.242H213.026C213.185 55.242 213.338 55.3052 213.45 55.4177C213.563 55.5303 213.626 55.6829 213.626 55.842V59.304H204.23V55.836C204.232 55.68 204.294 55.5307 204.404 55.4198C204.513 55.3089 204.662 55.2451 204.818 55.242Z" fill="#BFBFBF" stroke="#263238" stroke-linecap="round" stroke-linejoin="round"/>
<path d="M215.996 55.242H224.204C224.363 55.242 224.516 55.3052 224.628 55.4177C224.741 55.5303 224.804 55.6829 224.804 55.842V59.304H215.402V55.836C215.404 55.6789 215.467 55.5288 215.578 55.4177C215.689 55.3067 215.839 55.2436 215.996 55.242Z" fill="#BFBFBF" stroke="#263238" stroke-linecap="round" stroke-linejoin="round"/>
<path d="M75.5901 55.242H93.5001C93.6592 55.242 93.8118 55.3052 93.9244 55.4177C94.0369 55.5303 94.1001 55.6829 94.1001 55.842V59.304H74.9961V55.836C74.9977 55.6789 75.0607 55.5288 75.1718 55.4177C75.2829 55.3067 75.433 55.2436 75.5901 55.242Z" fill="#BFBFBF" stroke="#263238" stroke-linecap="round" stroke-linejoin="round"/>
<path d="M241.88 176.742V68.628C241.88 61.7454 236.301 56.166 229.418 56.166L70.58 56.166C63.6974 56.166 58.118 61.7454 58.118 68.628V176.742C58.118 183.625 63.6974 189.204 70.58 189.204H229.418C236.301 189.204 241.88 183.625 241.88 176.742Z" fill="#BFBFBF" stroke="#263238" stroke-linecap="round" stroke-linejoin="round"/>
<path d="M229.826 57.564H70.1841C64.2956 57.564 59.5221 62.3375 59.5221 68.226V177.15C59.5221 183.038 64.2956 187.812 70.1841 187.812H229.826C235.715 187.812 240.488 183.038 240.488 177.15V68.226C240.488 62.3375 235.715 57.564 229.826 57.564Z" fill="#263238"/>
<path d="M62.198 117.828C62.198 117.947 62.1629 118.063 62.0969 118.161C62.031 118.26 61.9373 118.337 61.8277 118.382C61.718 118.428 61.5974 118.44 61.481 118.416C61.3646 118.393 61.2577 118.336 61.1738 118.252C61.0899 118.168 61.0327 118.061 61.0096 117.945C60.9864 117.829 60.9983 117.708 61.0437 117.598C61.0891 117.489 61.166 117.395 61.2647 117.329C61.3634 117.263 61.4794 117.228 61.598 117.228C61.7572 117.228 61.9098 117.291 62.0223 117.404C62.1348 117.516 62.198 117.669 62.198 117.828Z" fill="white" stroke="#263238" stroke-linecap="round" stroke-linejoin="round"/>
<path d="M62.7621 123.42C62.7621 123.657 62.6917 123.889 62.5598 124.087C62.428 124.284 62.2406 124.438 62.0213 124.529C61.802 124.619 61.5607 124.643 61.328 124.597C61.0952 124.551 60.8814 124.436 60.7135 124.269C60.5457 124.101 60.4314 123.887 60.3851 123.654C60.3388 123.421 60.3626 123.18 60.4534 122.961C60.5442 122.742 60.698 122.554 60.8954 122.422C61.0927 122.29 61.3247 122.22 61.5621 122.22C61.8803 122.22 62.1855 122.346 62.4106 122.571C62.6356 122.797 62.7621 123.102 62.7621 123.42Z" fill="white" stroke="#263238" stroke-linecap="round" stroke-linejoin="round"/>
<path d="M62.444 127.302C62.4452 127.472 62.3959 127.638 62.3023 127.78C62.2088 127.922 62.0752 128.033 61.9185 128.099C61.7619 128.165 61.5892 128.183 61.4223 128.15C61.2555 128.118 61.1021 128.037 60.9815 127.917C60.8609 127.797 60.7786 127.644 60.745 127.478C60.7114 127.311 60.728 127.138 60.7928 126.981C60.8575 126.824 60.9675 126.69 61.1087 126.595C61.2499 126.5 61.4161 126.45 61.586 126.45C61.8125 126.45 62.0299 126.54 62.1906 126.699C62.3513 126.859 62.4424 127.075 62.444 127.302Z" fill="white" stroke="#263238" stroke-linecap="round" stroke-linejoin="round"/>
<path d="M236.294 178.356V67.02C236.294 64.1139 233.938 61.758 231.032 61.758L68.9721 61.758C66.066 61.758 63.7101 64.1139 63.7101 67.02V178.356C63.7101 181.262 66.066 183.618 68.9721 183.618H231.032C233.938 183.618 236.294 181.262 236.294 178.356Z" fill="white" stroke="#263238" stroke-linecap="round" stroke-linejoin="round"/>
<path opacity="0.3" d="M236.294 178.356V67.02C236.294 64.1139 233.938 61.758 231.032 61.758L68.9721 61.758C66.066 61.758 63.7101 64.1139 63.7101 67.02V178.356C63.7101 181.262 66.066 183.618 68.9721 183.618H231.032C233.938 183.618 236.294 181.262 236.294 178.356Z" fill="#D9A322"/>
<path d="M110.612 87.708H77.4561C77.2969 87.708 77.1443 87.6448 77.0318 87.5323C76.9193 87.4197 76.8561 87.2671 76.8561 87.108C76.8561 86.9489 76.9193 86.7963 77.0318 86.6837C77.1443 86.5712 77.2969 86.508 77.4561 86.508H110.612C110.771 86.508 110.924 86.5712 111.036 86.6837C111.149 86.7963 111.212 86.9489 111.212 87.108C111.212 87.2671 111.149 87.4197 111.036 87.5323C110.924 87.6448 110.771 87.708 110.612 87.708Z" fill="#263238"/>
<path d="M100.898 94.914H77.4561C77.2969 94.914 77.1443 94.8508 77.0318 94.7383C76.9193 94.6257 76.8561 94.4731 76.8561 94.314C76.8561 94.1549 76.9193 94.0022 77.0318 93.8897C77.1443 93.7772 77.2969 93.714 77.4561 93.714H100.898C101.057 93.714 101.21 93.7772 101.322 93.8897C101.435 94.0022 101.498 94.1549 101.498 94.314C101.498 94.4731 101.435 94.6257 101.322 94.7383C101.21 94.8508 101.057 94.914 100.898 94.914Z" fill="#263238"/>
<path d="M115.472 102.12H77.4561C77.2969 102.12 77.1443 102.057 77.0318 101.944C76.9193 101.832 76.8561 101.679 76.8561 101.52C76.8561 101.361 76.9193 101.208 77.0318 101.096C77.1443 100.983 77.2969 100.92 77.4561 100.92H115.472C115.631 100.92 115.784 100.983 115.896 101.096C116.009 101.208 116.072 101.361 116.072 101.52C116.072 101.679 116.009 101.832 115.896 101.944C115.784 102.057 115.631 102.12 115.472 102.12Z" fill="#263238"/>
<path d="M110.612 109.326H77.4561C77.2969 109.326 77.1443 109.263 77.0318 109.15C76.9193 109.038 76.8561 108.885 76.8561 108.726C76.8561 108.567 76.9193 108.414 77.0318 108.302C77.1443 108.189 77.2969 108.126 77.4561 108.126H110.612C110.771 108.126 110.924 108.189 111.036 108.302C111.149 108.414 111.212 108.567 111.212 108.726C111.212 108.885 111.149 109.038 111.036 109.15C110.924 109.263 110.771 109.326 110.612 109.326Z" fill="#263238"/>
<path d="M100.898 116.532H77.4561C77.2969 116.532 77.1443 116.469 77.0318 116.356C76.9193 116.244 76.8561 116.091 76.8561 115.932C76.8561 115.773 76.9193 115.62 77.0318 115.508C77.1443 115.395 77.2969 115.332 77.4561 115.332H100.898C101.057 115.332 101.21 115.395 101.322 115.508C101.435 115.62 101.498 115.773 101.498 115.932C101.498 116.091 101.435 116.244 101.322 116.356C101.21 116.469 101.057 116.532 100.898 116.532Z" fill="#263238"/>
<path opacity="0.2" d="M120.668 88.632H127.184C127.767 88.632 128.24 88.1592 128.24 87.576V86.628C128.24 86.0448 127.767 85.572 127.184 85.572H120.668C120.085 85.572 119.612 86.0448 119.612 86.628V87.576C119.612 88.1592 120.085 88.632 120.668 88.632Z" fill="black"/>
<path d="M120.662 88.632H121.988C122.571 88.632 123.044 88.1592 123.044 87.576V86.628C123.044 86.0448 122.571 85.572 121.988 85.572H120.662C120.079 85.572 119.606 86.0448 119.606 86.628V87.576C119.606 88.1592 120.079 88.632 120.662 88.632Z" fill="#D9A322" stroke="#263238" stroke-linecap="round" stroke-linejoin="round"/>
<path opacity="0.2" d="M127.184 92.778H120.668C120.085 92.778 119.612 93.2508 119.612 93.834V94.782C119.612 95.3652 120.085 95.838 120.668 95.838H127.184C127.767 95.838 128.24 95.3652 128.24 94.782V93.834C128.24 93.2508 127.767 92.778 127.184 92.778Z" fill="black"/>
<path d="M127.19 92.778H125.864C125.281 92.778 124.808 93.2508 124.808 93.834V94.782C124.808 95.3652 125.281 95.838 125.864 95.838H127.19C127.773 95.838 128.246 95.3652 128.246 94.782V93.834C128.246 93.2508 127.773 92.778 127.19 92.778Z" fill="#999999" stroke="#263238" stroke-linecap="round" stroke-linejoin="round"/>
<path opacity="0.2" d="M127.184 99.984H120.668C120.085 99.984 119.612 100.457 119.612 101.04V101.988C119.612 102.571 120.085 103.044 120.668 103.044H127.184C127.767 103.044 128.24 102.571 128.24 101.988V101.04C128.24 100.457 127.767 99.984 127.184 99.984Z" fill="black"/>
<path d="M127.19 99.984H125.864C125.281 99.984 124.808 100.457 124.808 101.04V101.988C124.808 102.571 125.281 103.044 125.864 103.044H127.19C127.773 103.044 128.246 102.571 128.246 101.988V101.04C128.246 100.457 127.773 99.984 127.19 99.984Z" fill="#999999" stroke="#263238" stroke-linecap="round" stroke-linejoin="round"/>
<path opacity="0.2" d="M120.668 110.244H127.184C127.767 110.244 128.24 109.771 128.24 109.188V108.24C128.24 107.657 127.767 107.184 127.184 107.184H120.668C120.085 107.184 119.612 107.657 119.612 108.24V109.188C119.612 109.771 120.085 110.244 120.668 110.244Z" fill="black"/>
<path d="M120.662 110.244H121.988C122.571 110.244 123.044 109.771 123.044 109.188V108.24C123.044 107.657 122.571 107.184 121.988 107.184H120.662C120.079 107.184 119.606 107.657 119.606 108.24V109.188C119.606 109.771 120.079 110.244 120.662 110.244Z" fill="#D9A322" stroke="#263238" stroke-linecap="round" stroke-linejoin="round"/>
<path opacity="0.2" d="M127.184 114.396H120.668C120.085 114.396 119.612 114.869 119.612 115.452V116.4C119.612 116.983 120.085 117.456 120.668 117.456H127.184C127.767 117.456 128.24 116.983 128.24 116.4V115.452C128.24 114.869 127.767 114.396 127.184 114.396Z" fill="black"/>
<path d="M127.19 114.396H125.864C125.281 114.396 124.808 114.869 124.808 115.452V116.4C124.808 116.983 125.281 117.456 125.864 117.456H127.19C127.773 117.456 128.246 116.983 128.246 116.4V115.452C128.246 114.869 127.773 114.396 127.19 114.396Z" fill="#999999" stroke="#263238" stroke-linecap="round" stroke-linejoin="round"/>
<path d="M174.212 94.914H143.972C143.813 94.914 143.66 94.8508 143.548 94.7383C143.435 94.6257 143.372 94.4731 143.372 94.314C143.372 94.1549 143.435 94.0022 143.548 93.8897C143.66 93.7772 143.813 93.714 143.972 93.714H174.212C174.371 93.714 174.524 93.7772 174.636 93.8897C174.749 94.0022 174.812 94.1549 174.812 94.314C174.812 94.4731 174.749 94.6257 174.636 94.7383C174.524 94.8508 174.371 94.914 174.212 94.914Z" fill="#263238"/>
<path d="M169.358 87.708H143.972C143.813 87.708 143.66 87.6448 143.548 87.5323C143.435 87.4197 143.372 87.2671 143.372 87.108C143.372 86.9489 143.435 86.7963 143.548 86.6837C143.66 86.5712 143.813 86.508 143.972 86.508H169.358C169.517 86.508 169.67 86.5712 169.782 86.6837C169.895 86.7963 169.958 86.9489 169.958 87.108C169.958 87.2671 169.895 87.4197 169.782 87.5323C169.67 87.6448 169.517 87.708 169.358 87.708Z" fill="#263238"/>
<path d="M174.212 116.532H143.972C143.813 116.532 143.66 116.469 143.548 116.356C143.435 116.244 143.372 116.091 143.372 115.932C143.372 115.773 143.435 115.62 143.548 115.508C143.66 115.395 143.813 115.332 143.972 115.332H174.212C174.371 115.332 174.524 115.395 174.636 115.508C174.749 115.62 174.812 115.773 174.812 115.932C174.812 116.091 174.749 116.244 174.636 116.356C174.524 116.469 174.371 116.532 174.212 116.532Z" fill="#263238"/>
<path d="M164.498 109.326H143.972C143.813 109.326 143.66 109.263 143.548 109.15C143.435 109.038 143.372 108.885 143.372 108.726C143.372 108.567 143.435 108.414 143.548 108.302C143.66 108.189 143.813 108.126 143.972 108.126H164.498C164.657 108.126 164.81 108.189 164.922 108.302C165.035 108.414 165.098 108.567 165.098 108.726C165.098 108.885 165.035 109.038 164.922 109.15C164.81 109.263 164.657 109.326 164.498 109.326Z" fill="#263238"/>
<path d="M159.638 102.12H143.972C143.813 102.12 143.66 102.057 143.548 101.944C143.435 101.832 143.372 101.679 143.372 101.52C143.372 101.361 143.435 101.208 143.548 101.096C143.66 100.983 143.813 100.92 143.972 100.92H159.638C159.797 100.92 159.95 100.983 160.062 101.096C160.175 101.208 160.238 101.361 160.238 101.52C160.238 101.679 160.175 101.832 160.062 101.944C159.95 102.057 159.797 102.12 159.638 102.12Z" fill="#263238"/>
<path d="M185.048 86.028H182.912V88.164H185.048V86.028Z" fill="#999999" stroke="#263238" stroke-linecap="round" stroke-linejoin="round"/>
<path d="M188.222 86.028H186.086V88.164H188.222V86.028Z" fill="#999999" stroke="#263238" stroke-linecap="round" stroke-linejoin="round"/>
<path d="M191.396 86.028H189.26V88.164H191.396V86.028Z" fill="#999999" stroke="#263238" stroke-linecap="round" stroke-linejoin="round"/>
<path d="M194.576 86.028H192.44V88.164H194.576V86.028Z" fill="#999999" stroke="#263238" stroke-linecap="round" stroke-linejoin="round"/>
<path d="M197.75 86.028H195.614V88.164H197.75V86.028Z" fill="#999999" stroke="#263238" stroke-linecap="round" stroke-linejoin="round"/>
<path d="M200.924 86.028H198.788V88.164H200.924V86.028Z" fill="#999999" stroke="#263238" stroke-linecap="round" stroke-linejoin="round"/>
<path d="M204.098 86.028H201.962V88.164H204.098V86.028Z" fill="#999999" stroke="#263238" stroke-linecap="round" stroke-linejoin="round"/>
<path d="M207.278 86.028H205.142V88.164H207.278V86.028Z" fill="#999999" stroke="#263238" stroke-linecap="round" stroke-linejoin="round"/>
<path d="M210.452 86.028H208.316V88.164H210.452V86.028Z" fill="#D9A322" stroke="#263238" stroke-linecap="round" stroke-linejoin="round"/>
<path d="M213.626 86.028H211.49V88.164H213.626V86.028Z" fill="#D9A322" stroke="#263238" stroke-linecap="round" stroke-linejoin="round"/>
<path opacity="0.2" d="M216.8 86.028H214.664V88.164H216.8V86.028Z" fill="#263238"/>
<path opacity="0.2" d="M219.98 86.028H217.844V88.164H219.98V86.028Z" fill="#263238"/>
<path opacity="0.2" d="M223.154 86.028H221.018V88.164H223.154V86.028Z" fill="#263238"/>
<path d="M185.048 93.234H182.912V95.37H185.048V93.234Z" fill="#999999" stroke="#263238" stroke-linecap="round" stroke-linejoin="round"/>
<path d="M188.222 93.234H186.086V95.37H188.222V93.234Z" fill="#999999" stroke="#263238" stroke-linecap="round" stroke-linejoin="round"/>
<path d="M191.396 93.234H189.26V95.37H191.396V93.234Z" fill="#999999" stroke="#263238" stroke-linecap="round" stroke-linejoin="round"/>
<path d="M194.576 93.234H192.44V95.37H194.576V93.234Z" fill="#999999" stroke="#263238" stroke-linecap="round" stroke-linejoin="round"/>
<path d="M197.75 93.234H195.614V95.37H197.75V93.234Z" fill="#999999" stroke="#263238" stroke-linecap="round" stroke-linejoin="round"/>
<path d="M200.924 93.234H198.788V95.37H200.924V93.234Z" fill="#999999" stroke="#263238" stroke-linecap="round" stroke-linejoin="round"/>
<path d="M204.098 93.234H201.962V95.37H204.098V93.234Z" fill="#999999" stroke="#263238" stroke-linecap="round" stroke-linejoin="round"/>
<path opacity="0.2" d="M207.278 93.234H205.142V95.37H207.278V93.234Z" fill="#263238"/>
<path opacity="0.2" d="M210.452 93.234H208.316V95.37H210.452V93.234Z" fill="#263238"/>
<path opacity="0.2" d="M213.626 93.234H211.49V95.37H213.626V93.234Z" fill="#263238"/>
<path opacity="0.2" d="M216.8 93.234H214.664V95.37H216.8V93.234Z" fill="#263238"/>
<path opacity="0.2" d="M219.98 93.234H217.844V95.37H219.98V93.234Z" fill="#263238"/>
<path opacity="0.2" d="M223.154 93.234H221.018V95.37H223.154V93.234Z" fill="#263238"/>
<path d="M185.048 114.852H182.912V116.988H185.048V114.852Z" fill="#999999" stroke="#263238" stroke-linecap="round" stroke-linejoin="round"/>
<path d="M188.222 114.852H186.086V116.988H188.222V114.852Z" fill="#999999" stroke="#263238" stroke-linecap="round" stroke-linejoin="round"/>
<path d="M191.396 114.852H189.26V116.988H191.396V114.852Z" fill="#999999" stroke="#263238" stroke-linecap="round" stroke-linejoin="round"/>
<path opacity="0.2" d="M194.576 114.852H192.44V116.988H194.576V114.852Z" fill="#263238"/>
<path opacity="0.2" d="M197.75 114.852H195.614V116.988H197.75V114.852Z" fill="#263238"/>
<path opacity="0.2" d="M200.924 114.852H198.788V116.988H200.924V114.852Z" fill="#263238"/>
<path opacity="0.2" d="M204.098 114.852H201.962V116.988H204.098V114.852Z" fill="#263238"/>
<path opacity="0.2" d="M207.278 114.852H205.142V116.988H207.278V114.852Z" fill="#263238"/>
<path opacity="0.2" d="M210.452 114.852H208.316V116.988H210.452V114.852Z" fill="#263238"/>
<path opacity="0.2" d="M213.626 114.852H211.49V116.988H213.626V114.852Z" fill="#263238"/>
<path opacity="0.2" d="M216.8 114.852H214.664V116.988H216.8V114.852Z" fill="#263238"/>
<path opacity="0.2" d="M219.98 114.852H217.844V116.988H219.98V114.852Z" fill="#263238"/>
<path opacity="0.2" d="M223.154 114.852H221.018V116.988H223.154V114.852Z" fill="#263238"/>
<path d="M185.048 107.646H182.912V109.782H185.048V107.646Z" fill="#999999" stroke="#263238" stroke-linecap="round" stroke-linejoin="round"/>
<path d="M188.222 107.646H186.086V109.782H188.222V107.646Z" fill="#999999" stroke="#263238" stroke-linecap="round" stroke-linejoin="round"/>
<path d="M191.396 107.646H189.26V109.782H191.396V107.646Z" fill="#999999" stroke="#263238" stroke-linecap="round" stroke-linejoin="round"/>
<path d="M194.576 107.646H192.44V109.782H194.576V107.646Z" fill="#999999" stroke="#263238" stroke-linecap="round" stroke-linejoin="round"/>
<path d="M197.75 107.646H195.614V109.782H197.75V107.646Z" fill="#999999" stroke="#263238" stroke-linecap="round" stroke-linejoin="round"/>
<path d="M200.924 107.646H198.788V109.782H200.924V107.646Z" fill="#999999" stroke="#263238" stroke-linecap="round" stroke-linejoin="round"/>
<path d="M204.098 107.646H201.962V109.782H204.098V107.646Z" fill="#999999" stroke="#263238" stroke-linecap="round" stroke-linejoin="round"/>
<path d="M207.278 107.646H205.142V109.782H207.278V107.646Z" fill="#999999" stroke="#263238" stroke-linecap="round" stroke-linejoin="round"/>
<path d="M210.452 107.646H208.316V109.782H210.452V107.646Z" fill="#D9A322" stroke="#263238" stroke-linecap="round" stroke-linejoin="round"/>
<path d="M213.626 107.646H211.49V109.782H213.626V107.646Z" fill="#D9A322" stroke="#263238" stroke-linecap="round" stroke-linejoin="round"/>
<path d="M216.8 107.646H214.664V109.782H216.8V107.646Z" fill="#D9A322" stroke="#263238" stroke-linecap="round" stroke-linejoin="round"/>
<path d="M219.98 107.646H217.844V109.782H219.98V107.646Z" fill="#D9A322" stroke="#263238" stroke-linecap="round" stroke-linejoin="round"/>
<path opacity="0.2" d="M223.154 107.646H221.018V109.782H223.154V107.646Z" fill="#263238"/>
<path d="M185.048 100.44H182.912V102.576H185.048V100.44Z" fill="#999999" stroke="#263238" stroke-linecap="round" stroke-linejoin="round"/>
<path d="M188.222 100.44H186.086V102.576H188.222V100.44Z" fill="#999999" stroke="#263238" stroke-linecap="round" stroke-linejoin="round"/>
<path d="M191.396 100.44H189.26V102.576H191.396V100.44Z" fill="#999999" stroke="#263238" stroke-linecap="round" stroke-linejoin="round"/>
<path d="M194.576 100.44H192.44V102.576H194.576V100.44Z" fill="#999999" stroke="#263238" stroke-linecap="round" stroke-linejoin="round"/>
<path d="M197.75 100.44H195.614V102.576H197.75V100.44Z" fill="#999999" stroke="#263238" stroke-linecap="round" stroke-linejoin="round"/>
<path opacity="0.2" d="M200.924 100.44H198.788V102.576H200.924V100.44Z" fill="#263238"/>
<path opacity="0.2" d="M204.098 100.44H201.962V102.576H204.098V100.44Z" fill="#263238"/>
<path opacity="0.2" d="M207.278 100.44H205.142V102.576H207.278V100.44Z" fill="#263238"/>
<path opacity="0.2" d="M210.452 100.44H208.316V102.576H210.452V100.44Z" fill="#263238"/>
<path opacity="0.2" d="M213.626 100.44H211.49V102.576H213.626V100.44Z" fill="#263238"/>
<path opacity="0.2" d="M216.8 100.44H214.664V102.576H216.8V100.44Z" fill="#263238"/>
<path opacity="0.2" d="M219.98 100.44H217.844V102.576H219.98V100.44Z" fill="#263238"/>
<path opacity="0.2" d="M223.154 100.44H221.018V102.576H223.154V100.44Z" fill="#263238"/>
<path opacity="0.4" d="M106.364 89.346H77.1561C77.0749 89.346 76.9971 89.3138 76.9397 89.2564C76.8823 89.199 76.8501 89.1211 76.8501 89.04C76.8501 89.0001 76.858 88.9606 76.8735 88.9238C76.8889 88.887 76.9116 88.8536 76.9401 88.8257C76.9686 88.7978 77.0024 88.7758 77.0394 88.7611C77.0765 88.7464 77.1162 88.7392 77.1561 88.74H106.364C106.404 88.7392 106.444 88.7464 106.481 88.7611C106.518 88.7758 106.552 88.7978 106.58 88.8257C106.609 88.8536 106.631 88.887 106.647 88.9238C106.662 88.9606 106.67 89.0001 106.67 89.04C106.67 89.1211 106.638 89.199 106.58 89.2564C106.523 89.3138 106.445 89.346 106.364 89.346Z" fill="#263238"/>
<path opacity="0.4" d="M108.308 96.552H77.1561C77.0749 96.552 76.9971 96.5198 76.9397 96.4624C76.8823 96.405 76.8501 96.3272 76.8501 96.246C76.8501 96.2061 76.858 96.1666 76.8735 96.1298C76.8889 96.093 76.9116 96.0597 76.9401 96.0317C76.9686 96.0038 77.0024 95.9818 77.0394 95.9671C77.0765 95.9524 77.1162 95.9452 77.1561 95.946H108.308C108.348 95.9452 108.388 95.9524 108.425 95.9671C108.462 95.9818 108.496 96.0038 108.524 96.0317C108.553 96.0597 108.575 96.093 108.591 96.1298C108.606 96.1666 108.614 96.2061 108.614 96.246C108.614 96.3272 108.582 96.405 108.524 96.4624C108.467 96.5198 108.389 96.552 108.308 96.552Z" fill="#263238"/>
<path opacity="0.4" d="M88.8741 103.758H77.1561C77.0749 103.758 76.9971 103.726 76.9397 103.668C76.8823 103.611 76.8501 103.533 76.8501 103.452C76.8501 103.412 76.858 103.373 76.8735 103.336C76.8889 103.299 76.9116 103.266 76.9401 103.238C76.9686 103.21 77.0024 103.188 77.0394 103.173C77.0765 103.158 77.1162 103.151 77.1561 103.152H88.8741C88.914 103.151 88.9537 103.158 88.9908 103.173C89.0278 103.188 89.0616 103.21 89.0901 103.238C89.1186 103.266 89.1412 103.299 89.1567 103.336C89.1721 103.373 89.1801 103.412 89.1801 103.452C89.1801 103.533 89.1479 103.611 89.0905 103.668C89.0331 103.726 88.9553 103.758 88.8741 103.758Z" fill="#263238"/>
<path opacity="0.4" d="M98.5881 110.964H77.1561C77.0749 110.964 76.9971 110.932 76.9397 110.874C76.8823 110.817 76.8501 110.739 76.8501 110.658C76.8501 110.618 76.858 110.579 76.8735 110.542C76.8889 110.505 76.9116 110.472 76.9401 110.444C76.9686 110.416 77.0024 110.394 77.0394 110.379C77.0765 110.364 77.1162 110.357 77.1561 110.358H98.5881C98.628 110.357 98.6676 110.364 98.7047 110.379C98.7418 110.394 98.7756 110.416 98.8041 110.444C98.8326 110.472 98.8552 110.505 98.8707 110.542C98.8861 110.579 98.8941 110.618 98.8941 110.658C98.8941 110.739 98.8619 110.817 98.8045 110.874C98.7471 110.932 98.6693 110.964 98.5881 110.964Z" fill="#263238"/>
<path opacity="0.4" d="M98.5881 118.2H77.1561C77.0749 118.2 76.9971 118.168 76.9397 118.11C76.8823 118.053 76.8501 117.975 76.8501 117.894C76.8501 117.854 76.858 117.815 76.8735 117.778C76.8889 117.741 76.9116 117.708 76.9401 117.68C76.9686 117.652 77.0024 117.63 77.0394 117.615C77.0765 117.6 77.1162 117.593 77.1561 117.594H98.5881C98.628 117.593 98.6676 117.6 98.7047 117.615C98.7418 117.63 98.7756 117.652 98.8041 117.68C98.8326 117.708 98.8552 117.741 98.8707 117.778C98.8861 117.815 98.8941 117.854 98.8941 117.894C98.8941 117.975 98.8619 118.053 98.8045 118.11C98.7471 118.168 98.6693 118.2 98.5881 118.2Z" fill="#263238"/>
<path opacity="0.4" d="M167.048 89.346H143.648C143.608 89.346 143.569 89.338 143.532 89.3226C143.495 89.3071 143.462 89.2845 143.434 89.256C143.406 89.2275 143.384 89.1937 143.369 89.1566C143.354 89.1196 143.347 89.0799 143.348 89.04C143.348 88.9604 143.38 88.8841 143.436 88.8279C143.492 88.7716 143.569 88.74 143.648 88.74H167.048C167.088 88.7392 167.128 88.7464 167.165 88.7611C167.202 88.7758 167.236 88.7978 167.264 88.8257C167.293 88.8536 167.315 88.887 167.331 88.9238C167.346 88.9606 167.354 89.0001 167.354 89.04C167.354 89.1211 167.322 89.199 167.264 89.2564C167.207 89.3138 167.129 89.346 167.048 89.346Z" fill="#263238"/>
<path opacity="0.4" d="M157.334 96.552H143.666C143.626 96.552 143.587 96.5441 143.55 96.5286C143.513 96.5132 143.48 96.4905 143.452 96.462C143.424 96.4335 143.402 96.3998 143.387 96.3627C143.372 96.3256 143.365 96.2859 143.366 96.246C143.366 96.1664 143.398 96.0901 143.454 96.0339C143.51 95.9776 143.586 95.946 143.666 95.946H157.334C157.414 95.946 157.49 95.9776 157.546 96.0339C157.602 96.0901 157.634 96.1664 157.634 96.246C157.635 96.2859 157.628 96.3256 157.613 96.3627C157.598 96.3998 157.576 96.4335 157.548 96.462C157.52 96.4905 157.487 96.5132 157.45 96.5286C157.413 96.5441 157.374 96.552 157.334 96.552Z" fill="#263238"/>
<path opacity="0.4" d="M157.334 103.758H143.666C143.626 103.758 143.587 103.75 143.55 103.735C143.513 103.719 143.48 103.697 143.452 103.668C143.424 103.64 143.402 103.606 143.387 103.569C143.372 103.532 143.365 103.492 143.366 103.452C143.366 103.372 143.398 103.296 143.454 103.24C143.51 103.184 143.586 103.152 143.666 103.152H157.334C157.414 103.152 157.49 103.184 157.546 103.24C157.602 103.296 157.634 103.372 157.634 103.452C157.635 103.492 157.628 103.532 157.613 103.569C157.598 103.606 157.576 103.64 157.548 103.668C157.52 103.697 157.487 103.719 157.45 103.735C157.413 103.75 157.374 103.758 157.334 103.758Z" fill="#263238"/>
<path opacity="0.4" d="M171.908 110.964H143.666C143.626 110.964 143.587 110.956 143.55 110.941C143.513 110.925 143.48 110.903 143.452 110.874C143.424 110.846 143.402 110.812 143.387 110.775C143.372 110.738 143.365 110.698 143.366 110.658C143.366 110.578 143.398 110.502 143.454 110.446C143.51 110.39 143.586 110.358 143.666 110.358H171.908C171.988 110.358 172.064 110.39 172.12 110.446C172.176 110.502 172.208 110.578 172.208 110.658C172.209 110.698 172.202 110.738 172.187 110.775C172.172 110.812 172.15 110.846 172.122 110.874C172.094 110.903 172.061 110.925 172.024 110.941C171.987 110.956 171.948 110.964 171.908 110.964Z" fill="#263238"/>
<path opacity="0.4" d="M171.908 118.2H143.666C143.626 118.2 143.587 118.192 143.55 118.177C143.513 118.161 143.48 118.139 143.452 118.11C143.424 118.082 143.402 118.048 143.387 118.011C143.372 117.974 143.365 117.934 143.366 117.894C143.366 117.814 143.398 117.738 143.454 117.682C143.51 117.626 143.586 117.594 143.666 117.594H171.908C171.988 117.594 172.064 117.626 172.12 117.682C172.176 117.738 172.208 117.814 172.208 117.894C172.209 117.934 172.202 117.974 172.187 118.011C172.172 118.048 172.15 118.082 172.122 118.11C172.094 118.139 172.061 118.161 172.024 118.177C171.987 118.192 171.948 118.2 171.908 118.2Z" fill="#263238"/>
<path d="M143.951 160.859C151.375 155.473 153.027 145.088 147.641 137.664C142.255 130.24 131.87 128.587 124.446 133.973C117.021 139.36 115.369 149.745 120.755 157.169C126.142 164.593 136.527 166.246 143.951 160.859Z" fill="#999999" stroke="#263238" stroke-linecap="round" stroke-linejoin="round"/>
<path d="M137.246 138C137.071 137.942 136.926 137.818 136.843 137.654C136.76 137.489 136.745 137.299 136.802 137.124L137.792 134.046C137.85 133.871 137.974 133.726 138.138 133.643C138.302 133.56 138.493 133.545 138.668 133.602C138.755 133.629 138.835 133.673 138.905 133.732C138.974 133.791 139.031 133.863 139.073 133.944C139.114 134.025 139.139 134.113 139.146 134.204C139.152 134.295 139.141 134.386 139.112 134.472L138.122 137.55C138.064 137.725 137.94 137.87 137.776 137.954C137.612 138.039 137.422 138.055 137.246 138Z" fill="#D9A322" stroke="#263238" stroke-linecap="round" stroke-linejoin="round"/>
<g opacity="0.4">
<path d="M134.198 166.8C144.898 166.8 153.572 158.126 153.572 147.426C153.572 136.726 144.898 128.052 134.198 128.052C123.498 128.052 114.824 136.726 114.824 147.426C114.824 158.126 123.498 166.8 134.198 166.8Z" stroke="#263238" stroke-width="3" stroke-miterlimit="10" stroke-dasharray="0.98 14.63"/>
</g>
<path d="M96.074 171.6H80.408C80.2489 171.6 80.0962 171.537 79.9837 171.424C79.8712 171.312 79.808 171.159 79.808 171C79.808 170.841 79.8712 170.688 79.9837 170.576C80.0962 170.463 80.2489 170.4 80.408 170.4H96.074C96.2331 170.4 96.3857 170.463 96.4982 170.576C96.6108 170.688 96.674 170.841 96.674 171C96.674 171.079 96.6585 171.157 96.6283 171.23C96.5982 171.302 96.554 171.369 96.4982 171.424C96.4425 171.48 96.3764 171.524 96.3036 171.554C96.2308 171.584 96.1528 171.6 96.074 171.6Z" fill="#263238"/>
<path opacity="0.4" d="M95.078 173.244H81.41C81.3701 173.244 81.3306 173.236 81.2938 173.221C81.257 173.205 81.2237 173.183 81.1958 173.154C81.1678 173.126 81.1458 173.092 81.1311 173.055C81.1164 173.018 81.1092 172.978 81.11 172.938C81.1092 172.898 81.1164 172.858 81.1311 172.821C81.1458 172.784 81.1678 172.75 81.1958 172.722C81.2237 172.694 81.257 172.671 81.2938 172.655C81.3306 172.64 81.3701 172.632 81.41 172.632H95.078C95.118 172.632 95.1575 172.64 95.1943 172.655C95.231 172.671 95.2644 172.694 95.2923 172.722C95.3203 172.75 95.3422 172.784 95.357 172.821C95.3717 172.858 95.3788 172.898 95.378 172.938C95.3788 172.978 95.3717 173.018 95.357 173.055C95.3422 173.092 95.3203 173.126 95.2923 173.154C95.2644 173.183 95.231 173.205 95.1943 173.221C95.1575 173.236 95.118 173.244 95.078 173.244Z" fill="#263238"/>
<path d="M142.034 171.6H126.362C126.203 171.6 126.05 171.537 125.938 171.424C125.825 171.312 125.762 171.159 125.762 171C125.762 170.841 125.825 170.688 125.938 170.576C126.05 170.463 126.203 170.4 126.362 170.4H142.034C142.193 170.4 142.346 170.463 142.458 170.576C142.571 170.688 142.634 170.841 142.634 171C142.634 171.159 142.571 171.312 142.458 171.424C142.346 171.537 142.193 171.6 142.034 171.6Z" fill="#263238"/>
<path opacity="0.4" d="M141.032 173.244H127.364C127.324 173.244 127.285 173.236 127.248 173.221C127.211 173.205 127.178 173.183 127.15 173.154C127.122 173.126 127.1 173.092 127.085 173.055C127.07 173.018 127.063 172.978 127.064 172.938C127.063 172.898 127.07 172.858 127.085 172.821C127.1 172.784 127.122 172.75 127.15 172.722C127.178 172.694 127.211 172.671 127.248 172.655C127.285 172.64 127.324 172.632 127.364 172.632H141.032C141.072 172.632 141.111 172.64 141.148 172.655C141.185 172.671 141.218 172.694 141.246 172.722C141.274 172.75 141.296 172.784 141.311 172.821C141.326 172.858 141.333 172.898 141.332 172.938C141.333 172.978 141.326 173.018 141.311 173.055C141.296 173.092 141.274 173.126 141.246 173.154C141.218 173.183 141.185 173.205 141.148 173.221C141.111 173.236 141.072 173.244 141.032 173.244Z" fill="#263238"/>
<path opacity="0.5" d="M229.196 126.186H169.124C168.05 126.186 167.18 127.056 167.18 128.13V171.87C167.18 172.944 168.05 173.814 169.124 173.814H229.196C230.27 173.814 231.14 172.944 231.14 171.87V128.13C231.14 127.056 230.27 126.186 229.196 126.186Z" fill="#D9A322"/>
<path d="M224.702 133.638H199.808C199.192 133.638 198.692 134.138 198.692 134.754V136.416C198.692 137.032 199.192 137.532 199.808 137.532H224.702C225.318 137.532 225.818 137.032 225.818 136.416V134.754C225.818 134.138 225.318 133.638 224.702 133.638Z" fill="#999999" stroke="#263238" stroke-linecap="round" stroke-linejoin="round"/>
<path d="M223.028 134.838L223.958 136.332L224.888 134.838H223.028Z" fill="#D9A322"/>
<path d="M210.638 136.2H200.804C200.645 136.2 200.492 136.137 200.38 136.024C200.267 135.912 200.204 135.759 200.204 135.6C200.204 135.441 200.267 135.288 200.38 135.176C200.492 135.063 200.645 135 200.804 135H210.638C210.797 135 210.95 135.063 211.062 135.176C211.175 135.288 211.238 135.441 211.238 135.6C211.238 135.759 211.175 135.912 211.062 136.024C210.95 136.137 210.797 136.2 210.638 136.2Z" fill="#263238"/>
<path d="M224.702 162.462H199.808C199.192 162.462 198.692 162.962 198.692 163.578V165.24C198.692 165.856 199.192 166.356 199.808 166.356H224.702C225.318 166.356 225.818 165.856 225.818 165.24V163.578C225.818 162.962 225.318 162.462 224.702 162.462Z" fill="#999999" stroke="#263238" stroke-linecap="round" stroke-linejoin="round"/>
<path d="M223.028 163.662L223.958 165.156L224.888 163.662H223.028Z" fill="#D9A322"/>
<path d="M210.638 165H200.804C200.645 165 200.492 164.937 200.38 164.824C200.267 164.712 200.204 164.559 200.204 164.4C200.204 164.241 200.267 164.088 200.38 163.976C200.492 163.863 200.645 163.8 200.804 163.8H210.638C210.797 163.8 210.95 163.863 211.062 163.976C211.175 164.088 211.238 164.241 211.238 164.4C211.238 164.559 211.175 164.712 211.062 164.824C210.95 164.937 210.797 165 210.638 165Z" fill="#263238"/>
<path d="M224.702 140.844H199.808C199.192 140.844 198.692 141.344 198.692 141.96V143.622C198.692 144.238 199.192 144.738 199.808 144.738H224.702C225.318 144.738 225.818 144.238 225.818 143.622V141.96C225.818 141.344 225.318 140.844 224.702 140.844Z" fill="#999999" stroke="#263238" stroke-linecap="round" stroke-linejoin="round"/>
<path d="M223.028 142.044L223.958 143.538L224.888 142.044H223.028Z" fill="#D9A322"/>
<path d="M213.554 143.4H200.804C200.645 143.4 200.492 143.337 200.38 143.224C200.267 143.112 200.204 142.959 200.204 142.8C200.204 142.641 200.267 142.488 200.38 142.376C200.492 142.263 200.645 142.2 200.804 142.2H213.554C213.713 142.2 213.866 142.263 213.978 142.376C214.091 142.488 214.154 142.641 214.154 142.8C214.154 142.959 214.091 143.112 213.978 143.224C213.866 143.337 213.713 143.4 213.554 143.4Z" fill="#263238"/>
<path d="M224.702 148.05H199.808C199.192 148.05 198.692 148.55 198.692 149.166V150.828C198.692 151.444 199.192 151.944 199.808 151.944H224.702C225.318 151.944 225.818 151.444 225.818 150.828V149.166C225.818 148.55 225.318 148.05 224.702 148.05Z" fill="#999999" stroke="#263238" stroke-linecap="round" stroke-linejoin="round"/>
<path d="M223.028 149.25L223.958 150.75L224.888 149.25H223.028Z" fill="#D9A322"/>
<path d="M210.638 150.6H200.804C200.645 150.6 200.492 150.537 200.38 150.424C200.267 150.312 200.204 150.159 200.204 150C200.204 149.841 200.267 149.688 200.38 149.576C200.492 149.463 200.645 149.4 200.804 149.4H210.638C210.797 149.4 210.95 149.463 211.062 149.576C211.175 149.688 211.238 149.841 211.238 150C211.238 150.159 211.175 150.312 211.062 150.424C210.95 150.537 210.797 150.6 210.638 150.6Z" fill="#263238"/>
<path d="M224.702 155.256H199.808C199.192 155.256 198.692 155.756 198.692 156.372V158.034C198.692 158.65 199.192 159.15 199.808 159.15H224.702C225.318 159.15 225.818 158.65 225.818 158.034V156.372C225.818 155.756 225.318 155.256 224.702 155.256Z" fill="#999999" stroke="#263238" stroke-linecap="round" stroke-linejoin="round"/>
<path d="M223.028 156.456L223.958 157.95L224.888 156.456H223.028Z" fill="#D9A322"/>
<path d="M213.554 157.8H200.804C200.645 157.8 200.492 157.737 200.38 157.624C200.267 157.512 200.204 157.359 200.204 157.2C200.204 157.041 200.267 156.888 200.38 156.776C200.492 156.663 200.645 156.6 200.804 156.6H213.554C213.713 156.6 213.866 156.663 213.978 156.776C214.091 156.888 214.154 157.041 214.154 157.2C214.154 157.359 214.091 157.512 213.978 157.624C213.866 157.737 213.713 157.8 213.554 157.8Z" fill="#263238"/>
<path d="M192.662 136.2H173.108C172.949 136.2 172.796 136.137 172.684 136.024C172.571 135.912 172.508 135.759 172.508 135.6C172.508 135.441 172.571 135.288 172.684 135.176C172.796 135.063 172.949 135 173.108 135H192.662C192.821 135 192.974 135.063 193.086 135.176C193.199 135.288 193.262 135.441 193.262 135.6C193.262 135.759 193.199 135.912 193.086 136.024C192.974 136.137 192.821 136.2 192.662 136.2Z" fill="#263238"/>
<path d="M186.83 143.4H173.108C172.949 143.4 172.796 143.337 172.684 143.224C172.571 143.112 172.508 142.959 172.508 142.8C172.508 142.641 172.571 142.488 172.684 142.376C172.796 142.263 172.949 142.2 173.108 142.2H186.83C186.989 142.2 187.142 142.263 187.254 142.376C187.367 142.488 187.43 142.641 187.43 142.8C187.43 142.959 187.367 143.112 187.254 143.224C187.142 143.337 186.989 143.4 186.83 143.4Z" fill="#263238"/>
<path d="M188.774 150.6H173.108C172.949 150.6 172.796 150.537 172.684 150.424C172.571 150.312 172.508 150.159 172.508 150C172.508 149.841 172.571 149.688 172.684 149.576C172.796 149.463 172.949 149.4 173.108 149.4H188.774C188.933 149.4 189.086 149.463 189.198 149.576C189.311 149.688 189.374 149.841 189.374 150C189.374 150.159 189.311 150.312 189.198 150.424C189.086 150.537 188.933 150.6 188.774 150.6Z" fill="#263238"/>
<path d="M183.914 157.8H173.114C172.955 157.8 172.802 157.737 172.69 157.624C172.577 157.512 172.514 157.359 172.514 157.2C172.514 157.041 172.577 156.888 172.69 156.776C172.802 156.663 172.955 156.6 173.114 156.6H183.914C184.073 156.6 184.226 156.663 184.338 156.776C184.451 156.888 184.514 157.041 184.514 157.2C184.514 157.359 184.451 157.512 184.338 157.624C184.226 157.737 184.073 157.8 183.914 157.8Z" fill="#263238"/>
<path d="M186.83 165H173.108C172.949 165 172.796 164.937 172.684 164.824C172.571 164.712 172.508 164.559 172.508 164.4C172.508 164.241 172.571 164.088 172.684 163.976C172.796 163.863 172.949 163.8 173.108 163.8H186.83C186.989 163.8 187.142 163.863 187.254 163.976C187.367 164.088 187.43 164.241 187.43 164.4C187.43 164.559 187.367 164.712 187.254 164.824C187.142 164.937 186.989 165 186.83 165Z" fill="#263238"/>
<path d="M104.696 149.75C105.975 140.667 99.6499 132.267 90.5673 130.987C81.4846 129.708 73.0843 136.033 71.8046 145.116C70.5248 154.198 76.8504 162.599 85.933 163.878C95.0156 165.158 103.416 158.833 104.696 149.75Z" fill="#999999" stroke="#263238" stroke-linecap="round" stroke-linejoin="round"/>
<path d="M98.168 147.042C98.164 146.951 98.1781 146.86 98.2095 146.774C98.2409 146.689 98.2889 146.61 98.3508 146.543C98.4128 146.476 98.4874 146.422 98.5703 146.384C98.6532 146.346 98.7429 146.325 98.834 146.322L102.062 146.196C102.153 146.192 102.244 146.206 102.33 146.237C102.415 146.269 102.494 146.317 102.561 146.379C102.628 146.441 102.682 146.515 102.72 146.598C102.758 146.681 102.779 146.771 102.782 146.862C102.786 146.953 102.772 147.044 102.741 147.13C102.709 147.215 102.661 147.294 102.599 147.361C102.537 147.428 102.463 147.482 102.38 147.52C102.297 147.558 102.207 147.579 102.116 147.582L98.888 147.708C98.7969 147.712 98.7059 147.698 98.6203 147.667C98.5346 147.635 98.456 147.587 98.3891 147.525C98.3221 147.463 98.2681 147.389 98.2302 147.306C98.1922 147.223 98.1711 147.133 98.168 147.042Z" fill="#D9A322" stroke="#263238" stroke-linecap="round" stroke-linejoin="round"/>
<g opacity="0.4">
<path d="M88.244 166.8C98.944 166.8 107.618 158.126 107.618 147.426C107.618 136.726 98.944 128.052 88.244 128.052C77.544 128.052 68.87 136.726 68.87 147.426C68.87 158.126 77.544 166.8 88.244 166.8Z" stroke="#263238" stroke-width="3" stroke-miterlimit="10" stroke-dasharray="0.98 14.63"/>
</g>
<path d="M151.922 180.426L150.002 179.682L148.088 180.426" stroke="#263238" stroke-linecap="round" stroke-linejoin="round"/>
<path d="M151.922 181.884L150.002 181.14L148.088 181.884" stroke="#263238" stroke-linecap="round" stroke-linejoin="round"/>
<path d="M229.34 67.218H70.67C69.6759 67.218 68.87 68.0239 68.87 69.018V75.918C68.87 76.9121 69.6759 77.718 70.67 77.718H229.34C230.334 77.718 231.14 76.9121 231.14 75.918V69.018C231.14 68.0239 230.334 67.218 229.34 67.218Z" fill="#D9A322" stroke="#263238" stroke-linecap="round" stroke-linejoin="round"/>
<path d="M141.404 73.062V71.862L140.51 71.784C140.457 71.5979 140.383 71.4186 140.288 71.25L140.888 70.566L140.048 69.726L139.364 70.326C139.196 70.2302 139.017 70.1556 138.83 70.104L138.752 69.216H137.552L137.48 70.104C137.293 70.1545 137.114 70.2291 136.946 70.326L136.262 69.726L135.422 70.566L136.022 71.25C135.932 71.42 135.859 71.599 135.806 71.784L134.912 71.862V73.062L135.806 73.14C135.859 73.325 135.932 73.504 136.022 73.674L135.422 74.352L136.262 75.198L136.946 74.598C137.114 74.693 137.293 74.7656 137.48 74.814L137.552 75.708H138.752L138.83 74.814C139.016 74.7645 139.196 74.6919 139.364 74.598L140.048 75.198L140.888 74.352L140.288 73.674C140.383 73.5054 140.457 73.3261 140.51 73.14L141.404 73.062ZM138.134 73.848C137.86 73.848 137.592 73.7666 137.363 73.614C137.135 73.4614 136.958 73.2446 136.853 72.991C136.748 72.7374 136.721 72.4584 136.775 72.1894C136.829 71.9204 136.962 71.6734 137.156 71.4798C137.351 71.2862 137.598 71.1547 137.867 71.1019C138.137 71.0491 138.416 71.0774 138.669 71.1832C138.922 71.2891 139.138 71.4676 139.289 71.6964C139.441 71.9251 139.521 72.1936 139.52 72.468C139.52 72.6497 139.484 72.8297 139.414 72.9975C139.345 73.1653 139.243 73.3177 139.114 73.4459C138.985 73.5742 138.832 73.6757 138.664 73.7447C138.496 73.8137 138.316 73.8488 138.134 73.848Z" fill="#263238"/>
<path d="M144.272 69.6C145.124 69.6 145.556 70.11 145.556 70.998V71.178H144.734V70.944C144.734 70.548 144.572 70.398 144.296 70.398C144.02 70.398 143.858 70.548 143.858 70.944C143.858 71.34 144.032 71.652 144.602 72.144C145.334 72.786 145.568 73.248 145.568 73.884C145.6 74.0668 145.588 74.2545 145.535 74.4322C145.482 74.61 145.389 74.773 145.262 74.9084C145.135 75.0439 144.979 75.1482 144.805 75.213C144.631 75.2778 144.445 75.3014 144.26 75.282C143.402 75.282 142.958 74.772 142.958 73.884V73.542H143.786V73.938C143.786 74.34 143.96 74.478 144.236 74.478C144.512 74.478 144.692 74.34 144.692 73.938C144.692 73.536 144.518 73.23 143.942 72.738C143.21 72.09 142.982 71.634 142.982 70.992C142.982 70.128 143.42 69.6 144.272 69.6Z" fill="#263238"/>
<path d="M146.942 72.03H148.142V72.822H146.942V74.454H148.454V75.252H146.054V69.684H148.454V70.476H146.942V72.03Z" fill="#263238"/>
<path d="M148.736 69.684H151.442V70.476H150.53V75.276H149.654V70.476H148.736V69.684Z" fill="#263238"/>
<path d="M151.568 69.684H154.274V70.476H153.356V75.276H152.486V70.476H151.568V69.684Z" fill="#263238"/>
<path d="M154.652 69.684H155.528V75.252H154.652V69.684Z" fill="#263238"/>
<path d="M156.962 71.22V75.252H156.176V69.684H157.274L158.156 73.014V69.684H158.936V75.252H158.042L156.962 71.22Z" fill="#263238"/>
<path d="M160.874 72.15H162.074V73.914C162.106 74.0968 162.094 74.2845 162.041 74.4622C161.988 74.64 161.895 74.803 161.768 74.9384C161.641 75.0739 161.485 75.1782 161.311 75.243C161.137 75.3078 160.95 75.3314 160.766 75.312C159.908 75.312 159.464 74.802 159.464 73.914V71.016C159.464 70.128 159.908 69.618 160.766 69.618C160.95 69.5986 161.137 69.6222 161.311 69.687C161.485 69.7519 161.641 69.8561 161.768 69.9916C161.895 70.127 161.988 70.2901 162.041 70.4678C162.094 70.6456 162.106 70.8332 162.074 71.016V71.562H161.3V70.962C161.3 70.566 161.126 70.416 160.844 70.416C160.562 70.416 160.394 70.566 160.394 70.962V73.962C160.394 74.364 160.568 74.502 160.844 74.502C161.12 74.502 161.3 74.364 161.3 73.962V72.936H160.904L160.874 72.15Z" fill="#263238"/>
<path d="M163.838 69.6C164.69 69.6 165.128 70.11 165.128 70.998V71.178H164.3V70.944C164.3 70.548 164.138 70.398 163.862 70.398C163.586 70.398 163.424 70.548 163.424 70.944C163.424 71.34 163.598 71.652 164.174 72.144C164.462 72.3353 164.7 72.5934 164.867 72.8963C165.034 73.1993 165.126 73.5381 165.134 73.884C165.134 74.772 164.69 75.282 163.832 75.282C163.648 75.3014 163.461 75.2778 163.287 75.213C163.113 75.1482 162.957 75.0439 162.83 74.9084C162.703 74.773 162.61 74.61 162.557 74.4322C162.504 74.2545 162.492 74.0668 162.524 73.884V73.542H163.352V73.938C163.352 74.34 163.526 74.478 163.808 74.478C164.09 74.478 164.258 74.34 164.258 73.938C164.258 73.536 164.084 73.23 163.514 72.738C162.782 72.09 162.548 71.634 162.548 70.992C162.548 70.128 162.986 69.6 163.838 69.6Z" fill="#263238"/>
<g opacity="0.4">
<path d="M138.764 61.758L63.7101 136.8V67.02C63.7101 65.6244 64.2645 64.286 65.2513 63.2992C66.2381 62.3124 67.5765 61.758 68.9721 61.758H138.764Z" fill="white"/>
<path d="M163.574 61.758L63.7101 161.622V157.608L159.56 61.758H163.574Z" fill="white"/>
<path d="M204.26 61.758L82.4001 183.618H81.1461L203 61.758H204.26Z" fill="white"/>
</g>
<path opacity="0.3" d="M216.806 88.434C212.606 88.164 211.49 95.376 211.49 102.582C211.49 109.788 213.89 114.444 214.664 116.982C215.438 119.52 215.402 127.95 214.16 131.334C212.918 134.718 207.656 145.368 204.23 151.584C200.804 157.8 205.61 176.694 208.316 181.5C211.022 186.306 225.368 190.83 228.524 196.5C231.68 202.17 230.246 203.802 233.138 208.02C236.03 212.238 249.722 227.016 257.27 253.494L263.816 163.632L239.012 136.944L216.806 88.434Z" fill="black" fill-opacity="0.7"/>
<path d="M256.328 257.442L256.22 257.574L256.724 257.364C256.574 257.4 256.436 257.43 256.328 257.442ZM292.61 212.64C292.148 211.878 291.71 211.14 291.29 210.426C282.722 195.822 281.198 189.558 280.178 185.346C279.796 183.43 279.175 181.57 278.33 179.808L277.832 178.848C276.414 176.347 275.327 173.673 274.598 170.892C274.082 168.678 274.808 163.284 275.51 158.07C276.014 154.308 276.494 150.762 276.446 148.746V148.032C276.326 142.752 276.074 131.772 274.976 128.694C273.92 125.736 272.858 125.268 270.926 124.428L270.326 124.152C269.6 123.828 268.376 123.15 266.96 122.352C263.78 120.594 259.814 118.392 257.78 118.056C255.875 117.783 253.938 117.817 252.044 118.158C249.572 116.154 245.366 113.538 244.088 113.454C242.81 113.37 239.612 114.276 239.078 114.426C238.365 113.835 237.597 113.313 236.786 112.866C234.956 112.038 231.872 112.146 231.314 112.176C229.208 108.732 227.114 105.288 226.244 103.776C224.642 101.076 220.244 91.254 218.948 88.32C218.72 87.804 218.588 87.498 218.576 87.48C218.56 87.444 218.533 87.4144 218.498 87.396C218.456 87.396 214.616 86.028 213.008 89.592C211.4 93.156 213.332 101.376 215.378 104.364C216.368 105.81 219.008 111.66 221.684 117.708C221.492 117.882 220.946 118.356 220.196 118.986C218.042 120.786 214.196 123.834 212.072 124.524C209.726 125.28 209.936 137.208 210.098 146.796C210.158 150.324 210.212 153.396 210.098 155.196C210.008 156.906 211.442 158.97 213.638 161.196H213.668C216.409 163.825 219.289 166.304 222.296 168.624C227.81 173.046 233.51 177.624 234.098 180.834C234.615 184.051 236.062 187.046 238.262 189.45C241.208 192.486 251.762 238.614 255.062 253.116C255.662 255.81 256.04 257.406 256.058 257.454L256.352 257.394C258.458 254.784 292.604 212.796 292.58 212.79C292.598 212.77 292.61 212.746 292.615 212.719C292.621 212.693 292.619 212.665 292.61 212.64ZM221.102 131.082C221.522 130.674 224.354 127.848 224.894 125.04C226.814 129.372 228.002 131.976 228.296 132.24C228.59 132.504 228.536 133.884 228.488 135.204C228.404 136.36 228.404 137.522 228.488 138.678C227.984 139.098 224.756 141.876 224.054 144.168L221.468 140.946L221.102 131.082Z" fill="white"/>
<path opacity="0.4" d="M230.474 135.336C231.362 131.562 226.874 127.794 221.642 117.714C221.45 117.888 220.904 118.362 220.154 118.992C220.946 121.134 221.522 123.612 220.43 124.5C218.354 126.192 217.544 126.246 217.64 128.1C217.736 129.954 220.142 143.052 219.128 146.1C218.114 149.148 225.128 149.988 226.22 150.594C227.312 151.2 226.172 145.848 228.836 143.598C231.5 141.348 229.484 139.542 230.474 135.336ZM224.078 144.186L221.492 140.964L221.102 131.082C221.522 130.674 224.354 127.848 224.894 125.04C226.814 129.372 228.002 131.976 228.296 132.24C228.59 132.504 228.536 133.884 228.488 135.204C228.404 136.36 228.404 137.522 228.488 138.678C228.008 139.116 224.78 141.894 224.078 144.186Z" fill="#D9A322"/>
<path opacity="0.4" d="M255.038 253.164C251.738 238.662 241.184 192.534 238.238 189.498C236.038 187.094 234.591 184.099 234.074 180.882C233.474 177.666 227.786 173.082 222.272 168.672C219.265 166.352 216.385 163.873 213.644 161.244C219.044 165.75 232.358 175.044 234.776 175.122C237.284 175.194 237.494 185.268 241.556 187.908C245.444 190.422 261.164 234.774 255.038 253.164Z" fill="#D9A322"/>
<path opacity="0.4" d="M291.29 210.42C283.934 208.422 277.334 193.428 276.962 189.768C276.524 185.472 276.602 182.184 271.496 176.436C266.39 170.688 269.444 167.574 269.444 167.574C269.852 169.5 273.308 172.518 273.308 172.518C271.916 168.192 273.506 152.478 274.16 149.544C274.76 146.964 274.988 131.046 271.76 125.778C267.986 123.42 268.34 127.416 265.382 127.212C263.78 127.098 261.116 125.292 258.638 125.244C256.346 125.214 256.328 128.334 249.872 125.334C246.626 123.822 245.072 128.448 241.334 126.534C235.7 123.6 231.914 112.956 228.224 109.8C226.496 108.306 222.572 101.694 221.81 97.626C221.21 94.476 217.052 97.404 215.078 94.026C213.458 91.236 214.34 87.216 218.912 88.374C220.22 91.308 224.606 101.13 226.208 103.83C227.102 105.342 229.172 108.786 231.278 112.23C231.836 112.2 234.92 112.092 236.75 112.92C237.561 113.367 238.329 113.889 239.042 114.48C239.576 114.33 242.762 113.412 244.052 113.508C245.342 113.604 249.536 116.208 252.008 118.212C253.902 117.871 255.839 117.837 257.744 118.11C259.778 118.446 263.744 120.648 266.924 122.406C268.34 123.198 269.564 123.876 270.29 124.206L270.89 124.482C272.822 125.322 273.89 125.79 274.94 128.748C276.038 131.826 276.29 142.806 276.41 148.086V148.8C276.458 150.816 275.978 154.362 275.474 158.124C274.772 163.338 274.046 168.732 274.562 170.946C275.291 173.727 276.378 176.401 277.796 178.902L278.294 179.862C279.139 181.624 279.76 183.484 280.142 185.4C281.198 189.552 282.722 195.816 291.29 210.42Z" fill="#D9A322"/>
<path d="M241.064 124.272C239.286 123.656 237.742 122.505 236.642 120.978C234.878 118.47 227.99 107.07 226.082 103.854C224.174 100.638 218.408 87.534 218.408 87.534C218.408 87.534 214.67 86.166 213.104 89.652C211.538 93.138 213.314 101.154 215.462 104.286C217.61 107.418 227.576 131.364 228.398 132.15C229.22 132.936 227.798 139.206 229.418 140.778" stroke="#263238" stroke-linecap="round" stroke-linejoin="round"/>
<path d="M228.668 138.756C228.668 138.756 224.672 142.038 224.144 144.498L221.354 141.018L220.952 131.022C220.952 131.022 224.552 127.632 224.822 124.524" stroke="#263238" stroke-linecap="round" stroke-linejoin="round"/>
<path d="M221.828 117.744C221.828 117.744 215.186 123.666 212.078 124.668C208.97 125.67 210.56 148.596 210.218 155.214C209.876 161.832 232.97 174.036 234.218 180.858C234.73 184.048 236.167 187.017 238.352 189.396C241.898 193.05 256.172 257.442 256.172 257.442" stroke="#263238" stroke-linecap="round" stroke-linejoin="round"/>
<path d="M231.2 112.326C231.2 112.326 234.728 112.11 236.69 112.992C238.652 113.874 246.5 121.026 248.408 122.4C250.316 123.774 253.208 124.356 253.742 125.796" stroke="#263238" stroke-linecap="round" stroke-linejoin="round"/>
<path d="M239.012 114.6C239.012 114.6 242.672 113.508 244.04 113.61C245.408 113.712 250.526 116.928 252.8 119.01C254.539 120.647 256.559 121.956 258.764 122.874" stroke="#263238" stroke-linecap="round" stroke-linejoin="round"/>
<path d="M251.972 118.314C253.869 117.962 255.811 117.924 257.72 118.2C260.648 118.68 267.92 123.234 270.23 124.278C272.54 125.322 273.674 125.538 274.82 128.742C275.966 131.946 276.188 143.988 276.302 148.746C276.416 153.504 273.548 167.058 274.46 170.946C275.372 174.834 277.136 177.816 278.198 179.898C281.324 186.03 278.432 189.342 292.484 212.748" stroke="#263238" stroke-linecap="round" stroke-linejoin="round"/>
<path d="M256.448 127.164C259.076 130.122 257.924 135.042 257.33 136.464C256.736 137.886 257.852 143.988 258.038 147.222" stroke="#263238" stroke-linecap="round" stroke-linejoin="round"/>
<path d="M237.464 127.392C242.774 128.154 244.034 131.982 244.064 134.394" stroke="#263238" stroke-linecap="round" stroke-linejoin="round"/>
<path d="M260.75 124.8C262.346 124.878 266.12 127.86 266.42 132.03" stroke="#263238" stroke-linecap="round" stroke-linejoin="round"/>
<path d="M220.952 131.022C220.952 131.022 220.436 128.664 219.674 128.34" stroke="#263238" stroke-linecap="round" stroke-linejoin="round"/>
<path d="M221.354 141C221.584 142.377 221.911 143.737 222.332 145.068C222.866 146.508 221.912 148.542 221.912 148.542" stroke="#263238" stroke-linecap="round" stroke-linejoin="round"/>
<path d="M224.144 144.498C223.982 146.778 226.178 149.508 226.742 149.148" stroke="#263238" stroke-linecap="round" stroke-linejoin="round"/>
<path opacity="0.3" d="M99.074 136.908C102.248 138.498 99.188 155.184 94.034 159.6L89.18 178.602L94.034 199.386L106.1 191.82C106.1 191.82 107.3 184.416 111.698 181.884C116.096 179.352 116.108 183.36 116.108 183.36C116.108 183.36 111.404 195.048 111.698 199.386C111.992 203.724 103.844 211.758 100.004 217.554C96.164 223.35 86.6 221.292 76.982 227.538C67.364 233.784 39.182 263.538 39.182 263.538L57.242 189.75L99.074 136.908Z" fill="black" fill-opacity="0.7"/>
<path d="M104.51 185.346C103.622 186.451 102.82 187.623 102.11 188.85C101.714 189.498 101.342 190.176 100.976 190.872C100.808 191.178 100.646 191.472 100.49 191.802L100.43 191.922C100.25 192.276 100.076 192.63 99.896 192.99C99.8765 193.039 99.8545 193.087 99.83 193.134C99.674 193.446 99.53 193.734 99.386 194.07C99.242 194.406 99.05 194.796 98.894 195.156L98.468 196.122C98.054 197.058 97.664 197.994 97.268 198.894C96.872 199.794 96.578 200.598 96.26 201.39C96.224 201.468 96.194 201.546 96.164 201.624C96.08 201.822 96.002 202.02 95.93 202.224C95.552 203.178 95.204 204.054 94.886 204.816C94.8651 204.878 94.839 204.938 94.808 204.996C94.808 205.044 94.76 205.098 94.73 205.146C94.0619 206.198 93.1709 207.091 92.12 207.762C91.91 207.912 91.694 208.062 91.466 208.206C90.866 208.62 90.152 209.028 89.42 209.442L88.862 209.742C88.412 209.988 87.956 210.228 87.482 210.462C82.082 213.21 75.422 215.682 73.724 217.518C71.474 219.966 71.084 221.964 68.324 224.844C67.5332 225.67 66.6872 226.442 65.792 227.154C62.306 229.98 54.206 245.052 49.208 254.754C46.718 259.584 45.008 263.088 45.008 263.088L10.526 246.888C10.526 246.888 28.628 221.76 29.54 217.488C30.452 213.216 33.074 208.866 33.074 208.866C33.074 208.866 32.624 199.23 33.278 192.462C33.932 185.694 35.558 174.312 36.326 169.764C37.094 165.216 41.552 158.1 43.688 152.682C45.824 147.264 47.054 142.368 48.944 139.038C50.834 135.708 52.67 129.81 53.78 129.186C54.89 128.562 56.066 129.546 57.272 131.268C58.478 132.99 55.568 142.998 55.568 142.998C57.68 139.518 59.006 132.33 59.768 130.464C60.53 128.598 62 119.934 62 119.934C62.7771 119.431 63.63 119.056 64.526 118.824C65.3146 118.603 66.1521 118.628 66.926 118.896C69.098 119.748 70.25 124.512 69.668 130.026C69.086 135.54 65.984 147.378 65.984 147.378L74.984 133.71C76.724 131.058 79.724 120.636 80.258 119.964C80.648 119.472 83.084 118.26 84.986 119.442C85.8314 120.013 86.4493 120.862 86.732 121.842C88.31 126.444 83.732 136.788 83.132 138.816C82.622 140.472 78.65 147.3 77.222 149.742L76.766 150.528C77.174 149.928 80.036 145.914 82.166 145.272C84.47 144.582 89.036 141.624 91.964 139.842C94.892 138.06 95.024 131.856 99.08 136.842C100.796 138.954 99.8 142.71 98.294 146.124C96.788 149.538 89.582 155.676 89.582 155.676C89.306 156.45 88.628 158.244 87.782 160.428C87.752 160.518 87.716 160.602 87.68 160.692C87.536 161.088 87.38 161.496 87.218 161.892C87.008 162.444 86.786 163.014 86.564 163.584C86.444 163.884 86.33 164.184 86.216 164.49C86.102 164.796 85.94 165.192 85.802 165.54C85.736 165.72 85.664 165.894 85.598 166.068C85.598 166.116 85.562 166.17 85.538 166.212C85.424 166.512 85.304 166.812 85.19 167.1L84.992 167.604C84.752 168.204 84.512 168.804 84.29 169.374C84.2624 169.43 84.2384 169.489 84.218 169.548C84.158 169.686 84.098 169.836 84.044 169.974C83.924 170.268 83.81 170.574 83.696 170.82C83.582 171.066 83.48 171.342 83.384 171.588C82.928 172.668 82.574 173.46 82.394 173.766C81.47 175.326 84.482 191.712 86.882 189.666C89.282 187.62 95.558 177.474 95.558 177.474C96.44 171.612 99.758 166.962 104.21 165.03C104.586 164.866 104.971 164.722 105.362 164.598C110.42 163.008 110.96 166.902 110.96 166.902C104.762 181.41 108.74 180.246 104.51 185.346Z" fill="white"/>
<path opacity="0.4" d="M66.002 147.396L57.422 160.506C58.148 155.706 62.408 145.446 62.408 145.446C63.008 141.516 68.186 123.18 66.452 120.294C65.8982 119.703 65.2466 119.212 64.526 118.842C65.3146 118.621 66.1521 118.646 66.926 118.914C69.098 119.766 70.25 124.53 69.668 130.044C69.086 135.558 66.002 147.396 66.002 147.396Z" fill="#D9A322"/>
<path opacity="0.4" d="M57.2419 131.286C57.2839 131.34 57.3919 131.484 57.5479 131.712C57.4902 131.45 57.4181 131.192 57.3319 130.938L57.2419 131.286Z" fill="#D9A322"/>
<path opacity="0.4" d="M47.9 160.35C47.9 160.35 54.08 149.832 56.666 140.7C57.626 137.322 58.088 134.13 57.572 131.742C57.5143 131.48 57.4422 131.222 57.356 130.968L57.248 131.292C56.834 130.664 56.3375 130.095 55.772 129.6C56.252 131.16 56.516 134.028 54.212 137.928C50.606 144.036 49.91 152.532 47.9 160.35Z" fill="#D9A322"/>
<path opacity="0.4" d="M87.2599 192.414C90.6619 189.66 93.4219 181.836 97.0159 177.858C97.0159 177.858 96.9019 170.754 104.216 165.114C99.7459 167.046 96.4459 171.714 95.5639 177.558C95.5639 177.558 89.2819 187.704 86.8879 189.75C84.4939 191.796 81.4879 175.41 82.3999 173.85C82.5799 173.544 82.9339 172.752 83.3899 171.666C83.4919 171.426 83.5939 171.168 83.7079 170.904C83.8219 170.64 83.9299 170.346 84.0499 170.058C84.1099 169.92 84.1639 169.77 84.2239 169.632C84.2443 169.573 84.2683 169.514 84.2959 169.458C84.5179 168.894 84.7519 168.3 84.9979 167.688C85.0639 167.52 85.1299 167.352 85.2019 167.184C85.3099 166.89 85.4299 166.584 85.5499 166.296C85.5499 166.248 85.5499 166.2 85.6039 166.146C85.6699 165.978 85.7419 165.804 85.8079 165.624C85.9459 165.276 86.0779 164.928 86.2219 164.574L86.5699 163.668C86.7919 163.098 87.0139 162.528 87.2239 161.976C87.3799 161.562 87.5359 161.154 87.6919 160.776C87.7219 160.686 87.7579 160.596 87.7879 160.512C87.4639 161.142 81.4699 172.728 79.1959 175.188C76.9219 177.648 78.9859 195.036 83.6659 193.584C83.6599 193.572 84.7279 194.46 87.2599 192.414Z" fill="#D9A322"/>
<path opacity="0.4" d="M33.248 192.48C32.594 199.248 33.044 208.884 33.044 208.884C33.044 208.884 30.416 213.228 29.51 217.506C29.264 218.658 27.77 221.322 25.73 224.598C26.252 223.896 31.838 216.378 32.594 213.426C33.386 210.324 34.502 209.718 37.268 206.406C40.034 203.094 42.542 204.24 42.542 204.24C42.542 204.24 40.934 213.966 45.026 208.44C49.118 202.914 51.584 195.792 52.556 169.05C52.556 169.05 50.756 171.948 48.956 181.5C47.156 191.052 44.102 193.266 44.102 193.266C42.3678 186.478 41.4275 179.511 41.3 172.506C41.3 172.506 39.05 183.624 38.36 188.784C37.67 193.944 37.508 182.352 37.16 175.116C36.824 168.33 37.406 165.948 39.416 161.736C37.97 164.694 36.71 167.544 36.326 169.782C35.528 174.33 33.902 185.712 33.248 192.48Z" fill="#D9A322"/>
<path opacity="0.4" d="M68.3 224.844C67.5091 225.67 66.6632 226.442 65.768 227.154C62.282 229.98 54.182 245.052 49.184 254.754C50.186 250.5 51.986 244.512 55.01 239.19C60.422 229.668 65.762 227.16 68.3 224.844Z" fill="#D9A322"/>
<path opacity="0.4" d="M83.138 138.852C82.628 140.508 78.656 147.336 77.228 149.778C75.428 151.866 70.502 162.102 69.296 163.578C68.09 165.054 65.78 165.18 66.806 162.912C68.48 159.21 73.556 146.532 76.178 144.072C78.8 141.612 82.832 131.208 84.872 125.358C85.898 122.4 85.586 120.558 85.016 119.4C85.8614 119.971 86.4794 120.82 86.762 121.8C88.322 126.48 83.768 136.8 83.138 138.852Z" fill="#D9A322"/>
<path opacity="0.4" d="M91.958 139.896C89.042 141.696 84.494 144.618 82.184 145.296C82.496 145.236 86.606 144.474 88.088 146.994C89.624 149.628 89.576 155.724 89.576 155.724C89.576 155.724 96.776 149.586 98.288 146.172C99.8 142.758 100.79 139.002 99.074 136.884C95.018 131.91 94.892 138.12 91.958 139.896Z" fill="#D9A322"/>
<path d="M44.978 263.106C44.978 263.106 60.578 231.384 65.774 227.154C70.97 222.924 70.904 220.554 73.712 217.518C76.52 214.482 92.864 209.718 94.88 204.81C96.896 199.902 100.28 190.458 104.516 185.352C108.752 180.246 104.762 181.41 110.966 166.986C110.966 166.986 110.414 163.092 105.362 164.682C100.31 166.272 96.5 171.204 95.558 177.564C95.558 177.564 89.276 187.704 86.876 189.75C84.476 191.796 81.476 175.41 82.394 173.85C83.312 172.29 88.64 158.31 89.594 155.748C89.594 155.748 96.794 149.604 98.3 146.196C99.806 142.788 100.808 138.996 99.092 136.908C95.036 131.91 94.892 138.108 91.976 139.908C89.06 141.708 84.488 144.648 82.178 145.338C79.868 146.028 76.7 150.66 76.7 150.66C76.7 150.66 82.508 140.88 83.138 138.852C83.768 136.824 88.316 126.48 86.738 121.878C85.16 117.276 80.804 119.298 80.27 119.97C79.736 120.642 76.736 131.058 74.99 133.71L65.99 147.396C65.99 147.396 69.092 135.57 69.674 130.05C70.256 124.53 69.074 119.766 66.932 118.908C64.79 118.05 61.994 119.952 61.994 119.952C61.994 119.952 60.548 128.61 59.756 130.476C58.964 132.342 57.638 139.536 55.556 143.016C55.556 143.016 58.466 133.002 57.26 131.28C56.054 129.558 54.86 128.58 53.774 129.204C52.688 129.828 50.816 135.72 48.932 139.056C47.048 142.392 45.806 147.282 43.676 152.7C41.546 158.118 37.1 165.228 36.302 169.8C35.504 174.372 33.902 185.736 33.248 192.504C32.594 199.272 33.044 208.908 33.044 208.908C33.044 208.908 30.416 213.252 29.51 217.53C28.604 221.808 10.496 246.93 10.496 246.93" stroke="#263238" stroke-linecap="round" stroke-linejoin="round"/>
<path d="M66.0019 147.396C64.2619 149.58 58.7599 159.318 57.4219 160.506C56.7292 161.18 55.8596 161.644 54.9139 161.844" stroke="#263238" stroke-linecap="round" stroke-linejoin="round"/>
<path d="M55.538 143.016C55.538 143.016 55.166 145.2 52.1 151.734C49.034 158.268 47.672 160.998 46.604 162.342" stroke="#263238" stroke-linecap="round" stroke-linejoin="round"/>
<path d="M76.6999 150.66C74.1319 154.428 71.4919 160.86 70.1359 162.618C68.7799 164.376 67.9459 164.61 67.9459 164.61" stroke="#263238" stroke-linecap="round" stroke-linejoin="round"/>
<path d="M71.6479 160.014C70.6189 160.422 69.7104 161.085 69.0079 161.94" stroke="#263238" stroke-linecap="round" stroke-linejoin="round"/>
<path d="M86.9 189.75C86.9 189.75 84.596 195.054 81.26 193.662" stroke="#263238" stroke-linecap="round" stroke-linejoin="round"/>
<path d="M82.3939 173.85C82.3939 173.85 79.6759 180.168 80.3779 183.36" stroke="#263238" stroke-linecap="round" stroke-linejoin="round"/>
<path d="M54.7339 166.248C54.7339 166.248 52.0159 167.022 52.4119 171.648C52.8079 176.274 50.8459 193.848 50.8459 193.848" stroke="#263238" stroke-linecap="round" stroke-linejoin="round"/>
<path d="M43.3879 167.844C41.3719 171.348 41.2579 171.444 41.5519 176.496C41.8459 181.548 41.2579 193.62 41.2579 193.62" stroke="#263238" stroke-linecap="round" stroke-linejoin="round"/>
<path d="M33.0439 208.884C33.0439 208.884 35.4139 206.232 34.8439 203.364" stroke="#263238" stroke-linecap="round" stroke-linejoin="round"/>
<path d="M65.7739 227.154C65.7739 227.154 60.4339 231.486 57.0859 237.066" stroke="#263238" stroke-linecap="round" stroke-linejoin="round"/>
</svg>
