<svg width="200" height="200" viewBox="0 0 301 300" fill="none" xmlns="http://www.w3.org/2000/svg">
<path d="M59.3 93.252C73.7001 54.912 124.004 30.3 161.78 52.038C195.08 71.196 195.704 118.26 201.68 151.554C202.88 158.1 204.524 164.88 208.88 169.89C217.448 179.694 230.726 181.632 235.52 195.144C239.912 207.516 235.682 222.144 226.142 230.946C213.5 242.61 193.844 242.856 179.378 234.546C163.706 225.546 152.93 210.48 140.678 197.634C136.334 193.074 131.366 187.554 125.75 184.536C119.498 181.182 112.016 181.92 105.17 182.136C59.486 183.642 45.788 129.06 59.3 93.252Z" fill="#7049A3"/>
<path opacity="0.9" d="M59.3 93.252C73.7001 54.912 124.004 30.3 161.78 52.038C195.08 71.196 195.704 118.26 201.68 151.554C202.88 158.1 204.524 164.88 208.88 169.89C217.448 179.694 230.726 181.632 235.52 195.144C239.912 207.516 235.682 222.144 226.142 230.946C213.5 242.61 193.844 242.856 179.378 234.546C163.706 225.546 152.93 210.48 140.678 197.634C136.334 193.074 131.366 187.554 125.75 184.536C119.498 181.182 112.016 181.92 105.17 182.136C59.486 183.642 45.788 129.06 59.3 93.252Z" fill="white"/>
<path d="M150.5 256.536C214.75 256.536 266.834 253.495 266.834 249.744C266.834 245.993 214.75 242.952 150.5 242.952C86.2505 242.952 34.166 245.993 34.166 249.744C34.166 253.495 86.2505 256.536 150.5 256.536Z" fill="#F5F5F5"/>
<path d="M199.982 234.738C199.982 234.738 196.982 228.258 200.402 221.862C203.822 215.466 204.782 213.966 202.622 212.658C200.462 211.35 199.46 217.8 199.46 217.8C198.385 214.898 198.274 211.728 199.142 208.758C200.648 204.132 201.596 196.602 199.538 195.792C197.48 194.982 199.148 205.188 197.36 208.668C196.45 206.227 195.863 203.677 195.614 201.084C195.368 197.37 195.752 191.436 194.126 189.918C192.5 188.4 191.462 189.444 193.058 197.646C194.017 202.542 194.547 207.513 194.642 212.502C194.642 212.502 191.12 201.75 188.75 201.438C186.38 201.126 186.386 204.606 188.414 207.624C190.442 210.642 194.348 216.054 194.984 218.838C194.984 218.838 191.114 210.75 187.634 213.228C184.154 215.706 190.664 220.596 193.568 222.36C196.472 224.124 198.488 235.194 198.488 235.194L199.982 234.738Z" fill="#7049A3"/>
<path opacity="0.2" d="M199.982 234.738C199.982 234.738 196.982 228.258 200.402 221.862C203.822 215.466 204.782 213.966 202.622 212.658C200.462 211.35 199.46 217.8 199.46 217.8C198.385 214.898 198.274 211.728 199.142 208.758C200.648 204.132 201.596 196.602 199.538 195.792C197.48 194.982 199.148 205.188 197.36 208.668C196.45 206.227 195.863 203.677 195.614 201.084C195.368 197.37 195.752 191.436 194.126 189.918C192.5 188.4 191.462 189.444 193.058 197.646C194.017 202.542 194.547 207.513 194.642 212.502C194.642 212.502 191.12 201.75 188.75 201.438C186.38 201.126 186.386 204.606 188.414 207.624C190.442 210.642 194.348 216.054 194.984 218.838C194.984 218.838 191.114 210.75 187.634 213.228C184.154 215.706 190.664 220.596 193.568 222.36C196.472 224.124 198.488 235.194 198.488 235.194L199.982 234.738Z" fill="black"/>
<path d="M197.636 237.396C197.636 237.396 200.528 230.868 197.036 224.532C193.544 218.196 192.56 216.696 194.708 215.358C196.856 214.02 197.924 220.422 197.924 220.422C198.965 217.507 199.038 214.334 198.134 211.374C196.574 206.778 195.536 199.26 197.588 198.42C199.64 197.58 198.092 207.81 199.916 211.26C200.799 208.805 201.356 206.246 201.572 203.646C201.776 199.932 201.32 194.004 202.928 192.462C204.536 190.92 205.586 191.952 204.086 200.172C203.184 205.081 202.714 210.061 202.682 215.052C202.682 215.052 206.078 204.252 208.442 203.904C210.806 203.556 210.842 207.036 208.85 210.084C206.858 213.132 203.024 218.604 202.412 221.394C202.412 221.394 206.186 213.246 209.696 215.676C213.206 218.106 206.756 223.086 203.876 224.898C200.996 226.71 199.112 237.804 199.112 237.804L197.636 237.396Z" fill="#7049A3"/>
<path d="M210.98 232.746H187.076L189.014 249.852H209.048L210.98 232.746Z" fill="#263238"/>
<path opacity="0.2" d="M257.93 62.64H131.594C130.772 62.64 130.106 63.3062 130.106 64.128V176.34C130.106 177.162 130.772 177.828 131.594 177.828H257.93C258.752 177.828 259.418 177.162 259.418 176.34V64.128C259.418 63.3062 258.752 62.64 257.93 62.64Z" fill="black"/>
<path d="M253.04 60.51H126.704C125.882 60.51 125.216 61.1762 125.216 61.998V174.21C125.216 175.032 125.882 175.698 126.704 175.698H253.04C253.862 175.698 254.528 175.032 254.528 174.21V61.998C254.528 61.1762 253.862 60.51 253.04 60.51Z" fill="#7049A3"/>
<path opacity="0.6" d="M125.216 70.8V174.216C125.185 174.571 125.293 174.924 125.517 175.201C125.74 175.479 126.063 175.659 126.416 175.704H253.292C253.652 175.668 253.983 175.491 254.214 175.213C254.445 174.935 254.558 174.577 254.528 174.216V70.8H125.216Z" fill="white"/>
<path d="M252.992 76.866H126.746V168.228H252.992V76.866Z" fill="white"/>
<path opacity="0.6" d="M250.304 67.626C251.351 67.626 252.2 66.6025 252.2 65.34C252.2 64.0775 251.351 63.054 250.304 63.054C249.257 63.054 248.408 64.0775 248.408 65.34C248.408 66.6025 249.257 67.626 250.304 67.626Z" fill="white"/>
<path opacity="0.6" d="M244.094 67.626C245.141 67.626 245.99 66.6025 245.99 65.34C245.99 64.0775 245.141 63.054 244.094 63.054C243.047 63.054 242.198 64.0775 242.198 65.34C242.198 66.6025 243.047 67.626 244.094 67.626Z" fill="white"/>
<path opacity="0.6" d="M239.774 65.34C239.774 66.6 238.928 67.62 237.878 67.62C236.828 67.62 235.988 66.6 235.988 65.34C235.988 64.08 236.834 63.054 237.878 63.054C238.922 63.054 239.774 64.074 239.774 65.34Z" fill="white"/>
<path d="M153.644 87.534V111.096L147.584 118.404H134.162V87.534H153.644Z" fill="#7049A3"/>
<path opacity="0.7" d="M153.644 87.534V111.096L147.584 118.404H134.162V87.534H153.644Z" fill="white"/>
<path opacity="0.3" d="M153.644 111.096L147.584 118.404V111.096H153.644Z" fill="#7049A3"/>
<path opacity="0.3" d="M150.626 91.986H137.186V92.868H150.626V91.986Z" fill="#7049A3"/>
<path opacity="0.3" d="M150.626 95.334H137.186V96.216H150.626V95.334Z" fill="#7049A3"/>
<path opacity="0.3" d="M150.626 98.688H137.186V99.576H150.626V98.688Z" fill="#7049A3"/>
<path opacity="0.3" d="M150.626 102.042H137.186V102.924H150.626V102.042Z" fill="#7049A3"/>
<path opacity="0.3" d="M147.152 105.396H137.186V106.284H147.152V105.396Z" fill="#7049A3"/>
<path d="M184.544 87.534V111.096L178.484 118.404H165.062V87.534H184.544Z" fill="#7049A3"/>
<path opacity="0.7" d="M184.544 87.534V111.096L178.484 118.404H165.062V87.534H184.544Z" fill="white"/>
<path opacity="0.3" d="M184.544 111.096L178.484 118.404V111.096H184.544Z" fill="#7049A3"/>
<path opacity="0.3" d="M181.52 91.986H168.08V92.868H181.52V91.986Z" fill="#7049A3"/>
<path opacity="0.3" d="M181.52 95.334H168.08V96.216H181.52V95.334Z" fill="#7049A3"/>
<path opacity="0.3" d="M181.52 98.688H168.08V99.576H181.52V98.688Z" fill="#7049A3"/>
<path opacity="0.3" d="M181.52 102.042H168.08V102.924H181.52V102.042Z" fill="#7049A3"/>
<path opacity="0.3" d="M178.046 105.396H168.08V106.284H178.046V105.396Z" fill="#7049A3"/>
<path d="M215.444 87.534V111.096L209.384 118.404H195.962V87.534H215.444Z" fill="#7049A3"/>
<path opacity="0.7" d="M215.444 87.534V111.096L209.384 118.404H195.962V87.534H215.444Z" fill="white"/>
<path opacity="0.3" d="M215.444 111.096L209.384 118.404V111.096H215.444Z" fill="#7049A3"/>
<path opacity="0.3" d="M212.42 91.986H198.98V92.868H212.42V91.986Z" fill="#7049A3"/>
<path opacity="0.3" d="M212.42 95.334H198.98V96.216H212.42V95.334Z" fill="#7049A3"/>
<path opacity="0.3" d="M212.42 98.688H198.98V99.576H212.42V98.688Z" fill="#7049A3"/>
<path opacity="0.3" d="M212.42 102.042H198.98V102.924H212.42V102.042Z" fill="#7049A3"/>
<path opacity="0.3" d="M208.946 105.396H198.98V106.284H208.946V105.396Z" fill="#7049A3"/>
<path d="M246.344 87.534V111.096L240.278 118.404H226.862V87.534H246.344Z" fill="#7049A3"/>
<path opacity="0.7" d="M246.344 87.534V111.096L240.278 118.404H226.862V87.534H246.344Z" fill="white"/>
<path opacity="0.3" d="M246.344 111.096L240.278 118.404V111.096H246.344Z" fill="#7049A3"/>
<path opacity="0.3" d="M243.32 91.986H229.88V92.868H243.32V91.986Z" fill="#7049A3"/>
<path opacity="0.3" d="M243.32 95.334H229.88V96.216H243.32V95.334Z" fill="#7049A3"/>
<path opacity="0.3" d="M243.32 98.688H229.88V99.576H243.32V98.688Z" fill="#7049A3"/>
<path opacity="0.3" d="M243.32 102.042H229.88V102.924H243.32V102.042Z" fill="#7049A3"/>
<path opacity="0.3" d="M239.846 105.396H229.88V106.284H239.846V105.396Z" fill="#7049A3"/>
<path d="M153.644 128.334V151.896L147.584 159.204H134.162V128.334H153.644Z" fill="#7049A3"/>
<path opacity="0.7" d="M153.644 128.334V151.896L147.584 159.204H134.162V128.334H153.644Z" fill="white"/>
<path opacity="0.3" d="M153.644 151.896L147.584 159.204V151.896H153.644Z" fill="#7049A3"/>
<path opacity="0.3" d="M150.626 132.786H137.186V133.668H150.626V132.786Z" fill="#7049A3"/>
<path opacity="0.3" d="M150.626 136.134H137.186V137.016H150.626V136.134Z" fill="#7049A3"/>
<path opacity="0.3" d="M150.626 139.488H137.186V140.376H150.626V139.488Z" fill="#7049A3"/>
<path opacity="0.3" d="M150.626 142.842H137.186V143.73H150.626V142.842Z" fill="#7049A3"/>
<path opacity="0.3" d="M147.152 146.196H137.186V147.078H147.152V146.196Z" fill="#7049A3"/>
<path d="M184.544 128.334V151.896L178.484 159.204H165.062V128.334H184.544Z" fill="#7049A3"/>
<path opacity="0.7" d="M184.544 128.334V151.896L178.484 159.204H165.062V128.334H184.544Z" fill="white"/>
<path opacity="0.3" d="M184.544 151.896L178.484 159.204V151.896H184.544Z" fill="#7049A3"/>
<path opacity="0.3" d="M181.52 132.786H168.08V133.668H181.52V132.786Z" fill="#7049A3"/>
<path opacity="0.3" d="M181.52 136.134H168.08V137.016H181.52V136.134Z" fill="#7049A3"/>
<path opacity="0.3" d="M181.52 139.488H168.08V140.376H181.52V139.488Z" fill="#7049A3"/>
<path opacity="0.3" d="M181.52 142.842H168.08V143.73H181.52V142.842Z" fill="#7049A3"/>
<path opacity="0.3" d="M178.046 146.196H168.08V147.078H178.046V146.196Z" fill="#7049A3"/>
<path d="M215.444 128.334V151.896L209.384 159.204H195.962V128.334H215.444Z" fill="#7049A3"/>
<path opacity="0.7" d="M215.444 128.334V151.896L209.384 159.204H195.962V128.334H215.444Z" fill="white"/>
<path opacity="0.3" d="M215.444 151.896L209.384 159.204V151.896H215.444Z" fill="#7049A3"/>
<path opacity="0.3" d="M212.42 132.786H198.98V133.668H212.42V132.786Z" fill="#7049A3"/>
<path opacity="0.3" d="M212.42 136.134H198.98V137.016H212.42V136.134Z" fill="#7049A3"/>
<path opacity="0.3" d="M212.42 139.488H198.98V140.376H212.42V139.488Z" fill="#7049A3"/>
<path opacity="0.3" d="M212.42 142.842H198.98V143.73H212.42V142.842Z" fill="#7049A3"/>
<path opacity="0.3" d="M208.946 146.196H198.98V147.078H208.946V146.196Z" fill="#7049A3"/>
<path d="M246.344 128.334V151.896L240.278 159.204H226.862V128.334H246.344Z" fill="#7049A3"/>
<path opacity="0.7" d="M246.344 128.334V151.896L240.278 159.204H226.862V128.334H246.344Z" fill="white"/>
<path opacity="0.3" d="M246.344 151.896L240.278 159.204V151.896H246.344Z" fill="#7049A3"/>
<path opacity="0.3" d="M243.32 132.786H229.88V133.668H243.32V132.786Z" fill="#7049A3"/>
<path opacity="0.3" d="M243.32 136.134H229.88V137.016H243.32V136.134Z" fill="#7049A3"/>
<path opacity="0.3" d="M243.32 139.488H229.88V140.376H243.32V139.488Z" fill="#7049A3"/>
<path opacity="0.3" d="M243.32 142.842H229.88V143.73H243.32V142.842Z" fill="#7049A3"/>
<path opacity="0.3" d="M239.846 146.196H229.88V147.078H239.846V146.196Z" fill="#7049A3"/>
<path opacity="0.1" d="M198.476 108.81H167.378C165.937 108.81 164.768 109.979 164.768 111.42V134.724C164.768 136.165 165.937 137.334 167.378 137.334H198.476C199.918 137.334 201.086 136.165 201.086 134.724V111.42C201.086 109.979 199.918 108.81 198.476 108.81Z" fill="black"/>
<g opacity="0.1">
<path d="M196.25 107.484H192.65V103.59C192.65 101.13 191.673 98.7705 189.933 97.0309C188.194 95.2913 185.834 94.314 183.374 94.314C180.914 94.314 178.555 95.2913 176.815 97.0309C175.075 98.7705 174.098 101.13 174.098 103.59V107.484H170.498V103.59C170.498 100.175 171.855 96.9 174.269 94.4853C176.684 92.0706 179.959 90.714 183.374 90.714C186.789 90.714 190.064 92.0706 192.479 94.4853C194.893 96.9 196.25 100.175 196.25 103.59V107.484Z" fill="black"/>
</g>
<path d="M183.476 107.61H152.378C150.937 107.61 149.768 108.779 149.768 110.22V133.524C149.768 134.965 150.937 136.134 152.378 136.134H183.476C184.918 136.134 186.086 134.965 186.086 133.524V110.22C186.086 108.779 184.918 107.61 183.476 107.61Z" fill="#263238"/>
<path opacity="0.2" d="M176.906 107.61H152.378C150.937 107.61 149.768 108.779 149.768 110.22V133.524C149.768 134.965 150.937 136.134 152.378 136.134H176.906C178.348 136.134 179.516 134.965 179.516 133.524V110.22C179.516 108.779 178.348 107.61 176.906 107.61Z" fill="white"/>
<path d="M166.466 118.314C166.466 116.346 165.266 114.75 163.79 114.75C162.314 114.75 161.12 116.346 161.12 118.314C161.084 118.963 161.22 119.609 161.514 120.189C161.808 120.768 162.25 121.26 162.794 121.614L162.296 129.054H165.296L164.804 121.614C165.345 121.257 165.784 120.765 166.075 120.186C166.367 119.607 166.502 118.961 166.466 118.314Z" fill="#263238"/>
<path d="M181.25 106.284H177.65V102.39C177.65 99.9298 176.673 97.5704 174.933 95.8309C173.194 94.0913 170.834 93.114 168.374 93.114C165.914 93.114 163.555 94.0913 161.815 95.8309C160.075 97.5704 159.098 99.9298 159.098 102.39V106.284H155.498V102.39C155.498 98.975 156.855 95.7 159.269 93.2853C161.684 90.8706 164.959 89.514 168.374 89.514C171.789 89.514 175.064 90.8706 177.479 93.2853C179.893 95.7 181.25 98.975 181.25 102.39V106.284Z" fill="#263238"/>
<g opacity="0.4">
<path d="M181.25 106.284H177.65V102.39C177.65 99.9298 176.673 97.5704 174.933 95.8309C173.194 94.0913 170.834 93.114 168.374 93.114C165.914 93.114 163.555 94.0913 161.815 95.8309C160.075 97.5704 159.098 99.9298 159.098 102.39V106.284H155.498V102.39C155.498 98.975 156.855 95.7 159.269 93.2853C161.684 90.8706 164.959 89.514 168.374 89.514C171.789 89.514 175.064 90.8706 177.479 93.2853C179.893 95.7 181.25 98.975 181.25 102.39V106.284Z" fill="white"/>
</g>
<path opacity="0.2" d="M181.25 102.39V106.284H178.808V101.946C178.808 100.401 178.504 98.8713 177.912 97.4441C177.321 96.0169 176.454 94.7202 175.361 93.6281C174.269 92.5361 172.972 91.6699 171.544 91.0793C170.117 90.4887 168.587 90.1851 167.042 90.1858C164.681 90.1784 162.376 90.9015 160.442 92.2558C162.341 90.7666 164.621 89.8416 167.021 89.5866C169.421 89.3316 171.844 89.757 174.014 90.814C176.184 91.871 178.012 93.517 179.291 95.564C180.569 97.611 181.246 99.9764 181.244 102.39H181.25Z" fill="white"/>
<path d="M130.376 171.378H115.832V170.82H119.114C119.335 170.818 119.548 170.739 119.716 170.596C119.885 170.454 119.999 170.257 120.038 170.04L121.508 161.292L121.796 159.57H126.776L131.234 170.082C131.295 170.224 131.319 170.378 131.305 170.532C131.291 170.685 131.24 170.833 131.154 170.961C131.069 171.09 130.954 171.195 130.818 171.268C130.682 171.341 130.53 171.379 130.376 171.378Z" fill="#7049A3"/>
<path opacity="0.4" d="M130.376 171.378H115.832V170.82H119.114C119.335 170.818 119.548 170.739 119.716 170.596C119.885 170.454 119.999 170.257 120.038 170.04L121.508 161.292L121.796 159.57H126.776L131.234 170.082C131.295 170.224 131.319 170.378 131.305 170.532C131.291 170.685 131.24 170.833 131.154 170.961C131.069 171.09 130.954 171.195 130.818 171.268C130.682 171.341 130.53 171.379 130.376 171.378Z" fill="white"/>
<path opacity="0.2" d="M130.394 170.82H119.114C119.335 170.818 119.548 170.739 119.716 170.596C119.885 170.454 119.999 170.257 120.038 170.04L121.508 161.292H126.728L130.7 170.358C130.722 170.409 130.731 170.464 130.726 170.519C130.721 170.574 130.703 170.626 130.673 170.672C130.642 170.718 130.601 170.756 130.552 170.782C130.503 170.807 130.449 170.821 130.394 170.82Z" fill="black"/>
<path d="M138.194 162.792H109.1C109.034 162.795 108.968 162.782 108.907 162.755C108.847 162.728 108.794 162.687 108.752 162.636C108.71 162.585 108.68 162.525 108.666 162.46C108.651 162.395 108.652 162.328 108.668 162.264L112.808 140.4C112.838 140.259 112.913 140.132 113.021 140.037C113.129 139.942 113.265 139.884 113.408 139.872H142.496C142.562 139.869 142.628 139.881 142.688 139.908C142.748 139.935 142.801 139.976 142.843 140.028C142.885 140.079 142.913 140.14 142.927 140.204C142.941 140.269 142.939 140.336 142.922 140.4L138.794 162.258C138.765 162.4 138.691 162.528 138.582 162.625C138.474 162.721 138.338 162.779 138.194 162.792Z" fill="#7049A3"/>
<path opacity="0.4" d="M138.194 162.792H109.1C109.034 162.795 108.968 162.782 108.907 162.755C108.847 162.728 108.794 162.687 108.752 162.636C108.71 162.585 108.68 162.525 108.666 162.46C108.651 162.395 108.652 162.328 108.668 162.264L112.808 140.4C112.838 140.259 112.913 140.132 113.021 140.037C113.129 139.942 113.265 139.884 113.408 139.872H142.496C142.562 139.869 142.628 139.881 142.688 139.908C142.748 139.935 142.801 139.976 142.843 140.028C142.885 140.079 142.913 140.14 142.927 140.204C142.941 140.269 142.939 140.336 142.922 140.4L138.794 162.258C138.765 162.4 138.691 162.528 138.582 162.625C138.474 162.721 138.338 162.779 138.194 162.792Z" fill="white"/>
<path d="M137.594 162.792H108.5C108.434 162.795 108.368 162.782 108.307 162.755C108.247 162.728 108.194 162.687 108.152 162.636C108.11 162.585 108.08 162.525 108.066 162.46C108.051 162.395 108.052 162.328 108.068 162.264L112.208 140.4C112.238 140.259 112.313 140.132 112.421 140.037C112.529 139.942 112.665 139.884 112.808 139.872H141.896C141.962 139.869 142.028 139.881 142.088 139.908C142.148 139.935 142.202 139.976 142.243 140.028C142.285 140.079 142.313 140.14 142.327 140.204C142.341 140.269 142.339 140.336 142.322 140.4L138.194 162.258C138.165 162.4 138.091 162.528 137.982 162.625C137.874 162.721 137.738 162.779 137.594 162.792Z" fill="#263238"/>
<path d="M137.21 161.448H109.394L113.222 141.222H141.032L137.21 161.448Z" fill="#7049A3"/>
<path d="M88.73 171.378V170.694L99.926 168.432H121.832C122.222 168.432 122.596 168.587 122.871 168.863C123.147 169.138 123.302 169.512 123.302 169.902C123.302 170.292 123.147 170.667 122.872 170.944C122.596 171.22 122.222 171.376 121.832 171.378H88.73Z" fill="#7049A3"/>
<path opacity="0.4" d="M123.302 169.908C123.303 170.297 123.15 170.67 122.876 170.946C122.598 171.222 122.223 171.377 121.832 171.378H88.73V170.7L99.932 168.432H121.832C122.026 168.432 122.217 168.47 122.396 168.544C122.575 168.619 122.737 168.728 122.874 168.865C123.01 169.002 123.118 169.165 123.192 169.344C123.265 169.523 123.303 169.714 123.302 169.908Z" fill="white"/>
<path opacity="0.4" d="M123.302 169.908C123.303 170.297 123.15 170.67 122.876 170.946C122.598 171.222 122.223 171.377 121.832 171.378H108.53V170.7L119.732 168.432H121.832C122.025 168.432 122.217 168.47 122.396 168.544C122.575 168.619 122.737 168.728 122.873 168.865C123.01 169.002 123.118 169.165 123.192 169.344C123.265 169.523 123.303 169.714 123.302 169.908Z" fill="white"/>
<path d="M131.306 249.852H134.306L139.688 174.888H135.71L131.306 249.852Z" fill="#263238"/>
<path opacity="0.1" d="M131.306 249.852H134.306L139.424 178.608L139.688 175.008H135.71L135.5 178.608L131.306 249.852Z" fill="white"/>
<path opacity="0.2" d="M135.5 178.428H139.424L139.688 175.008H135.71L135.5 178.428Z" fill="black"/>
<path d="M109.316 249.852H112.31L112.802 174.888H108.824L109.316 249.852Z" fill="#263238"/>
<path opacity="0.1" d="M108.824 175.008L108.902 187.104L109.31 249.852H112.31L112.718 187.104L112.796 175.008H108.824Z" fill="white"/>
<path opacity="0.2" d="M108.824 175.008L108.902 187.236H112.718L112.796 175.008H108.824Z" fill="black"/>
<path d="M77.4979 249.852H80.4919L85.8799 174.888H81.9019L77.4979 249.852Z" fill="#263238"/>
<path opacity="0.1" d="M77.4919 249.852H80.4919L85.6159 178.608L85.8799 175.008H81.9019L81.6859 178.608L77.4919 249.852Z" fill="white"/>
<path opacity="0.2" d="M81.6859 178.428H85.6159L85.8799 175.008H81.9019L81.6859 178.428Z" fill="black"/>
<path d="M165.59 249.852H168.584L164.18 174.888H160.208L165.59 249.852Z" fill="#263238"/>
<path opacity="0.1" d="M160.208 175.008L160.472 178.608L165.59 249.852H168.584L164.396 178.608L164.18 175.008H160.208Z" fill="white"/>
<path opacity="0.2" d="M164.18 175.008H160.208L160.472 178.428H164.396L164.18 175.008Z" fill="black"/>
<path d="M166.034 176.76H80.048C79.8778 176.76 79.7093 176.726 79.552 176.661C79.3948 176.596 79.2519 176.501 79.1315 176.38C79.0112 176.26 78.9157 176.117 78.8506 175.96C78.7855 175.803 78.752 175.634 78.752 175.464V173.004H167.33V175.464C167.33 175.634 167.296 175.803 167.231 175.96C167.166 176.117 167.071 176.26 166.95 176.38C166.83 176.501 166.687 176.596 166.53 176.661C166.373 176.726 166.204 176.76 166.034 176.76Z" fill="#7049A3"/>
<path opacity="0.4" d="M166.034 176.76H80.048C79.8778 176.76 79.7093 176.726 79.552 176.661C79.3948 176.596 79.2519 176.501 79.1315 176.38C79.0112 176.26 78.9157 176.117 78.8506 175.96C78.7855 175.803 78.752 175.634 78.752 175.464V173.004H167.33V175.464C167.33 175.634 167.296 175.803 167.231 175.96C167.166 176.117 167.071 176.26 166.95 176.38C166.83 176.501 166.687 176.596 166.53 176.661C166.373 176.726 166.204 176.76 166.034 176.76Z" fill="white"/>
<path opacity="0.2" d="M78.746 174.882H167.33V173.004H78.746V174.882Z" fill="black"/>
<path d="M76.8919 173.496H169.19C169.47 173.496 169.739 173.385 169.937 173.187C170.135 172.989 170.246 172.72 170.246 172.44C170.246 172.16 170.135 171.891 169.937 171.693C169.739 171.495 169.47 171.384 169.19 171.384H76.8919C76.6119 171.384 76.3433 171.495 76.1452 171.693C75.9472 171.891 75.8359 172.16 75.8359 172.44C75.8359 172.72 75.9472 172.989 76.1452 173.187C76.3433 173.385 76.6119 173.496 76.8919 173.496Z" fill="#7049A3"/>
<path opacity="0.4" d="M76.8919 173.496H169.19C169.47 173.496 169.739 173.385 169.937 173.187C170.135 172.989 170.246 172.72 170.246 172.44C170.246 172.16 170.135 171.891 169.937 171.693C169.739 171.495 169.47 171.384 169.19 171.384H76.8919C76.6119 171.384 76.3433 171.495 76.1452 171.693C75.9472 171.891 75.8359 172.16 75.8359 172.44C75.8359 172.72 75.9472 172.989 76.1452 173.187C76.3433 173.385 76.6119 173.496 76.8919 173.496Z" fill="white"/>
<path opacity="0.3" d="M114.764 152.556C114.632 152.555 114.502 152.525 114.383 152.468C114.265 152.411 114.16 152.329 114.076 152.227C113.993 152.125 113.932 152.006 113.9 151.878C113.867 151.751 113.863 151.617 113.888 151.488L114.26 149.574C114.312 149.313 114.453 149.078 114.659 148.909C114.864 148.739 115.122 148.646 115.388 148.644H130.988C131.12 148.644 131.251 148.673 131.371 148.73C131.49 148.787 131.595 148.871 131.678 148.974C131.763 149.075 131.824 149.194 131.857 149.321C131.889 149.449 131.891 149.583 131.864 149.712L131.492 151.626C131.442 151.887 131.302 152.123 131.098 152.292C130.893 152.462 130.636 152.555 130.37 152.556H114.764Z" fill="white"/>
<path d="M130.37 152.256H114.77C114.681 152.257 114.593 152.239 114.512 152.203C114.432 152.166 114.36 152.112 114.302 152.044C114.245 151.976 114.203 151.897 114.18 151.811C114.158 151.725 114.154 151.635 114.17 151.548L114.548 149.628C114.584 149.435 114.687 149.261 114.838 149.136C114.99 149.011 115.18 148.943 115.376 148.944H130.976C131.065 148.943 131.153 148.961 131.234 148.997C131.314 149.034 131.386 149.088 131.444 149.156C131.501 149.224 131.543 149.303 131.565 149.389C131.588 149.475 131.592 149.565 131.576 149.652L131.204 151.572C131.166 151.765 131.062 151.939 130.91 152.064C130.758 152.189 130.567 152.257 130.37 152.256Z" fill="white"/>
<path d="M117.408 151.046C117.714 150.609 117.68 150.058 117.333 149.815C116.985 149.571 116.456 149.729 116.15 150.166C115.844 150.603 115.878 151.155 116.225 151.398C116.573 151.641 117.103 151.483 117.408 151.046Z" fill="#263238"/>
<path d="M120.038 150.6C119.995 150.84 119.874 151.059 119.694 151.222C119.514 151.386 119.285 151.486 119.042 151.506C118.934 151.503 118.829 151.475 118.734 151.424C118.639 151.373 118.558 151.301 118.496 151.213C118.433 151.125 118.392 151.024 118.376 150.918C118.359 150.811 118.367 150.703 118.4 150.6C118.444 150.361 118.565 150.142 118.745 149.979C118.925 149.815 119.154 149.715 119.396 149.694C119.504 149.696 119.61 149.724 119.705 149.774C119.801 149.825 119.883 149.897 119.946 149.985C120.008 150.073 120.049 150.175 120.065 150.282C120.081 150.388 120.072 150.497 120.038 150.6Z" fill="#263238"/>
<path d="M122.48 150.6C122.436 150.839 122.315 151.058 122.135 151.221C121.955 151.385 121.726 151.485 121.484 151.506C121.376 151.504 121.27 151.476 121.174 151.426C121.079 151.375 120.996 151.303 120.933 151.215C120.87 151.127 120.829 151.026 120.812 150.919C120.795 150.812 120.803 150.703 120.836 150.6C120.881 150.36 121.003 150.142 121.184 149.978C121.365 149.815 121.595 149.715 121.838 149.694C121.946 149.697 122.051 149.726 122.146 149.776C122.24 149.827 122.322 149.899 122.384 149.987C122.447 150.075 122.488 150.176 122.504 150.282C122.521 150.389 122.512 150.497 122.48 150.6Z" fill="#263238"/>
<path d="M124.73 151.042C125.036 150.605 125.002 150.053 124.654 149.81C124.307 149.567 123.777 149.724 123.471 150.162C123.165 150.599 123.199 151.15 123.547 151.393C123.894 151.636 124.424 151.479 124.73 151.042Z" fill="#263238"/>
<path d="M127.358 150.6C127.313 150.84 127.191 151.058 127.01 151.222C126.829 151.385 126.599 151.485 126.356 151.506C126.248 151.503 126.143 151.475 126.048 151.424C125.953 151.373 125.872 151.301 125.81 151.213C125.747 151.125 125.706 151.024 125.69 150.918C125.673 150.811 125.681 150.703 125.714 150.6C125.759 150.361 125.88 150.143 126.06 149.98C126.24 149.816 126.468 149.716 126.71 149.694C126.818 149.696 126.924 149.724 127.02 149.774C127.115 149.825 127.198 149.897 127.261 149.985C127.323 150.073 127.365 150.174 127.382 150.281C127.399 150.388 127.391 150.497 127.358 150.6Z" fill="#263238"/>
<path d="M129.604 151.052C129.91 150.614 129.876 150.063 129.529 149.82C129.181 149.577 128.651 149.734 128.346 150.171C128.04 150.608 128.074 151.16 128.421 151.403C128.769 151.646 129.298 151.489 129.604 151.052Z" fill="#263238"/>
<path opacity="0.3" d="M132.548 152.556C132.447 152.557 132.347 152.536 132.256 152.493C132.164 152.451 132.084 152.388 132.02 152.31C131.952 152.228 131.904 152.131 131.88 152.026C131.856 151.922 131.856 151.814 131.882 151.71L132.356 149.31C132.398 149.113 132.504 148.937 132.659 148.808C132.814 148.68 133.007 148.607 133.208 148.602H135.608C135.709 148.601 135.809 148.622 135.9 148.665C135.991 148.707 136.072 148.77 136.136 148.848C136.204 148.93 136.252 149.027 136.276 149.132C136.3 149.236 136.299 149.344 136.274 149.448L135.8 151.848C135.758 152.045 135.651 152.221 135.497 152.35C135.342 152.478 135.149 152.551 134.948 152.556H132.548Z" fill="white"/>
<path d="M132.548 152.256H134.948C135.077 152.249 135.2 152.202 135.299 152.119C135.399 152.037 135.469 151.925 135.5 151.8L135.974 149.4C135.989 149.344 135.991 149.285 135.979 149.228C135.967 149.171 135.942 149.118 135.906 149.072C135.87 149.027 135.823 148.99 135.771 148.966C135.718 148.942 135.66 148.93 135.602 148.932H133.202C133.071 148.938 132.945 148.987 132.844 149.072C132.743 149.156 132.673 149.272 132.644 149.4L132.17 151.8C132.157 151.856 132.157 151.914 132.17 151.97C132.183 152.026 132.209 152.078 132.246 152.122C132.282 152.166 132.329 152.201 132.381 152.224C132.434 152.248 132.491 152.258 132.548 152.256Z" fill="#263238"/>
<path d="M133.766 151.65C133.748 151.651 133.73 151.647 133.713 151.64C133.696 151.633 133.682 151.622 133.67 151.608C133.648 151.573 133.641 151.532 133.649 151.492C133.656 151.452 133.679 151.416 133.712 151.392L134.666 150.6L134.03 149.808C134.007 149.774 133.998 149.732 134.006 149.691C134.014 149.651 134.038 149.615 134.072 149.592C134.101 149.566 134.138 149.551 134.177 149.551C134.216 149.551 134.253 149.566 134.282 149.592L135.002 150.492C135.025 150.526 135.033 150.568 135.025 150.609C135.018 150.649 134.994 150.685 134.96 150.708L133.886 151.608C133.852 151.636 133.81 151.651 133.766 151.65Z" fill="#7049A3"/>
<path d="M134.846 150.75H133.226C133.207 150.751 133.189 150.747 133.172 150.739C133.155 150.731 133.14 150.72 133.128 150.705C133.117 150.69 133.109 150.673 133.105 150.655C133.101 150.637 133.101 150.618 133.106 150.6C133.115 150.559 133.138 150.522 133.17 150.494C133.203 150.467 133.244 150.452 133.286 150.45H134.9C134.919 150.449 134.937 150.453 134.954 150.461C134.971 150.469 134.986 150.48 134.997 150.495C135.009 150.51 135.017 150.527 135.021 150.545C135.025 150.563 135.025 150.582 135.02 150.6C135.011 150.64 134.989 150.677 134.958 150.704C134.926 150.731 134.887 150.747 134.846 150.75Z" fill="#7049A3"/>
<path d="M82.262 114.12H95.198C96.5633 114.12 97.67 113.013 97.67 111.648V98.712C97.67 97.3467 96.5633 96.24 95.198 96.24H82.262C80.8968 96.24 79.79 97.3467 79.79 98.712V111.648C79.79 113.013 80.8968 114.12 82.262 114.12Z" fill="#7049A3"/>
<path d="M87.332 113.448L88.73 119.46L90.128 113.448H87.332Z" fill="#7049A3"/>
<path opacity="0.3" d="M88.574 110.538C87.0524 109.631 85.782 108.358 84.8786 106.834C83.9752 105.31 83.4676 103.584 83.402 101.814V101.622L88.724 99.354L94.04 101.622V101.814C93.9783 103.584 93.4729 105.311 92.5703 106.835C91.6677 108.36 90.3967 109.633 88.874 110.538L88.718 110.634L88.574 110.538Z" fill="white"/>
<path opacity="0.6" d="M88.73 99.684L93.752 101.82C93.6971 103.54 93.2079 105.219 92.3298 106.699C91.4517 108.179 90.2133 109.413 88.73 110.286V99.684Z" fill="white"/>
<path opacity="0.4" d="M88.73 99.684L83.702 101.82C83.7575 103.541 84.2477 105.22 85.1268 106.7C86.006 108.18 87.2455 109.414 88.73 110.286V99.684Z" fill="white"/>
<path d="M83.9 167.466L88.1 168.096C89.0536 167.793 90.0341 167.582 91.028 167.466C92.1062 167.377 93.1898 167.377 94.268 167.466C94.268 167.466 96.17 168.18 96.17 169.998C96.17 169.998 91.736 171.198 90.038 170.472L83.9 169.998V167.466Z" fill="#E4897B"/>
<path opacity="0.2" d="M83.9 167.466L88.1 168.096C89.0536 167.793 90.0341 167.582 91.028 167.466C92.1062 167.377 93.1898 167.377 94.268 167.466C94.268 167.466 96.17 168.18 96.17 169.998C96.17 169.998 91.736 171.198 90.038 170.472L83.9 169.998V167.466Z" fill="black"/>
<path d="M94.304 139.104C94.3693 139.967 94.5385 140.819 94.808 141.642C94.5878 141.777 94.3344 141.849 94.076 141.849C93.8176 141.849 93.5642 141.777 93.344 141.642L94.304 139.104Z" fill="#AA473D"/>
<path d="M95.942 137.904C95.78 138.294 95.492 138.546 95.294 138.462C95.096 138.378 95.078 138.006 95.234 137.616C95.39 137.226 95.684 136.98 95.882 137.058C96.08 137.136 96.098 137.52 95.942 137.904Z" fill="#263238"/>
<path d="M96.9261 136.56C96.8908 136.571 96.8533 136.571 96.8181 136.56C96.4991 136.373 96.1422 136.259 95.7735 136.228C95.4049 136.197 95.0339 136.249 94.688 136.38C94.6363 136.406 94.5763 136.411 94.5212 136.393C94.466 136.375 94.4203 136.336 94.3941 136.284C94.3678 136.232 94.3632 136.172 94.3812 136.117C94.3992 136.062 94.4383 136.016 94.49 135.99C94.9012 135.823 95.3458 135.753 95.7885 135.788C96.2311 135.822 96.6596 135.959 97.04 136.188C97.0647 136.203 97.0861 136.222 97.1031 136.245C97.1201 136.269 97.1324 136.295 97.1391 136.323C97.1458 136.351 97.1468 136.38 97.1422 136.408C97.1376 136.437 97.1273 136.464 97.1121 136.488C97.0898 136.515 97.061 136.536 97.0284 136.548C96.9959 136.561 96.9606 136.565 96.9261 136.56Z" fill="#263238"/>
<path d="M93.134 142.368C92.996 142.536 92.858 142.698 92.708 142.848C91.8678 143.721 90.7816 144.318 89.594 144.558C89.2931 144.619 88.9884 144.659 88.682 144.678C87.8751 144.728 87.0671 144.598 86.3167 144.297C85.5663 143.996 84.8924 143.532 84.344 142.938C83.8491 142.401 83.4693 141.768 83.228 141.078C82.154 138.198 83.228 135.93 84.782 131.94C85.1275 131.005 85.7061 130.173 86.463 129.524C87.2199 128.875 88.13 128.43 89.1071 128.231C90.0842 128.032 91.0958 128.086 92.0462 128.387C92.9967 128.689 93.8543 129.228 94.538 129.954C97.646 133.23 95.558 139.248 93.134 142.368Z" fill="#E4897B"/>
<path opacity="0.2" d="M89.594 144.558C89.2931 144.619 88.9884 144.659 88.682 144.678C87.8751 144.728 87.0671 144.598 86.3167 144.297C85.5663 143.996 84.8924 143.532 84.344 142.938C84.7295 142.55 85.163 142.214 85.634 141.936C87.1787 142.411 88.5537 143.321 89.594 144.558Z" fill="black"/>
<path d="M76.658 144.708C77.054 147.516 83.198 148.566 83.198 148.566C83.198 148.566 86.198 149.946 86.354 148.746C85.1 147.294 84.962 146.028 85.394 144.918C85.6806 144.241 86.101 143.629 86.63 143.118C86.9119 142.825 87.2104 142.549 87.524 142.29L85.646 134.598C84.296 137.538 79.7 144.288 76.658 144.708Z" fill="#E4897B"/>
<path d="M94.19 127.8C94.19 127.8 95.504 127.638 96.512 130.086C97.358 132.144 95.36 132.594 95.45 134.784C95.54 136.974 93.53 138.192 93.53 138.192C93.53 138.192 91.85 139.644 90.416 138.858C90.416 138.858 88.544 139.776 88.052 141.378C87.56 142.98 84.662 140.088 82.052 140.526C82.052 140.526 80.288 138.876 80.42 134.868C80.5198 133.128 80.9473 131.422 81.68 129.84C82.026 129.003 82.5353 128.242 83.1781 127.604C83.8208 126.965 84.5843 126.461 85.424 126.12C88.406 124.764 93.632 125.772 94.19 127.8Z" fill="#263238"/>
<path d="M90.056 137.652C89.9653 138.051 89.9646 138.466 90.0538 138.865C90.1431 139.265 90.3201 139.639 90.572 139.962C91.208 140.658 92.234 139.776 92.648 138.558C93.008 137.472 93.134 135.774 92.198 135.558C91.262 135.342 90.254 136.482 90.056 137.652Z" fill="#E4897B"/>
<path d="M90.716 147.03C89.856 149.43 89.088 151.73 88.4121 153.93C87.98 155.298 87.584 156.636 87.212 157.926C86.9081 159.01 86.6241 160.062 86.3601 161.082C86.2341 161.574 86.108 162.06 85.988 162.54C85.328 165.186 84.788 167.598 84.374 169.74C83.6748 173.084 83.156 176.463 82.82 179.862L59.3 176.898C60.116 172.854 60.752 169.32 61.64 165.498C62.132 163.41 62.69 161.238 63.44 158.856C63.944 157.146 64.532 155.328 65.24 153.354C67.604 146.574 69.782 144.696 69.782 144.696C78.776 143.256 90.716 147.03 90.716 147.03Z" fill="#263238"/>
<path d="M98.546 167.904L102.746 168.534C103.7 168.231 104.68 168.02 105.674 167.904C106.754 167.815 107.84 167.815 108.92 167.904C108.92 167.904 110.816 168.618 110.816 170.436C110.816 170.436 106.388 171.636 104.684 170.91L98.552 170.436L98.546 167.904Z" fill="#E4897B"/>
<path d="M72.548 245.466L76.934 245.544L79.118 235.434L74.738 235.356L72.548 245.466Z" fill="#EBB376"/>
<path opacity="0.2" d="M74.738 235.356L79.118 235.44L77.87 241.218L73.532 240.93L74.738 235.356Z" fill="black"/>
<path d="M86.642 220.71C84.9708 227.144 82.8352 233.449 80.252 239.574L72.254 238.974C72.254 238.974 75.536 226.152 76.724 214.404C77.462 207.156 77.396 201.156 75.272 200.694C73.94 200.4 70.814 200.406 66.806 200.502V185.562C78.044 187.872 89.228 192.222 90.08 195.714C91.268 200.628 89.192 211.032 86.642 220.71Z" fill="#7049A3"/>
<path d="M71.402 239.334L80.93 239.97L82.334 235.848L71.834 235.362L71.402 239.334Z" fill="#7049A3"/>
<path opacity="0.2" d="M71.402 239.334L80.93 239.97L82.334 235.848L71.834 235.362L71.402 239.334Z" fill="white"/>
<path d="M77.594 245.328H77.684C77.684 245.328 77.786 245.358 77.798 245.37H77.834C78.2046 245.487 78.5868 245.564 78.974 245.598C79.2625 245.652 79.5606 245.594 79.808 245.436C79.8865 245.368 79.9436 245.278 79.9723 245.178C80.0011 245.078 80.0003 244.972 79.97 244.872C79.9604 244.807 79.9353 244.745 79.8966 244.692C79.8579 244.638 79.807 244.595 79.748 244.566C79.3337 244.5 78.9092 244.58 78.548 244.794C78.8061 244.522 78.9592 244.167 78.98 243.792C78.9624 243.703 78.9166 243.623 78.8496 243.562C78.7826 243.502 78.6979 243.465 78.608 243.456C78.4374 243.431 78.2636 243.472 78.122 243.57C77.66 243.966 77.588 245.208 77.588 245.28L77.594 245.328ZM78.068 245.076L77.978 245.124C77.9496 244.65 78.0782 244.18 78.344 243.786C78.3729 243.757 78.4077 243.735 78.446 243.72C78.4842 243.706 78.5252 243.699 78.566 243.702H78.62C78.764 243.702 78.794 243.798 78.8 243.858C78.7074 244.338 78.4481 244.769 78.068 245.076ZM78.128 245.292C78.656 244.998 79.406 244.692 79.688 244.806C79.7161 244.821 79.7401 244.842 79.7578 244.868C79.7756 244.894 79.7867 244.925 79.79 244.956C79.8077 245.019 79.8081 245.086 79.7912 245.149C79.7744 245.212 79.7408 245.27 79.694 245.316C79.478 245.508 78.902 245.496 78.128 245.292Z" fill="#7049A3"/>
<path d="M77.492 244.8L72.578 244.494C72.4961 244.486 72.4142 244.51 72.3502 244.562C72.2861 244.613 72.2451 244.688 72.236 244.77L71.756 248.64C71.7428 248.843 71.8104 249.044 71.9441 249.198C72.0777 249.352 72.2667 249.447 72.47 249.462C74.186 249.54 75.008 249.492 77.168 249.612C79.0853 249.809 81.0142 249.869 82.94 249.792C84.74 249.618 84.542 247.812 83.756 247.728C81.878 247.512 79.4 246.138 78.224 245.094C78.0201 244.916 77.7622 244.813 77.492 244.8Z" fill="#263238"/>
<path opacity="0.2" d="M86.642 220.71C83.642 218.82 80.156 216.594 76.724 214.392C77.462 207.144 77.396 201.144 75.272 200.682C73.94 200.388 70.814 200.394 66.806 200.49V185.562C78.044 187.872 89.228 192.222 90.08 195.714C91.268 200.628 89.192 211.032 86.642 220.71Z" fill="black"/>
<path d="M98.186 245.466L102.572 245.544L104.756 235.434L100.376 235.356L98.186 245.466Z" fill="#EBB376"/>
<path opacity="0.2" d="M100.376 235.356L104.756 235.44L103.508 241.218L99.17 240.93L100.376 235.356Z" fill="black"/>
<path d="M82.262 184.098L82.97 178.434L60.068 174.66C60.068 174.66 52.574 189.504 56.24 196.8C59.606 203.472 95.402 199.494 100.91 200.7C106.418 201.906 97.91 238.986 97.91 238.986L105.914 239.586C105.914 239.586 118.274 206.226 115.736 195.732C114.608 191.142 95.738 185.076 82.262 184.098Z" fill="#7049A3"/>
<path d="M97.04 239.334L106.568 239.97L107.972 235.848L97.472 235.362L97.04 239.334Z" fill="#7049A3"/>
<path opacity="0.2" d="M97.04 239.334L106.568 239.97L107.972 235.848L97.472 235.362L97.04 239.334Z" fill="white"/>
<path d="M103.232 245.328H103.322C103.322 245.328 103.424 245.358 103.436 245.37H103.472C103.843 245.487 104.225 245.564 104.612 245.598C104.9 245.652 105.199 245.594 105.446 245.436C105.524 245.368 105.581 245.278 105.61 245.178C105.639 245.078 105.638 244.972 105.608 244.872C105.598 244.807 105.573 244.745 105.535 244.692C105.496 244.638 105.445 244.595 105.386 244.566C104.972 244.5 104.547 244.58 104.186 244.794C104.444 244.522 104.597 244.167 104.618 243.792C104.6 243.703 104.555 243.623 104.488 243.562C104.421 243.502 104.336 243.465 104.246 243.456C104.075 243.431 103.902 243.472 103.76 243.57C103.298 243.966 103.226 245.208 103.226 245.28L103.232 245.328ZM103.706 245.076L103.616 245.124C103.588 244.65 103.716 244.18 103.982 243.786C104.011 243.757 104.046 243.735 104.084 243.72C104.122 243.706 104.163 243.699 104.204 243.702H104.258C104.402 243.702 104.432 243.798 104.438 243.858C104.346 244.339 104.084 244.772 103.7 245.076H103.706ZM103.766 245.292C104.294 244.998 105.044 244.692 105.326 244.806C105.354 244.821 105.378 244.842 105.396 244.868C105.414 244.894 105.425 244.925 105.428 244.956C105.446 245.019 105.446 245.086 105.429 245.149C105.412 245.212 105.379 245.27 105.332 245.316C105.116 245.508 104.54 245.496 103.766 245.292Z" fill="#7049A3"/>
<path d="M103.13 244.8L98.216 244.494C98.1341 244.486 98.0522 244.51 97.9881 244.562C97.9241 244.613 97.883 244.688 97.874 244.77L97.394 248.64C97.3807 248.843 97.4483 249.044 97.582 249.198C97.7157 249.352 97.9047 249.447 98.108 249.462C99.824 249.54 100.646 249.492 102.806 249.612C104.723 249.809 106.652 249.869 108.578 249.792C110.408 249.618 110.186 247.812 109.394 247.728C107.516 247.512 105.038 246.138 103.862 245.094C103.658 244.916 103.4 244.813 103.13 244.8Z" fill="#263238"/>
<path d="M59.228 177.24L69.836 178.632L70.184 177.066L59.552 175.518L59.228 177.24Z" fill="black"/>
<path d="M71.066 177.078L70.934 178.632L80.744 179.982V178.44L71.066 177.078Z" fill="black"/>
<path d="M81.35 178.53V179.982L82.778 180.168V178.764L81.35 178.53Z" fill="black"/>
<path opacity="0.2" d="M88.412 153.93C87.98 155.298 87.584 156.636 87.212 157.926C86.908 159.01 86.624 160.062 86.36 161.082C85.622 157.062 86.96 152.262 86.96 152.262L88.412 153.93Z" fill="black"/>
<path d="M90.716 147C92.63 147.39 93.26 162.264 93.344 163.848C93.428 165.432 102.74 168.51 102.74 168.51V170.676C102.74 170.676 92.756 169.98 90.422 169.026C88.088 168.072 87.5 154.296 87.5 154.296L90.716 147Z" fill="#E4897B"/>
<path d="M90.716 147C92.474 147.546 93.344 157.356 93.344 157.356L87.908 159.6L86.558 154.146C86.558 154.146 86.174 153.036 86.93 150.696C88.028 147.282 90.716 147 90.716 147Z" fill="#263238"/>
<path d="M50.168 195.912H93.5C94.7587 195.912 95.9659 196.412 96.8559 197.302C97.746 198.192 98.246 199.399 98.246 200.658V203.196H45.422V200.658C45.422 199.399 45.922 198.192 46.8121 197.302C47.7021 196.412 48.9093 195.912 50.168 195.912Z" fill="#7049A3"/>
<path d="M64.262 177.87H93.356C93.7066 177.87 94.0528 177.949 94.3686 178.101C94.6844 178.254 94.9616 178.476 95.1797 178.75C95.3978 179.025 95.551 179.345 95.6279 179.687C95.7049 180.029 95.7035 180.384 95.624 180.726L90.422 203.196H89.222L93.65 183.504C93.7275 183.164 93.7274 182.81 93.6495 182.47C93.5716 182.129 93.4179 181.811 93.1999 181.538C92.982 181.266 92.7054 181.046 92.3906 180.895C92.0758 180.743 91.7311 180.665 91.382 180.666H64.856L64.262 177.87Z" fill="#263238"/>
<path d="M75.278 204V222.99C75.278 223.283 75.1617 223.564 74.9546 223.771C74.7476 223.978 74.4668 224.094 74.174 224.094H69.5C69.2072 224.094 68.9264 223.978 68.7193 223.771C68.5123 223.564 68.396 223.283 68.396 222.99V204H75.278Z" fill="#263238"/>
<path d="M49.574 247.836C49.574 247.437 49.4558 247.048 49.2342 246.716C49.0127 246.384 48.6979 246.126 48.3295 245.973C47.9611 245.821 47.5558 245.781 47.1647 245.859C46.7736 245.937 46.4144 246.129 46.1325 246.41C45.8505 246.692 45.6585 247.052 45.5807 247.443C45.5029 247.834 45.5429 248.239 45.6955 248.608C45.848 248.976 46.1064 249.291 46.438 249.512C46.7695 249.734 47.1593 249.852 47.558 249.852C48.0927 249.852 48.6054 249.64 48.9835 249.262C49.3616 248.883 49.574 248.371 49.574 247.836Z" fill="#263238"/>
<path opacity="0.2" d="M48.566 247.836C48.566 247.637 48.5069 247.442 48.3962 247.276C48.2854 247.11 48.128 246.981 47.9438 246.905C47.7596 246.828 47.5569 246.808 47.3614 246.847C47.1659 246.886 46.9863 246.982 46.8453 247.123C46.7043 247.264 46.6083 247.444 46.5694 247.639C46.5305 247.835 46.5505 248.038 46.6268 248.222C46.7031 248.406 46.8323 248.563 46.998 248.674C47.1638 248.785 47.3587 248.844 47.558 248.844C47.8249 248.842 48.0804 248.736 48.2691 248.547C48.4578 248.358 48.5645 248.103 48.566 247.836Z" fill="white"/>
<path d="M98.144 247.836C98.1452 247.436 98.0274 247.044 97.8057 246.71C97.584 246.377 97.2682 246.117 96.8985 245.963C96.5288 245.809 96.1218 245.769 95.729 245.847C95.3362 245.924 94.9753 246.117 94.6922 246.4C94.4091 246.683 94.2164 247.044 94.1385 247.437C94.0607 247.83 94.1013 248.237 94.255 248.607C94.4088 248.976 94.6689 249.292 95.0023 249.514C95.3358 249.735 95.7275 249.853 96.128 249.852C96.6622 249.85 97.174 249.638 97.5517 249.26C97.9295 248.882 98.1424 248.37 98.144 247.836Z" fill="#263238"/>
<path opacity="0.2" d="M97.136 247.836C97.136 247.637 97.0769 247.442 96.9661 247.276C96.8554 247.11 96.6979 246.981 96.5137 246.905C96.3295 246.828 96.1269 246.808 95.9313 246.847C95.7358 246.886 95.5562 246.982 95.4152 247.123C95.2743 247.264 95.1783 247.444 95.1394 247.639C95.1005 247.835 95.1204 248.038 95.1967 248.222C95.273 248.406 95.4022 248.563 95.568 248.674C95.7337 248.785 95.9286 248.844 96.128 248.844C96.3948 248.842 96.6503 248.736 96.839 248.547C97.0277 248.358 97.1344 248.103 97.136 247.836Z" fill="white"/>
<path d="M73.5081 238.98V217.272H70.1721V238.98C57.1761 239.316 49.2741 243.858 47.6961 244.854C47.6029 244.909 47.5264 244.988 47.4747 245.083C47.4229 245.179 47.3978 245.286 47.4021 245.394V247.194C47.4013 247.278 47.4172 247.361 47.4488 247.439C47.4804 247.517 47.5271 247.588 47.5862 247.648C47.6454 247.707 47.7157 247.755 47.7933 247.787C47.8709 247.819 47.9541 247.836 48.0381 247.836C48.1504 247.835 48.2605 247.805 48.3573 247.748C48.4542 247.691 48.5345 247.61 48.5901 247.512L49.3641 246.156C56.0973 244.009 63.1061 242.849 70.1721 242.712V246.312C70.1721 246.42 70.1935 246.528 70.2352 246.628C70.2769 246.728 70.338 246.819 70.415 246.895C70.4919 246.972 70.5832 247.032 70.6837 247.073C70.7841 247.114 70.8916 247.135 71.0001 247.134H72.6861C72.9041 247.134 73.1132 247.047 73.2673 246.893C73.4215 246.739 73.5081 246.53 73.5081 246.312V242.712C80.576 242.848 87.5869 244.008 94.3221 246.156L95.0901 247.512C95.1462 247.61 95.2274 247.692 95.3254 247.749C95.4234 247.806 95.5348 247.836 95.6481 247.836C95.8173 247.834 95.9791 247.766 96.0982 247.646C96.2173 247.526 96.2841 247.363 96.2841 247.194V245.394C96.2883 245.286 96.2633 245.179 96.2115 245.083C96.1597 244.988 96.0832 244.909 95.9901 244.854C94.4061 243.858 86.5101 239.316 73.5081 238.98Z" fill="#263238"/>
<path d="M72.938 245.814H70.748V249.852H72.938V245.814Z" fill="#263238"/>
<path opacity="0.2" d="M75.2781 203.982H68.4141V211.872H75.2781V203.982Z" fill="black"/>
<path d="M99.7101 202.026V204.294C99.7101 204.447 99.6799 204.598 99.6213 204.739C99.5628 204.879 99.4769 205.007 99.3688 205.115C99.2606 205.223 99.1322 205.308 98.991 205.366C98.8499 205.423 98.6986 205.453 98.5461 205.452H45.1461C44.9938 205.453 44.8428 205.423 44.702 205.365C44.5611 205.308 44.4331 205.222 44.3254 205.115C44.2178 205.007 44.1325 204.879 44.0746 204.738C44.0167 204.597 43.9873 204.446 43.9881 204.294V202.026C43.9881 201.719 44.1101 201.424 44.3272 201.207C44.5444 200.99 44.8389 200.868 45.1461 200.868H98.5461C98.8537 200.868 99.1489 200.99 99.367 201.207C99.5851 201.424 99.7085 201.718 99.7101 202.026Z" fill="#263238"/>
<path d="M75.14 203.196H43.982C43.982 203.196 34.1 186.732 34.1 159.528V149.538C34.1016 147.566 34.8861 145.675 36.2812 144.281C37.6763 142.887 39.5678 142.104 41.54 142.104H54.74C56.6717 142.103 58.528 142.854 59.9156 144.198C61.3032 145.542 62.1132 147.373 62.174 149.304C62.552 163.344 64.616 193.698 75.14 203.196Z" fill="#263238"/>
<path opacity="0.2" d="M68.3 203.196H45.386C44.9527 203.198 44.5274 203.08 44.1568 202.856C43.7863 202.631 43.4849 202.309 43.286 201.924C41.03 197.58 34.1 182.322 34.1 159.528V149.538C34.1 147.566 34.8832 145.676 36.2773 144.281C37.6715 142.887 39.5624 142.104 41.534 142.104H52.934C54.8657 142.103 56.722 142.854 58.1096 144.198C59.4972 145.542 60.3072 147.373 60.368 149.304C60.71 161.826 62.39 187.392 70.25 199.47C70.4875 199.828 70.6245 200.243 70.6467 200.672C70.6689 201.101 70.5755 201.529 70.3763 201.909C70.1771 202.29 69.8793 202.61 69.5141 202.837C69.1488 203.063 68.7295 203.187 68.3 203.196Z" fill="white"/>
<path opacity="0.2" d="M99.71 202.026V204.294C99.71 204.601 99.588 204.896 99.3708 205.113C99.1537 205.33 98.8591 205.452 98.552 205.452H74.618C74.4126 205.453 74.2091 205.413 74.0192 205.335C73.8292 205.257 73.6565 205.142 73.511 204.997C73.3655 204.852 73.2501 204.68 73.1713 204.49C73.0926 204.301 73.052 204.097 73.052 203.892V202.434C73.052 202.019 73.217 201.62 73.5107 201.327C73.8044 201.033 74.2027 200.868 74.618 200.868H98.546C98.8537 200.868 99.1488 200.99 99.367 201.207C99.5851 201.424 99.7084 201.718 99.71 202.026Z" fill="black"/>
<path d="M43.97 141.222L45.95 138.63C45.95 138.63 54.404 139.014 54.608 142.104C54.812 145.194 43.97 141.222 43.97 141.222Z" fill="#7049A3"/>
<path d="M38.4141 148.98C38.4141 148.98 38.9301 162.72 38.4141 198.18C38.4141 199.38 33.9381 199.332 33.6141 198.18C32.5401 194.142 33.6141 161.898 33.6141 161.898" fill="#7049A3"/>
<path d="M33.7161 198.36L38.2701 198.516V200.79L33.7161 200.556V198.36Z" fill="#7049A3"/>
<path opacity="0.2" d="M38.4141 148.98C38.4141 148.98 38.9301 162.72 38.4141 198.18C38.4141 199.38 33.9381 199.332 33.6141 198.18C32.5401 194.142 33.6141 161.898 33.6141 161.898" fill="white"/>
<path d="M31.466 190.932C31.22 184.392 30.326 154.332 34.082 144.372C34.082 144.372 37.616 139.884 49.574 139.884C61.532 139.884 65.132 148.374 65.132 148.374C65.132 148.374 65.648 162.108 65.132 197.574C65.132 198.774 60.656 198.732 60.332 197.574C59.258 193.542 60.332 161.292 60.332 161.292L57.932 190.632C57.9233 190.73 57.8945 190.826 57.8476 190.913C57.8006 191 57.7364 191.076 57.6589 191.137C57.5814 191.199 57.4922 191.243 57.3968 191.269C57.3014 191.294 57.2018 191.3 57.104 191.286C53.33 190.686 36.704 188.352 32.306 191.352C32.2263 191.403 32.1347 191.433 32.0401 191.438C31.9455 191.443 31.8512 191.424 31.7664 191.381C31.6817 191.339 31.6094 191.275 31.5568 191.196C31.5041 191.118 31.4728 191.027 31.466 190.932Z" fill="#7049A3"/>
<path d="M60.4341 197.754L64.9881 197.91V200.184L60.4341 199.95V197.754Z" fill="#7049A3"/>
<path d="M57.3501 191.316L56.9901 193.716C56.9901 193.716 38.4321 189.672 32.4201 193.98L32.0601 191.322C32.0601 191.322 36.7041 187.038 57.3501 191.316Z" fill="#7049A3"/>
<path opacity="0.4" d="M31.466 190.932C31.22 184.392 30.326 154.332 34.082 144.372C34.082 144.372 37.616 139.884 49.574 139.884C61.532 139.884 65.132 148.374 65.132 148.374C65.132 148.374 65.648 162.108 65.132 197.574C65.132 198.774 60.656 198.732 60.332 197.574C59.258 193.542 60.332 161.292 60.332 161.292L57.932 190.632C57.9233 190.73 57.8945 190.826 57.8476 190.913C57.8006 191 57.7364 191.076 57.6589 191.137C57.5814 191.199 57.4922 191.243 57.3968 191.269C57.3014 191.294 57.2018 191.3 57.104 191.286C53.33 190.686 36.704 188.352 32.306 191.352C32.2263 191.403 32.1347 191.433 32.0401 191.438C31.9455 191.443 31.8512 191.424 31.7664 191.381C31.6817 191.339 31.6094 191.275 31.5568 191.196C31.5041 191.118 31.4728 191.027 31.466 190.932Z" fill="white"/>
<path opacity="0.2" d="M60.3501 161.292C60.3501 161.292 60.6141 151.98 65.1501 148.374C65.1321 148.374 59.4801 150.804 60.3501 161.292Z" fill="black"/>
<path opacity="0.2" d="M46.742 140.958C46.742 140.958 41.282 143.958 40.412 184.836C40.412 184.836 38.036 143.598 46.742 140.958Z" fill="black"/>
</svg>
