<svg width="200" height="200" viewBox="0 0 301 301" fill="none" xmlns="http://www.w3.org/2000/svg">
<path d="M156.884 120.758C142.88 115.424 140.42 97.142 111.584 83.12C83.618 69.5 47.21 88.184 34.658 115.364C19.298 148.616 35.414 187.85 62.21 199.292C90.248 211.262 119.594 192.77 138.608 194.87C158.33 197.042 169.442 229.67 209.846 229.856C241.502 229.994 265.388 207.92 271.502 161.924C275.396 132.638 266.144 102.848 223.988 99.524C192.398 96.998 172.448 126.686 156.884 120.758Z" fill="#D9A322"/>
<path opacity="0.9" d="M156.884 120.758C142.88 115.424 140.42 97.142 111.584 83.12C83.618 69.5 47.21 88.184 34.658 115.364C19.298 148.616 35.414 187.85 62.21 199.292C90.248 211.262 119.594 192.77 138.608 194.87C158.33 197.042 169.442 229.67 209.846 229.856C241.502 229.994 265.388 207.92 271.502 161.924C275.396 132.638 266.144 102.848 223.988 99.524C192.398 96.998 172.448 126.686 156.884 120.758Z" fill="white"/>
<path d="M150.5 254.726C214.749 254.726 266.834 251.685 266.834 247.934C266.834 244.183 214.749 241.142 150.5 241.142C86.2505 241.142 34.166 244.183 34.166 247.934C34.166 251.685 86.2505 254.726 150.5 254.726Z" fill="#F5F5F5"/>
<path d="M139.082 44.546H137.264V90.068H139.082V44.546Z" fill="#263238"/>
<path d="M140.906 44.546H139.994V90.068H140.906V44.546Z" fill="#263238"/>
<path d="M143.642 44.546H142.73V90.068H143.642V44.546Z" fill="#263238"/>
<path d="M149.096 44.546H147.278V90.068H149.096V44.546Z" fill="#263238"/>
<path d="M151.832 44.546H150.92V90.068H151.832V44.546Z" fill="#263238"/>
<path d="M155.474 44.546H152.744V90.068H155.474V44.546Z" fill="#263238"/>
<path d="M158.204 44.546H157.292V90.068H158.204V44.546Z" fill="#263238"/>
<path d="M160.028 44.546H159.116V90.068H160.028V44.546Z" fill="#263238"/>
<path d="M164.576 44.546H162.758V90.068H164.576V44.546Z" fill="#263238"/>
<path d="M169.124 44.546H167.306V90.068H169.124V44.546Z" fill="#263238"/>
<path d="M172.772 44.546H170.042V90.068H172.772V44.546Z" fill="#263238"/>
<path d="M175.502 44.546H174.59V90.068H175.502V44.546Z" fill="#263238"/>
<path d="M179.138 44.546H177.32V90.068H179.138V44.546Z" fill="#263238"/>
<path d="M183.692 44.546H180.962V90.068H183.692V44.546Z" fill="#263238"/>
<path d="M185.516 44.546H184.604V90.068H185.516V44.546Z" fill="#263238"/>
<path d="M190.064 44.546H187.334V90.068H190.064V44.546Z" fill="#263238"/>
<path d="M192.794 44.546H190.976V90.068H192.794V44.546Z" fill="#263238"/>
<path d="M196.442 44.546H193.712V90.068H196.442V44.546Z" fill="#263238"/>
<path d="M198.266 44.546H197.354V90.068H198.266V44.546Z" fill="#263238"/>
<path d="M201.902 44.546H200.99V90.068H201.902V44.546Z" fill="#263238"/>
<path d="M204.632 44.546H202.814V90.068H204.632V44.546Z" fill="#263238"/>
<path d="M209.186 44.546H207.368V90.068H209.186V44.546Z" fill="#263238"/>
<path d="M212.828 44.546H211.916V90.068H212.828V44.546Z" fill="#263238"/>
<path d="M216.47 44.546H215.558V90.068H216.47V44.546Z" fill="#263238"/>
<path d="M219.2 44.546H217.382V90.068H219.2V44.546Z" fill="#263238"/>
<path d="M224.66 44.546H221.93V90.068H224.66V44.546Z" fill="#263238"/>
<path d="M226.484 44.546H225.572V90.068H226.484V44.546Z" fill="#263238"/>
<path d="M229.214 44.546H227.396V90.068H229.214V44.546Z" fill="#263238"/>
<path d="M174.218 96.728C174.218 97.586 173.57 98.33 172.202 98.33C171.516 98.3404 170.845 98.1301 170.288 97.73L170.696 96.992C171.123 97.3235 171.65 97.501 172.19 97.496C172.868 97.496 173.264 97.196 173.264 96.722C173.264 96.248 172.928 95.966 172.16 95.966H171.692V95.318L172.85 93.944H170.534V93.146H174.008V93.782L172.772 95.252C172.964 95.2536 173.154 95.293 173.331 95.3681C173.507 95.4432 173.667 95.5525 173.802 95.6896C173.936 95.8268 174.042 95.9891 174.113 96.1673C174.185 96.3455 174.22 96.536 174.218 96.728Z" fill="#263238"/>
<path d="M178.532 97.1H175.982L175.478 98.3H174.5L176.792 93.2H177.722L180.026 98.3H179.036L178.532 97.1ZM178.22 96.356L177.26 94.1L176.3 96.332L178.22 96.356Z" fill="#263238"/>
<path d="M184.022 96.692C184.022 97.586 183.374 98.33 182.006 98.33C181.32 98.3413 180.649 98.1309 180.092 97.73L180.494 96.992C180.923 97.3247 181.451 97.5024 181.994 97.496C182.666 97.496 183.068 97.196 183.068 96.716C183.068 96.236 182.756 95.924 181.7 95.924H180.5L180.764 93.146H183.764V93.944H181.574L181.466 95.144H181.952C183.416 95.132 184.022 95.786 184.022 96.692Z" fill="#263238"/>
<path d="M188.642 96.674C188.637 96.9083 188.584 97.1391 188.486 97.3519C188.388 97.5647 188.247 97.7548 188.071 97.9104C187.896 98.066 187.691 98.1835 187.468 98.2558C187.245 98.328 187.009 98.3533 186.776 98.33C185.384 98.33 184.568 97.436 184.568 95.798C184.568 94.052 185.588 93.086 187.07 93.086C187.538 93.073 188 93.187 188.408 93.416L188.06 94.13C187.767 93.9557 187.429 93.8703 187.088 93.884C186.128 93.884 185.522 94.484 185.522 95.636C185.698 95.4552 185.91 95.3144 186.145 95.2233C186.38 95.1322 186.632 95.0929 186.884 95.108C187.104 95.0855 187.327 95.1091 187.538 95.1773C187.748 95.2455 187.942 95.3567 188.108 95.504C188.273 95.6513 188.406 95.8314 188.498 96.0328C188.59 96.2343 188.639 96.4526 188.642 96.674ZM187.724 96.722C187.724 96.188 187.322 95.852 186.704 95.852C186.578 95.8371 186.45 95.8482 186.328 95.8849C186.207 95.9216 186.094 95.9829 185.997 96.0652C185.9 96.1474 185.821 96.2487 185.765 96.3627C185.71 96.4768 185.678 96.6011 185.672 96.728C185.672 97.208 186.05 97.586 186.728 97.586C186.85 97.5985 186.973 97.5856 187.089 97.548C187.205 97.5105 187.313 97.4491 187.404 97.3679C187.495 97.2866 187.569 97.1872 187.62 97.0761C187.671 96.9649 187.698 96.8443 187.7 96.722H187.724Z" fill="#263238"/>
<path d="M192.944 93.158V93.794L190.964 98.258H189.95L191.864 93.962H189.866V94.826H188.984V93.158H192.944Z" fill="#263238"/>
<path d="M198.422 96.872C198.422 97.748 197.738 98.258 196.424 98.258H193.892V93.158H196.292C197.492 93.158 198.17 93.68 198.17 94.484C198.18 94.7141 198.124 94.9422 198.008 95.1411C197.892 95.3401 197.721 95.5015 197.516 95.606C197.788 95.6841 198.025 95.8516 198.189 96.0814C198.354 96.3112 198.436 96.5898 198.422 96.872ZM194.822 93.872V95.3H196.16C196.814 95.3 197.186 95.072 197.186 94.604C197.186 94.136 196.814 93.896 196.16 93.896L194.822 93.872ZM197.45 96.746C197.45 96.242 197.066 96.014 196.352 96.014H194.84V97.484H196.37C197.084 97.514 197.468 97.286 197.468 96.776L197.45 96.746Z" fill="#263238"/>
<path d="M142.976 245.912L138.044 245.63L137.312 234.134L142.238 234.422L142.976 245.912Z" fill="#CE7A63"/>
<path d="M143.588 242.978H137.588C137.49 242.978 137.396 243.012 137.319 243.073C137.243 243.134 137.19 243.219 137.168 243.314L136.148 247.7C136.123 247.806 136.123 247.917 136.148 248.023C136.172 248.129 136.221 248.229 136.29 248.313C136.359 248.398 136.446 248.466 136.545 248.511C136.645 248.557 136.753 248.579 136.862 248.576C138.8 248.576 140.21 248.432 142.652 248.432C144.152 248.432 148.652 248.588 150.746 248.588C152.84 248.588 153.11 246.542 152.264 246.356C148.466 245.522 145.61 244.376 144.404 243.278C144.179 243.08 143.888 242.972 143.588 242.978Z" fill="#263238"/>
<path opacity="0.2" d="M142.238 234.428L137.306 234.14L137.69 240.062L142.622 240.11L142.238 234.428Z" fill="black"/>
<path d="M143.9 243.662C143.877 243.657 143.857 243.645 143.841 243.627C143.825 243.61 143.814 243.589 143.81 243.566C143.808 243.542 143.812 243.519 143.823 243.497C143.833 243.476 143.85 243.458 143.87 243.446C144.05 243.338 145.67 242.36 146.192 242.636C146.252 242.669 146.302 242.718 146.337 242.777C146.372 242.836 146.39 242.903 146.39 242.972C146.398 243.084 146.38 243.197 146.337 243.301C146.294 243.405 146.228 243.498 146.144 243.572C145.862 243.757 145.526 243.843 145.19 243.818C144.755 243.815 144.323 243.763 143.9 243.662ZM144.242 243.5C144.816 243.692 145.442 243.66 145.994 243.41C146.054 243.358 146.1 243.292 146.129 243.217C146.157 243.143 146.166 243.063 146.156 242.984C146.158 242.957 146.152 242.929 146.139 242.905C146.127 242.881 146.107 242.86 146.084 242.846C146.037 242.825 145.986 242.815 145.934 242.816C145.339 242.935 144.773 243.168 144.266 243.5H144.242Z" fill="#D9A322"/>
<path d="M143.9 243.644C143.882 243.632 143.868 243.616 143.858 243.597C143.849 243.578 143.845 243.557 143.846 243.536C143.846 243.476 143.984 242.054 144.566 241.586C144.634 241.528 144.713 241.484 144.799 241.458C144.885 241.432 144.975 241.425 145.064 241.436C145.151 241.437 145.235 241.468 145.301 241.524C145.368 241.58 145.413 241.657 145.43 241.742C145.532 242.294 144.53 243.374 144.02 243.65C144.002 243.656 143.984 243.656 143.966 243.65C143.944 243.654 143.921 243.652 143.9 243.644ZM144.71 241.766C144.359 242.21 144.15 242.75 144.11 243.314C144.626 242.93 145.262 242.114 145.202 241.784C145.202 241.754 145.202 241.688 145.034 241.67H144.98C144.878 241.668 144.778 241.702 144.698 241.766H144.71Z" fill="#D9A322"/>
<path d="M117.416 246.326L112.622 245.156L113.972 233.72L118.766 234.89L117.416 246.326Z" fill="#CE7A63"/>
<path d="M118.064 242.978H112.064C111.965 242.978 111.87 243.011 111.793 243.072C111.715 243.133 111.661 243.218 111.638 243.314L110.6 247.7C110.576 247.806 110.577 247.916 110.602 248.022C110.627 248.128 110.676 248.227 110.745 248.311C110.813 248.395 110.9 248.463 110.999 248.509C111.097 248.555 111.205 248.578 111.314 248.576C113.252 248.576 114.668 248.432 117.104 248.432C118.604 248.432 123.104 248.588 125.198 248.588C127.292 248.588 127.562 246.542 126.716 246.356C122.918 245.522 120.068 244.376 118.862 243.278C118.642 243.084 118.358 242.977 118.064 242.978Z" fill="#263238"/>
<path opacity="0.2" d="M118.766 234.896L113.972 233.726L113.192 240.308H118.142L118.766 234.896Z" fill="black"/>
<path d="M118.394 243.662C118.372 243.656 118.352 243.644 118.337 243.627C118.322 243.61 118.313 243.589 118.31 243.566C118.306 243.543 118.309 243.519 118.319 243.498C118.329 243.477 118.344 243.459 118.364 243.446C118.544 243.338 120.164 242.36 120.692 242.636C120.752 242.669 120.802 242.717 120.836 242.777C120.87 242.836 120.887 242.904 120.884 242.972C120.894 243.084 120.877 243.198 120.834 243.302C120.792 243.407 120.724 243.499 120.638 243.572C120.356 243.758 120.02 243.844 119.684 243.818C119.249 243.815 118.817 243.763 118.394 243.662ZM118.736 243.5C119.31 243.692 119.936 243.66 120.488 243.41C120.548 243.358 120.594 243.292 120.623 243.217C120.651 243.143 120.66 243.063 120.65 242.984C120.65 242.894 120.614 242.864 120.578 242.846C120.531 242.825 120.48 242.815 120.428 242.816C119.825 242.932 119.25 243.165 118.736 243.5Z" fill="#D9A322"/>
<path d="M118.358 243.644C118.34 243.633 118.326 243.616 118.318 243.597C118.309 243.578 118.307 243.557 118.31 243.536C118.31 243.476 118.448 242.054 119.024 241.586C119.092 241.528 119.171 241.484 119.257 241.458C119.343 241.432 119.433 241.425 119.522 241.436C119.61 241.436 119.695 241.466 119.763 241.522C119.831 241.578 119.877 241.656 119.894 241.742C119.99 242.294 118.994 243.374 118.478 243.65C118.46 243.656 118.442 243.656 118.424 243.65C118.402 243.654 118.379 243.652 118.358 243.644ZM119.168 241.766C118.817 242.21 118.608 242.749 118.568 243.314C119.078 242.93 119.714 242.114 119.654 241.784C119.654 241.754 119.654 241.688 119.486 241.67H119.432C119.336 241.672 119.243 241.705 119.168 241.766Z" fill="#D9A322"/>
<path d="M132.302 98.75C133.327 98.7405 134.318 99.1196 135.075 99.8108C135.831 100.502 136.299 101.454 136.382 102.476C136.478 103.592 136.568 104.63 136.622 105.044C136.868 107.186 138.842 115.97 139.22 118.106L139.748 121.028C139.79 121.232 144.77 120.788 144.77 120.788L146.696 123.044C146.294 123.514 145.865 123.961 145.412 124.382C144.963 124.815 144.483 125.216 143.978 125.582C143.446 125.981 142.879 126.332 142.286 126.632C141.59 126.994 140.84 127.243 140.066 127.37C139.572 127.44 139.071 127.44 138.578 127.37C137.979 127.279 137.403 127.075 136.88 126.77C136.355 126.458 135.893 126.051 135.518 125.57C135.071 124.976 134.732 124.308 134.516 123.596L134.438 123.338L134.384 123.134L134.15 122.3C133.988 121.742 133.844 121.184 133.706 120.62C133.154 118.376 131.024 108.08 130.706 105.782C130.544 104.636 130.394 103.478 130.298 102.32C130.25 101.72 130.208 101.12 130.172 100.562C130.136 100.004 130.118 99.41 130.112 98.726L132.302 98.75Z" fill="#D9A322"/>
<path opacity="0.6" d="M132.302 98.75C133.327 98.7405 134.318 99.1196 135.075 99.8108C135.831 100.502 136.299 101.454 136.382 102.476C136.478 103.592 136.568 104.63 136.622 105.044C136.868 107.186 138.842 115.97 139.22 118.106L139.748 121.028C139.79 121.232 144.77 120.788 144.77 120.788L146.696 123.044C146.294 123.514 145.865 123.961 145.412 124.382C144.963 124.815 144.483 125.216 143.978 125.582C143.446 125.981 142.879 126.332 142.286 126.632C141.59 126.994 140.84 127.243 140.066 127.37C139.572 127.44 139.071 127.44 138.578 127.37C137.979 127.279 137.403 127.075 136.88 126.77C136.355 126.458 135.893 126.051 135.518 125.57C135.071 124.976 134.732 124.308 134.516 123.596L134.438 123.338L134.384 123.134L134.15 122.3C133.988 121.742 133.844 121.184 133.706 120.62C133.154 118.376 131.024 108.08 130.706 105.782C130.544 104.636 130.394 103.478 130.298 102.32C130.25 101.72 130.208 101.12 130.172 100.562C130.136 100.004 130.118 99.41 130.112 98.726L132.302 98.75Z" fill="white"/>
<path d="M142.994 120.908C142.994 120.908 141.854 123.782 144.68 125.012L147.152 123.692L145.7 120.5L142.994 120.908Z" fill="#D9A322"/>
<path opacity="0.8" d="M142.994 120.908C142.994 120.908 141.854 123.782 144.68 125.012L147.152 123.692L145.7 120.5L142.994 120.908Z" fill="white"/>
<path d="M145.502 120.638L147.956 118.514L150.308 122.63C149.233 123.187 148.073 123.564 146.876 123.746C145.904 123.848 145.502 122.984 145.19 122.174C145.097 121.914 145.076 121.633 145.131 121.362C145.186 121.092 145.315 120.841 145.502 120.638Z" fill="#CE7A63"/>
<path d="M151.244 118.394L153.032 120.818L150.308 122.63L147.956 118.514L151.244 118.394Z" fill="#CE7A63"/>
<path opacity="0.1" d="M139.748 121.028L136.58 121.736C136.58 121.736 138.422 121.43 138.89 117.41C138.89 117.2 138.89 116.522 138.956 116.75C139.4 119.108 139.748 121.028 139.748 121.028Z" fill="black"/>
<path d="M154.568 105.836H139.586V120.818H154.568V105.836Z" fill="#263238"/>
<path opacity="0.7" d="M154.568 105.836H139.586V120.818H154.568V105.836Z" fill="white"/>
<path d="M154.568 120.824H161.246V105.842H154.568V120.824Z" fill="#263238"/>
<path opacity="0.6" d="M154.568 120.824H161.246V105.842H154.568V120.824Z" fill="white"/>
<path opacity="0.7" d="M146.648 115.79H140.312V119.978H146.648V115.79Z" fill="white"/>
<path d="M142.058 116.69H141.602V119.072H142.058V116.69Z" fill="#263238"/>
<path d="M142.64 116.69H142.412V119.072H142.64V116.69Z" fill="#263238"/>
<path d="M143.498 116.69H142.868V119.072H143.498V116.69Z" fill="#263238"/>
<path d="M144.026 116.69H143.798V119.072H144.026V116.69Z" fill="#263238"/>
<path d="M144.608 116.69H144.38V119.072H144.608V116.69Z" fill="#263238"/>
<path d="M145.358 116.69H144.902V119.072H145.358V116.69Z" fill="#263238"/>
<path d="M162.008 103.262H155.33V106.592H162.008V103.262Z" fill="#263238"/>
<path opacity="0.4" d="M162.008 103.262H155.33V106.592H162.008V103.262Z" fill="white"/>
<path d="M155.33 103.262H138.824V106.592H155.33V103.262Z" fill="#263238"/>
<path opacity="0.5" d="M155.33 103.262H138.824V106.592H155.33V103.262Z" fill="white"/>
<path d="M159.722 103.262H157.61V108.116H159.722V103.262Z" fill="#D9A322"/>
<path d="M159.722 115.964H157.61V120.818H159.722V115.964Z" fill="#D9A322"/>
<g opacity="0.3">
<path d="M159.722 103.262H157.61V108.116H159.722V103.262Z" fill="white"/>
<path d="M159.722 115.964H157.61V120.818H159.722V115.964Z" fill="white"/>
</g>
<path d="M119.816 137.138L131.3 192.896L136.202 238.916L144.002 238.604C144.002 238.604 144.458 214.982 142.166 190.292C140.102 168.002 136.166 143.492 135.296 136.082L131.348 132.368L125.582 133.31L119.816 137.138Z" fill="#263238"/>
<path d="M111.752 137.258L113.93 198.17L111.698 238.772L120.608 239.204C120.608 239.204 123.518 219.878 125 196.832C126.488 173.594 126.548 148.28 126.908 140.33L123.446 134.396H117.836L111.752 137.258Z" fill="#263238"/>
<path d="M134.93 128.978C134.654 126.902 134.606 124.874 134.534 122.93C133.808 103.616 133.784 103.202 133.49 99.83C133.463 99.5358 133.349 99.2563 133.163 99.0267C132.978 98.7971 132.728 98.6277 132.446 98.54C120.614 94.562 115.79 96.506 107.3 98.642C106.976 98.7414 106.697 98.953 106.515 99.2388C106.332 99.5246 106.258 99.866 106.304 100.202C106.904 105.872 108.704 119.744 109.112 129.002C109.172 130.358 109.148 133.622 109.112 135.428C109.107 135.782 109.229 136.126 109.456 136.398C109.682 136.67 109.999 136.851 110.348 136.91C113.348 137.414 120.878 138.374 123.176 135.71C123.428 135.428 123.78 135.256 124.158 135.229C124.535 135.202 124.908 135.323 125.198 135.566C126.14 136.334 127.676 137.024 130.13 136.85C132.464 136.688 134 136.484 134.978 136.316C135.182 136.283 135.377 136.208 135.55 136.096C135.723 135.984 135.871 135.836 135.984 135.663C136.097 135.491 136.173 135.296 136.206 135.092C136.239 134.888 136.23 134.68 136.178 134.48C135.746 132.8 135.092 130.172 134.93 128.978Z" fill="#D9A322"/>
<path d="M124.484 96.902L121.22 99.05L118.172 99.182L116.372 97.616C116.437 95.7873 116.343 93.9564 116.09 92.144C115.963 90.9097 115.669 89.6985 115.214 88.544H115.526L118.526 88.604L121.868 88.67C121.868 88.67 121.736 89.912 121.736 91.448C121.732 92.2097 121.772 92.971 121.856 93.728C121.92 94.4395 122.078 95.1394 122.324 95.81C122.822 96.992 124.412 96.896 124.484 96.902Z" fill="#CE7A63"/>
<path d="M125 96.584C125 96.998 124.568 107.588 123.692 122.63L114.902 96.698L115.334 96.608L120.308 99.074H121.814L124.622 96.512H124.664L125 96.584Z" fill="#D9A322"/>
<path opacity="0.5" d="M125 96.584C125 96.998 124.568 107.588 123.692 122.63L114.902 96.698L115.334 96.608L120.308 99.074H121.814L124.622 96.512H124.664L125 96.584Z" fill="white"/>
<path d="M116.054 96.446L121.304 99.086L119.102 102.002L114.896 96.704L116.054 96.446Z" fill="#D9A322"/>
<path d="M125 96.572V96.584L123.26 102.008L121.178 99.254L121.052 99.086L121.136 99.002L123.932 96.404L124.61 96.512L124.652 96.518L125 96.572Z" fill="#D9A322"/>
<g opacity="0.8">
<path d="M116.054 96.446L121.304 99.086L119.102 102.002L114.896 96.704L116.054 96.446Z" fill="white"/>
</g>
<g opacity="0.8">
<path d="M125 96.572V96.584L123.26 102.008L121.178 99.254L121.052 99.086L121.136 99.002L123.932 96.404L124.61 96.512L124.652 96.518L125 96.572Z" fill="white"/>
</g>
<path d="M121.904 103.622C121.911 103.74 121.882 103.858 121.822 103.96C121.763 104.063 121.674 104.145 121.567 104.197C121.46 104.248 121.341 104.267 121.223 104.251C121.106 104.235 120.996 104.184 120.907 104.106C120.818 104.027 120.755 103.924 120.725 103.809C120.695 103.694 120.699 103.573 120.738 103.461C120.776 103.349 120.847 103.251 120.942 103.179C121.036 103.107 121.15 103.065 121.268 103.058C121.347 103.053 121.426 103.064 121.5 103.09C121.575 103.115 121.644 103.156 121.703 103.208C121.762 103.26 121.81 103.324 121.845 103.395C121.879 103.466 121.899 103.543 121.904 103.622Z" fill="white"/>
<path d="M122.96 111.548C122.96 111.701 122.902 111.848 122.797 111.96C122.692 112.072 122.549 112.139 122.396 112.148C122.317 112.153 122.238 112.142 122.163 112.116C122.089 112.091 122.02 112.05 121.961 111.998C121.902 111.946 121.854 111.882 121.819 111.811C121.785 111.74 121.765 111.663 121.76 111.584C121.752 111.426 121.806 111.271 121.912 111.153C122.018 111.035 122.166 110.963 122.324 110.954C122.405 110.949 122.487 110.961 122.563 110.988C122.64 111.016 122.71 111.059 122.77 111.114C122.829 111.17 122.877 111.237 122.909 111.312C122.942 111.386 122.959 111.467 122.96 111.548Z" fill="white"/>
<path opacity="0.2" d="M121.892 93.74C120.605 93.5216 119.364 93.0897 118.22 92.462C117.505 92.0557 116.892 91.4916 116.429 90.8126C115.965 90.1336 115.662 89.3577 115.544 88.544C115.496 88.2605 115.472 87.9735 115.472 87.686L118.562 88.604L121.49 89.474L121.772 91.448C121.767 92.2137 121.807 92.979 121.892 93.74Z" fill="black"/>
<path d="M113.336 81.974C113.81 86.384 113.936 88.25 116.252 90.41C119.768 93.662 125.072 92.114 125.924 87.656C126.686 83.648 125.774 77.096 121.37 75.566C120.401 75.2193 119.359 75.126 118.343 75.295C117.328 75.4639 116.372 75.8896 115.567 76.5315C114.763 77.1734 114.135 78.0103 113.745 78.9629C113.354 79.9154 113.213 80.9519 113.336 81.974Z" fill="#CE7A63"/>
<path d="M120.554 82.988C120.614 83.342 120.848 83.588 121.076 83.588C121.304 83.588 121.454 83.228 121.4 82.874C121.346 82.52 121.112 82.274 120.878 82.274C120.644 82.274 120.5 82.646 120.554 82.988Z" fill="#263238"/>
<path d="M124.574 82.376C124.628 82.736 124.862 82.976 125.096 82.976C125.33 82.976 125.474 82.616 125.42 82.262C125.366 81.908 125.126 81.662 124.898 81.662C124.67 81.662 124.52 82.016 124.574 82.376Z" fill="#263238"/>
<path d="M123.026 82.79C123.601 83.8154 124.281 84.7785 125.054 85.664C124.875 85.8002 124.669 85.8974 124.45 85.949C124.231 86.0007 124.003 86.0058 123.782 85.964L123.026 82.79Z" fill="#BA4D3C"/>
<path d="M118.748 82.262C118.793 82.2661 118.837 82.2554 118.875 82.2315C118.913 82.2077 118.942 82.172 118.958 82.13C119.121 81.8269 119.345 81.5608 119.615 81.3481C119.886 81.1354 120.197 80.9808 120.53 80.894C120.586 80.8811 120.634 80.8467 120.664 80.7984C120.695 80.75 120.705 80.6916 120.692 80.636C120.678 80.5827 120.644 80.5369 120.597 80.5079C120.55 80.4789 120.494 80.4689 120.44 80.48C120.039 80.5801 119.664 80.7654 119.341 81.0231C119.018 81.2809 118.755 81.6052 118.568 81.974C118.558 82 118.554 82.0276 118.555 82.0553C118.556 82.0829 118.563 82.1101 118.575 82.1352C118.586 82.1603 118.603 82.1828 118.623 82.2015C118.644 82.2201 118.668 82.2346 118.694 82.244C118.701 82.2505 118.71 82.2554 118.719 82.2585C118.728 82.2616 118.738 82.2628 118.748 82.262Z" fill="#263238"/>
<path d="M125.522 80.498C125.56 80.5014 125.598 80.4942 125.632 80.4773C125.665 80.4603 125.694 80.4343 125.714 80.402C125.73 80.3788 125.74 80.3528 125.746 80.3254C125.751 80.298 125.751 80.2698 125.746 80.2424C125.74 80.215 125.729 80.189 125.713 80.1659C125.698 80.1429 125.677 80.1232 125.654 80.108C125.376 79.9106 125.054 79.7849 124.716 79.742C124.378 79.6991 124.034 79.7403 123.716 79.862C123.667 79.882 123.628 79.9201 123.607 79.9681C123.586 80.0162 123.584 80.0706 123.602 80.12C123.624 80.1694 123.665 80.2082 123.715 80.2283C123.766 80.2484 123.822 80.2483 123.872 80.228C124.123 80.142 124.391 80.1167 124.654 80.1542C124.917 80.1918 125.167 80.2911 125.384 80.444C125.422 80.4777 125.471 80.4968 125.522 80.498Z" fill="#263238"/>
<path d="M122.822 87.542C122.386 87.5464 121.954 87.4631 121.551 87.2972C121.148 87.1312 120.782 86.886 120.476 86.576C120.456 86.5548 120.445 86.5269 120.445 86.498C120.445 86.469 120.456 86.4411 120.476 86.42C120.486 86.4094 120.498 86.4011 120.512 86.3953C120.525 86.3896 120.539 86.3867 120.554 86.3867C120.569 86.3867 120.583 86.3896 120.596 86.3953C120.61 86.4011 120.622 86.4094 120.632 86.42C120.968 86.7529 121.376 87.0041 121.824 87.1539C122.273 87.3037 122.749 87.3482 123.218 87.284C123.247 87.2819 123.276 87.2905 123.299 87.3082C123.322 87.3259 123.338 87.3514 123.344 87.38C123.346 87.3946 123.344 87.4095 123.34 87.4236C123.336 87.4377 123.328 87.4508 123.319 87.462C123.309 87.4733 123.298 87.4824 123.284 87.489C123.271 87.4955 123.257 87.4992 123.242 87.5C123.103 87.522 122.963 87.5361 122.822 87.542Z" fill="#263238"/>
<path d="M115.73 89.9C114.75 88.5088 114.251 86.8352 114.311 85.1345C114.371 83.4338 114.985 81.7992 116.06 80.48C117.32 78.818 116.114 78.614 116.114 78.614C125.582 78.326 125.114 75.29 123.86 73.382C123.504 72.8333 123.027 72.374 122.465 72.04C121.903 71.7059 121.272 71.5061 120.62 71.456H120.572C120.065 71.4341 119.57 71.6094 119.189 71.945C118.809 72.2806 118.573 72.7504 118.532 73.256V73.292C118.532 73.292 110.36 72.05 111.332 81.986C111.698 85.898 115.73 89.9 115.73 89.9Z" fill="#263238"/>
<path d="M112.292 85.43C112.606 86.2079 113.214 86.8308 113.984 87.164C115.016 87.584 115.67 86.696 115.496 85.646C115.334 84.704 114.608 83.348 113.522 83.348C113.143 83.3621 112.785 83.5249 112.526 83.8012C112.266 84.0776 112.126 84.445 112.136 84.824C112.142 85.0351 112.195 85.2421 112.292 85.43Z" fill="#CE7A63"/>
<path opacity="0.6" d="M132.434 109.328L132.602 112.562L127.262 112.838L127.094 109.604L129.464 109.478C129.296 109.364 129.308 109.118 129.296 108.878C129.296 108.482 129.386 108.182 129.698 108.164C130.01 108.146 130.13 108.476 130.154 108.872C130.154 109.13 130.22 109.334 130.064 109.472L132.434 109.328Z" fill="white"/>
<path d="M131.732 109.639L127.777 109.845C127.562 109.856 127.397 110.04 127.408 110.255L127.502 112.058C127.513 112.274 127.697 112.439 127.912 112.428L131.867 112.221C132.082 112.21 132.247 112.026 132.236 111.811L132.142 110.008C132.13 109.793 131.947 109.627 131.732 109.639Z" fill="white"/>
<path d="M129.92 108.596C129.92 108.652 129.898 108.705 129.858 108.744C129.819 108.784 129.766 108.806 129.71 108.806C129.654 108.806 129.601 108.784 129.561 108.744C129.522 108.705 129.5 108.652 129.5 108.596C129.498 108.541 129.518 108.487 129.555 108.445C129.592 108.404 129.643 108.379 129.698 108.374C129.727 108.373 129.757 108.378 129.784 108.389C129.811 108.4 129.836 108.416 129.857 108.437C129.878 108.458 129.894 108.483 129.905 108.51C129.916 108.537 129.921 108.567 129.92 108.596Z" fill="#263238"/>
<path opacity="0.2" d="M108.758 111.998L108.512 121.136L107.204 108.434L108.758 111.998Z" fill="black"/>
<path d="M130.16 120.512L129.74 127.196L130.496 127.742L126.356 128.408L128.054 120.38L130.16 120.512Z" fill="white"/>
<path opacity="0.5" d="M128.054 120.38L130.16 120.512L130.088 121.664C129.317 121.75 128.541 121.782 127.766 121.76L128.054 120.38Z" fill="black"/>
<path d="M130.19 116.738C131.713 116.555 133.247 116.487 134.78 116.534L135.344 120.032C133.869 120.416 132.37 120.696 130.856 120.872C127.454 121.418 124.544 120.938 124.364 119.798C124.184 118.658 126.788 117.29 130.19 116.738Z" fill="#263238"/>
<path d="M130.19 116.738C131.713 116.555 133.247 116.487 134.78 116.534L135.344 120.032C133.869 120.416 132.37 120.696 130.856 120.872C127.454 121.418 124.544 120.938 124.364 119.798C124.184 118.658 126.788 117.29 130.19 116.738Z" fill="white"/>
<path d="M134.216 116.522C134.408 116.522 134.6 116.522 134.78 116.522L135.344 120.02C135.176 120.086 134.996 120.146 134.81 120.206L134.216 116.522Z" fill="#263238"/>
<path d="M123.356 123.452C123.356 123.452 126.074 122.726 127.298 122.372C130.73 121.394 130.862 123.062 130.946 123.632C131.054 124.166 130.998 124.721 130.783 125.223C130.569 125.724 130.207 126.149 129.746 126.44C128.678 127.124 123.386 126.314 123.386 126.314L123.356 123.452Z" fill="#CE7A63"/>
<path d="M119.852 123.44C121.178 123.034 122.564 122.856 123.95 122.912C123.95 122.912 123.05 125.21 124.394 126.914L120.248 127.454L119.852 123.44Z" fill="#D9A322"/>
<path opacity="0.8" d="M119.852 123.44C121.178 123.034 122.564 122.856 123.95 122.912C123.95 122.912 123.05 125.21 124.394 126.914L120.248 127.454L119.852 123.44Z" fill="white"/>
<path d="M107.354 98.9C107.354 98.9 101.504 98.9 101.702 118.4C101.834 131.228 106.298 128.894 112.028 128.528L122.114 127.586C122.114 127.586 121.076 124.826 121.934 122.612C121.934 122.612 116.966 123.59 108.836 122.612C108.836 122.612 107.684 113.078 108.686 111.14C108.686 111.158 109.934 102.5 107.354 98.9Z" fill="#D9A322"/>
<path opacity="0.6" d="M107.354 98.9C107.354 98.9 101.504 98.9 101.702 118.4C101.834 131.228 106.298 128.894 112.028 128.528L122.114 127.586C122.114 127.586 121.076 124.826 121.934 122.612C121.934 122.612 116.966 123.59 108.836 122.612C108.836 122.612 107.684 113.078 108.686 111.14C108.686 111.158 109.934 102.5 107.354 98.9Z" fill="white"/>
<path opacity="0.1" d="M128.462 180.17L126.908 153.02L125.342 166.592L128.462 180.17Z" fill="black"/>
<path d="M231.014 162.062H98.9601V248.768H231.014V162.062Z" fill="#D9A322"/>
<g opacity="0.4">
<path d="M231.014 162.062H98.9601V248.768H231.014V162.062Z" fill="white"/>
</g>
<path d="M231.632 161.336H98.024C97.1989 161.336 96.53 162.005 96.53 162.83V167.264C96.53 168.089 97.1989 168.758 98.024 168.758H231.632C232.457 168.758 233.126 168.089 233.126 167.264V162.83C233.126 162.005 232.457 161.336 231.632 161.336Z" fill="#D9A322"/>
<path d="M167.636 149.552H197.138L199.25 125.468H169.742L167.636 149.552Z" fill="#D9A322"/>
<path opacity="0.2" d="M170.522 149.552H197.174L199.076 127.796H172.43L170.522 149.552Z" fill="black"/>
<path d="M180.494 152.744H189.188V143.942H180.47L180.494 152.744Z" fill="#263238"/>
<path d="M180.47 143.942H189.188V134.978H180.47V143.942Z" fill="#263238"/>
<path opacity="0.1" d="M180.47 143.942H189.188V134.978H180.47V143.942Z" fill="white"/>
<path opacity="0.2" d="M188.132 134.978H181.7C181.214 134.978 180.818 135.146 180.818 135.356C180.818 135.566 181.214 135.734 181.7 135.734H188.132C188.612 135.734 189.008 135.566 189.008 135.356C189.008 135.146 188.612 134.978 188.132 134.978Z" fill="white"/>
<path d="M161.684 161.156H201.326V152.744H170.042L161.684 157.052V161.156Z" fill="#D9A322"/>
<path opacity="0.2" d="M170.042 161.15H201.332V152.738H170.042V161.15Z" fill="black"/>
<path d="M192.65 130.238H196.178L197.498 115.118H193.976L192.65 130.238Z" fill="#D9A322"/>
<path opacity="0.2" d="M192.65 130.238H196.178L197.498 115.118H193.976L192.65 130.238Z" fill="black"/>
<path d="M181.082 118.64L206.276 118.412L207.122 108.764L181.928 108.992L181.082 118.64Z" fill="#D9A322"/>
<path d="M182.768 116.822H204.698L205.31 109.838L183.356 110.078L182.768 116.822Z" fill="#263238"/>
<path d="M207.122 108.764L206.276 118.412L207.8 117.488L208.352 110.468L207.122 108.764Z" fill="#D9A322"/>
<g opacity="0.2">
<path d="M207.122 108.764L206.276 118.412L207.8 117.488L208.352 110.468L207.122 108.764Z" fill="black"/>
</g>
<path d="M101.108 216.074C101.108 216.074 122.378 189.074 99.3501 212.786C99.3501 212.786 103.724 186.494 95.1981 213.83C95.1981 213.83 89.4381 188.414 91.5081 217.574C91.5081 217.574 80.9601 193.112 90.0681 223.31C90.0681 223.31 125.258 234.044 98.8281 223.172C98.8281 223.172 134.87 221.204 101.63 219.98C101.63 219.98 137.798 203.204 101.108 216.074Z" fill="#D9A322"/>
<path opacity="0.1" d="M101.108 216.074C101.108 216.074 122.378 189.074 99.3501 212.786C99.3501 212.786 103.724 186.494 95.1981 213.83C95.1981 213.83 89.4381 188.414 91.5081 217.574C91.5081 217.574 80.9601 193.112 90.0681 223.31C90.0681 223.31 125.258 234.044 98.8281 223.172C98.8281 223.172 134.87 221.204 101.63 219.98C101.63 219.98 137.798 203.204 101.108 216.074Z" fill="black"/>
<path d="M82.832 234.314C82.8105 234.32 82.7876 234.32 82.766 234.314C82.7091 234.296 82.6614 234.256 82.6334 234.204C82.6053 234.151 82.5991 234.089 82.616 234.032C84.416 228.404 88.778 223.7 92.138 220.748C92.1587 220.727 92.1834 220.71 92.2107 220.698C92.2381 220.687 92.2674 220.681 92.297 220.681C92.3267 220.681 92.356 220.687 92.3833 220.698C92.4106 220.71 92.4353 220.727 92.456 220.748C92.4771 220.768 92.4938 220.792 92.5053 220.819C92.5167 220.846 92.5226 220.875 92.5226 220.904C92.5226 220.933 92.5167 220.962 92.5053 220.989C92.4938 221.016 92.4771 221.04 92.456 221.06C89.144 223.982 84.824 228.614 83.072 234.146C83.0581 234.198 83.0265 234.243 82.9826 234.274C82.9387 234.304 82.8854 234.319 82.832 234.314Z" fill="#263238"/>
<path d="M68.3 231.5H92.714C93.116 231.5 93.44 232.028 93.44 232.7C93.44 233.372 93.116 233.9 92.714 233.9H92.186L90.5 244.1C90.098 246.5 88.748 248.204 87.2 248.204H73.808C72.266 248.204 70.91 246.518 70.514 244.1L68.822 233.9H68.3C67.898 233.9 67.574 233.372 67.574 232.7C67.574 232.028 67.892 231.5 68.3 231.5Z" fill="#263238"/>
<path d="M87.1941 248.456H73.8081C72.1521 248.456 70.7061 246.686 70.2921 244.16L68.6301 234.11H68.3001C67.7661 234.11 67.3461 233.51 67.3461 232.706C67.3461 231.902 67.7661 231.302 68.3001 231.302H92.7141C93.2481 231.302 93.6681 231.902 93.6681 232.706C93.6681 233.51 93.2481 234.11 92.7141 234.11H92.3781L90.7221 244.16C90.2961 246.686 88.8501 248.456 87.1941 248.456ZM68.3001 231.752C68.0661 231.752 67.7961 232.142 67.7961 232.706C67.7961 233.27 68.0661 233.66 68.3001 233.66H68.8281C68.8809 233.66 68.9319 233.679 68.9724 233.713C69.0129 233.747 69.0403 233.794 69.0501 233.846L70.7361 244.1C71.1141 246.404 72.3801 248.018 73.8081 248.018H87.1941C88.6221 248.018 89.8881 246.404 90.2721 244.1L91.9581 233.858C91.9678 233.806 91.9953 233.759 92.0357 233.725C92.0762 233.691 92.1272 233.672 92.1801 233.672H92.7081C92.9481 233.672 93.2121 233.282 93.2121 232.718C93.2121 232.154 92.9481 231.764 92.7081 231.764L68.3001 231.752Z" fill="#263238"/>
<path d="M88.5081 208.412C88.5081 208.412 101.342 169.82 85.2321 205.466C85.2321 205.466 79.5441 174.44 81.0321 208.292C81.0321 208.292 64.4181 182.312 78.4281 213.938C78.4281 213.938 56.8701 190.946 79.1301 220.904C79.1301 220.904 122.612 218.726 88.8261 217.238C88.8261 217.238 128.156 200.57 90.6681 212.558C90.6621 212.558 124.184 179.36 88.5081 208.412Z" fill="#D9A322"/>
<path d="M74.006 234.314H73.952C73.9236 234.307 73.8968 234.295 73.8733 234.277C73.8498 234.26 73.8299 234.238 73.8148 234.213C73.7998 234.188 73.7898 234.16 73.7856 234.131C73.7813 234.102 73.7828 234.072 73.79 234.044C76.88 221.51 85.502 209.27 85.592 209.144C85.6088 209.12 85.6302 209.099 85.655 209.083C85.6799 209.067 85.7076 209.057 85.7367 209.052C85.7657 209.047 85.7955 209.047 85.8242 209.054C85.8529 209.061 85.88 209.073 85.904 209.09C85.9284 209.107 85.9492 209.129 85.9651 209.155C85.9811 209.18 85.9919 209.208 85.9969 209.238C86.0019 209.267 86.001 209.298 85.9944 209.327C85.9877 209.356 85.9753 209.384 85.958 209.408C85.868 209.528 77.294 221.708 74.222 234.152C74.2097 234.2 74.1817 234.242 74.1424 234.271C74.1032 234.3 74.055 234.316 74.006 234.314Z" fill="#263238"/>
<path d="M67.1 210.218C67.1 210.218 36.842 186.386 63.416 212.192C63.416 212.192 33.956 207.29 64.616 216.848C64.616 216.848 36.134 223.298 68.816 220.976C68.816 220.976 41.408 232.796 75.248 222.596C75.248 222.596 87.278 183.158 75.092 212.78C75.092 212.78 72.89 172.382 71.522 209.636C71.474 209.636 52.7 169.1 67.1 210.218Z" fill="#D9A322"/>
<path opacity="0.3" d="M67.1 210.218C67.1 210.218 36.842 186.386 63.416 212.192C63.416 212.192 33.956 207.29 64.616 216.848C64.616 216.848 36.134 223.298 68.816 220.976C68.816 220.976 41.408 232.796 75.248 222.596C75.248 222.596 87.278 183.158 75.092 212.78C75.092 212.78 72.89 172.382 71.522 209.636C71.474 209.636 52.7 169.1 67.1 210.218Z" fill="white"/>
<path d="M81.368 236.048C81.3194 236.048 81.2723 236.032 81.2334 236.002C81.1946 235.973 81.1661 235.932 81.152 235.886C75.812 218.042 66.338 213.482 66.248 213.44C66.1943 213.414 66.1527 213.368 66.1315 213.313C66.1103 213.257 66.1112 213.195 66.134 213.14C66.16 213.086 66.2059 213.045 66.262 213.025C66.3181 213.005 66.3798 213.007 66.434 213.032C66.53 213.074 76.178 217.7 81.584 235.754C81.6009 235.811 81.5947 235.873 81.5666 235.926C81.5386 235.978 81.491 236.018 81.434 236.036L81.368 236.048Z" fill="#263238"/>
</svg>
