<svg width="50" height="50" viewBox="0 0 81 80" fill="none" xmlns="http://www.w3.org/2000/svg">
<g clip-path="url(#clip0_595_12186)">
<path d="M40.25 71.25L41.975 74.58C41.4419 74.8562 40.8504 75.0003 40.25 75.0003C39.6496 75.0003 39.0581 74.8562 38.525 74.58L38.485 74.56L38.395 74.51C37.8714 74.2395 37.3546 73.9561 36.845 73.66C30.7509 70.1917 25.0016 66.1501 19.675 61.59C10.475 53.655 0.25 41.75 0.25 27.5C0.25 14.18 10.68 5 21.5 5C29.235 5 36.015 9.01 40.25 15.1C44.485 9.01 51.265 5 59 5C69.82 5 80.25 14.18 80.25 27.5C80.25 41.75 70.025 53.655 60.825 61.59C55.0468 66.5301 48.7735 70.8598 42.105 74.51L42.015 74.56L41.985 74.575H41.975L40.25 71.25ZM21.5 12.5C14.82 12.5 7.75 18.32 7.75 27.5C7.75 38.25 15.65 48.22 24.575 55.91C29.4444 60.075 34.6922 63.7761 40.25 66.965C45.8078 63.7761 51.0556 60.075 55.925 55.91C64.85 48.22 72.75 38.25 72.75 27.5C72.75 18.32 65.68 12.5 59 12.5C52.135 12.5 45.955 17.43 43.855 24.78C43.6339 25.5659 43.162 26.258 42.5112 26.7509C41.8604 27.2438 41.0664 27.5106 40.25 27.5106C39.4336 27.5106 38.6396 27.2438 37.9888 26.7509C37.338 26.258 36.8661 25.5659 36.645 24.78C34.545 17.43 28.365 12.5 21.5 12.5Z" fill="white"/>
</g>
<defs>
<clipPath id="clip0_595_12186">
<rect width="80" height="80" fill="white" transform="translate(0.25)"/>
</clipPath>
</defs>
</svg>
