<svg width="50" height="50" viewBox="0 0 81 80" fill="none" xmlns="http://www.w3.org/2000/svg">
<path d="M40.7501 77.1429C60.7501 77.1429 75.0358 70.0686 75.0358 54.32C75.0358 37.2057 66.4644 25.7943 49.3215 17.2343L56.0644 8.56001C56.4078 7.99102 56.5942 7.34117 56.6048 6.67666C56.6153 6.01216 56.4495 5.35673 56.1243 4.77715C55.7991 4.19757 55.326 3.71454 54.7534 3.37727C54.1807 3.03999 53.5289 2.86053 52.8644 2.85715H28.6358C27.9726 2.86404 27.323 3.0457 26.7524 3.38379C26.1818 3.72188 25.7105 4.20445 25.386 4.78283C25.0614 5.36121 24.8951 6.01495 24.9039 6.6781C24.9126 7.34126 25.0961 7.99038 25.4358 8.56001L32.1786 17.2914C15.0358 25.9086 6.46436 37.32 6.46436 54.4343C6.46436 70.0686 20.7501 77.1429 40.7501 77.1429Z" stroke="white" stroke-width="5" stroke-linecap="round" stroke-linejoin="round"/>
<path d="M48.653 38.8914C48.2271 37.6829 47.4365 36.6364 46.3905 35.8964C45.3444 35.1564 44.0944 34.7593 42.813 34.76H38.0245C36.66 34.7573 35.3429 35.2595 34.3266 36.1699C33.3103 37.0803 32.6668 38.3345 32.5199 39.691C32.373 41.0474 32.7332 42.4103 33.5311 43.5171C34.329 44.6239 35.5082 45.3964 36.8416 45.6857L44.1387 47.2857C45.6257 47.6173 46.9382 48.4853 47.8255 49.7236C48.7129 50.962 49.1127 52.4839 48.9487 53.9985C48.7846 55.5131 48.0682 56.9141 46.9363 57.9337C45.8044 58.9534 44.3365 59.5202 42.813 59.5257H38.693C35.9959 59.5257 33.7045 57.8 32.853 55.4M40.7502 34.76V28.5714M40.7502 65.7143V59.5257" stroke="white" stroke-width="5" stroke-linecap="round" stroke-linejoin="round"/>
</svg>
