<svg width="22" height="22" viewBox="0 0 26 27" fill="none" xmlns="http://www.w3.org/2000/svg">
<g clip-path="url(#clip0_243_658)">
<path d="M12.906 0.615816C12.8637 0.623452 12.822 0.633807 12.781 0.646816C12.5552 0.697417 12.354 0.824739 12.2116 1.00708C12.0692 1.18943 11.9944 1.41552 12 1.64682V2.64682H3C2.20435 2.64682 1.44129 2.96289 0.87868 3.5255C0.31607 4.0881 0 4.85117 0 5.64682L0 18.6468C0 20.3028 1.344 21.6468 3 21.6468H12V22.0218L6.562 24.7408C6.32171 24.8568 6.13736 25.0636 6.0495 25.3155C5.96164 25.5675 5.97747 25.844 6.0935 26.0843C6.20953 26.3246 6.41627 26.509 6.66822 26.5968C6.92018 26.6847 7.19671 26.6688 7.437 26.5528L12 24.2718V24.6468C12 24.912 12.1054 25.1664 12.2929 25.3539C12.4804 25.5415 12.7348 25.6468 13 25.6468C13.2652 25.6468 13.5196 25.5415 13.7071 25.3539C13.8946 25.1664 14 24.912 14 24.6468V24.2718L18.563 26.5528C18.8033 26.6688 19.0798 26.6847 19.3318 26.5968C19.5837 26.509 19.7905 26.3246 19.9065 26.0843C20.0225 25.844 20.0384 25.5675 19.9505 25.3155C19.8626 25.0636 19.6783 24.8568 19.438 24.7408L14 22.0218V21.6468H23C24.656 21.6468 26 20.3028 26 18.6468V5.64682C26 4.85117 25.6839 4.0881 25.1213 3.5255C24.5587 2.96289 23.7956 2.64682 23 2.64682H14V1.64682C14.005 1.50461 13.9797 1.36297 13.9256 1.23135C13.8716 1.09973 13.79 0.981167 13.6865 0.883578C13.5829 0.785988 13.4597 0.711621 13.3251 0.665446C13.1905 0.619271 13.0477 0.602351 12.906 0.615816ZM2 5.64682H24V18.6468H2V5.64682ZM20.875 6.64682C20.651 6.6709 20.4417 6.76991 20.281 6.92782L17 10.2098L14.719 7.92682C14.6098 7.81473 14.4757 7.72985 14.3277 7.679C14.1797 7.62815 14.0218 7.61276 13.8667 7.63406C13.7117 7.65537 13.5638 7.71277 13.435 7.80165C13.3061 7.89054 13.2 8.00842 13.125 8.14582L10.156 13.3338L8.937 10.2708C8.87781 10.1127 8.77953 9.97208 8.65132 9.86217C8.52312 9.75226 8.36918 9.6766 8.20384 9.64226C8.0385 9.60791 7.86716 9.616 7.70579 9.66575C7.54443 9.71551 7.39828 9.80532 7.281 9.92682L4.281 12.9268C4.18645 13.0213 4.11143 13.1335 4.06024 13.257C4.00904 13.3804 3.98267 13.5128 3.98262 13.6465C3.98257 13.7801 4.00886 13.9125 4.05997 14.036C4.11108 14.1595 4.18601 14.2718 4.2805 14.3663C4.37499 14.4609 4.48717 14.5359 4.61065 14.5871C4.73412 14.6383 4.86648 14.6646 5.00015 14.6647C5.13382 14.6647 5.26619 14.6385 5.3897 14.5873C5.51321 14.5362 5.62545 14.4613 5.72 14.3668L7.626 12.4608L9.064 16.0228C9.13187 16.2015 9.2495 16.3569 9.40298 16.4708C9.55645 16.5846 9.73934 16.6521 9.92999 16.6653C10.1206 16.6785 10.3111 16.6367 10.4787 16.545C10.6464 16.4533 10.7842 16.3154 10.876 16.1478L14.22 10.3038L16.282 12.3668C16.3753 12.4633 16.487 12.54 16.6105 12.5924C16.734 12.6448 16.8668 12.6718 17.001 12.6718C17.1352 12.6718 17.268 12.6448 17.3915 12.5924C17.515 12.54 17.6267 12.4633 17.72 12.3668L21.72 8.36682C21.878 8.22057 21.9845 8.02726 22.0238 7.81561C22.0631 7.60396 22.0331 7.38527 21.9382 7.19206C21.8433 6.99885 21.6885 6.84142 21.497 6.74319C21.3054 6.64496 21.0873 6.61116 20.875 6.64682Z" fill="white"/>
</g>
<defs>
<clipPath id="clip0_243_658">
<rect width="26" height="26" fill="white" transform="translate(0 0.646484)"/>
</clipPath>
</defs>
</svg>
