<svg width="24" height="24" viewBox="0 0 24 24" fill="none" xmlns="http://www.w3.org/2000/svg">
<path d="M12.79 21L3 11.21V12C3 13.1 3.9 14 5 14H7.21L17 23.79C17.39 24.18 18.02 24.18 18.41 23.79L20.79 21.41C21.18 21.02 21.18 20.39 20.79 20L12.79 21Z" fill="white"/>
<path d="M21.41 3.59C20.02 2.2 17.98 2.2 16.59 3.59L3.59 16.59C2.2 17.98 2.2 20.02 3.59 21.41C4.98 22.8 7.02 22.8 8.41 21.41L21.41 8.41C22.8 7.02 22.8 4.98 21.41 3.59ZM7.5 18C6.67 18 6 17.33 6 16.5C6 15.67 6.67 15 7.5 15C8.33 15 9 15.67 9 16.5C9 17.33 8.33 18 7.5 18ZM16.5 9C15.67 9 15 8.33 15 7.5C15 6.67 15.67 6 16.5 6C17.33 6 18 6.67 18 7.5C18 8.33 17.33 9 16.5 9Z" fill="white"/>
</svg>
