<svg width="24" height="24" viewBox="0 0 24 24" fill="none" xmlns="http://www.w3.org/2000/svg">
<path d="M21 4H3C1.9 4 1 4.9 1 6V8C2.1 8 3 8.9 3 10S2.1 12 1 12V14C1 15.1 1.9 16 3 16H21C22.1 16 23 15.1 23 14V12C21.9 12 21 11.1 21 10S21.9 8 23 8V6C23 4.9 22.1 4 21 4ZM19 10.5C19 11.33 18.33 12 17.5 12S16 11.33 16 10.5S16.67 9 17.5 9S19 9.67 19 10.5ZM5 10.5C5 11.33 4.33 12 3.5 12S2 11.33 2 10.5S2.67 9 3.5 9S5 9.67 5 10.5Z" fill="white"/>
<path d="M7 6H17V8H7V6ZM7 10H17V12H7V10ZM7 14H17V16H7V14Z" fill="white"/>
</svg>
