<svg
  width="22"
  height="24"
  viewBox="0 0 28 24"
  fill="none"
  xmlns="http://www.w3.org/2000/svg"
  className="transition-colors"
>
  <path
    fillRule="evenodd"
    clipRule="evenodd"
    d="M3.9 1.24609C3.9 0.693809 4.34771 0.246094 4.9 0.246094H23.1C23.6523 0.246094 24.1 0.693809 24.1 1.24609V5.14609C24.1 5.69838 23.6523 6.14609 23.1 6.14609H15V10.6461H20.4831C20.7743 10.6461 21.051 10.773 21.241 10.9937L25.1579 15.5437C25.2372 15.6359 25.2968 15.7384 25.337 15.8461H27C27.5523 15.8461 28 16.2938 28 16.8461V22.0461C28 22.5984 27.5523 23.0461 27 23.0461H21.8C21.2477 23.0461 20.8 22.5984 20.8 22.0461V16.8461C20.8 16.2938 21.2477 15.8461 21.8 15.8461H22.7792L20.0245 12.6461H15V15.8461H16.6C17.1523 15.8461 17.6 16.2938 17.6 16.8461V22.0461C17.6 22.5984 17.1523 23.0461 16.6 23.0461H11.4C10.8477 23.0461 10.4 22.5984 10.4 22.0461V16.8461C10.4 16.2938 10.8477 15.8461 11.4 15.8461H13V12.6461H7.95994L5.21708 15.8461H6.2C6.75228 15.8461 7.2 16.2938 7.2 16.8461V22.0461C7.2 22.5984 6.75228 23.0461 6.2 23.0461H1C0.447715 23.0461 0 22.5984 0 22.0461V16.8461C0 16.2938 0.447715 15.8461 1 15.8461H2.66296C2.70293 15.7391 2.76206 15.6371 2.84074 15.5453L6.74074 10.9953C6.93073 10.7737 7.20808 10.6461 7.5 10.6461H13V6.14609H4.9C4.34771 6.14609 3.9 5.69838 3.9 5.14609V1.24609ZM22.1 4.14609V2.24609H5.9V4.14609H22.1ZM12.4 17.8461V21.0461H15.6V17.8461H12.4ZM2 17.8461V21.0461H5.2V17.8461H2ZM22.8 17.8461V21.0461H26V17.8461H22.8Z"
    fill="#FACC15"
  />
</svg>