<svg width="24" height="24" viewBox="0 0 26 27" fill="none" xmlns="http://www.w3.org/2000/svg">
<path fill-rule="evenodd" clip-rule="evenodd" d="M13 9.58398C11.9226 9.58398 10.8892 10.012 10.1274 10.7739C9.36551 11.5357 8.9375 12.569 8.9375 13.6465C8.9375 14.7239 9.36551 15.7572 10.1274 16.5191C10.8892 17.281 11.9226 17.709 13 17.709C14.0774 17.709 15.1108 17.281 15.8726 16.5191C16.6345 15.7572 17.0625 14.7239 17.0625 13.6465C17.0625 12.569 16.6345 11.5357 15.8726 10.7739C15.1108 10.012 14.0774 9.58398 13 9.58398ZM10.5625 13.6465C10.5625 13 10.8193 12.38 11.2764 11.9229C11.7335 11.4658 12.3535 11.209 13 11.209C13.6465 11.209 14.2665 11.4658 14.7236 11.9229C15.1807 12.38 15.4375 13 15.4375 13.6465C15.4375 14.2929 15.1807 14.9129 14.7236 15.3701C14.2665 15.8272 13.6465 16.084 13 16.084C12.3535 16.084 11.7335 15.8272 11.2764 15.3701C10.8193 14.9129 10.5625 14.2929 10.5625 13.6465Z" fill="#FACC15"/>
<path fill-rule="evenodd" clip-rule="evenodd" d="M12.9723 2.00098C12.4902 2.00098 12.0883 2.00098 11.7589 2.02264C11.4223 2.03666 11.0903 2.10621 10.7764 2.22848C10.4148 2.37807 10.0862 2.59743 9.80946 2.87402C9.53268 3.15061 9.31311 3.47901 9.16327 3.84048C9.00618 4.21964 8.96393 4.62048 8.9466 5.05598C8.94487 5.21525 8.9027 5.37147 8.82407 5.50999C8.74543 5.6485 8.63289 5.76478 8.49702 5.84789C8.35714 5.92427 8.20014 5.96385 8.04077 5.9629C7.88141 5.96195 7.72489 5.92051 7.58593 5.84248C7.20027 5.63881 6.83193 5.47523 6.4246 5.42106C6.03671 5.37004 5.64256 5.39592 5.26467 5.49722C4.88678 5.59853 4.53254 5.77327 4.22218 6.01148C3.95977 6.2226 3.73394 6.47551 3.55377 6.76006C3.3696 7.03523 3.1681 7.38298 2.9276 7.80006L2.90052 7.84773C2.65893 8.26481 2.45852 8.61256 2.31335 8.90939C2.16168 9.21923 2.04252 9.52473 1.99918 9.86273C1.89583 10.646 2.10782 11.4382 2.58852 12.0651C2.83877 12.3912 3.16485 12.6285 3.53318 12.8603C3.67051 12.9415 3.78492 13.0563 3.86565 13.1939C3.94639 13.3315 3.99079 13.4873 3.99468 13.6468C3.99079 13.8063 3.94639 13.9622 3.86565 14.0997C3.78492 14.2373 3.67051 14.3521 3.53318 14.4333C3.16485 14.6651 2.83985 14.9024 2.58852 15.2285C2.35031 15.5388 2.17556 15.8931 2.07426 16.271C1.97296 16.6489 1.94708 17.043 1.9981 17.4309C2.04252 17.7689 2.1606 18.0744 2.31227 18.3842C2.45852 18.6811 2.65893 19.0288 2.90052 19.4459L2.9276 19.4936C3.1681 19.9106 3.3696 20.2584 3.55377 20.5336C3.74552 20.8185 3.95135 21.0752 4.22218 21.2811C4.53246 21.5195 4.88666 21.6944 5.26455 21.7959C5.64245 21.8974 6.03663 21.9234 6.4246 21.8726C6.83193 21.8184 7.20027 21.6559 7.58593 21.4511C7.72473 21.3732 7.88105 21.3318 8.04023 21.3309C8.19941 21.3299 8.35622 21.3694 8.49593 21.4457C8.63256 21.5282 8.74581 21.6443 8.82488 21.7829C8.90396 21.9215 8.94623 22.0781 8.94768 22.2376C8.96393 22.6731 9.00618 23.074 9.16435 23.4531C9.31395 23.8147 9.5333 24.1433 9.80989 24.42C10.0865 24.6968 10.4149 24.9164 10.7764 25.0662C11.0905 25.1962 11.4155 25.2471 11.7589 25.2699C12.0883 25.2926 12.4902 25.2926 12.9723 25.2926H13.0264C13.5085 25.2926 13.9104 25.2926 14.2398 25.271C14.5843 25.2471 14.9082 25.1962 15.2224 25.0651C15.5839 24.9155 15.9125 24.6962 16.1892 24.4196C16.466 24.143 16.6856 23.8146 16.8354 23.4531C16.9925 23.074 17.0348 22.6731 17.0521 22.2376C17.0537 22.0782 17.0957 21.9217 17.1744 21.783C17.253 21.6443 17.3657 21.5279 17.5017 21.4446C17.6417 21.3684 17.7987 21.329 17.9581 21.3302C18.1174 21.3313 18.2739 21.3729 18.4128 21.4511C18.7984 21.6548 19.1668 21.8184 19.5741 21.8715C20.3573 21.9748 21.1496 21.7628 21.7765 21.2821C22.0473 21.0741 22.2532 20.8185 22.4449 20.5336C22.6291 20.2584 22.8306 19.9106 23.0711 19.4936L23.0982 19.4459C23.3398 19.0288 23.5402 18.6811 23.6854 18.3842C23.837 18.0744 23.9562 17.7678 23.9995 17.4309C24.1029 16.6477 23.8909 15.8554 23.4102 15.2285C23.1599 14.9024 22.8339 14.6651 22.4655 14.4333C22.3282 14.3521 22.2138 14.2373 22.133 14.0997C22.0523 13.9622 22.0079 13.8063 22.004 13.6468C22.004 13.3456 22.1687 13.0466 22.4655 12.8603C22.8339 12.6285 23.1589 12.3912 23.4102 12.0651C23.6484 11.7548 23.8231 11.4005 23.9244 11.0227C24.0257 10.6448 24.0516 10.2506 24.0006 9.86273C23.949 9.52983 23.8429 9.20772 23.6864 8.90939C23.5015 8.54945 23.3053 8.19539 23.0982 7.84773L23.0711 7.80006C22.8732 7.44699 22.6644 7.10015 22.4449 6.76006C22.2648 6.47581 22.0389 6.22325 21.7765 6.01256C21.4662 5.77416 21.112 5.59922 20.7341 5.49773C20.3563 5.39624 19.9621 5.37019 19.5741 5.42106C19.1668 5.47523 18.7984 5.63773 18.4128 5.84248C18.2739 5.92032 18.1176 5.96165 17.9585 5.9626C17.7993 5.96355 17.6425 5.92408 17.5028 5.84789C17.3665 5.76504 17.2535 5.64888 17.1745 5.51035C17.0955 5.37181 17.053 5.21545 17.051 5.05598C17.0348 4.62048 16.9925 4.21964 16.8343 3.84048C16.6848 3.47891 16.4654 3.15036 16.1888 2.87359C15.9122 2.59681 15.5838 2.37723 15.2224 2.22739C14.9082 2.09739 14.5832 2.04648 14.2398 2.02373C13.9104 2.00098 13.5085 2.00098 13.0264 2.00098H12.9723ZM11.3982 3.72889C11.4816 3.69423 11.6083 3.66281 11.8694 3.64439C12.137 3.62598 12.4837 3.62598 12.9993 3.62598C13.515 3.62598 13.8617 3.62598 14.1293 3.64439C14.3904 3.66281 14.5171 3.69423 14.6005 3.72889C14.9331 3.86648 15.1963 4.12973 15.3339 4.46231C15.3773 4.56631 15.413 4.72989 15.4271 5.11664C15.4596 5.97464 15.9027 6.80123 16.6892 7.25514C17.4757 7.71014 18.4128 7.67981 19.1722 7.27898C19.5145 7.09806 19.6738 7.04714 19.7864 7.03306C20.1424 6.98603 20.5024 7.08227 20.7874 7.30064C20.8589 7.35589 20.9499 7.45014 21.0962 7.66681C21.2468 7.88998 21.4201 8.19006 21.6779 8.63639C21.9358 9.08273 22.108 9.38389 22.2261 9.62439C22.342 9.85948 22.3778 9.98514 22.3886 10.0751C22.4356 10.431 22.3394 10.7911 22.121 11.0761C22.0517 11.166 21.9282 11.2786 21.601 11.4845C20.873 11.9416 20.379 12.739 20.379 13.6468C20.379 14.5546 20.873 15.352 21.601 15.8091C21.9282 16.015 22.0517 16.1276 22.121 16.2176C22.3398 16.5025 22.4352 16.8621 22.3886 17.2186C22.3778 17.3085 22.3409 17.4352 22.2261 17.6692C22.108 17.9108 21.9358 18.2109 21.6779 18.6572C21.4201 19.1036 21.2457 19.4036 21.0962 19.6268C20.9499 19.8435 20.8589 19.9377 20.7874 19.993C20.5024 20.2113 20.1424 20.3076 19.7864 20.2606C19.6738 20.2465 19.5156 20.1956 19.1722 20.0146C18.4139 19.6138 17.4757 19.5835 16.6892 20.0374C15.9027 20.4924 15.4596 21.319 15.4271 22.177C15.413 22.5637 15.3773 22.7273 15.3339 22.8313C15.2659 22.9958 15.1661 23.1452 15.0402 23.271C14.9144 23.3969 14.765 23.4967 14.6005 23.5647C14.5171 23.5994 14.3904 23.6308 14.1293 23.6492C13.8617 23.6676 13.515 23.6676 12.9993 23.6676C12.4837 23.6676 12.137 23.6676 11.8694 23.6492C11.6083 23.6308 11.4816 23.5994 11.3982 23.5647C11.2337 23.4967 11.0843 23.3969 10.9585 23.271C10.8326 23.1452 10.7328 22.9958 10.6648 22.8313C10.6214 22.7273 10.5857 22.5637 10.5716 22.177C10.5391 21.319 10.096 20.4924 9.30952 20.0385C8.52302 19.5835 7.58593 19.6138 6.82652 20.0146C6.48418 20.1956 6.32493 20.2465 6.21227 20.2606C5.85632 20.3076 5.49627 20.2113 5.21127 19.993C5.13977 19.9377 5.04877 19.8435 4.90252 19.6268C4.69875 19.3096 4.50475 18.9863 4.32077 18.6572C4.06293 18.2109 3.89068 17.9097 3.7726 17.6692C3.65668 17.4341 3.62093 17.3085 3.6101 17.2186C3.56307 16.8626 3.65931 16.5026 3.87768 16.2176C3.94702 16.1276 4.07052 16.015 4.39768 15.8091C5.12568 15.352 5.61968 14.5546 5.61968 13.6468C5.61968 12.739 5.12568 11.9416 4.39768 11.4845C4.07052 11.2786 3.94702 11.166 3.87768 11.0761C3.65931 10.7911 3.56307 10.431 3.6101 10.0751C3.62093 9.98514 3.65777 9.85839 3.7726 9.62439C3.89068 9.38281 4.06293 9.08273 4.32077 8.63639C4.5786 8.19006 4.75302 7.88998 4.90252 7.66681C5.04877 7.45014 5.13977 7.35589 5.21127 7.30064C5.49627 7.08227 5.85632 6.98603 6.21227 7.03306C6.32493 7.04714 6.4831 7.09806 6.82652 7.27898C7.58485 7.67981 8.52302 7.71014 9.30952 7.25514C10.096 6.80123 10.5391 5.97464 10.5716 5.11664C10.5857 4.72989 10.6214 4.56631 10.6648 4.46231C10.8024 4.12973 11.0656 3.86648 11.3982 3.72889Z" fill="#FACC15"/>
</svg>
