<svg width="22" height="22" viewBox="0 0 26 27" fill="none" xmlns="http://www.w3.org/2000/svg">
<path d="M22.0396 19.1592H20.2547C20.1328 19.1592 20.0185 19.2125 19.9424 19.3065C19.7646 19.5223 19.5742 19.7305 19.3736 19.9286C18.5532 20.7498 17.5815 21.4042 16.5121 21.8557C15.4042 22.3237 14.2134 22.5637 13.0107 22.5616C11.7945 22.5616 10.6164 22.3229 9.50935 21.8557C8.43997 21.4042 7.46822 20.7498 6.64783 19.9286C5.82597 19.1101 5.17065 18.1401 4.71814 17.0721C4.24842 15.9651 4.01228 14.7895 4.01228 13.5733C4.01228 12.3571 4.25096 11.1815 4.71814 10.0745C5.1701 9.00551 5.8201 8.0432 6.64783 7.21801C7.47556 6.39281 8.43787 5.74281 9.50935 5.29086C10.6164 4.82367 11.7945 4.585 13.0107 4.585C14.2269 4.585 15.4051 4.82113 16.5121 5.29086C17.5836 5.74281 18.5459 6.39281 19.3736 7.21801C19.5742 7.41859 19.7621 7.6268 19.9424 7.84008C20.0185 7.93402 20.1353 7.98734 20.2547 7.98734H22.0396C22.1996 7.98734 22.2986 7.80961 22.2097 7.67504C20.2623 4.64848 16.8549 2.64516 12.9828 2.65531C6.8992 2.67055 2.02166 7.60902 2.0826 13.685C2.14353 19.6645 7.01346 24.4912 13.0107 24.4912C16.8726 24.4912 20.2648 22.4905 22.2097 19.4715C22.2961 19.337 22.1996 19.1592 22.0396 19.1592ZM24.2969 13.4133L20.6939 10.5696C20.5594 10.4629 20.3638 10.5594 20.3638 10.7295V12.6592H12.3912C12.2795 12.6592 12.1881 12.7506 12.1881 12.8623V14.2842C12.1881 14.3959 12.2795 14.4873 12.3912 14.4873H20.3638V16.417C20.3638 16.5871 20.5619 16.6836 20.6939 16.577L24.2969 13.7332C24.3211 13.7142 24.3408 13.69 24.3543 13.6622C24.3678 13.6345 24.3748 13.6041 24.3748 13.5733C24.3748 13.5425 24.3678 13.512 24.3543 13.4843C24.3408 13.4566 24.3211 13.4323 24.2969 13.4133Z" fill="#FACC15"/>
</svg>
