<svg width="30" height="34" viewBox="0 0 30 34" fill="none" xmlns="http://www.w3.org/2000/svg">
<path fill-rule="evenodd" clip-rule="evenodd" d="M10 21.0273C9.05048 21.0273 8.10949 21.4453 7.39358 22.2407C6.67377 23.0405 6.25 24.151 6.25 25.3329C6.25 25.7781 6.41038 26.182 6.66135 26.4609C6.90841 26.7354 7.21353 26.8607 7.5 26.8607H22.5C22.7865 26.8607 23.0916 26.7354 23.3387 26.4609C23.5896 26.182 23.75 25.7781 23.75 25.3329C23.75 24.151 23.3262 23.0405 22.6064 22.2407C21.8905 21.4453 20.9495 21.0273 20 21.0273H10ZM5.53535 20.5683C6.69481 19.28 8.29735 18.5273 10 18.5273H20C21.7027 18.5273 23.3052 19.28 24.4647 20.5683C25.6202 21.8523 26.25 23.568 26.25 25.3329C26.25 26.3611 25.8836 27.3703 25.1969 28.1333C24.5063 28.9006 23.5396 29.3607 22.5 29.3607H7.5C6.46039 29.3607 5.49373 28.9006 4.80312 28.1333C4.11641 27.3703 3.75 26.3611 3.75 25.3329C3.75 23.568 4.3798 21.8523 5.53535 20.5683Z" fill="white"/>
<path fill-rule="evenodd" clip-rule="evenodd" d="M15 7.13867C13.7399 7.13867 12.5 8.31737 12.5 10.0553C12.5 11.7933 13.7399 12.972 15 12.972C16.2601 12.972 17.5 11.7933 17.5 10.0553C17.5 8.31737 16.2601 7.13867 15 7.13867ZM10 10.0553C10 7.19094 12.118 4.63867 15 4.63867C17.882 4.63867 20 7.19094 20 10.0553C20 12.9197 17.882 15.472 15 15.472C12.118 15.472 10 12.9197 10 10.0553Z" fill="white"/>
</svg>
