<svg width="22" height="22" viewBox="0 0 26 27" fill="none" xmlns="http://www.w3.org/2000/svg">
<g clip-path="url(#clip0_388_7699)">
<path d="M17.0625 0.671875L26 5.14062V15.1064L24.375 14.2939V6.95605L17.875 10.2061V13.4814L16.25 14.2939V10.2061L9.75 6.95605V9.83789L8.125 9.02539V5.14062L17.0625 0.671875ZM17.0625 8.79688L19.3096 7.66699L13.4316 4.30273L10.7529 5.64844L17.0625 8.79688ZM21.0615 6.80371L23.3721 5.64844L17.0625 2.4873L15.1709 3.43945L21.0615 6.80371ZM14.625 15.1064L13 15.9189V15.9062L8.125 18.3438V24.1201L13 21.6699V23.498L7.3125 26.3418L0 22.6729V14.0908L7.3125 10.4346L14.625 14.0908V15.1064ZM6.5 24.1201V18.3438L1.625 15.9062V21.6699L6.5 24.1201ZM7.3125 16.9346L11.9971 14.5986L7.3125 12.25L2.62793 14.5986L7.3125 16.9346ZM14.625 16.9219L20.3125 14.0781L26 16.9219V23.6123L20.3125 26.4561L14.625 23.6123V16.9219ZM19.5 24.2344V20.3623L16.25 18.7373V22.6094L19.5 24.2344ZM24.375 22.6094V18.7373L21.125 20.3623V24.2344L24.375 22.6094ZM20.3125 18.9531L23.3721 17.417L20.3125 15.8936L17.2529 17.417L20.3125 18.9531Z" fill="white"/>
</g>
<defs>
<clipPath id="clip0_388_7699">
<rect width="26" height="26" fill="white" transform="translate(0 0.646484)"/>
</clipPath>
</defs>
</svg>
