<svg width="20" height="20" viewBox="0 0 24 25" fill="none" xmlns="http://www.w3.org/2000/svg">
<g clip-path="url(#clip0_411_7989)">
<path d="M9.19737 10.6465C8.99846 10.6465 8.8077 10.7255 8.66704 10.8662C8.52639 11.0068 8.44737 11.1976 8.44737 11.3965C8.44737 11.5954 8.52639 11.7862 8.66704 11.9268C8.8077 12.0675 8.99846 12.1465 9.19737 12.1465H15.6974C15.8963 12.1465 16.0871 12.0675 16.2277 11.9268C16.3684 11.7862 16.4474 11.5954 16.4474 11.3965C16.4474 11.1976 16.3684 11.0068 16.2277 10.8662C16.0871 10.7255 15.8963 10.6465 15.6974 10.6465H9.19737ZM6.81537 14.6465C6.61646 14.6465 6.4257 14.7255 6.28504 14.8662C6.14439 15.0068 6.06537 15.1976 6.06537 15.3965C6.06537 15.5954 6.14439 15.7862 6.28504 15.9268C6.4257 16.0675 6.61646 16.1465 6.81537 16.1465H13.3154C13.5143 16.1465 13.7051 16.0675 13.8457 15.9268C13.9864 15.7862 14.0654 15.5954 14.0654 15.3965C14.0654 15.1976 13.9864 15.0068 13.8457 14.8662C13.7051 14.7255 13.5143 14.6465 13.3154 14.6465H6.81537ZM5.23438 18.6465C5.03546 18.6465 4.8447 18.7255 4.70404 18.8662C4.56339 19.0068 4.48438 19.1976 4.48438 19.3965C4.48438 19.5954 4.56339 19.7862 4.70404 19.9268C4.8447 20.0675 5.03546 20.1465 5.23438 20.1465H11.7344C11.9333 20.1465 12.1241 20.0675 12.2647 19.9268C12.4054 19.7862 12.4844 19.5954 12.4844 19.3965C12.4844 19.1976 12.4054 19.0068 12.2647 18.8662C12.1241 18.7255 11.9333 18.6465 11.7344 18.6465H5.23438Z" fill="white"/>
<path d="M4.12521 0.646504H19.8752C20.4173 0.644846 20.9545 0.750463 21.4556 0.957271C21.9567 1.16408 22.412 1.46799 22.7952 1.8515C23.1787 2.23469 23.4826 2.68997 23.6894 3.19111C23.8962 3.69226 24.0019 4.22937 24.0002 4.7715C24.0002 6.1555 23.5242 7.5655 22.8722 8.9315C22.2202 10.2965 21.3572 11.6885 20.5202 13.0355L20.5122 13.0485C19.6632 14.4165 18.8432 15.7395 18.2322 17.0185C17.6182 18.3015 17.2502 19.4685 17.2502 20.5215C17.2502 20.975 17.3678 21.4208 17.5913 21.8154C17.8149 22.21 18.1369 22.5399 18.5259 22.773C18.9149 23.0061 19.3577 23.1345 19.811 23.1456C20.2644 23.1567 20.7129 23.0501 21.1129 22.8363C21.5128 22.6224 21.8505 22.3086 22.0931 21.9254C22.3357 21.5423 22.4749 21.1028 22.4971 20.6498C22.5193 20.1968 22.4237 19.7458 22.2197 19.3408C22.0158 18.9357 21.7103 18.5904 21.3332 18.3385C21.2513 18.2837 21.181 18.2134 21.1263 18.1315C21.0717 18.0495 21.0336 17.9576 21.0145 17.861C20.9953 17.7644 20.9953 17.665 21.0146 17.5683C21.0338 17.4717 21.0719 17.3799 21.1267 17.298C21.1815 17.2161 21.2518 17.1458 21.3337 17.0911C21.4157 17.0365 21.5076 16.9984 21.6042 16.9793C21.7008 16.9601 21.8003 16.9601 21.8969 16.9794C21.9935 16.9986 22.0853 17.0367 22.1672 17.0915C22.9024 17.5835 23.4601 18.2989 23.7578 19.1319C24.0555 19.965 24.0776 20.8717 23.8208 21.7183C23.5639 22.5649 23.0418 23.3065 22.3314 23.8338C21.621 24.361 20.7599 24.6459 19.8752 24.6465H4.50021C3.40619 24.6465 2.35698 24.2119 1.58339 23.4383C0.809806 22.6647 0.375209 21.6155 0.375209 20.5215C0.375209 18.2875 1.63321 15.8655 2.96521 13.6195C3.31321 13.0335 3.66721 12.4575 4.01521 11.8915C4.81521 10.5875 5.58221 9.3385 6.15921 8.1535H3.39021C2.56721 8.1535 1.50421 7.9605 0.823209 7.1185C0.282349 6.45677 -0.0089332 5.6261 0.000208826 4.7715C0.000208826 3.67749 0.434806 2.62828 1.20839 1.85469C1.98198 1.0811 3.03119 0.646504 4.12521 0.646504ZM15.7502 20.5215C15.7502 19.1415 16.2262 17.7355 16.8782 16.3715C17.5272 15.0135 18.3872 13.6285 19.2212 12.2855L19.2382 12.2575C20.0872 10.8905 20.9072 9.5655 21.5182 8.2855C22.1322 7.0005 22.5002 5.8285 22.5002 4.7715C22.5015 4.42641 22.4345 4.08447 22.3031 3.7654C22.1716 3.44632 21.9783 3.15642 21.7343 2.9124C21.4903 2.66838 21.2004 2.47508 20.8813 2.34363C20.5622 2.21218 20.2203 2.14518 19.8752 2.1465C19.179 2.1465 18.5113 2.42307 18.0191 2.91535C17.5268 3.40763 17.2502 4.07531 17.2502 4.7715C17.2502 5.6365 17.6712 6.2805 18.4172 6.7805C18.5507 6.87001 18.652 7.00005 18.706 7.15146C18.76 7.30288 18.764 7.46764 18.7173 7.62146C18.6705 7.77528 18.5756 7.91002 18.4465 8.00581C18.3174 8.1016 18.161 8.15338 18.0002 8.1535H7.81221C7.16221 9.6365 6.18821 11.2225 5.23521 12.7725C4.90121 13.3165 4.56921 13.8555 4.25521 14.3845C2.90021 16.6715 1.87521 18.7555 1.87521 20.5215C1.87521 21.2177 2.15177 21.8854 2.64405 22.3777C3.13634 22.8699 3.80402 23.1465 4.50021 23.1465H16.6932C16.0824 22.4083 15.7488 21.4797 15.7502 20.5215ZM1.50021 4.7715C1.49021 5.2825 1.66321 5.7795 1.98721 6.1745C2.24121 6.4875 2.72721 6.6535 3.38921 6.6535H16.2492C15.9154 6.08296 15.743 5.43246 15.7502 4.7715C15.7489 3.81333 16.0825 2.88483 16.6932 2.1465H4.12521C3.42902 2.1465 2.76134 2.42307 2.26905 2.91535C1.77677 3.40763 1.50021 4.07531 1.50021 4.7715Z" fill="white"/>
</g>
<defs>
<clipPath id="clip0_411_7989">
<rect width="24" height="24" fill="white" transform="translate(0 0.646484)"/>
</clipPath>
</defs>
</svg>
