<svg width="24" height="24" viewBox="0 0 24 24" fill="none" xmlns="http://www.w3.org/2000/svg">
<path d="M12 2C8.13 2 5 5.13 5 9C5 14.25 12 22 12 22S19 14.25 19 9C19 5.13 15.87 2 12 2ZM12 11.5C10.62 11.5 9.5 10.38 9.5 9S10.62 6.5 12 6.5S14.5 7.62 14.5 9S13.38 11.5 12 11.5Z" fill="#FFD700"/>
<path d="M12 13C10.34 13 9 11.66 9 10C9 8.34 10.34 7 12 7C13.66 7 15 8.34 15 10C15 11.66 13.66 13 12 13ZM12 8.5C11.17 8.5 10.5 9.17 10.5 10S11.17 11.5 12 11.5S13.5 10.83 13.5 10S12.83 8.5 12 8.5Z" fill="#FFD700"/>
<path d="M8 16H16V18H8V16ZM8 20H16V22H8V20Z" fill="#FFD700"/>
</svg>
