<svg width="25" height="25" viewBox="0 0 30 31" fill="none" xmlns="http://www.w3.org/2000/svg">
<path d="M18.75 5.64648C17.4239 5.64648 16.1521 6.17327 15.2145 7.11095C14.2768 8.04863 13.75 9.3204 13.75 10.6465C13.75 11.9726 14.2768 13.2443 15.2145 14.182C16.1521 15.1197 17.4239 15.6465 18.75 15.6465C20.0761 15.6465 21.3479 15.1197 22.2855 14.182C23.2232 13.2443 23.75 11.9726 23.75 10.6465C23.75 9.3204 23.2232 8.04863 22.2855 7.11095C21.3479 6.17327 20.0761 5.64648 18.75 5.64648ZM18.75 8.02148C19.0947 8.02148 19.4361 8.08938 19.7545 8.2213C20.073 8.35322 20.3624 8.54658 20.6062 8.79033C20.8499 9.03408 21.0433 9.32346 21.1752 9.64194C21.3071 9.96042 21.375 10.3018 21.375 10.6465C21.375 10.9912 21.3071 11.3325 21.1752 11.651C21.0433 11.9695 20.8499 12.2589 20.6062 12.5026C20.3624 12.7464 20.073 12.9398 19.7545 13.0717C19.4361 13.2036 19.0947 13.2715 18.75 13.2715C18.4053 13.2715 18.0639 13.2036 17.7455 13.0717C17.427 12.9398 17.1376 12.7464 16.8938 12.5026C16.6501 12.2589 16.4567 11.9695 16.3248 11.651C16.1929 11.3325 16.125 10.9912 16.125 10.6465C16.125 9.95029 16.4016 9.28261 16.8938 8.79033C17.3861 8.29805 18.0538 8.02148 18.75 8.02148ZM5 9.39648V13.1465H1.25V15.6465H5V19.3965H7.5V15.6465H11.25V13.1465H7.5V9.39648H5ZM18.75 16.8965C15.4125 16.8965 8.75 18.559 8.75 21.8965V25.6465H28.75V21.8965C28.75 18.559 22.0875 16.8965 18.75 16.8965ZM18.75 19.2715C22.4625 19.2715 26.375 21.0965 26.375 21.8965V23.2715H11.125V21.8965C11.125 21.0965 15 19.2715 18.75 19.2715Z" fill="#FACC15"/>
</svg>
