<svg width="24" height="24" viewBox="0 0 30 31" fill="none" xmlns="http://www.w3.org/2000/svg">
<path d="M15 5.33398C14.7127 5.33398 14.4283 5.39057 14.1629 5.5005C13.8975 5.61043 13.6563 5.77156 13.4532 5.97469C13.2501 6.17782 13.0889 6.41896 12.979 6.68436C12.8691 6.94976 12.8125 7.23422 12.8125 7.52148C12.8125 7.80875 12.8691 8.0932 12.979 8.3586C13.0889 8.624 13.2501 8.86515 13.4532 9.06828C13.6563 9.27141 13.8975 9.43254 14.1629 9.54247C14.4283 9.6524 14.7127 9.70898 15 9.70898C15.5802 9.70898 16.1366 9.47852 16.5468 9.06828C16.957 8.65804 17.1875 8.10165 17.1875 7.52148C17.1875 6.94132 16.957 6.38492 16.5468 5.97469C16.1366 5.56445 15.5802 5.33398 15 5.33398ZM11.25 7.52148C11.25 6.52692 11.6451 5.5731 12.3483 4.86983C13.0516 4.16657 14.0054 3.77148 15 3.77148C15.9946 3.77148 16.9484 4.16657 17.6517 4.86983C18.3549 5.5731 18.75 6.52692 18.75 7.52148C18.75 8.51605 18.3549 9.46987 17.6517 10.1731C16.9484 10.8764 15.9946 11.2715 15 11.2715C14.0054 11.2715 13.0516 10.8764 12.3483 10.1731C11.6451 9.46987 11.25 8.51605 11.25 7.52148ZM23.125 6.58398C22.7106 6.58398 22.3132 6.7486 22.0201 7.04163C21.7271 7.33466 21.5625 7.73208 21.5625 8.14648C21.5625 8.56088 21.7271 8.95831 22.0201 9.25134C22.3132 9.54436 22.7106 9.70898 23.125 9.70898C23.5394 9.70898 23.9368 9.54436 24.2299 9.25134C24.5229 8.95831 24.6875 8.56088 24.6875 8.14648C24.6875 7.73208 24.5229 7.33466 24.2299 7.04163C23.9368 6.7486 23.5394 6.58398 23.125 6.58398ZM20 8.14648C20 7.31768 20.3292 6.52283 20.9153 5.93678C21.5013 5.35072 22.2962 5.02148 23.125 5.02148C23.9538 5.02148 24.7487 5.35072 25.3347 5.93678C25.9208 6.52283 26.25 7.31768 26.25 8.14648C26.25 8.97529 25.9208 9.77014 25.3347 10.3562C24.7487 10.9422 23.9538 11.2715 23.125 11.2715C22.2962 11.2715 21.5013 10.9422 20.9153 10.3562C20.3292 9.77014 20 8.97529 20 8.14648ZM5.3125 8.14648C5.3125 7.73208 5.47712 7.33466 5.77015 7.04163C6.06317 6.7486 6.4606 6.58398 6.875 6.58398C7.2894 6.58398 7.68683 6.7486 7.97985 7.04163C8.27288 7.33466 8.4375 7.73208 8.4375 8.14648C8.4375 8.56088 8.27288 8.95831 7.97985 9.25134C7.68683 9.54436 7.2894 9.70898 6.875 9.70898C6.4606 9.70898 6.06317 9.54436 5.77015 9.25134C5.47712 8.95831 5.3125 8.56088 5.3125 8.14648ZM6.875 5.02148C6.0462 5.02148 5.25134 5.35072 4.66529 5.93678C4.07924 6.52283 3.75 7.31768 3.75 8.14648C3.75 8.97529 4.07924 9.77014 4.66529 10.3562C5.25134 10.9422 6.0462 11.2715 6.875 11.2715C7.7038 11.2715 8.49866 10.9422 9.08471 10.3562C9.67076 9.77014 10 8.97529 10 8.14648C10 7.31768 9.67076 6.52283 9.08471 5.93678C8.49866 5.35072 7.7038 5.02148 6.875 5.02148ZM9.375 15.1777C9.375 14.4733 9.65485 13.7976 10.153 13.2995C10.6511 12.8013 11.3268 12.5215 12.0312 12.5215H17.9688C18.6732 12.5215 19.3489 12.8013 19.847 13.2995C20.3451 13.7976 20.625 14.4733 20.625 15.1777V21.8965C20.625 23.3883 20.0324 24.8191 18.9775 25.874C17.9226 26.9289 16.4918 27.5215 15 27.5215C13.5082 27.5215 12.0774 26.9289 11.0225 25.874C9.96763 24.8191 9.375 23.3883 9.375 21.8965V15.1777ZM15 25.959C16.0774 25.959 17.1108 25.531 17.8726 24.7691C18.6345 24.0072 19.0625 22.9739 19.0625 21.8965V15.1777C19.0625 14.8877 18.9473 14.6095 18.7421 14.4043C18.537 14.1992 18.2588 14.084 17.9688 14.084H12.0312C11.7412 14.084 11.463 14.1992 11.2579 14.4043C11.0527 14.6095 10.9375 14.8877 10.9375 15.1777V21.8965C10.9375 22.9739 11.3655 24.0072 12.1274 24.7691C12.8892 25.531 13.9226 25.959 15 25.959ZM6.875 24.084C7.39766 24.0848 7.91011 23.9393 8.35437 23.664C8.49125 24.1802 8.68688 24.6721 8.93313 25.1327C8.26646 25.4881 7.51912 25.6648 6.76389 25.6457C6.00865 25.6265 5.27125 25.412 4.62349 25.0232C3.97573 24.6345 3.43969 24.0845 3.06756 23.4271C2.69543 22.7696 2.4999 22.027 2.5 21.2715V15.1784C2.49992 14.8295 2.56856 14.484 2.70202 14.1617C2.83547 13.8393 3.03111 13.5464 3.27778 13.2997C3.52444 13.053 3.81729 12.8573 4.1396 12.7237C4.46191 12.5902 4.80737 12.5215 5.15625 12.5215H8.59375C8.77375 12.5215 8.95 12.5396 9.11937 12.5734C8.73014 13.0078 8.4433 13.524 8.28 14.084H5.15625C4.86617 14.084 4.58797 14.1992 4.38285 14.4043C4.17773 14.6095 4.0625 14.8877 4.0625 15.1777V21.2715C4.0625 22.0174 4.35882 22.7328 4.88626 23.2602C5.41371 23.7877 6.12908 24.084 6.875 24.084ZM23.125 25.6465C22.4072 25.6477 21.7002 25.4714 21.0669 25.1334C21.3131 24.6721 21.5087 24.1802 21.6456 23.664C22.0717 23.9275 22.5604 24.0724 23.0612 24.0838C23.5621 24.0951 24.0569 23.9725 24.4944 23.7286C24.932 23.4847 25.2965 23.1283 25.5502 22.6963C25.8039 22.2643 25.9376 21.7724 25.9375 21.2715V15.1777C25.9375 14.8877 25.8223 14.6095 25.6171 14.4043C25.412 14.1992 25.1338 14.084 24.8438 14.084H21.72C21.5565 13.524 21.2695 13.0077 20.88 12.5734C21.0506 12.5396 21.2262 12.5215 21.4062 12.5215H24.8438C25.5482 12.5215 26.2239 12.8013 26.722 13.2995C27.2201 13.7976 27.5 14.4733 27.5 15.1777V21.2715C27.5 22.4318 27.0391 23.5446 26.2186 24.3651C25.3981 25.1855 24.2853 25.6465 23.125 25.6465Z" fill="#FACC15"/>
</svg>
