<svg width="32" height="32" viewBox="0 0 30 31" fill="none" xmlns="http://www.w3.org/2000/svg">
<path d="M15 27.5215C18.1494 27.5215 21.1699 26.2704 23.3969 24.0434C25.6239 21.8164 26.875 18.7959 26.875 15.6465C26.875 12.497 25.6239 9.47659 23.3969 7.24959C21.1699 5.0226 18.1494 3.77148 15 3.77148C11.8506 3.77148 8.8301 5.0226 6.60311 7.24959C4.37611 9.47659 3.125 12.497 3.125 15.6465C3.125 18.7959 4.37611 21.8164 6.60311 24.0434C8.8301 26.2704 11.8506 27.5215 15 27.5215Z" stroke="white" stroke-width="1.5" stroke-linecap="round" stroke-linejoin="round"/>
<path d="M11.25 18.6877C11.3297 19.6077 11.7673 20.4596 12.4685 21.0603C13.1698 21.661 14.0787 21.9626 15 21.9002C18.025 21.9002 18.75 20.1627 18.75 18.6877C18.75 17.2127 17.5 15.6502 15 15.6502C12.5 15.6502 11.25 14.6627 11.25 12.6502C11.2733 12.1873 11.39 11.7338 11.5931 11.3171C11.7962 10.9003 12.0815 10.529 12.4318 10.2254C12.7821 9.92181 13.1902 9.6922 13.6316 9.55039C14.0729 9.40858 14.5384 9.3575 15 9.40023C15.9219 9.36054 16.824 9.67513 17.5213 10.2795C18.2186 10.8838 18.6583 11.7321 18.75 12.6502M15 23.7715V22.1465M15 7.52148V9.39523" stroke="white" stroke-width="1.5" stroke-linecap="round" stroke-linejoin="round"/>
</svg>
