<svg width="24" height="24" viewBox="0 0 26 27" fill="none" xmlns="http://www.w3.org/2000/svg">
<path d="M15.9828 11.4798C16.3913 11.4796 16.7889 11.6113 17.1164 11.8553C17.444 12.0993 17.684 12.4426 17.8007 12.834H17.0618C16.6177 12.834 16.1973 12.9315 15.8193 13.1048H10.0223C9.95052 13.1048 9.88163 13.1334 9.83084 13.1841C9.78005 13.2349 9.75152 13.3038 9.75152 13.3757V18.5204C9.75152 19.9352 10.655 21.1388 11.916 21.5862V23.2752C10.8394 23.0286 9.87828 22.4241 9.1899 21.5604C8.50152 20.6966 8.12662 19.6249 8.12652 18.5204V13.3757C8.12652 12.3292 8.97477 11.4798 10.0223 11.4798H15.9828ZM20.8535 12.834C21.6414 12.834 22.3972 13.1461 22.9555 13.702C23.5139 14.2579 23.8292 15.0123 23.8327 15.8001V13.3757C23.8327 12.8728 23.6329 12.3906 23.2774 12.0351C22.9219 11.6796 22.4397 11.4798 21.9368 11.4798H18.2806C18.5969 11.8622 18.819 12.3248 18.9133 12.834H20.8535ZM4.06185 11.4798H7.7246C7.3424 11.9414 7.10898 12.508 7.0551 13.1048H4.06185C3.99002 13.1048 3.92113 13.1334 3.87034 13.1841C3.81955 13.2349 3.79102 13.3038 3.79102 13.3757V16.8954C3.79095 17.3048 3.88364 17.7088 4.06214 18.0772C4.24064 18.4457 4.50031 18.7688 4.82162 19.0225C5.14294 19.2761 5.51756 19.4537 5.91735 19.5418C6.31713 19.6299 6.73167 19.6262 7.12985 19.5311C7.22193 20.0771 7.38985 20.5982 7.6206 21.0825C6.97849 21.2543 6.30547 21.2761 5.65358 21.1462C5.0017 21.0163 4.38842 20.7383 3.86116 20.3335C3.3339 19.9288 2.90679 19.4082 2.61285 18.812C2.31891 18.2159 2.16603 17.5601 2.16602 16.8954V13.3757C2.16602 12.3292 3.01535 11.4798 4.06185 11.4798ZM12.9993 3.89648C13.8613 3.89648 14.688 4.23889 15.2974 4.84839C15.9069 5.45788 16.2493 6.28453 16.2493 7.14648C16.2493 8.00844 15.9069 8.83509 15.2974 9.44458C14.688 10.0541 13.8613 10.3965 12.9993 10.3965C12.1374 10.3965 11.3107 10.0541 10.7013 9.44458C10.0918 8.83509 9.74935 8.00844 9.74935 7.14648C9.74935 6.28453 10.0918 5.45788 10.7013 4.84839C11.3107 4.23889 12.1374 3.89648 12.9993 3.89648ZM12.9993 5.52148C12.5684 5.52148 12.155 5.69269 11.8503 5.99744C11.5456 6.30218 11.3743 6.71551 11.3743 7.14648C11.3743 7.57746 11.5456 7.99079 11.8503 8.29553C12.155 8.60028 12.5684 8.77148 12.9993 8.77148C13.4303 8.77148 13.8437 8.60028 14.1484 8.29553C14.4531 7.99079 14.6243 7.57746 14.6243 7.14648C14.6243 6.71551 14.4531 6.30218 14.1484 5.99744C13.8437 5.69269 13.4303 5.52148 12.9993 5.52148ZM20.041 4.97982C20.7593 4.97982 21.4482 5.26516 21.9561 5.77307C22.464 6.28098 22.7493 6.96986 22.7493 7.68815C22.7493 8.40645 22.464 9.09532 21.9561 9.60323C21.4482 10.1111 20.7593 10.3965 20.041 10.3965C19.3227 10.3965 18.6338 10.1111 18.1259 9.60323C17.618 9.09532 17.3327 8.40645 17.3327 7.68815C17.3327 6.96986 17.618 6.28098 18.1259 5.77307C18.6338 5.26516 19.3227 4.97982 20.041 4.97982ZM20.041 6.60482C19.7537 6.60482 19.4781 6.71895 19.275 6.92212C19.0718 7.12528 18.9577 7.40083 18.9577 7.68815C18.9577 7.97547 19.0718 8.25102 19.275 8.45418C19.4781 8.65735 19.7537 8.77148 20.041 8.77148C20.3283 8.77148 20.6039 8.65735 20.807 8.45418C21.0102 8.25102 21.1243 7.97547 21.1243 7.68815C21.1243 7.40083 21.0102 7.12528 20.807 6.92212C20.6039 6.71895 20.3283 6.60482 20.041 6.60482ZM5.95768 4.97982C6.67598 4.97982 7.36485 5.26516 7.87276 5.77307C8.38067 6.28098 8.66602 6.96986 8.66602 7.68815C8.66602 8.40645 8.38067 9.09532 7.87276 9.60323C7.36485 10.1111 6.67598 10.3965 5.95768 10.3965C5.23939 10.3965 4.55051 10.1111 4.0426 9.60323C3.53469 9.09532 3.24935 8.40645 3.24935 7.68815C3.24935 6.96986 3.53469 6.28098 4.0426 5.77307C4.55051 5.26516 5.23939 4.97982 5.95768 4.97982ZM5.95768 6.60482C5.67036 6.60482 5.39481 6.71895 5.19165 6.92212C4.98849 7.12528 4.87435 7.40083 4.87435 7.68815C4.87435 7.97547 4.98849 8.25102 5.19165 8.45418C5.39481 8.65735 5.67036 8.77148 5.95768 8.77148C6.245 8.77148 6.52055 8.65735 6.72371 8.45418C6.92688 8.25102 7.04102 7.97547 7.04102 7.68815C7.04102 7.40083 6.92688 7.12528 6.72371 6.92212C6.52055 6.71895 6.245 6.60482 5.95768 6.60482ZM15.166 16.8965H14.6243C14.1934 16.8965 13.78 17.0677 13.4753 17.3724C13.1706 17.6772 12.9993 18.0905 12.9993 18.5215V20.1465H15.7077V19.8756C15.7077 19.6602 15.7933 19.4535 15.9457 19.3011C16.098 19.1488 16.3047 19.0632 16.5202 19.0632C16.7357 19.0632 16.9423 19.1488 17.0947 19.3011C17.2471 19.4535 17.3327 19.6602 17.3327 19.8756V20.1465H20.5827V19.8756C20.5827 19.6602 20.6683 19.4535 20.8207 19.3011C20.973 19.1488 21.1797 19.0632 21.3952 19.0632C21.6107 19.0632 21.8173 19.1488 21.9697 19.3011C22.1221 19.4535 22.2077 19.6602 22.2077 19.8756V20.1465H24.916V18.5215C24.916 18.0905 24.7448 17.6772 24.4401 17.3724C24.1353 17.0677 23.722 16.8965 23.291 16.8965H22.7493V15.8132C22.7493 15.3103 22.5496 14.8281 22.1941 14.4726C21.8385 14.1171 21.3563 13.9173 20.8535 13.9173H17.0618C16.559 13.9173 16.0768 14.1171 15.7213 14.4726C15.3658 14.8281 15.166 15.3103 15.166 15.8132V16.8965ZM16.791 15.8132C16.791 15.7413 16.8196 15.6724 16.8703 15.6216C16.9211 15.5709 16.99 15.5423 17.0618 15.5423H20.8535C20.9253 15.5423 20.9942 15.5709 21.045 15.6216C21.0958 15.6724 21.1243 15.7413 21.1243 15.8132V16.8965H16.791V15.8132ZM12.9993 23.9382V21.7715H15.7077V22.584C15.7077 22.7995 15.7933 23.0061 15.9457 23.1585C16.098 23.3109 16.3047 23.3965 16.5202 23.3965C16.7357 23.3965 16.9423 23.3109 17.0947 23.1585C17.2471 23.0061 17.3327 22.7995 17.3327 22.584V21.7715H20.5827V22.584C20.5827 22.7995 20.6683 23.0061 20.8207 23.1585C20.973 23.3109 21.1797 23.3965 21.3952 23.3965C21.6107 23.3965 21.8173 23.3109 21.9697 23.1585C22.1221 23.0061 22.2077 22.7995 22.2077 22.584V21.7715H24.916V23.9382C24.916 24.3691 24.7448 24.7824 24.4401 25.0872C24.1353 25.3919 23.722 25.5631 23.291 25.5631H14.6243C14.1934 25.5631 13.78 25.3919 13.4753 25.0872C13.1706 24.7824 12.9993 24.3691 12.9993 23.9382Z" fill="#FACC15"/>
</svg>
