<svg width="148" height="54" viewBox="0 0 148 54" fill="none" xmlns="http://www.w3.org/2000/svg">
<path d="M1.30648 0.566208C1.07349 1.19861 8.0632 49.9269 8.59575 51.3249C8.76218 51.8241 9.1283 52.2901 9.39458 52.39C9.69414 52.4898 13.7548 52.0571 18.4479 51.4247C23.141 50.7923 29.3985 49.9602 32.3275 49.5608C35.2565 49.1614 37.8527 48.6621 38.0857 48.4624C38.4186 48.1296 37.42 43.7027 33.1596 26.2617C30.2306 14.3127 27.7676 4.16092 27.6677 3.76151C27.5678 3.3621 27.2017 2.86283 26.8689 2.66312C26.4029 2.43013 3.76952 0.000374268 1.77246 0.000374268C1.63932 0.000374268 1.40633 0.266649 1.30648 0.566208ZM15.0196 3.19567C20.8777 3.69494 25.7705 4.1942 25.9036 4.29406C26.1366 4.52705 34.1582 37.9446 34.1582 38.7767C34.1582 39.0429 34.0916 39.2759 33.9917 39.2759C33.9252 39.2759 28.8659 39.7419 22.7749 40.2745C16.6839 40.8403 11.1587 41.273 10.493 41.273H9.26144L8.66232 37.3454C8.36276 35.2152 7.03139 26.4614 5.70001 17.8741C3.66967 4.6269 3.40339 2.33028 3.83609 2.33028C4.13565 2.33028 9.16159 2.72969 15.0196 3.19567ZM25.2712 43.8026C26.9354 45.4668 26.7025 48.1629 24.8385 48.9284C22.1092 50.0601 19.513 45.8995 21.5767 43.7027C22.5752 42.6376 24.1728 42.6709 25.2712 43.8026Z" fill="#3457D5"/>
<path d="M0.00644492 3.16176C-0.226546 4.127 5.93106 50.4588 6.56347 52.5225C6.76317 53.0883 7.19587 53.754 7.562 53.9204C8.02798 54.1867 11.7225 53.754 21.7079 52.2562C29.1636 51.1245 35.5542 50.0594 35.9536 49.893C36.5194 49.66 36.4195 49.6267 35.4876 49.7599C26.0681 51.0912 11.8557 52.9219 10.6907 52.9885C7.89484 53.0883 8.29425 54.6194 4.33341 27.2929C2.36964 13.846 0.638848 2.69578 0.50571 2.52935C0.372573 2.36293 0.139582 2.66249 0.00644492 3.16176Z" fill="#3457D5"/>
<path d="M47.7173 1.84839C47.5797 1.98153 47.4766 2.31437 47.4766 2.58065C47.4766 2.84692 50.6748 7.30703 54.5953 12.4994L61.714 21.9521H63.296C64.1557 21.9521 65.0499 21.7857 65.2906 21.5527C65.7721 21.0868 65.8752 2.78035 65.3938 2.0481C65.2218 1.74854 64.534 1.64868 63.4335 1.71525L61.7484 1.8151L61.5765 8.40541L61.4045 14.9957L56.3836 8.40541L51.3626 1.8151L49.6775 1.71525C48.749 1.64868 47.8549 1.71525 47.7173 1.84839Z" fill="#3457D5"/>
<path d="M80.1483 1.94865C77.1907 2.84733 74.4052 5.54336 73.4422 8.47238C72.6857 10.8356 72.8576 14.164 73.8549 16.3608C75.1961 19.2232 78.4976 21.6863 81.18 21.7528L82.3836 21.7861V20.1219C82.3836 18.5243 82.3492 18.4577 81.008 17.8586C78.1537 16.5605 77.0532 14.8963 77.0532 11.8008C77.0532 8.73866 78.6351 6.50861 81.3863 5.64321C82.59 5.2438 82.59 5.21052 82.4868 3.5463C82.3836 1.68237 81.971 1.4161 80.1483 1.94865Z" fill="#3457D5"/>
<path d="M84.7528 2.11466C84.6496 2.34765 84.6152 3.21305 84.684 4.01187C84.7872 5.30996 84.8904 5.47639 85.8877 5.70938C87.4352 6.10879 89.2579 8.03928 89.7737 9.80335C90.7367 13.1318 89.3267 16.3604 86.3347 17.6917L84.6152 18.4573V20.1881C84.6152 21.8856 84.6496 21.9521 85.5782 21.9521C86.8506 21.9189 89.0515 20.9203 90.5991 19.6222C95.2417 15.6614 95.2417 7.97271 90.5991 4.01187C89.1891 2.81364 86.6099 1.64868 85.4062 1.64868C85.1311 1.64868 84.856 1.84839 84.7528 2.11466Z" fill="#3457D5"/>
<path d="M106.764 2.18109C105.973 2.44737 104.701 3.21291 103.91 3.84531C98.1321 8.63826 99.3357 18.0577 106.111 21.1532C108.999 22.4846 110.065 22.185 110.065 20.0215C110.065 18.8233 109.825 18.5903 107.933 17.7249C105.044 16.3935 103.6 13.0984 104.563 9.8365C105.079 8.07243 106.97 6.07536 108.483 5.70924C109.756 5.37639 110.375 4.11159 109.859 2.71364C109.481 1.64854 108.69 1.5154 106.764 2.18109Z" fill="#3457D5"/>
<path d="M112.026 1.84805C111.888 1.98119 111.785 2.78002 111.785 3.64541C111.785 5.20977 111.82 5.24306 113.298 5.77561C114.124 6.07517 115.293 6.84071 115.878 7.5064C116.909 8.5715 117.15 8.67135 118.594 8.5715C120.039 8.47164 120.211 8.37179 120.314 7.60625C120.451 6.54115 117.838 3.57884 115.946 2.64688C114.468 1.91462 112.404 1.51521 112.026 1.84805Z" fill="#3457D5"/>
<path d="M134.722 1.88167C134.618 2.0481 133.208 5.17683 131.592 8.90468C129.185 14.2967 128.669 15.7613 129.013 16.1607C129.494 16.7265 132.211 16.7931 132.658 16.194C132.865 15.9942 133.827 13.864 134.825 11.5341C136.028 8.77154 136.751 7.44016 136.923 7.73972C137.232 8.27227 141.359 17.6585 141.359 17.8249C141.359 17.8915 138.367 17.958 134.756 17.958C131.111 17.958 127.981 18.0912 127.775 18.2243C127.603 18.3574 127.156 19.0231 126.812 19.7554C125.746 21.9521 125.711 21.9521 136.888 21.9521C145.417 21.9521 146.827 21.8856 146.999 21.4529C147.136 21.0535 140.293 4.74413 138.917 2.2478C138.642 1.78182 138.161 1.64868 136.716 1.64868C135.719 1.64868 134.79 1.74854 134.722 1.88167Z" fill="#3457D5"/>
<path d="M110.202 10.7689C110.099 11.0351 110.065 11.8007 110.133 12.4996L110.237 13.7977L113.607 13.8976C116.22 13.9642 116.943 14.0973 116.943 14.4634C116.943 15.2955 114.776 17.3592 113.229 17.9916C111.75 18.624 111.75 18.624 111.853 20.1883C111.956 21.553 112.059 21.786 112.747 21.8858C115.051 22.2187 118.765 19.6558 120.244 16.76C120.966 15.3288 121.207 14.3636 121.207 12.6661L121.241 10.4693L115.808 10.3694C111.371 10.3029 110.374 10.3694 110.202 10.7689Z" fill="#3457D5"/>
<path d="M47.6148 15.3955C47.5461 15.6285 47.4773 17.1929 47.5461 18.8238L47.6492 21.7861H49.3687H51.0882V18.4577V15.1293L49.4375 15.0294C48.3026 14.9628 47.7524 15.0627 47.6148 15.3955Z" fill="#3457D5"/>
<path d="M52.7734 34.7422C52.7734 34.778 52.7409 34.7959 52.6758 34.7959C52.4316 34.7959 52.0605 34.7747 51.5625 34.7324C51.0677 34.6901 50.6966 34.6689 50.4492 34.6689C50.1367 34.6689 49.9544 34.6803 49.9023 34.7031C49.7819 34.7585 49.7217 34.9147 49.7217 35.1719C49.7217 35.4811 49.7998 35.6569 49.9561 35.6992C50.0212 35.7155 50.1204 35.7236 50.2539 35.7236C50.4785 35.7236 50.8138 35.7122 51.2598 35.6895C51.709 35.6634 52.0459 35.6504 52.2705 35.6504C52.3779 35.6504 52.4316 35.9368 52.4316 36.5098C52.4316 37.0078 52.4137 37.2975 52.3779 37.3789C52.3551 37.4375 52.3112 37.4668 52.2461 37.4668C52.2884 37.4668 52.1859 37.4554 51.9385 37.4326C51.5902 37.4001 51.0628 37.3838 50.3564 37.3838C50.1286 37.3838 50 37.3854 49.9707 37.3887C49.8047 37.4147 49.7217 37.4847 49.7217 37.5986C49.7217 38.0609 49.7412 38.5931 49.7803 39.1953C49.8128 39.7389 49.8291 39.9814 49.8291 39.9229C49.8291 40.0075 49.7266 40.0563 49.5215 40.0693C49.5768 40.0661 49.432 40.0645 49.0869 40.0645C48.4782 40.0645 48.0859 40.0433 47.9102 40.001C47.8158 39.9782 47.7686 39.9277 47.7686 39.8496C47.7686 39.4883 47.7799 38.9463 47.8027 38.2236C47.8288 37.4977 47.8418 36.9541 47.8418 36.5928C47.8418 36.1631 47.8223 35.6227 47.7832 34.9717C47.7246 33.9658 47.6937 33.4255 47.6904 33.3506L47.6855 33.292C47.6823 33.2106 47.7311 33.1699 47.832 33.1699C48.0729 33.1699 48.4359 33.1748 48.9209 33.1846C49.4092 33.1943 49.7754 33.1992 50.0195 33.1992C50.2799 33.1992 50.6706 33.1797 51.1914 33.1406C51.7155 33.1016 52.1077 33.082 52.3682 33.082C52.5309 33.082 52.6221 33.1488 52.6416 33.2822C52.6416 33.4222 52.6481 33.6322 52.6611 33.9121C52.6676 33.9837 52.6888 34.1221 52.7246 34.3271C52.7572 34.5062 52.7734 34.6445 52.7734 34.7422ZM62.6367 36.583C62.6367 37.5986 62.3128 38.4499 61.665 39.1367C61.0042 39.8333 60.1676 40.1816 59.1553 40.1816C58.1494 40.1816 57.3145 39.8301 56.6504 39.127C55.9993 38.4401 55.6738 37.5921 55.6738 36.583C55.6738 35.5706 55.9993 34.7194 56.6504 34.0293C57.3145 33.3229 58.1494 32.9697 59.1553 32.9697C60.1546 32.9697 60.988 33.3229 61.6553 34.0293C62.3096 34.7259 62.6367 35.5771 62.6367 36.583ZM60.7861 36.5732C60.7861 36.085 60.638 35.6699 60.3418 35.3281C60.0326 34.9701 59.637 34.791 59.1553 34.791C58.6963 34.791 58.3073 34.9766 57.9883 35.3477C57.679 35.7057 57.5244 36.1175 57.5244 36.583C57.5244 37.0811 57.6693 37.4961 57.959 37.8281C58.265 38.1764 58.6637 38.3506 59.1553 38.3506C59.6143 38.3506 60.0049 38.1667 60.3271 37.7988C60.6331 37.4473 60.7861 37.0387 60.7861 36.5732ZM71.6846 39.9521C71.6846 39.9749 71.652 39.9912 71.5869 40.001C71.4632 40.0205 71.1523 40.0303 70.6543 40.0303C70.2279 40.0303 69.9382 40.0205 69.7852 40.001C69.7135 39.9912 69.6729 39.9831 69.6631 39.9766C69.6436 39.9668 69.6208 39.9342 69.5947 39.8789C69.5459 39.752 69.4743 39.5632 69.3799 39.3125C69.2529 38.987 69.0544 38.5068 68.7842 37.8721C68.7256 37.7451 68.5905 37.6751 68.3789 37.6621C68.4766 37.6686 68.3089 37.6719 67.876 37.6719C67.8271 37.6719 67.8027 37.7549 67.8027 37.9209C67.8027 38.1423 67.8223 38.4727 67.8613 38.9121C67.9036 39.3516 67.9248 39.682 67.9248 39.9033C67.9248 39.9587 67.9102 39.9912 67.8809 40.001C67.8353 40.0042 67.7897 40.0075 67.7441 40.0107C67.5521 40.0238 67.2526 40.0303 66.8457 40.0303C66.3802 40.0303 66.1003 40.0205 66.0059 40.001C65.9115 39.9814 65.8643 39.931 65.8643 39.8496C65.8643 39.4915 65.8805 38.9512 65.9131 38.2285C65.9489 37.5059 65.9668 36.9639 65.9668 36.6025C65.9668 35.2256 65.9359 34.1514 65.874 33.3799L65.8691 33.3115C65.8659 33.2562 65.9163 33.2188 66.0205 33.1992C66.1279 33.1797 66.626 33.1602 67.5146 33.1406C68.1169 33.1276 68.597 33.1211 68.9551 33.1211C69.6973 33.1211 70.3027 33.2887 70.7715 33.624C71.3021 34.0016 71.5674 34.5469 71.5674 35.2598C71.5674 35.735 71.499 36.1143 71.3623 36.3975C71.2256 36.6807 70.9733 36.9557 70.6055 37.2227C70.5306 37.2747 70.4932 37.3236 70.4932 37.3691C70.4932 37.3659 70.6917 37.7744 71.0889 38.5947C71.486 39.415 71.6846 39.8675 71.6846 39.9521ZM69.6338 35.5723C69.6338 35.1751 69.5036 34.9001 69.2432 34.7471C69.0413 34.6299 68.7256 34.5713 68.2959 34.5713C67.9867 34.5713 67.8223 34.6185 67.8027 34.7129C67.7832 34.8236 67.7734 35.1426 67.7734 35.6699C67.7734 35.7448 67.7751 35.8555 67.7783 36.002C67.7816 36.1484 67.7832 36.2575 67.7832 36.3291C67.7832 36.3454 67.8353 36.3617 67.9395 36.3779C68.138 36.4072 68.3464 36.4219 68.5645 36.4219C69.2773 36.4219 69.6338 36.1387 69.6338 35.5723ZM83.0713 37.7549C83.0713 38.4157 82.793 38.9821 82.2363 39.4541C81.748 39.8708 81.154 40.1361 80.4541 40.25C80.4281 40.2533 80.4069 40.2549 80.3906 40.2549C80.3158 40.2549 80.1497 40.027 79.8926 39.5713C79.6354 39.1123 79.5068 38.8324 79.5068 38.7314C79.5068 38.6956 79.5312 38.6729 79.5801 38.6631C80.0521 38.5557 80.3646 38.4645 80.5176 38.3896C80.8561 38.2204 81.0254 37.9697 81.0254 37.6377C81.0254 37.4261 80.9147 37.1901 80.6934 36.9297C80.3092 36.487 80.1009 36.2412 80.0684 36.1924C79.8438 35.8538 79.7314 35.4795 79.7314 35.0693C79.7314 34.4736 80.0065 33.9788 80.5566 33.585C81.0059 33.2594 81.5576 33.0479 82.2119 32.9502C82.2477 32.9469 82.2754 32.9453 82.2949 32.9453C82.3438 32.9453 82.3828 32.9844 82.4121 33.0625C82.4967 33.3001 82.6937 33.7298 83.0029 34.3516C83.0127 34.3711 83.0176 34.3874 83.0176 34.4004C83.0176 34.4557 82.9883 34.4834 82.9297 34.4834C82.9036 34.4834 82.8597 34.4785 82.7979 34.4688C82.736 34.459 82.6888 34.4541 82.6562 34.4541C82.4219 34.4541 82.2168 34.5078 82.041 34.6152C81.8294 34.7389 81.7236 34.9115 81.7236 35.1328C81.7236 35.3314 81.8408 35.5755 82.0752 35.8652C82.4886 36.3861 82.7051 36.6595 82.7246 36.6855C82.9557 37.0436 83.0713 37.4001 83.0713 37.7549ZM93.1641 36.583C93.1641 37.5986 92.8402 38.4499 92.1924 39.1367C91.5316 39.8333 90.695 40.1816 89.6826 40.1816C88.6768 40.1816 87.8418 39.8301 87.1777 39.127C86.5267 38.4401 86.2012 37.5921 86.2012 36.583C86.2012 35.5706 86.5267 34.7194 87.1777 34.0293C87.8418 33.3229 88.6768 32.9697 89.6826 32.9697C90.682 32.9697 91.5153 33.3229 92.1826 34.0293C92.8369 34.7259 93.1641 35.5771 93.1641 36.583ZM91.3135 36.5732C91.3135 36.085 91.1654 35.6699 90.8691 35.3281C90.5599 34.9701 90.1644 34.791 89.6826 34.791C89.2236 34.791 88.8346 34.9766 88.5156 35.3477C88.2064 35.7057 88.0518 36.1175 88.0518 36.583C88.0518 37.0811 88.1966 37.4961 88.4863 37.8281C88.7923 38.1764 89.1911 38.3506 89.6826 38.3506C90.1416 38.3506 90.5322 38.1667 90.8545 37.7988C91.1605 37.4473 91.3135 37.0387 91.3135 36.5732ZM101.436 34.7422C101.436 34.778 101.403 34.7959 101.338 34.7959C101.094 34.7959 100.723 34.7747 100.225 34.7324C99.7298 34.6901 99.3587 34.6689 99.1113 34.6689C98.7988 34.6689 98.6165 34.6803 98.5645 34.7031C98.444 34.7585 98.3838 34.9147 98.3838 35.1719C98.3838 35.4811 98.4619 35.6569 98.6182 35.6992C98.6833 35.7155 98.7826 35.7236 98.916 35.7236C99.1406 35.7236 99.4759 35.7122 99.9219 35.6895C100.371 35.6634 100.708 35.6504 100.933 35.6504C101.04 35.6504 101.094 35.9368 101.094 36.5098C101.094 37.0078 101.076 37.2975 101.04 37.3789C101.017 37.4375 100.973 37.4668 100.908 37.4668C100.951 37.4668 100.848 37.4554 100.601 37.4326C100.252 37.4001 99.7249 37.3838 99.0186 37.3838C98.7907 37.3838 98.6621 37.3854 98.6328 37.3887C98.4668 37.4147 98.3838 37.4847 98.3838 37.5986C98.3838 38.0609 98.4033 38.5931 98.4424 39.1953C98.4749 39.7389 98.4912 39.9814 98.4912 39.9229C98.4912 40.0075 98.3887 40.0563 98.1836 40.0693C98.2389 40.0661 98.0941 40.0645 97.749 40.0645C97.1403 40.0645 96.748 40.0433 96.5723 40.001C96.4779 39.9782 96.4307 39.9277 96.4307 39.8496C96.4307 39.4883 96.4421 38.9463 96.4648 38.2236C96.4909 37.4977 96.5039 36.9541 96.5039 36.5928C96.5039 36.1631 96.4844 35.6227 96.4453 34.9717C96.3867 33.9658 96.3558 33.4255 96.3525 33.3506L96.3477 33.292C96.3444 33.2106 96.3932 33.1699 96.4941 33.1699C96.735 33.1699 97.098 33.1748 97.583 33.1846C98.0713 33.1943 98.4375 33.1992 98.6816 33.1992C98.9421 33.1992 99.3327 33.1797 99.8535 33.1406C100.378 33.1016 100.77 33.082 101.03 33.082C101.193 33.082 101.284 33.1488 101.304 33.2822C101.304 33.4222 101.31 33.6322 101.323 33.9121C101.33 33.9837 101.351 34.1221 101.387 34.3271C101.419 34.5062 101.436 34.6445 101.436 34.7422ZM109.272 34.6445C109.272 34.7096 109.237 34.7422 109.165 34.7422C109.041 34.7422 108.551 34.7178 107.695 34.6689C107.676 35.4925 107.666 36.0671 107.666 36.3926C107.666 36.7767 107.681 37.3545 107.71 38.126C107.743 38.8975 107.759 39.4753 107.759 39.8594C107.759 39.9212 107.744 39.9603 107.715 39.9766C107.705 39.9831 107.66 39.9912 107.578 40.001C107.383 40.027 107.096 40.04 106.719 40.04C106.299 40.04 106.004 40.027 105.835 40.001C105.744 39.9847 105.698 39.9342 105.698 39.8496C105.698 39.4655 105.715 38.8893 105.747 38.1211C105.78 37.3529 105.796 36.7767 105.796 36.3926C105.796 36.1387 105.783 35.5723 105.757 34.6934C105.106 34.7585 104.587 34.791 104.199 34.791C104.147 34.791 104.121 34.7747 104.121 34.7422C104.121 34.6999 104.144 34.5745 104.189 34.3662C104.242 34.1383 104.271 34 104.277 33.9512C104.287 33.7982 104.299 33.6452 104.312 33.4922C104.334 33.248 104.373 33.126 104.429 33.126C104.435 33.126 104.458 33.1276 104.497 33.1309C105.024 33.1992 105.804 33.2334 106.836 33.2334C107.129 33.2334 107.669 33.2025 108.457 33.1406C108.88 33.1081 109.093 33.0918 109.097 33.0918C109.162 33.0918 109.199 33.0967 109.209 33.1064C109.219 33.113 109.225 33.1439 109.229 33.1992C109.229 33.2871 109.225 33.4092 109.219 33.5654C109.212 33.738 109.209 33.86 109.209 33.9316C109.209 34.013 109.219 34.1335 109.238 34.293C109.261 34.4492 109.272 34.5664 109.272 34.6445ZM120.972 35.6504C120.972 35.6602 120.669 36.3161 120.063 37.6182C119.448 38.9463 119.097 39.6934 119.009 39.8594C118.979 39.918 118.962 39.9505 118.955 39.957C118.942 39.9733 118.911 39.988 118.862 40.001C118.781 40.0205 118.55 40.0303 118.169 40.0303C117.814 40.0303 117.598 40.0205 117.52 40.001C117.454 39.9847 117.415 39.9717 117.402 39.9619C117.389 39.9521 117.368 39.9212 117.339 39.8691C117.319 39.8333 117.227 39.6038 117.061 39.1807L116.528 37.8232L115.986 39.1953C115.931 39.3516 115.84 39.5762 115.713 39.8691C115.68 39.9245 115.658 39.9587 115.645 39.9717C115.632 39.9814 115.594 39.9912 115.532 40.001C115.422 40.0205 115.208 40.0303 114.893 40.0303C114.502 40.0303 114.268 40.0205 114.189 40.001C114.134 39.988 114.089 39.9408 114.053 39.8594C112.777 37.2389 112.139 35.8359 112.139 35.6504C112.139 35.39 112.147 35.001 112.163 34.4834C112.183 33.9626 112.192 33.5719 112.192 33.3115C112.192 33.2041 112.225 33.1504 112.29 33.1504C112.476 33.1504 112.756 33.1585 113.13 33.1748C113.507 33.1911 113.791 33.1992 113.979 33.1992C114.054 33.1992 114.092 33.2301 114.092 33.292C114.092 33.5524 114.079 33.9463 114.053 34.4736C114.03 34.9977 114.019 35.39 114.019 35.6504C114.019 35.748 114.137 36.0589 114.375 36.583C114.59 37.0518 114.746 37.3691 114.844 37.5352C114.893 37.6198 114.925 37.6621 114.941 37.6621C114.967 37.6621 115.034 37.5059 115.142 37.1934C115.448 36.3177 115.604 35.8001 115.61 35.6406C115.623 35.3411 115.625 34.9603 115.615 34.498C115.605 33.8307 115.601 33.4482 115.601 33.3506C115.601 33.2887 115.605 33.2529 115.615 33.2432C115.625 33.2301 115.661 33.2188 115.723 33.209C115.889 33.1895 116.175 33.1797 116.582 33.1797C117.204 33.1797 117.515 33.2236 117.515 33.3115C117.515 33.5296 117.507 33.8682 117.49 34.3271C117.474 34.7731 117.467 35.1117 117.471 35.3428V35.5918C117.471 35.7578 117.638 36.2868 117.974 37.1787C118.088 37.488 118.156 37.6426 118.179 37.6426C118.195 37.6426 118.228 37.6003 118.276 37.5156C118.368 37.3561 118.514 37.0404 118.716 36.5684C118.94 36.054 119.053 35.748 119.053 35.6504C119.053 35.3867 119.04 34.9928 119.014 34.4688C118.991 33.9414 118.979 33.5475 118.979 33.2871C118.979 33.2285 119.017 33.1992 119.092 33.1992C119.284 33.1992 119.572 33.1911 119.956 33.1748C120.343 33.1585 120.633 33.1504 120.825 33.1504C120.887 33.1504 120.918 33.2155 120.918 33.3457C120.918 33.6029 120.926 33.9886 120.942 34.5029C120.962 35.014 120.972 35.3965 120.972 35.6504ZM130.635 39.8789C130.635 39.9375 130.594 39.9782 130.513 40.001C130.415 40.027 130.112 40.04 129.604 40.04C129.139 40.04 128.84 40.027 128.706 40.001C128.595 39.9782 128.525 39.9049 128.496 39.7812C128.385 39.3125 128.299 39.0618 128.237 39.0293C128.185 39.0065 127.749 38.9951 126.929 38.9951C126.375 38.9951 126.081 39.0098 126.045 39.0391C125.99 39.0911 125.928 39.2653 125.859 39.5615C125.798 39.8317 125.723 39.9782 125.635 40.001C125.524 40.027 125.153 40.04 124.521 40.04C124.023 40.04 123.774 39.9928 123.774 39.8984C123.774 39.8138 124.142 38.7738 124.878 36.7783C125.675 34.6201 126.108 33.4336 126.177 33.2188C126.216 33.0951 126.261 33.0332 126.313 33.0332C126.401 33.0332 126.536 33.0413 126.719 33.0576C126.904 33.0739 127.043 33.082 127.134 33.082C127.222 33.082 127.35 33.0771 127.52 33.0674C127.692 33.0544 127.821 33.0479 127.905 33.0479C127.967 33.0479 128.024 33.1016 128.076 33.209C128.236 33.5508 128.701 34.7227 129.473 36.7246C130.247 38.7396 130.635 39.791 130.635 39.8789ZM127.173 35.4307C127.104 35.5739 126.989 35.8848 126.826 36.3633C126.65 36.8711 126.562 37.1689 126.562 37.2568C126.562 37.3154 126.66 37.348 126.855 37.3545C126.956 37.361 127.122 37.3643 127.354 37.3643C127.568 37.3643 127.687 37.3382 127.71 37.2861C127.716 37.2699 127.72 37.2471 127.72 37.2178C127.72 37.1104 127.645 36.8141 127.495 36.3291C127.349 35.8604 127.241 35.5609 127.173 35.4307ZM139.458 39.9521C139.458 39.9749 139.425 39.9912 139.36 40.001C139.237 40.0205 138.926 40.0303 138.428 40.0303C138.001 40.0303 137.712 40.0205 137.559 40.001C137.487 39.9912 137.446 39.9831 137.437 39.9766C137.417 39.9668 137.394 39.9342 137.368 39.8789C137.319 39.752 137.248 39.5632 137.153 39.3125C137.026 38.987 136.828 38.5068 136.558 37.8721C136.499 37.7451 136.364 37.6751 136.152 37.6621C136.25 37.6686 136.082 37.6719 135.649 37.6719C135.601 37.6719 135.576 37.7549 135.576 37.9209C135.576 38.1423 135.596 38.4727 135.635 38.9121C135.677 39.3516 135.698 39.682 135.698 39.9033C135.698 39.9587 135.684 39.9912 135.654 40.001C135.609 40.0042 135.563 40.0075 135.518 40.0107C135.326 40.0238 135.026 40.0303 134.619 40.0303C134.154 40.0303 133.874 40.0205 133.779 40.001C133.685 39.9814 133.638 39.931 133.638 39.8496C133.638 39.4915 133.654 38.9512 133.687 38.2285C133.722 37.5059 133.74 36.9639 133.74 36.6025C133.74 35.2256 133.709 34.1514 133.647 33.3799L133.643 33.3115C133.639 33.2562 133.69 33.2188 133.794 33.1992C133.901 33.1797 134.399 33.1602 135.288 33.1406C135.89 33.1276 136.37 33.1211 136.729 33.1211C137.471 33.1211 138.076 33.2887 138.545 33.624C139.076 34.0016 139.341 34.5469 139.341 35.2598C139.341 35.735 139.272 36.1143 139.136 36.3975C138.999 36.6807 138.747 36.9557 138.379 37.2227C138.304 37.2747 138.267 37.3236 138.267 37.3691C138.267 37.3659 138.465 37.7744 138.862 38.5947C139.259 39.415 139.458 39.8675 139.458 39.9521ZM137.407 35.5723C137.407 35.1751 137.277 34.9001 137.017 34.7471C136.815 34.6299 136.499 34.5713 136.069 34.5713C135.76 34.5713 135.596 34.6185 135.576 34.7129C135.557 34.8236 135.547 35.1426 135.547 35.6699C135.547 35.7448 135.549 35.8555 135.552 36.002C135.555 36.1484 135.557 36.2575 135.557 36.3291C135.557 36.3454 135.609 36.3617 135.713 36.3779C135.911 36.4072 136.12 36.4219 136.338 36.4219C137.051 36.4219 137.407 36.1387 137.407 35.5723ZM147.515 38.4824C147.515 38.6224 147.487 38.8796 147.432 39.2539C147.373 39.6608 147.321 39.9033 147.275 39.9814C147.236 40.0433 147.183 40.0742 147.114 40.0742C147.085 40.0742 147.036 40.0693 146.968 40.0596C146.73 40.027 146.037 40.0107 144.888 40.0107C144.637 40.0107 144.264 40.0091 143.77 40.0059C143.275 40.0026 142.904 40.001 142.656 40.001C142.549 40.001 142.495 39.9538 142.495 39.8594C142.495 39.4948 142.515 38.9479 142.554 38.2188C142.596 37.4863 142.617 36.9378 142.617 36.5732C142.617 36.2021 142.598 35.5104 142.559 34.498C142.549 34.2376 142.531 33.8486 142.505 33.3311L142.5 33.2627C142.493 33.1878 142.534 33.1504 142.622 33.1504C142.863 33.1504 143.224 33.1569 143.706 33.1699C144.191 33.1829 144.554 33.1895 144.795 33.1895C145.033 33.1895 145.391 33.1829 145.869 33.1699C146.348 33.1569 146.706 33.1504 146.943 33.1504C147.113 33.1504 147.21 33.2139 147.236 33.3408C147.253 33.4157 147.277 33.6436 147.31 34.0244C147.345 34.402 147.363 34.6315 147.363 34.7129C147.363 34.7812 147.331 34.8154 147.266 34.8154C147.246 34.8154 147.212 34.8138 147.163 34.8105C146.297 34.7389 145.519 34.7031 144.829 34.7031C144.657 34.7031 144.551 34.7438 144.512 34.8252C144.495 34.8643 144.487 34.9896 144.487 35.2012C144.487 35.4225 144.52 35.569 144.585 35.6406C144.64 35.7025 144.746 35.7334 144.902 35.7334C144.935 35.7334 144.998 35.7318 145.093 35.7285C145.187 35.722 145.265 35.7188 145.327 35.7188C145.737 35.7188 146.152 35.7074 146.572 35.6846C146.608 35.6813 146.698 35.6732 146.841 35.6602C146.951 35.6471 147.039 35.6406 147.104 35.6406C147.183 35.6406 147.222 35.6781 147.222 35.7529C147.222 35.6846 147.192 35.9336 147.134 36.5C147.108 36.7604 147.095 37.0208 147.095 37.2812C147.095 37.3464 147.048 37.3789 146.953 37.3789C146.953 37.3789 146.807 37.3626 146.514 37.3301C146.328 37.3105 145.905 37.3008 145.244 37.3008H144.727C144.593 37.3008 144.515 37.3333 144.492 37.3984C144.489 37.4147 144.487 37.5156 144.487 37.7012C144.487 37.9486 144.504 38.1081 144.536 38.1797C144.591 38.3034 144.8 38.3766 145.161 38.3994C145.155 38.3994 145.392 38.3994 145.874 38.3994C146.047 38.3994 146.302 38.3848 146.641 38.3555C146.982 38.3229 147.238 38.3066 147.407 38.3066C147.479 38.3066 147.515 38.3652 147.515 38.4824Z" fill="#3457D5"/>
<path d="M50.8445 47.7549C50.8445 48.4157 50.5662 48.9821 50.0096 49.4541C49.5213 49.8708 48.9272 50.1361 48.2273 50.25C48.2013 50.2533 48.1801 50.2549 48.1639 50.2549C48.089 50.2549 47.923 50.027 47.6658 49.5713C47.4087 49.1123 47.2801 48.8324 47.2801 48.7314C47.2801 48.6956 47.3045 48.6729 47.3533 48.6631C47.8253 48.5557 48.1378 48.4645 48.2908 48.3896C48.6294 48.2204 48.7986 47.9697 48.7986 47.6377C48.7986 47.4261 48.688 47.1901 48.4666 46.9297C48.0825 46.487 47.8742 46.2412 47.8416 46.1924C47.617 45.8538 47.5047 45.4795 47.5047 45.0693C47.5047 44.4736 47.7798 43.9788 48.3299 43.585C48.7791 43.2594 49.3309 43.0479 49.9852 42.9502C50.021 42.9469 50.0486 42.9453 50.0682 42.9453C50.117 42.9453 50.1561 42.9844 50.1854 43.0625C50.27 43.3001 50.4669 43.7298 50.7762 44.3516C50.7859 44.3711 50.7908 44.3874 50.7908 44.4004C50.7908 44.4557 50.7615 44.4834 50.7029 44.4834C50.6769 44.4834 50.6329 44.4785 50.5711 44.4688C50.5092 44.459 50.462 44.4541 50.4295 44.4541C50.1951 44.4541 49.99 44.5078 49.8143 44.6152C49.6027 44.7389 49.4969 44.9115 49.4969 45.1328C49.4969 45.3314 49.6141 45.5755 49.8484 45.8652C50.2618 46.3861 50.4783 46.6595 50.4979 46.6855C50.729 47.0436 50.8445 47.4001 50.8445 47.7549ZM64.6373 46.583C64.6373 47.5986 64.3134 48.4499 63.6656 49.1367C63.0048 49.8333 62.1682 50.1816 61.1559 50.1816C60.15 50.1816 59.315 49.8301 58.651 49.127C57.9999 48.4401 57.6744 47.5921 57.6744 46.583C57.6744 45.5706 57.9999 44.7194 58.651 44.0293C59.315 43.3229 60.15 42.9697 61.1559 42.9697C62.1552 42.9697 62.9885 43.3229 63.6559 44.0293C64.3102 44.7259 64.6373 45.5771 64.6373 46.583ZM62.7867 46.5732C62.7867 46.085 62.6386 45.6699 62.3424 45.3281C62.0331 44.9701 61.6376 44.791 61.1559 44.791C60.6969 44.791 60.3079 44.9766 59.9889 45.3477C59.6796 45.7057 59.525 46.1175 59.525 46.583C59.525 47.0811 59.6699 47.4961 59.9596 47.8281C60.2656 48.1764 60.6643 48.3506 61.1559 48.3506C61.6148 48.3506 62.0055 48.1667 62.3277 47.7988C62.6337 47.4473 62.7867 47.0387 62.7867 46.5732ZM76.0521 50.084C75.7722 50.084 75.4076 50.0775 74.9584 50.0645C74.3725 50.0514 74.0079 50.0433 73.8646 50.04L72.4047 50.0205C72.2582 50.0238 72.0482 50.0173 71.7748 50.001C71.6804 49.9847 71.6332 49.9342 71.6332 49.8496C71.6332 49.4948 71.6381 48.9642 71.6479 48.2578C71.6609 47.5482 71.6674 47.016 71.6674 46.6611C71.6674 46.2835 71.656 45.7188 71.6332 44.9668C71.6104 44.2116 71.599 43.6452 71.599 43.2676C71.599 43.196 71.6479 43.1602 71.7455 43.1602C71.8432 43.1602 71.988 43.165 72.1801 43.1748C72.3754 43.1846 72.5202 43.1895 72.6146 43.1895C72.7221 43.1895 72.8816 43.1846 73.0932 43.1748C73.3048 43.1618 73.4643 43.1553 73.5717 43.1553C73.6205 43.1553 73.6433 43.1862 73.64 43.248L73.6352 43.3115C73.5961 43.9235 73.5521 44.8431 73.5033 46.0703L73.4984 47.3594C73.4984 47.776 73.5001 48.0804 73.5033 48.2725C73.5066 48.3115 73.5098 48.3506 73.5131 48.3896C73.5163 48.4287 73.5408 48.4531 73.5863 48.4629C73.5896 48.4629 73.6319 48.4629 73.7133 48.4629C74.0063 48.4629 74.4441 48.4482 75.0268 48.4189C75.6127 48.3864 76.0521 48.3701 76.3451 48.3701C76.433 48.3701 76.477 48.4076 76.477 48.4824C76.477 49.0391 76.4363 49.5192 76.3549 49.9229C76.3386 50.0075 76.3044 50.0579 76.2523 50.0742C76.2361 50.0807 76.1693 50.084 76.0521 50.084ZM89.0637 47.6035C89.0637 48.4336 88.9644 49 88.7658 49.3027C88.4012 49.8561 87.4914 50.1328 86.0363 50.1328C85.3788 50.1328 84.8726 50.0824 84.5178 49.9814C83.9514 49.8187 83.5835 49.5078 83.4143 49.0488C83.3296 48.8242 83.2873 48.4238 83.2873 47.8477C83.2873 47.7142 83.2922 47.5156 83.302 47.252C83.3117 46.9883 83.3166 46.7913 83.3166 46.6611C83.3166 46.2835 83.2987 45.7171 83.2629 44.9619C83.2271 44.2067 83.2092 43.6419 83.2092 43.2676C83.2092 43.1895 83.2434 43.1504 83.3117 43.1504C83.5103 43.1504 83.8098 43.1585 84.2102 43.1748C84.6138 43.1911 84.9149 43.1992 85.1135 43.1992C85.1949 43.1992 85.2355 43.235 85.2355 43.3066C85.2355 43.7363 85.2209 44.3809 85.1916 45.2402C85.1656 46.0964 85.1525 46.7393 85.1525 47.1689C85.1525 47.68 85.2062 48.0251 85.3137 48.2041C85.4569 48.4482 85.7564 48.5703 86.2121 48.5703C86.8794 48.5703 87.2131 48.2464 87.2131 47.5986C87.2131 47.1266 87.2017 46.4186 87.1789 45.4746C87.1561 44.5306 87.1447 43.8226 87.1447 43.3506C87.1447 43.2497 87.1854 43.1992 87.2668 43.1992C87.4589 43.1992 87.7486 43.1911 88.1359 43.1748C88.5233 43.1585 88.813 43.1504 89.0051 43.1504C89.0995 43.1504 89.1467 43.1895 89.1467 43.2676C89.1467 43.6419 89.1304 44.2067 89.0979 44.9619C89.0686 45.7171 89.0539 46.2835 89.0539 46.6611C89.0539 46.7653 89.0555 46.9232 89.0588 47.1348C89.062 47.3431 89.0637 47.4993 89.0637 47.6035ZM100.986 44.6445C100.986 44.7096 100.951 44.7422 100.879 44.7422C100.755 44.7422 100.265 44.7178 99.4092 44.6689C99.3896 45.4925 99.3799 46.0671 99.3799 46.3926C99.3799 46.7767 99.3945 47.3545 99.4238 48.126C99.4564 48.8975 99.4727 49.4753 99.4727 49.8594C99.4727 49.9212 99.458 49.9603 99.4287 49.9766C99.4189 49.9831 99.3734 49.9912 99.292 50.001C99.0967 50.027 98.8102 50.04 98.4326 50.04C98.0127 50.04 97.7181 50.027 97.5488 50.001C97.4577 49.9847 97.4121 49.9342 97.4121 49.8496C97.4121 49.4655 97.4284 48.8893 97.4609 48.1211C97.4935 47.3529 97.5098 46.7767 97.5098 46.3926C97.5098 46.1387 97.4967 45.5723 97.4707 44.6934C96.8197 44.7585 96.3005 44.791 95.9131 44.791C95.861 44.791 95.835 44.7747 95.835 44.7422C95.835 44.6999 95.8577 44.5745 95.9033 44.3662C95.9554 44.1383 95.9847 44 95.9912 43.9512C96.001 43.7982 96.0124 43.6452 96.0254 43.4922C96.0482 43.248 96.0872 43.126 96.1426 43.126C96.1491 43.126 96.1719 43.1276 96.2109 43.1309C96.7383 43.1992 97.5179 43.2334 98.5498 43.2334C98.8428 43.2334 99.3831 43.2025 100.171 43.1406C100.594 43.1081 100.807 43.0918 100.811 43.0918C100.876 43.0918 100.913 43.0967 100.923 43.1064C100.933 43.113 100.939 43.1439 100.942 43.1992C100.942 43.2871 100.939 43.4092 100.933 43.5654C100.926 43.738 100.923 43.86 100.923 43.9316C100.923 44.013 100.933 44.1335 100.952 44.293C100.975 44.4492 100.986 44.5664 100.986 44.6445ZM109.696 46.3926C109.696 46.7767 109.706 47.3545 109.725 48.126C109.745 48.8975 109.755 49.4753 109.755 49.8594C109.755 49.9245 109.74 49.9652 109.711 49.9814C109.704 49.9847 109.662 49.9912 109.584 50.001C109.372 50.027 109.089 50.04 108.734 50.04C108.259 50.04 107.956 50.027 107.826 50.001C107.732 49.9814 107.684 49.931 107.684 49.8496C107.684 49.9017 107.699 49.6152 107.728 48.9902C107.787 47.6719 107.816 46.806 107.816 46.3926C107.816 46.0443 107.805 45.5218 107.782 44.8252C107.759 44.1286 107.748 43.6061 107.748 43.2578C107.748 43.1862 107.785 43.1504 107.86 43.1504C107.961 43.1504 108.112 43.1553 108.314 43.165C108.519 43.1748 108.672 43.1797 108.773 43.1797C108.874 43.1797 109.022 43.1748 109.218 43.165C109.416 43.1553 109.566 43.1504 109.667 43.1504C109.761 43.1504 109.808 43.1862 109.808 43.2578C109.808 43.6061 109.789 44.1286 109.75 44.8252C109.714 45.5218 109.696 46.0443 109.696 46.3926ZM123.674 46.583C123.674 47.5986 123.351 48.4499 122.703 49.1367C122.042 49.8333 121.205 50.1816 120.193 50.1816C119.187 50.1816 118.352 49.8301 117.688 49.127C117.037 48.4401 116.712 47.5921 116.712 46.583C116.712 45.5706 117.037 44.7194 117.688 44.0293C118.352 43.3229 119.187 42.9697 120.193 42.9697C121.192 42.9697 122.026 43.3229 122.693 44.0293C123.347 44.7259 123.674 45.5771 123.674 46.583ZM121.824 46.5732C121.824 46.085 121.676 45.6699 121.379 45.3281C121.07 44.9701 120.675 44.791 120.193 44.791C119.734 44.791 119.345 44.9766 119.026 45.3477C118.717 45.7057 118.562 46.1175 118.562 46.583C118.562 47.0811 118.707 47.4961 118.997 47.8281C119.303 48.1764 119.701 48.3506 120.193 48.3506C120.652 48.3506 121.043 48.1667 121.365 47.7988C121.671 47.4473 121.824 47.0387 121.824 46.5732ZM137.135 43.3018C137.135 43.6729 137.119 44.2311 137.086 44.9766C137.057 45.7188 137.042 46.277 137.042 46.6514V49.8691C137.042 49.957 136.995 50.001 136.901 50.001C136.823 50.001 136.704 50.0042 136.544 50.0107C136.388 50.0173 136.271 50.0205 136.193 50.0205C136.108 50.0205 135.981 50.014 135.812 50.001C135.643 49.988 135.516 49.9814 135.431 49.9814C135.372 49.9814 135.302 49.9277 135.221 49.8203C134.987 49.5046 134.459 48.8047 133.639 47.7207C133.414 47.418 133.073 46.972 132.614 46.3828C132.601 46.3633 132.576 46.3438 132.54 46.3242C132.514 46.347 132.501 46.3828 132.501 46.4316C132.501 46.8092 132.511 47.3757 132.531 48.1309C132.553 48.8861 132.565 49.4525 132.565 49.8301C132.565 49.944 132.521 50.001 132.433 50.001H130.744C130.649 50.001 130.602 49.9505 130.602 49.8496C130.602 49.498 130.618 48.9674 130.651 48.2578C130.687 47.5482 130.704 47.016 130.704 46.6611C130.704 46.2868 130.688 45.7269 130.656 44.9814C130.626 44.236 130.612 43.6777 130.612 43.3066C130.612 43.235 130.675 43.1992 130.802 43.1992C130.991 43.1992 131.224 43.1862 131.5 43.1602C131.566 43.1536 131.694 43.1325 131.886 43.0967C132.049 43.0674 132.177 43.0527 132.272 43.0527C132.311 43.0527 132.371 43.1081 132.453 43.2188L134.274 45.7139C134.437 45.9385 134.682 46.2673 135.011 46.7002C135.093 46.8011 135.163 46.8516 135.221 46.8516C135.263 46.8516 135.285 46.7246 135.285 46.4707C135.285 46.1289 135.265 45.6146 135.226 44.9277C135.19 44.2409 135.172 43.7249 135.172 43.3799C135.172 43.2594 135.206 43.1992 135.275 43.1992C135.47 43.1992 135.765 43.1911 136.159 43.1748C136.552 43.1585 136.847 43.1504 137.042 43.1504C137.104 43.1504 137.135 43.2008 137.135 43.3018ZM147.573 47.7549C147.573 48.4157 147.295 48.9821 146.738 49.4541C146.25 49.8708 145.656 50.1361 144.956 50.25C144.93 50.2533 144.909 50.2549 144.893 50.2549C144.818 50.2549 144.652 50.027 144.395 49.5713C144.138 49.1123 144.009 48.8324 144.009 48.7314C144.009 48.6956 144.033 48.6729 144.082 48.6631C144.554 48.5557 144.867 48.4645 145.02 48.3896C145.358 48.2204 145.528 47.9697 145.528 47.6377C145.528 47.4261 145.417 47.1901 145.196 46.9297C144.811 46.487 144.603 46.2412 144.571 46.1924C144.346 45.8538 144.234 45.4795 144.234 45.0693C144.234 44.4736 144.509 43.9788 145.059 43.585C145.508 43.2594 146.06 43.0479 146.714 42.9502C146.75 42.9469 146.778 42.9453 146.797 42.9453C146.846 42.9453 146.885 42.9844 146.914 43.0625C146.999 43.3001 147.196 43.7298 147.505 44.3516C147.515 44.3711 147.52 44.3874 147.52 44.4004C147.52 44.4557 147.49 44.4834 147.432 44.4834C147.406 44.4834 147.362 44.4785 147.3 44.4688C147.238 44.459 147.191 44.4541 147.158 44.4541C146.924 44.4541 146.719 44.5078 146.543 44.6152C146.332 44.7389 146.226 44.9115 146.226 45.1328C146.226 45.3314 146.343 45.5755 146.577 45.8652C146.991 46.3861 147.207 46.6595 147.227 46.6855C147.458 47.0436 147.573 47.4001 147.573 47.7549Z" fill="#3457D5"/>
<path d="M13.6125 15.3315C13.6232 15.3924 13.6059 15.4533 13.5604 15.5142C13.515 15.5751 13.4602 15.6112 13.3961 15.6225C13.2422 15.6496 13.0117 15.6919 12.7045 15.7494C12.3973 15.8069 12.1668 15.8492 12.0129 15.8763C11.8943 15.8972 11.8275 15.8561 11.8126 15.7529L11.8081 15.6992C11.6371 14.4667 11.5287 13.7206 11.4829 13.4609L11.2311 12.0328C11.2152 11.943 11.1865 11.9018 11.1448 11.9091C11.0807 11.9205 10.9863 11.9569 10.8616 12.0186C10.7402 12.0797 10.6458 12.1161 10.5785 12.128C10.4791 12.1455 10.419 12.095 10.3981 11.9764C10.3788 11.8674 10.3484 11.7042 10.3068 11.4867C10.2651 11.2693 10.2344 11.1045 10.2146 10.9923C10.2033 10.9282 10.2349 10.873 10.3094 10.8268C10.7462 10.5482 11.0701 10.22 11.2811 9.84235C11.3238 9.76542 11.3643 9.72357 11.4028 9.71678C11.4092 9.71565 11.429 9.71547 11.4622 9.71623C11.5885 9.72039 11.7767 9.72853 12.0268 9.74063C12.1578 9.73405 12.3504 9.72983 12.6046 9.72798C12.6518 9.73289 12.6804 9.7642 12.6906 9.8219C12.694 9.84114 12.6967 9.87536 12.6988 9.92458C12.7133 10.2129 12.8175 10.9069 13.0113 12.0064C13.0763 12.3751 13.1757 12.9294 13.3095 13.6694C13.4465 14.4088 13.5475 14.9628 13.6125 15.3315ZM22.1358 11.0867C22.2816 11.9138 22.1391 12.6711 21.7083 13.3585C21.2623 14.0718 20.6289 14.5008 19.8082 14.6455C18.9876 14.7903 18.2473 14.6035 17.5873 14.0852C16.9442 13.5871 16.5497 12.9245 16.4039 12.0974C16.2575 11.2671 16.4018 10.5112 16.837 9.82955C17.2815 9.12644 17.9141 8.70253 18.7348 8.55782C19.5555 8.41311 20.2949 8.59509 20.9531 9.10375C21.5957 9.59865 21.9899 10.2596 22.1358 11.0867ZM20.3518 11.4013C20.2935 11.0711 20.1468 10.8011 19.9115 10.5914C19.6605 10.3679 19.3731 10.2847 19.0494 10.3418C18.7192 10.4 18.4757 10.5752 18.319 10.8673C18.1717 11.1378 18.128 11.443 18.1879 11.7828C18.2467 12.1162 18.3924 12.3897 18.6251 12.6032C18.8771 12.8331 19.1667 12.9192 19.4937 12.8615C19.8078 12.8062 20.0467 12.6236 20.2102 12.3138C20.3617 12.0292 20.4088 11.7251 20.3518 11.4013ZM18.4102 22.9133C18.556 23.7404 18.4135 24.4977 17.9827 25.1852C17.5367 25.8985 16.9033 26.3275 16.0826 26.4722C15.262 26.6169 14.5217 26.4301 13.8618 25.9118C13.2186 25.4137 12.8241 24.7511 12.6783 23.924C12.5319 23.0937 12.6762 22.3378 13.1114 21.6562C13.5559 20.9531 14.1885 20.5291 15.0092 20.3844C15.8299 20.2397 16.5693 20.4217 17.2276 20.9304C17.8701 21.4253 18.2643 22.0863 18.4102 22.9133ZM16.6262 23.2279C16.5679 22.8977 16.4212 22.6278 16.1859 22.418C15.9349 22.1945 15.6476 22.1113 15.3238 22.1684C14.9936 22.2267 14.7501 22.4018 14.5934 22.6939C14.4461 22.9645 14.4024 23.2696 14.4623 23.6095C14.5211 23.9429 14.6668 24.2163 14.8995 24.4298C15.1515 24.6597 15.4411 24.7458 15.7681 24.6882C16.0822 24.6328 16.3211 24.4502 16.4846 24.1404C16.6361 23.8558 16.6833 23.5517 16.6262 23.2279ZM24.1878 24.6364C24.1985 24.6973 24.1812 24.7583 24.1357 24.8192C24.0903 24.8801 24.0355 24.9162 23.9714 24.9275C23.8175 24.9546 23.587 24.9969 23.2798 25.0544C22.9726 25.1118 22.742 25.1541 22.5882 25.1813C22.4696 25.2022 22.4028 25.1611 22.3879 25.0579L22.3834 25.0042C22.2124 23.7717 22.1039 23.0256 22.0582 22.7659L21.8063 21.3378C21.7905 21.248 21.7618 21.2068 21.7201 21.2141C21.656 21.2254 21.5616 21.2619 21.4369 21.3236C21.3155 21.3846 21.2211 21.4211 21.1538 21.433C21.0544 21.4505 20.9943 21.4 20.9733 21.2813C20.9541 21.1724 20.9237 21.0091 20.882 20.7917C20.8404 20.5743 20.8097 20.4095 20.7899 20.2973C20.7786 20.2332 20.8102 20.178 20.8847 20.1318C21.3214 19.8532 21.6454 19.525 21.8564 19.1473C21.899 19.0704 21.9396 19.0286 21.9781 19.0218C21.9845 19.0206 22.0043 19.0205 22.0375 19.0212C22.1638 19.0254 22.352 19.0335 22.602 19.0456C22.7331 19.039 22.9257 19.0348 23.1799 19.033C23.2271 19.0379 23.2557 19.0692 23.2659 19.1269C23.2693 19.1461 23.272 19.1803 23.2741 19.2296C23.2886 19.5179 23.3927 20.2118 23.5866 21.3114C23.6516 21.6801 23.751 22.2344 23.8848 22.9743C24.0218 23.7137 24.1228 24.2678 24.1878 24.6364ZM21.7653 36.2333C21.7761 36.2942 21.7587 36.3551 21.7133 36.416C21.6678 36.4769 21.613 36.513 21.5489 36.5243C21.395 36.5514 21.1645 36.5937 20.8573 36.6512C20.5501 36.7087 20.3196 36.751 20.1657 36.7781C20.0471 36.799 19.9804 36.7579 19.9655 36.6548L19.961 36.601C19.7899 35.3685 19.6815 34.6224 19.6357 34.3627L19.3839 32.9346C19.3681 32.8448 19.3393 32.8036 19.2976 32.811C19.2335 32.8223 19.1391 32.8587 19.0145 32.9204C18.893 32.9815 18.7987 33.0179 18.7313 33.0298C18.632 33.0473 18.5718 32.9968 18.5509 32.8782C18.5317 32.7692 18.5012 32.606 18.4596 32.3885C18.418 32.1711 18.3872 32.0063 18.3675 31.8941C18.3562 31.83 18.3877 31.7748 18.4622 31.7287C18.899 31.45 19.2229 31.1218 19.434 30.7442C19.4766 30.6672 19.5172 30.6254 19.5556 30.6186C19.562 30.6175 19.5818 30.6173 19.615 30.618C19.7414 30.6222 19.9296 30.6303 20.1796 30.6424C20.3106 30.6359 20.5033 30.6317 20.7575 30.6298C20.8046 30.6347 20.8333 30.666 20.8434 30.7237C20.8468 30.743 20.8496 30.7772 20.8516 30.8264C20.8661 31.1147 20.9703 31.8087 21.1642 32.9082C21.2292 33.2769 21.3286 33.8312 21.4624 34.5712C21.5993 35.3106 21.7003 35.8646 21.7653 36.2333Z" fill="#3457D5"/>
</svg>
