<svg width="200" height="200" viewBox="0 0 301 300" fill="none" xmlns="http://www.w3.org/2000/svg">
<path d="M252.842 194.226C246.608 204.768 226.574 208.626 215.966 207.96C203.762 207.186 193.928 199.71 185.408 192.36C174.656 183.114 167.864 178.158 152.408 180.648C138.794 182.838 125.876 187.602 112.058 188.448C83.7979 190.248 51.1879 185.934 43.2979 157.176C36.0619 130.806 51.9619 104.376 83.2879 104.484C109.742 104.586 109.688 137.484 138.686 126.936C165.686 117.09 169.886 79.086 203.408 81.99C236.732 84.888 215.096 124.116 216.008 145.416C216.608 159.084 232.442 152.922 242.918 158.538C255.578 165.36 260.732 180.888 252.842 194.226Z" fill="#E76D3B"/>
<path opacity="0.9" d="M252.842 194.226C246.608 204.768 226.574 208.626 215.966 207.96C203.762 207.186 193.928 199.71 185.408 192.36C174.656 183.114 167.864 178.158 152.408 180.648C138.794 182.838 125.876 187.602 112.058 188.448C83.7979 190.248 51.1879 185.934 43.2979 157.176C36.0619 130.806 51.9619 104.376 83.2879 104.484C109.742 104.586 109.688 137.484 138.686 126.936C165.686 117.09 169.886 79.086 203.408 81.99C236.732 84.888 215.096 124.116 216.008 145.416C216.608 159.084 232.442 152.922 242.918 158.538C255.578 165.36 260.732 180.888 252.842 194.226Z" fill="white"/>
<path d="M150.5 256.536C214.749 256.536 266.834 253.495 266.834 249.744C266.834 245.993 214.749 242.952 150.5 242.952C86.2505 242.952 34.166 245.993 34.166 249.744C34.166 253.495 86.2505 256.536 150.5 256.536Z" fill="#F5F5F5"/>
<path d="M185.162 71.94C184.674 70.3277 184.027 68.768 183.23 67.284L184.43 63.354L176.672 55.59L172.742 56.79C171.258 55.9931 169.698 55.3459 168.086 54.858L166.154 51.258H155.174L153.248 54.858C151.635 55.3448 150.076 55.992 148.592 56.79L144.662 55.59L136.898 63.354L138.098 67.284C137.306 68.7694 136.661 70.3289 136.172 71.94L132.542 73.872V84.852L136.172 86.778C136.659 88.3896 137.304 89.9491 138.098 91.434L136.898 95.364L144.662 103.128L148.592 101.928C150.077 102.722 151.636 103.367 153.248 103.854L155.174 107.454H166.154L168.086 103.854C169.697 103.365 171.257 102.72 172.742 101.928L176.672 103.128L184.436 95.364L183.236 91.434C184.034 89.9505 184.681 88.3907 185.168 86.778L188.798 84.852V73.872L185.162 71.94ZM160.664 94.956C157.579 94.956 154.563 94.0411 151.997 92.3269C149.432 90.6128 147.432 88.1764 146.251 85.3259C145.071 82.4753 144.762 79.3387 145.364 76.3126C145.966 73.2865 147.451 70.5068 149.633 68.3251C151.815 66.1434 154.594 64.6577 157.621 64.0557C160.647 63.4538 163.783 63.7628 166.634 64.9435C169.484 66.1242 171.921 68.1237 173.635 70.6891C175.349 73.2545 176.264 76.2706 176.264 79.356C176.264 83.4934 174.62 87.4613 171.695 90.3869C168.769 93.3124 164.801 94.956 160.664 94.956Z" fill="#E76D3B"/>
<path opacity="0.2" d="M185.162 71.94C184.674 70.3277 184.027 68.768 183.23 67.284L184.43 63.354L176.672 55.59L172.742 56.79C171.258 55.9931 169.698 55.3459 168.086 54.858L166.154 51.258H155.174L153.248 54.858C151.635 55.3448 150.076 55.992 148.592 56.79L144.662 55.59L136.898 63.354L138.098 67.284C137.306 68.7694 136.661 70.3289 136.172 71.94L132.542 73.872V84.852L136.172 86.778C136.659 88.3896 137.304 89.9491 138.098 91.434L136.898 95.364L144.662 103.128L148.592 101.928C150.077 102.722 151.636 103.367 153.248 103.854L155.174 107.454H166.154L168.086 103.854C169.697 103.365 171.257 102.72 172.742 101.928L176.672 103.128L184.436 95.364L183.236 91.434C184.034 89.9505 184.681 88.3907 185.168 86.778L188.798 84.852V73.872L185.162 71.94ZM160.664 94.956C157.579 94.956 154.563 94.0411 151.997 92.3269C149.432 90.6128 147.432 88.1764 146.251 85.3259C145.071 82.4753 144.762 79.3387 145.364 76.3126C145.966 73.2865 147.451 70.5068 149.633 68.3251C151.815 66.1434 154.594 64.6577 157.621 64.0557C160.647 63.4538 163.783 63.7628 166.634 64.9435C169.484 66.1242 171.921 68.1237 173.635 70.6891C175.349 73.2545 176.264 76.2706 176.264 79.356C176.264 83.4934 174.62 87.4613 171.695 90.3869C168.769 93.3124 164.801 94.956 160.664 94.956Z" fill="white"/>
<path d="M160.664 74.19C159.641 74.19 158.641 74.4933 157.791 75.0616C156.94 75.6299 156.277 76.4377 155.886 77.3828C155.494 78.3278 155.392 79.3677 155.592 80.371C155.791 81.3743 156.284 82.2958 157.007 83.0192C157.73 83.7425 158.652 84.2351 159.655 84.4346C160.658 84.6342 161.698 84.5318 162.643 84.1403C163.588 83.7488 164.396 83.0859 164.965 82.2354C165.533 81.3849 165.836 80.3849 165.836 79.362C165.836 77.9903 165.291 76.6748 164.321 75.7048C163.351 74.7349 162.036 74.19 160.664 74.19Z" fill="#E76D3B"/>
<path d="M263.3 89.358C262.603 87.053 261.68 84.8223 260.546 82.698L262.262 77.082L251.18 66L245.558 67.722C243.441 66.5747 241.211 65.6498 238.904 64.962L236.15 59.778H220.46L217.7 64.962C215.393 65.6519 213.164 66.5768 211.046 67.722L205.43 66L194.336 77.094L196.052 82.71C194.913 84.8319 193.99 87.0631 193.298 89.37L188.108 92.124V107.814L193.292 110.574C193.983 112.879 194.906 115.109 196.046 117.228L194.33 122.838L205.424 133.932L211.04 132.216C213.16 133.358 215.392 134.278 217.7 134.964L220.46 140.154H236.15L238.904 134.97C241.209 134.277 243.439 133.352 245.558 132.21L251.18 133.926L262.274 122.832L260.558 117.216C261.689 115.094 262.608 112.865 263.3 110.562L268.484 107.802V92.112L263.3 89.358ZM228.302 128.4C222.676 128.4 217.176 126.732 212.498 123.606C207.82 120.48 204.174 116.038 202.021 110.84C199.868 105.642 199.305 99.9224 200.402 94.4045C201.5 88.8865 204.209 83.8179 208.188 79.8396C212.166 75.8614 217.234 73.1522 222.752 72.0546C228.27 70.957 233.99 71.5203 239.188 73.6733C244.386 75.8263 248.828 79.4723 251.954 84.1502C255.08 88.8282 256.748 94.3279 256.748 99.954C256.748 103.69 256.012 107.389 254.583 110.84C253.153 114.291 251.058 117.427 248.416 120.068C245.775 122.71 242.639 124.805 239.188 126.235C235.736 127.664 232.038 128.4 228.302 128.4Z" fill="#E76D3B"/>
<path d="M228.302 75.498C223.464 75.4992 218.735 76.9349 214.713 79.6235C210.692 82.3121 207.557 86.133 205.707 90.603C203.856 95.0729 203.372 99.9912 204.317 104.736C205.262 109.481 207.592 113.839 211.013 117.259C214.434 120.68 218.793 123.009 223.538 123.952C228.283 124.896 233.201 124.411 237.671 122.559C242.14 120.708 245.96 117.572 248.648 113.55C251.336 109.527 252.77 104.798 252.77 99.96C252.762 93.4737 250.182 87.2554 245.595 82.6694C241.007 78.0834 234.789 75.5044 228.302 75.498ZM228.302 121.164C224.108 121.165 220.008 119.923 216.52 117.593C213.032 115.264 210.314 111.953 208.708 108.079C207.102 104.204 206.681 99.9405 207.499 95.827C208.316 91.7134 210.335 87.9347 213.301 84.9686C216.266 82.0026 220.044 79.9825 224.157 79.1639C228.271 78.3452 232.534 78.7648 236.409 80.3695C240.284 81.9742 243.596 84.692 245.926 88.1791C248.256 91.6662 249.5 95.766 249.5 99.96C249.494 105.581 247.259 110.969 243.285 114.944C239.311 118.919 233.923 121.156 228.302 121.164Z" fill="#E76D3B"/>
<path opacity="0.2" d="M228.302 75.498C223.464 75.4992 218.735 76.9349 214.713 79.6235C210.692 82.3121 207.557 86.133 205.707 90.603C203.856 95.0729 203.372 99.9912 204.317 104.736C205.262 109.481 207.592 113.839 211.013 117.259C214.434 120.68 218.793 123.009 223.538 123.952C228.283 124.896 233.201 124.411 237.671 122.559C242.14 120.708 245.96 117.572 248.648 113.55C251.336 109.527 252.77 104.798 252.77 99.96C252.762 93.4737 250.182 87.2554 245.595 82.6694C241.007 78.0834 234.789 75.5044 228.302 75.498ZM228.302 121.164C224.108 121.165 220.008 119.923 216.52 117.593C213.032 115.264 210.314 111.953 208.708 108.079C207.102 104.204 206.681 99.9405 207.499 95.827C208.316 91.7134 210.335 87.9347 213.301 84.9686C216.266 82.0026 220.044 79.9825 224.157 79.1639C228.271 78.3452 232.534 78.7648 236.409 80.3695C240.284 81.9742 243.596 84.692 245.926 88.1791C248.256 91.6662 249.5 95.766 249.5 99.96C249.494 105.581 247.259 110.969 243.285 114.944C239.311 118.919 233.923 121.156 228.302 121.164Z" fill="black"/>
<path d="M172.1 141.696C171.941 141.696 171.788 141.633 171.676 141.52C171.563 141.408 171.5 141.255 171.5 141.096V139.896C171.5 139.737 171.563 139.584 171.676 139.472C171.788 139.359 171.941 139.296 172.1 139.296C172.259 139.296 172.412 139.359 172.524 139.472C172.637 139.584 172.7 139.737 172.7 139.896V141.096C172.7 141.255 172.637 141.408 172.524 141.52C172.412 141.633 172.259 141.696 172.1 141.696Z" fill="#E76D3B"/>
<path d="M162.758 126.192C162.207 125.838 161.776 125.325 161.522 124.722C161.459 124.576 161.341 124.46 161.193 124.401C161.045 124.342 160.879 124.344 160.733 124.407C160.586 124.47 160.471 124.588 160.412 124.736C160.353 124.884 160.355 125.05 160.418 125.196C160.77 126.015 161.357 126.713 162.104 127.2C162.2 127.262 162.313 127.296 162.428 127.296C162.558 127.297 162.684 127.256 162.789 127.179C162.893 127.101 162.97 126.992 163.007 126.868C163.044 126.743 163.04 126.61 162.995 126.488C162.95 126.366 162.867 126.262 162.758 126.192Z" fill="#E76D3B"/>
<path d="M160.664 118.698C160.823 118.698 160.976 118.635 161.088 118.522C161.201 118.41 161.264 118.257 161.264 118.098V115.8C161.264 115.641 161.201 115.488 161.088 115.376C160.976 115.263 160.823 115.2 160.664 115.2C160.505 115.2 160.352 115.263 160.24 115.376C160.127 115.488 160.064 115.641 160.064 115.8V118.098C160.064 118.257 160.127 118.41 160.24 118.522C160.352 118.635 160.505 118.698 160.664 118.698Z" fill="#E76D3B"/>
<path d="M166.91 126.72H164.606C164.447 126.72 164.294 126.783 164.182 126.896C164.069 127.008 164.006 127.161 164.006 127.32C164.006 127.479 164.069 127.632 164.182 127.744C164.294 127.857 164.447 127.92 164.606 127.92H166.91C167.069 127.92 167.222 127.857 167.334 127.744C167.447 127.632 167.51 127.479 167.51 127.32C167.51 127.161 167.447 127.008 167.334 126.896C167.222 126.783 167.069 126.72 166.91 126.72Z" fill="#E76D3B"/>
<path d="M161.264 122.7V120.402C161.264 120.243 161.201 120.09 161.088 119.978C160.976 119.865 160.823 119.802 160.664 119.802C160.505 119.802 160.352 119.865 160.24 119.978C160.127 120.09 160.064 120.243 160.064 120.402V122.7C160.064 122.859 160.127 123.012 160.24 123.124C160.352 123.237 160.505 123.3 160.664 123.3C160.823 123.3 160.976 123.237 161.088 123.124C161.201 123.012 161.264 122.859 161.264 122.7Z" fill="#E76D3B"/>
<path d="M172.664 130.62C172.643 130.463 172.56 130.32 172.434 130.223C172.309 130.126 172.149 130.084 171.992 130.104C171.914 130.117 171.839 130.145 171.772 130.188C171.705 130.23 171.647 130.285 171.601 130.349C171.555 130.414 171.523 130.487 171.505 130.565C171.488 130.642 171.486 130.722 171.5 130.8C171.519 130.939 171.529 131.079 171.53 131.22V133.02C171.53 133.179 171.593 133.332 171.706 133.444C171.818 133.557 171.971 133.62 172.13 133.62C172.289 133.62 172.442 133.557 172.554 133.444C172.667 133.332 172.73 133.179 172.73 133.02V131.22C172.721 131.019 172.699 130.818 172.664 130.62Z" fill="#E76D3B"/>
<path d="M172.1 134.694C171.941 134.694 171.788 134.757 171.676 134.87C171.563 134.982 171.5 135.135 171.5 135.294V137.598C171.5 137.757 171.563 137.91 171.676 138.022C171.788 138.135 171.941 138.198 172.1 138.198C172.259 138.198 172.412 138.135 172.524 138.022C172.637 137.91 172.7 137.757 172.7 137.598V135.294C172.7 135.135 172.637 134.982 172.524 134.87C172.412 134.757 172.259 134.694 172.1 134.694Z" fill="#E76D3B"/>
<path d="M171.578 128.238C170.991 127.567 170.215 127.088 169.352 126.864C169.276 126.844 169.196 126.84 169.118 126.851C169.04 126.862 168.965 126.888 168.897 126.928C168.829 126.969 168.769 127.022 168.722 127.085C168.674 127.148 168.64 127.22 168.62 127.296C168.6 127.372 168.596 127.452 168.607 127.53C168.618 127.608 168.644 127.683 168.684 127.751C168.725 127.819 168.778 127.879 168.841 127.926C168.904 127.974 168.976 128.008 169.052 128.028C169.683 128.191 170.249 128.54 170.678 129.03C170.734 129.094 170.804 129.145 170.881 129.18C170.959 129.216 171.043 129.234 171.128 129.234C171.243 129.234 171.356 129.2 171.453 129.138C171.55 129.075 171.627 128.986 171.674 128.881C171.722 128.776 171.738 128.659 171.721 128.545C171.704 128.431 171.654 128.325 171.578 128.238Z" fill="#E76D3B"/>
<path d="M160.664 114.072C160.505 114.072 160.352 114.009 160.24 113.896C160.127 113.784 160.064 113.631 160.064 113.472V112.272C160.064 112.113 160.127 111.96 160.24 111.848C160.352 111.735 160.505 111.672 160.664 111.672C160.823 111.672 160.976 111.735 161.088 111.848C161.201 111.96 161.264 112.113 161.264 112.272V113.472C161.264 113.631 161.201 113.784 161.088 113.896C160.976 114.009 160.823 114.072 160.664 114.072Z" fill="#E76D3B"/>
<path d="M200.522 171.906H61.5981V174.132H200.522V171.906Z" fill="#E76D3B"/>
<path d="M200.522 174.132H230.666V171.906H200.522V174.132Z" fill="#E76D3B"/>
<path opacity="0.2" d="M200.522 174.132H230.666V171.906H200.522V174.132Z" fill="black"/>
<path d="M220.598 176.514H71.666L66.686 174.132H225.578L220.598 176.514Z" fill="#E76D3B"/>
<path opacity="0.6" d="M220.598 176.514H71.666L66.686 174.132H225.578L220.598 176.514Z" fill="white"/>
<path d="M76.166 176.514V247.518H78.074L80.474 176.514H76.166Z" fill="#E76D3B"/>
<path d="M98.6899 176.514V247.518H100.598L102.998 176.514H98.6899Z" fill="#E76D3B"/>
<path d="M220.598 176.514V247.518H218.696L216.29 176.514H220.598Z" fill="#E76D3B"/>
<path d="M198.08 176.514V247.518H196.172L193.772 176.514H198.08Z" fill="#E76D3B"/>
<path d="M152.744 144.954L146.474 170.496L146.3 171.906H189.548L189.728 170.496L195.992 144.954H152.744Z" fill="#E76D3B"/>
<path opacity="0.3" d="M152.744 144.954L146.474 170.496L146.3 171.906H189.548L189.728 170.496L195.992 144.954H152.744Z" fill="black"/>
<path d="M194.666 144.954H151.412L145.148 170.496H188.396L194.666 144.954Z" fill="#E76D3B"/>
<path d="M187.478 169.326L193.178 146.124H152.33L146.636 169.326H187.478Z" fill="white"/>
<path d="M177.128 170.496L176.948 171.906H129.326L129.5 170.496H177.128Z" fill="#E76D3B"/>
<path opacity="0.6" d="M177.128 170.496L176.948 171.906H129.326L129.5 170.496H177.128Z" fill="white"/>
<path d="M87.1643 167.262C87.1341 166.348 86.7763 165.476 86.1561 164.804C85.536 164.132 84.6948 163.705 83.7863 163.602V162.912C83.7855 162.872 83.7768 162.833 83.7606 162.796C83.7444 162.76 83.7211 162.727 83.6921 162.699C83.663 162.672 83.6288 162.651 83.5914 162.637C83.554 162.623 83.5142 162.616 83.4743 162.618H76.9943C76.9541 162.616 76.914 162.623 76.8762 162.637C76.8385 162.651 76.8038 162.672 76.7743 162.699C76.7448 162.726 76.7209 162.759 76.7041 162.796C76.6873 162.832 76.6778 162.872 76.6763 162.912V171.912H83.7863V170.928C84.6963 170.826 85.5389 170.399 86.1595 169.725C86.78 169.052 87.1368 168.177 87.1643 167.262ZM83.7863 169.764V164.766C84.3859 164.854 84.9338 165.155 85.3299 165.614C85.726 166.073 85.9439 166.659 85.9439 167.265C85.9439 167.871 85.726 168.457 85.3299 168.916C84.9338 169.375 84.3859 169.676 83.7863 169.764Z" fill="#E76D3B"/>
<path d="M208.436 171.906H214.46L212.678 158.712H208.436V171.906Z" fill="#263238"/>
<path d="M199.604 171.906H211.016L213.134 156.462H201.728L199.604 171.906Z" fill="#E76D3B"/>
<path opacity="0.3" d="M199.604 171.906H211.016L213.134 156.462H201.728L199.604 171.906Z" fill="black"/>
<path d="M198.08 171.906H209.954L212.078 156.462H200.204L198.08 171.906Z" fill="#E76D3B"/>
<path opacity="0.4" d="M208.904 170.688L210.692 157.68H201.254L199.466 170.688H208.904Z" fill="white"/>
<path d="M119.024 149.106L118.532 149.634L118.004 150.234C117.65 150.642 117.296 151.056 116.96 151.482C116.288 152.334 115.64 153.204 115.034 154.098C113.828 155.827 112.822 157.687 112.034 159.642C111.667 160.571 111.382 161.531 111.182 162.51C111.086 163.062 111.026 163.302 110.996 163.536C110.963 163.723 110.963 163.913 110.996 164.1C111.097 164.393 111.254 164.664 111.46 164.895C111.666 165.127 111.917 165.316 112.196 165.45C112.601 165.7 113.027 165.914 113.468 166.092C113.7 166.188 113.94 166.278 114.188 166.362C114.416 166.446 114.704 166.53 114.884 166.602V169.908C114.464 169.968 114.158 170.016 113.804 170.04C113.45 170.064 113.108 170.07 112.754 170.04C112.026 170.025 111.302 169.933 110.594 169.764C109.796 169.577 109.031 169.269 108.326 168.852C107.497 168.367 106.784 167.705 106.238 166.914C105.676 166.072 105.304 165.118 105.146 164.118C105.106 163.884 105.08 163.647 105.068 163.41C105.056 163.182 105.056 162.954 105.068 162.726V162.39C105.061 162.3 105.061 162.21 105.068 162.12L105.116 161.592C105.269 160.221 105.559 158.868 105.98 157.554C106.793 155.03 107.937 152.625 109.382 150.402C110.076 149.311 110.832 148.259 111.644 147.252C112.046 146.748 112.46 146.256 112.892 145.77C113.102 145.524 113.324 145.284 113.552 145.044C113.78 144.804 113.99 144.594 114.302 144.294L119.024 149.106Z" fill="#ECAAA3"/>
<path d="M113.69 166.53L116.486 164.478L118.076 170.226C118.076 170.226 115.598 171.144 113.708 169.908L113.69 166.53Z" fill="#ECAAA3"/>
<path d="M120.368 163.098L121.46 167.91L118.076 170.226L116.486 164.478L120.368 163.098Z" fill="#ECAAA3"/>
<path d="M138.05 127.05C137.924 127.404 138.014 127.758 138.248 127.836C138.482 127.914 138.77 127.698 138.89 127.344C139.01 126.99 138.926 126.63 138.698 126.552C138.47 126.474 138.176 126.69 138.05 127.05Z" fill="#263238"/>
<path d="M137.984 127.746C138.031 128.982 138.247 130.205 138.626 131.382C138.324 131.469 138.007 131.489 137.696 131.441C137.385 131.394 137.089 131.279 136.826 131.106L137.984 127.746Z" fill="#ECAAA3"/>
<path d="M137.474 124.638C137.519 124.653 137.567 124.653 137.612 124.638C137.875 124.55 138.156 124.526 138.43 124.568C138.704 124.61 138.965 124.716 139.19 124.878C139.235 124.911 139.291 124.925 139.346 124.919C139.402 124.912 139.453 124.885 139.489 124.843C139.525 124.8 139.544 124.746 139.542 124.69C139.54 124.635 139.517 124.582 139.478 124.542C139.196 124.332 138.869 124.193 138.522 124.135C138.175 124.078 137.82 124.104 137.486 124.212C137.442 124.227 137.404 124.255 137.377 124.293C137.35 124.331 137.336 124.376 137.336 124.422C137.336 124.468 137.35 124.513 137.377 124.551C137.404 124.589 137.442 124.617 137.486 124.632L137.474 124.638Z" fill="#263238"/>
<path d="M124.892 128.358C125.564 131.772 126.23 138.03 123.842 140.31C123.842 140.31 124.778 143.772 131.126 143.772C138.104 143.772 134.462 140.31 134.462 140.31C130.652 139.398 130.748 136.572 131.414 133.92L124.892 128.358Z" fill="#ECAAA3"/>
<path d="M122.93 141.498C122.426 140.4 121.88 139.146 123.014 138.756C124.268 138.324 131.132 137.88 133.496 138.69C133.809 138.775 134.101 138.922 134.356 139.121C134.612 139.32 134.824 139.569 134.983 139.851C135.141 140.134 135.241 140.446 135.277 140.767C135.313 141.089 135.285 141.415 135.194 141.726L122.93 141.498Z" fill="#263238"/>
<path d="M146.9 147.354C148.37 150 149.948 152.724 151.544 155.34C153.14 157.956 154.814 160.56 156.602 162.936C157.046 163.536 157.508 164.106 157.964 164.676C158.192 164.97 158.432 165.21 158.666 165.48L159.014 165.876L159.104 165.978L159.146 166.026L159.188 166.08C159.468 166.35 159.804 166.555 160.172 166.68C160.739 166.877 161.324 167.02 161.918 167.106C164.835 167.4 167.775 167.366 170.684 167.004L171.596 170.184C170.786 170.544 170.03 170.784 169.226 171.084C168.422 171.384 167.63 171.582 166.826 171.786C165.122 172.213 163.375 172.447 161.618 172.482C160.632 172.498 159.648 172.399 158.684 172.188C157.502 171.953 156.387 171.457 155.42 170.736L155.018 170.406L154.922 170.322L154.862 170.262L154.748 170.148L154.28 169.686C153.974 169.38 153.638 169.086 153.362 168.762C152.762 168.132 152.198 167.502 151.676 166.854C149.58 164.321 147.646 161.657 145.886 158.88C145.01 157.512 144.166 156.13 143.354 154.734C142.538 153.324 141.752 151.944 140.99 150.456L146.9 147.354Z" fill="#ECAAA3"/>
<path d="M115.484 141.366C111.104 142.368 106.088 154.302 106.088 154.302L114.878 160.302C117.064 157.167 119.004 153.867 120.68 150.432C123.278 144.996 119.96 140.34 115.484 141.366Z" fill="#E76D3B"/>
<path opacity="0.2" d="M118.616 148.974L114.464 160.038L114.872 160.326C114.872 160.326 116.672 157.8 118.616 154.392V148.974Z" fill="black"/>
<path d="M141.644 141.6C141.644 141.6 146.612 147.216 141.92 181.956H116.942C116.774 178.122 119.18 159.426 115.484 141.36C118.244 140.829 121.036 140.476 123.842 140.304C127.379 140.097 130.925 140.097 134.462 140.304C136.886 140.548 139.287 140.981 141.644 141.6Z" fill="#E76D3B"/>
<path opacity="0.2" d="M138.866 151.65C139.518 155.593 141.222 159.287 143.798 162.342C143.9 160.104 143.942 158.094 143.936 156.3L138.866 151.65Z" fill="black"/>
<path d="M136.7 145.392C136.1 149.814 144.8 161.106 144.8 161.106L153.554 155.106C153.554 155.106 151.124 148.884 147.038 144.804C142.382 140.124 137.384 140.58 136.7 145.392Z" fill="#E76D3B"/>
<path d="M169.7 167.034L173.264 165.57L176.93 168.342C176.93 168.342 173.432 171.438 170.252 170.232L169.7 167.034Z" fill="#ECAAA3"/>
<path d="M175.616 165.426L178.304 167.346L176.912 168.342L173.246 165.57L175.616 165.426Z" fill="#ECAAA3"/>
<path d="M126.446 122.166C125.198 126.63 124.238 129.18 125.666 132.186C127.808 136.716 133.898 136.59 136.466 132.594C138.77 128.994 140.426 122.298 136.754 119.076C135.948 118.36 134.972 117.862 133.919 117.629C132.866 117.396 131.771 117.437 130.738 117.746C129.705 118.056 128.769 118.625 128.018 119.398C127.266 120.172 126.725 121.124 126.446 122.166Z" fill="#ECAAA3"/>
<path d="M135.95 122.214C134.15 127.338 132.032 132.966 126.86 131.898C123.524 131.208 123.26 125.838 122.06 123.396C120.998 121.254 121.064 116.946 123.26 116.892C122.276 115.464 127.25 110.238 130.646 112.998C131.516 111.798 137.786 108.264 142.43 113.874C146.804 119.178 144.662 123.6 135.95 122.214Z" fill="#263238"/>
<path d="M131.9 125.49C131.78 126.635 132.037 127.787 132.632 128.772C133.43 130.056 134.6 129.564 135.032 128.25C135.416 127.05 135.458 124.98 134.348 124.146C133.238 123.312 132.068 124.11 131.9 125.49Z" fill="#ECAAA3"/>
<path d="M170.228 244.128C170.828 244.128 171.428 244.044 171.602 243.774C171.651 243.703 171.678 243.618 171.678 243.531C171.678 243.444 171.651 243.359 171.602 243.288C171.522 243.162 171.398 243.07 171.254 243.03C170.474 242.82 168.854 243.75 168.776 243.792C168.755 243.802 168.739 243.819 168.729 243.84C168.719 243.86 168.717 243.884 168.722 243.906C168.726 243.927 168.736 243.947 168.751 243.963C168.765 243.979 168.785 243.991 168.806 243.996C169.275 244.081 169.751 244.126 170.228 244.128ZM170.972 243.222C171.041 243.212 171.112 243.212 171.182 243.222C171.227 243.23 171.27 243.249 171.307 243.276C171.345 243.303 171.376 243.338 171.398 243.378C171.476 243.516 171.452 243.582 171.398 243.618C171.182 243.924 170 243.93 169.13 243.804C169.7 243.492 170.326 243.295 170.972 243.222Z" fill="#E76D3B"/>
<path d="M168.818 243.996H168.866C169.43 243.744 170.546 242.736 170.456 242.196C170.456 242.07 170.348 241.92 170.048 241.884C169.94 241.875 169.832 241.887 169.729 241.92C169.626 241.953 169.53 242.006 169.448 242.076C168.848 242.562 168.728 243.822 168.722 243.876C168.72 243.895 168.722 243.915 168.73 243.932C168.737 243.95 168.749 243.966 168.764 243.978C168.78 243.988 168.799 243.994 168.818 243.996ZM169.958 242.106H170.024C170.222 242.106 170.234 242.208 170.24 242.232C170.294 242.55 169.532 243.342 168.956 243.684C169.004 243.156 169.213 242.655 169.556 242.25C169.668 242.154 169.811 242.103 169.958 242.106Z" fill="#E76D3B"/>
<path d="M163.388 243.888H168.056L169.118 233.07H164.45L163.388 243.888Z" fill="#ECAAA3"/>
<path d="M168.32 243.348H163.226C163.132 243.348 163.041 243.381 162.968 243.44C162.895 243.499 162.844 243.58 162.824 243.672L161.9 247.8C161.876 247.901 161.876 248.005 161.899 248.106C161.921 248.207 161.967 248.301 162.032 248.381C162.097 248.462 162.179 248.527 162.273 248.57C162.366 248.614 162.469 248.636 162.572 248.634C164.408 248.604 167.066 248.496 169.376 248.496C172.082 248.496 174.416 248.64 177.584 248.64C179.504 248.64 180.038 246.702 179.234 246.528C175.58 245.73 172.598 245.646 169.442 243.696C169.107 243.479 168.719 243.358 168.32 243.348Z" fill="#263238"/>
<path opacity="0.2" d="M169.112 233.076L168.572 238.65H163.898L164.444 233.076H169.112Z" fill="black"/>
<path d="M151.514 244.122C151.712 244.148 151.913 244.134 152.105 244.082C152.298 244.029 152.478 243.939 152.636 243.816C152.691 243.74 152.721 243.649 152.721 243.555C152.721 243.461 152.691 243.37 152.636 243.294C152.6 243.228 152.551 243.171 152.491 243.126C152.43 243.082 152.361 243.051 152.288 243.036C151.604 242.874 150.314 243.756 150.26 243.792C150.243 243.805 150.229 243.823 150.221 243.843C150.212 243.863 150.209 243.884 150.212 243.906C150.216 243.927 150.226 243.946 150.241 243.961C150.256 243.976 150.275 243.986 150.296 243.99C150.696 244.077 151.104 244.122 151.514 244.122ZM152.114 243.234C152.158 243.228 152.202 243.228 152.246 243.234C152.289 243.24 152.33 243.257 152.365 243.282C152.4 243.307 152.429 243.34 152.45 243.378C152.552 243.564 152.492 243.636 152.45 243.666C152.252 243.924 151.298 243.93 150.596 243.816C151.047 243.51 151.562 243.311 152.102 243.234H152.114Z" fill="#E76D3B"/>
<path d="M150.326 243.996H150.374C150.86 243.732 151.796 242.712 151.694 242.196C151.679 242.113 151.635 242.039 151.57 241.985C151.505 241.931 151.424 241.902 151.34 241.902C151.256 241.892 151.171 241.899 151.091 241.924C151.01 241.949 150.935 241.99 150.872 242.046C150.332 242.49 150.218 243.846 150.212 243.894C150.212 243.914 150.216 243.934 150.226 243.952C150.235 243.97 150.249 243.985 150.266 243.996C150.285 244.002 150.306 244.002 150.326 243.996ZM151.268 242.106H151.316C151.46 242.106 151.472 242.19 151.478 242.22C151.538 242.526 150.938 243.3 150.458 243.666C150.49 243.134 150.683 242.623 151.01 242.202C151.082 242.14 151.173 242.106 151.268 242.106Z" fill="#E76D3B"/>
<path d="M144.974 243.888H149.642L151.988 233.07H147.32L144.974 243.888Z" fill="#ECAAA3"/>
<path d="M149.972 243.348H144.728C144.635 243.349 144.545 243.381 144.473 243.44C144.401 243.499 144.351 243.581 144.332 243.672L143.408 247.8C143.386 247.901 143.388 248.006 143.412 248.107C143.437 248.208 143.483 248.301 143.549 248.382C143.615 248.462 143.698 248.526 143.792 248.57C143.886 248.613 143.988 248.635 144.092 248.634C145.922 248.604 146.816 248.496 149.12 248.496C150.542 248.496 152.36 248.64 154.322 248.64C156.284 248.64 156.536 246.702 155.732 246.528C152.132 245.742 151.886 244.656 150.734 243.618C150.521 243.438 150.25 243.342 149.972 243.348Z" fill="#263238"/>
<g opacity="0.2">
<path d="M147.32 233.076H151.988L150.776 238.65H146.108L147.32 233.076Z" fill="black"/>
</g>
<path d="M141.92 181.962C141.92 181.962 176.9 185.664 176.516 203.508C176.268 214.715 174.113 225.797 170.144 236.28H163.208C163.208 236.28 163.562 224.958 163.328 206.688C163.256 201.21 152.198 199.404 141.392 198.768C136.816 198.48 132.411 196.919 128.675 194.262C124.939 191.604 122.02 187.955 120.248 183.726L119.51 181.962H141.92Z" fill="#263238"/>
<path d="M171.842 234.42C171.878 234.42 171.392 237.702 171.392 237.702H161.792L161.528 234.774L171.842 234.42Z" fill="#E76D3B"/>
<path d="M134.432 181.962C134.432 181.962 159.788 190.362 160.43 200.778C161.63 219.942 152.204 236.28 152.204 236.28H145.202C145.202 236.28 147.86 228.18 148.802 210.816C150.002 189.006 109.304 210.78 116.93 181.962H134.432Z" fill="#263238"/>
<path d="M154.322 234.42C154.358 234.42 153.44 237.702 153.44 237.702H143.84L144.014 234.774L154.322 234.42Z" fill="#E76D3B"/>
<path d="M152.72 200.334H113.72C113.72 199.153 114.189 198.021 115.024 197.186C115.859 196.351 116.991 195.882 118.172 195.882H148.268C149.449 195.882 150.581 196.351 151.416 197.186C152.251 198.021 152.72 199.153 152.72 200.334Z" fill="#E76D3B"/>
<path d="M115.526 200.328L109.646 249.624H110.906L118.364 200.328H115.526Z" fill="#E76D3B"/>
<path opacity="0.4" d="M115.526 200.328L109.646 249.624H110.906L118.364 200.328H115.526Z" fill="black"/>
<path d="M123.392 200.328L123.278 249.624H124.532L126.23 200.328H123.392Z" fill="#E76D3B"/>
<path opacity="0.4" d="M123.392 200.328L123.278 249.624H124.532L126.23 200.328H123.392Z" fill="black"/>
<path d="M150.914 200.328L156.794 249.624H155.534L148.082 200.328H150.914Z" fill="#E76D3B"/>
<path opacity="0.4" d="M150.914 200.328L156.794 249.624H155.534L148.082 200.328H150.914Z" fill="black"/>
<path d="M143.048 200.328L143.162 249.624H141.908L140.21 200.328H143.048Z" fill="#E76D3B"/>
<path opacity="0.4" d="M143.048 200.328L143.162 249.624H141.908L140.21 200.328H143.048Z" fill="black"/>
</svg>
