<svg width="200" height="200" viewBox="0 0 301 300" fill="none" xmlns="http://www.w3.org/2000/svg">
<path d="M55.1658 75.204C71.8998 39.534 131.402 44.568 154.358 69.654C177.314 94.74 184.778 110.814 205.484 101.454C226.19 92.094 252.596 94.59 254.084 124.35C255.572 154.11 231.362 189.3 192.854 199.71C154.346 210.12 154.358 246.966 103.394 239.532C75.6078 235.476 74.9777 205.416 78.9017 180.552C82.8257 155.688 35.7378 116.568 55.1658 75.204Z" fill="#7049A3"/>
<path opacity="0.9" d="M55.1658 75.204C71.8998 39.534 131.402 44.568 154.358 69.654C177.314 94.74 184.778 110.814 205.484 101.454C226.19 92.094 252.596 94.59 254.084 124.35C255.572 154.11 231.362 189.3 192.854 199.71C154.346 210.12 154.358 246.966 103.394 239.532C75.6078 235.476 74.9777 205.416 78.9017 180.552C82.8257 155.688 35.7378 116.568 55.1658 75.204Z" fill="white"/>
<path d="M150.5 256.536C214.749 256.536 266.834 253.495 266.834 249.744C266.834 245.993 214.749 242.952 150.5 242.952C86.2505 242.952 34.166 245.993 34.166 249.744C34.166 253.495 86.2505 256.536 150.5 256.536Z" fill="#F5F5F5"/>
<path d="M206.474 185.898V99.522H94.2139V185.898H110.042V243.948L105.776 245.466V247.038H119.258V245.466L114.986 243.948V185.898H188.048V243.948L183.782 245.466V247.038H197.258V245.466L192.992 243.948V185.898H206.474Z" fill="#263238"/>
<path d="M204.998 100.722H95.6958V183.144H204.998V100.722Z" fill="#7049A3"/>
<path opacity="0.9" d="M204.998 100.722H95.6958V183.144H204.998V100.722Z" fill="white"/>
<path d="M174.752 150.588H171.308V154.032H174.752V150.588Z" fill="#263238"/>
<path d="M174.752 160.494H171.308V163.938H174.752V160.494Z" fill="#263238"/>
<path d="M174.752 170.4H171.308V173.844H174.752V170.4Z" fill="#7049A3"/>
<path opacity="0.7" d="M174.752 160.494H171.308V163.938H174.752V160.494Z" fill="white"/>
<path opacity="0.1" d="M163.496 114.654C163.536 114.654 163.574 114.638 163.602 114.61C163.63 114.582 163.646 114.544 163.646 114.504C163.646 114.464 163.63 114.426 163.602 114.398C163.574 114.37 163.536 114.354 163.496 114.354H162.116V108.726H163.496C163.536 108.726 163.574 108.71 163.602 108.682C163.63 108.654 163.646 108.616 163.646 108.576C163.646 108.536 163.63 108.498 163.602 108.47C163.574 108.442 163.536 108.426 163.496 108.426H162.116V106.884C162.116 106.844 162.1 106.806 162.072 106.778C162.044 106.75 162.006 106.734 161.966 106.734C161.926 106.734 161.888 106.75 161.86 106.778C161.832 106.806 161.816 106.844 161.816 106.884V108.426H155.678V106.884C155.678 106.844 155.662 106.806 155.634 106.778C155.606 106.75 155.568 106.734 155.528 106.734C155.488 106.734 155.45 106.75 155.422 106.778C155.394 106.806 155.378 106.844 155.378 106.884V108.426H149.246V106.884C149.246 106.844 149.23 106.806 149.202 106.778C149.174 106.75 149.136 106.734 149.096 106.734C149.056 106.734 149.018 106.75 148.99 106.778C148.962 106.806 148.946 106.844 148.946 106.884V108.426H142.808V106.884C142.808 106.844 142.792 106.806 142.764 106.778C142.736 106.75 142.698 106.734 142.658 106.734C142.618 106.734 142.58 106.75 142.552 106.778C142.524 106.806 142.508 106.844 142.508 106.884V108.426H136.376V106.884C136.376 106.844 136.36 106.806 136.332 106.778C136.304 106.75 136.266 106.734 136.226 106.734C136.186 106.734 136.148 106.75 136.12 106.778C136.092 106.806 136.076 106.844 136.076 106.884V108.426H129.944V106.884C129.944 106.844 129.928 106.806 129.9 106.778C129.872 106.75 129.834 106.734 129.794 106.734C129.754 106.734 129.716 106.75 129.688 106.778C129.66 106.806 129.644 106.844 129.644 106.884V108.426H123.5V106.884C123.5 106.844 123.484 106.806 123.456 106.778C123.428 106.75 123.39 106.734 123.35 106.734C123.31 106.734 123.272 106.75 123.244 106.778C123.216 106.806 123.2 106.844 123.2 106.884V108.426H117.074V106.884C117.074 106.844 117.058 106.806 117.03 106.778C117.002 106.75 116.964 106.734 116.924 106.734C116.884 106.734 116.846 106.75 116.818 106.778C116.79 106.806 116.774 106.844 116.774 106.884V108.426H110.642V106.884C110.642 106.844 110.626 106.806 110.598 106.778C110.57 106.75 110.532 106.734 110.492 106.734C110.452 106.734 110.414 106.75 110.386 106.778C110.358 106.806 110.342 106.844 110.342 106.884V108.426H104.3V108.726H110.354V114.354H104.3V114.654H110.354V120.288H104.3V120.588H110.354V126.216H104.3V126.516H110.354V132.15H104.3V132.45H110.354V138.498C110.354 138.538 110.37 138.576 110.398 138.604C110.426 138.632 110.464 138.648 110.504 138.648C110.544 138.648 110.582 138.632 110.61 138.604C110.638 138.576 110.654 138.538 110.654 138.498V132.45H116.786V138.498C116.786 138.538 116.802 138.576 116.83 138.604C116.858 138.632 116.896 138.648 116.936 138.648C116.976 138.648 117.014 138.632 117.042 138.604C117.07 138.576 117.086 138.538 117.086 138.498V132.45H123.224V138.498C123.224 138.538 123.24 138.576 123.268 138.604C123.296 138.632 123.334 138.648 123.374 138.648C123.414 138.648 123.452 138.632 123.48 138.604C123.508 138.576 123.524 138.538 123.524 138.498V132.45H129.656V138.498C129.656 138.538 129.672 138.576 129.7 138.604C129.728 138.632 129.766 138.648 129.806 138.648C129.846 138.648 129.884 138.632 129.912 138.604C129.94 138.576 129.956 138.538 129.956 138.498V132.45H136.1V138.498C136.1 138.538 136.116 138.576 136.144 138.604C136.172 138.632 136.21 138.648 136.25 138.648C136.29 138.648 136.328 138.632 136.356 138.604C136.384 138.576 136.4 138.538 136.4 138.498V132.45H142.532V138.498C142.532 138.538 142.548 138.576 142.576 138.604C142.604 138.632 142.642 138.648 142.682 138.648C142.722 138.648 142.76 138.632 142.788 138.604C142.816 138.576 142.832 138.538 142.832 138.498V132.45H148.97V138.498C148.97 138.538 148.986 138.576 149.014 138.604C149.042 138.632 149.08 138.648 149.12 138.648C149.16 138.648 149.198 138.632 149.226 138.604C149.254 138.576 149.27 138.538 149.27 138.498V132.45H155.402V138.498C155.402 138.538 155.418 138.576 155.446 138.604C155.474 138.632 155.512 138.648 155.552 138.648C155.592 138.648 155.63 138.632 155.658 138.604C155.686 138.576 155.702 138.538 155.702 138.498V132.45H161.84V138.498C161.84 138.538 161.856 138.576 161.884 138.604C161.912 138.632 161.95 138.648 161.99 138.648C162.03 138.648 162.068 138.632 162.096 138.604C162.124 138.576 162.14 138.538 162.14 138.498V132.45H163.52C163.56 132.45 163.598 132.434 163.626 132.406C163.654 132.378 163.67 132.34 163.67 132.3C163.67 132.26 163.654 132.222 163.626 132.194C163.598 132.166 163.56 132.15 163.52 132.15H162.14V126.516H163.52C163.56 126.516 163.598 126.5 163.626 126.472C163.654 126.444 163.67 126.406 163.67 126.366C163.67 126.326 163.654 126.288 163.626 126.26C163.598 126.232 163.56 126.216 163.52 126.216H162.14V120.6H163.52C163.56 120.6 163.598 120.584 163.626 120.556C163.654 120.528 163.67 120.49 163.67 120.45C163.67 120.41 163.654 120.372 163.626 120.344C163.598 120.316 163.56 120.3 163.52 120.3H162.14V114.666L163.496 114.654ZM116.774 132.15H110.642V126.516H116.774V132.15ZM116.774 126.216H110.642V120.6H116.774V126.216ZM116.774 120.288H110.642V114.654H116.774V120.288ZM116.774 114.354H110.642V108.726H116.774V114.354ZM123.212 132.15H117.074V126.516H123.212V132.15ZM123.212 126.216H117.074V120.6H123.212V126.216ZM123.212 120.288H117.074V114.654H123.212V120.288ZM123.212 114.354H117.074V108.726H123.212V114.354ZM129.644 132.15H123.5V126.516H129.632L129.644 132.15ZM129.644 126.216H123.5V120.6H129.632L129.644 126.216ZM129.644 120.288H123.5V114.654H129.632L129.644 120.288ZM129.644 114.354H123.5V108.726H129.632L129.644 114.354ZM136.1 132.15H129.944V126.516H136.1V132.15ZM136.1 126.216H129.944V120.6H136.1V126.216ZM136.1 120.288H129.944V114.654H136.1V120.288ZM136.1 114.354H129.944V108.726H136.1V114.354ZM142.532 132.15H136.376V126.516H142.508L142.532 132.15ZM142.532 126.216H136.376V120.6H142.508L142.532 126.216ZM142.532 120.288H136.376V114.654H142.508L142.532 120.288ZM142.532 114.354H136.376V108.726H142.508L142.532 114.354ZM148.97 132.15H142.808V126.516H148.946L148.97 132.15ZM148.97 126.216H142.808V120.6H148.946L148.97 126.216ZM148.97 120.288H142.808V114.654H148.946L148.97 120.288ZM148.97 114.354H142.808V108.726H148.946L148.97 114.354ZM155.402 132.15H149.246V126.516H155.378L155.402 132.15ZM155.402 126.216H149.246V120.6H155.378L155.402 126.216ZM155.402 120.288H149.246V114.654H155.378L155.402 120.288ZM155.402 114.354H149.246V108.726H155.378L155.402 114.354ZM161.84 132.15H155.678V126.516H161.816L161.84 132.15ZM161.84 126.216H155.678V120.6H161.816L161.84 126.216ZM161.84 120.288H155.678V114.654H161.816L161.84 120.288ZM161.84 114.354H155.678V108.726H161.816L161.84 114.354Z" fill="black"/>
<path d="M114.038 129.168H110.312V138.336H114.038V129.168Z" fill="#7049A3"/>
<path opacity="0.2" d="M114.044 129.168H112.868V138.336H114.044V129.168Z" fill="white"/>
<path d="M124.016 125.256H120.29V138.336H124.016V125.256Z" fill="#7049A3"/>
<path opacity="0.2" d="M124.016 125.256H122.84V138.336H124.016V125.256Z" fill="white"/>
<path d="M133.988 127.44H130.262V138.33H133.988V127.44Z" fill="#7049A3"/>
<path opacity="0.2" d="M133.994 127.44H132.818V138.33H133.994V127.44Z" fill="white"/>
<path d="M143.966 123.234H140.24V138.336H143.966V123.234Z" fill="#7049A3"/>
<path opacity="0.2" d="M143.966 123.234H142.79V138.336H143.966V123.234Z" fill="white"/>
<path d="M153.944 115.53H150.218V138.336H153.944V115.53Z" fill="#7049A3"/>
<path opacity="0.2" d="M153.944 115.53H152.768V138.336H153.944V115.53Z" fill="white"/>
<path d="M166.058 138.798H104.33C104.25 138.798 104.174 138.766 104.118 138.71C104.061 138.654 104.03 138.578 104.03 138.498V105.876C104.03 105.796 104.061 105.72 104.118 105.664C104.174 105.608 104.25 105.576 104.33 105.576C104.409 105.576 104.486 105.608 104.542 105.664C104.598 105.72 104.63 105.796 104.63 105.876V138.198H166.058C166.137 138.198 166.214 138.23 166.27 138.286C166.326 138.342 166.358 138.418 166.358 138.498C166.358 138.578 166.326 138.654 166.27 138.71C166.214 138.766 166.137 138.798 166.058 138.798Z" fill="#263238"/>
<path d="M105.92 130.8C105.868 130.8 105.817 130.787 105.772 130.762C105.727 130.737 105.689 130.7 105.662 130.656C105.622 130.587 105.611 130.504 105.631 130.427C105.652 130.35 105.701 130.283 105.77 130.242L112.022 126.522L121.514 122.592C121.57 122.574 121.631 122.574 121.688 122.592L132.098 124.758L141.944 120.6L157.22 108.9C157.284 108.854 157.364 108.834 157.442 108.845C157.52 108.857 157.591 108.898 157.64 108.96C157.688 109.023 157.71 109.102 157.7 109.181C157.689 109.26 157.649 109.331 157.586 109.38L142.28 121.074C142.259 121.088 142.237 121.1 142.214 121.11L132.242 125.31C132.185 125.328 132.124 125.328 132.068 125.31L121.658 123.144L112.292 127.02L106.1 130.746C106.048 130.784 105.984 130.803 105.92 130.8Z" fill="#263238"/>
<g opacity="0.5">
<path d="M166.058 138.798H104.33C104.25 138.798 104.174 138.766 104.118 138.71C104.061 138.654 104.03 138.578 104.03 138.498V105.876C104.03 105.796 104.061 105.72 104.118 105.664C104.174 105.608 104.25 105.576 104.33 105.576C104.409 105.576 104.486 105.608 104.542 105.664C104.598 105.72 104.63 105.796 104.63 105.876V138.198H166.058C166.137 138.198 166.214 138.23 166.27 138.286C166.326 138.342 166.358 138.418 166.358 138.498C166.358 138.578 166.326 138.654 166.27 138.71C166.214 138.766 166.137 138.798 166.058 138.798Z" fill="white"/>
</g>
<path d="M158.486 108.294L155.582 109.344L156.728 110.832L158.486 108.294Z" fill="#263238"/>
<path d="M183.146 123.168L186.872 135.402C184.934 135.992 182.885 136.113 180.891 135.756C178.898 135.399 177.017 134.574 175.405 133.348C173.793 132.122 172.494 130.531 171.617 128.706C170.74 126.881 170.308 124.873 170.358 122.848C170.408 120.824 170.939 118.84 171.905 117.06C172.871 115.28 174.247 113.755 175.918 112.611C177.588 111.466 179.507 110.735 181.516 110.477C183.525 110.219 185.566 110.441 187.472 111.126L183.146 123.168Z" fill="#7049A3"/>
<path d="M183.146 123.168L187.52 111.168C189.153 111.755 190.65 112.668 191.919 113.852C193.188 115.037 194.202 116.467 194.9 118.056L183.146 123.168Z" fill="#7049A3"/>
<path d="M183.146 123.168L194.9 118.11C195.611 119.759 195.966 121.538 195.944 123.334C195.921 125.129 195.52 126.899 194.768 128.529C194.016 130.159 192.929 131.612 191.578 132.795C190.227 133.977 188.642 134.861 186.926 135.39L183.146 123.168Z" fill="#7049A3"/>
<path opacity="0.7" d="M183.146 123.168L186.872 135.402C184.934 135.992 182.885 136.113 180.891 135.756C178.898 135.399 177.017 134.574 175.405 133.348C173.793 132.122 172.494 130.531 171.617 128.706C170.74 126.881 170.308 124.873 170.358 122.848C170.408 120.824 170.939 118.84 171.905 117.06C172.871 115.28 174.247 113.755 175.918 112.611C177.588 111.466 179.507 110.735 181.516 110.477C183.525 110.219 185.566 110.441 187.472 111.126L183.146 123.168Z" fill="white"/>
<path opacity="0.4" d="M183.146 123.168L194.9 118.11C195.611 119.759 195.966 121.538 195.944 123.334C195.921 125.129 195.52 126.899 194.768 128.529C194.016 130.159 192.929 131.612 191.578 132.795C190.227 133.977 188.642 134.861 186.926 135.39L183.146 123.168Z" fill="white"/>
<path opacity="0.1" d="M163.496 154.26C163.536 154.26 163.574 154.244 163.602 154.216C163.63 154.188 163.646 154.15 163.646 154.11C163.646 154.07 163.63 154.032 163.602 154.004C163.574 153.976 163.536 153.96 163.496 153.96H162.116V148.326H163.496C163.536 148.326 163.574 148.31 163.602 148.282C163.63 148.254 163.646 148.216 163.646 148.176C163.646 148.136 163.63 148.098 163.602 148.07C163.574 148.042 163.536 148.026 163.496 148.026H162.116V146.484C162.116 146.444 162.1 146.406 162.072 146.378C162.044 146.35 162.006 146.334 161.966 146.334C161.926 146.334 161.888 146.35 161.86 146.378C161.832 146.406 161.816 146.444 161.816 146.484V148.026H155.678V146.484C155.678 146.444 155.662 146.406 155.634 146.378C155.606 146.35 155.568 146.334 155.528 146.334C155.488 146.334 155.45 146.35 155.422 146.378C155.394 146.406 155.378 146.444 155.378 146.484V148.026H149.246V146.484C149.246 146.444 149.23 146.406 149.202 146.378C149.174 146.35 149.136 146.334 149.096 146.334C149.056 146.334 149.018 146.35 148.99 146.378C148.962 146.406 148.946 146.444 148.946 146.484V148.026H142.808V146.484C142.808 146.444 142.792 146.406 142.764 146.378C142.736 146.35 142.698 146.334 142.658 146.334C142.618 146.334 142.58 146.35 142.552 146.378C142.524 146.406 142.508 146.444 142.508 146.484V148.026H136.376V146.484C136.376 146.444 136.36 146.406 136.332 146.378C136.304 146.35 136.266 146.334 136.226 146.334C136.186 146.334 136.148 146.35 136.12 146.378C136.092 146.406 136.076 146.444 136.076 146.484V148.026H129.944V146.484C129.944 146.444 129.928 146.406 129.9 146.378C129.872 146.35 129.834 146.334 129.794 146.334C129.754 146.334 129.716 146.35 129.688 146.378C129.66 146.406 129.644 146.444 129.644 146.484V148.026H123.5V146.484C123.5 146.444 123.484 146.406 123.456 146.378C123.428 146.35 123.39 146.334 123.35 146.334C123.31 146.334 123.272 146.35 123.244 146.378C123.216 146.406 123.2 146.444 123.2 146.484V148.026H117.074V146.484C117.074 146.444 117.058 146.406 117.03 146.378C117.002 146.35 116.964 146.334 116.924 146.334C116.884 146.334 116.846 146.35 116.818 146.378C116.79 146.406 116.774 146.444 116.774 146.484V148.026H110.642V146.484C110.642 146.444 110.626 146.406 110.598 146.378C110.57 146.35 110.532 146.334 110.492 146.334C110.452 146.334 110.414 146.35 110.386 146.378C110.358 146.406 110.342 146.444 110.342 146.484V148.026H104.3V148.326H110.354V153.96H104.3V154.26H110.354V159.888H104.3V160.188H110.354V165.822H104.3V166.122H110.354V171.75H104.3V172.05H110.354V178.104C110.354 178.144 110.37 178.182 110.398 178.21C110.426 178.238 110.464 178.254 110.504 178.254C110.544 178.254 110.582 178.238 110.61 178.21C110.638 178.182 110.654 178.144 110.654 178.104V172.05H116.786V178.104C116.786 178.144 116.802 178.182 116.83 178.21C116.858 178.238 116.896 178.254 116.936 178.254C116.976 178.254 117.014 178.238 117.042 178.21C117.07 178.182 117.086 178.144 117.086 178.104V172.05H123.224V178.104C123.224 178.144 123.24 178.182 123.268 178.21C123.296 178.238 123.334 178.254 123.374 178.254C123.414 178.254 123.452 178.238 123.48 178.21C123.508 178.182 123.524 178.144 123.524 178.104V172.05H129.656V178.104C129.656 178.144 129.672 178.182 129.7 178.21C129.728 178.238 129.766 178.254 129.806 178.254C129.846 178.254 129.884 178.238 129.912 178.21C129.94 178.182 129.956 178.144 129.956 178.104V172.05H136.1V178.104C136.1 178.144 136.116 178.182 136.144 178.21C136.172 178.238 136.21 178.254 136.25 178.254C136.29 178.254 136.328 178.238 136.356 178.21C136.384 178.182 136.4 178.144 136.4 178.104V172.05H142.532V178.104C142.532 178.144 142.548 178.182 142.576 178.21C142.604 178.238 142.642 178.254 142.682 178.254C142.722 178.254 142.76 178.238 142.788 178.21C142.816 178.182 142.832 178.144 142.832 178.104V172.05H148.97V178.104C148.97 178.144 148.986 178.182 149.014 178.21C149.042 178.238 149.08 178.254 149.12 178.254C149.16 178.254 149.198 178.238 149.226 178.21C149.254 178.182 149.27 178.144 149.27 178.104V172.05H155.402V178.104C155.402 178.144 155.418 178.182 155.446 178.21C155.474 178.238 155.512 178.254 155.552 178.254C155.592 178.254 155.63 178.238 155.658 178.21C155.686 178.182 155.702 178.144 155.702 178.104V172.05H161.84V178.104C161.84 178.144 161.856 178.182 161.884 178.21C161.912 178.238 161.95 178.254 161.99 178.254C162.03 178.254 162.068 178.238 162.096 178.21C162.124 178.182 162.14 178.144 162.14 178.104V172.05H163.52C163.56 172.05 163.598 172.034 163.626 172.006C163.654 171.978 163.67 171.94 163.67 171.9C163.67 171.86 163.654 171.822 163.626 171.794C163.598 171.766 163.56 171.75 163.52 171.75H162.14V166.122H163.52C163.56 166.122 163.598 166.106 163.626 166.078C163.654 166.05 163.67 166.012 163.67 165.972C163.67 165.932 163.654 165.894 163.626 165.866C163.598 165.838 163.56 165.822 163.52 165.822H162.14V160.2H163.52C163.56 160.2 163.598 160.184 163.626 160.156C163.654 160.128 163.67 160.09 163.67 160.05C163.67 160.01 163.654 159.972 163.626 159.944C163.598 159.916 163.56 159.9 163.52 159.9H162.14V154.26H163.496ZM116.774 171.75H110.642V166.122H116.774V171.75ZM116.774 165.822H110.642V160.2H116.774V165.822ZM116.774 159.888H110.642V154.26H116.774V159.888ZM116.774 153.96H110.642V148.326H116.774V153.96ZM123.212 171.75H117.074V166.122H123.212V171.75ZM123.212 165.822H117.074V160.2H123.212V165.822ZM123.212 159.888H117.074V154.26H123.212V159.888ZM123.212 153.96H117.074V148.326H123.212V153.96ZM129.644 171.75H123.5V166.122H129.632L129.644 171.75ZM129.644 165.822H123.5V160.2H129.632L129.644 165.822ZM129.644 159.888H123.5V154.26H129.632L129.644 159.888ZM129.644 153.96H123.5V148.326H129.632L129.644 153.96ZM136.1 171.75H129.944V166.122H136.1V171.75ZM136.1 165.822H129.944V160.2H136.1V165.822ZM136.1 159.888H129.944V154.26H136.1V159.888ZM136.1 153.96H129.944V148.326H136.1V153.96ZM142.532 171.75H136.376V166.122H142.508L142.532 171.75ZM142.532 165.822H136.376V160.2H142.508L142.532 165.822ZM142.532 159.888H136.376V154.26H142.508L142.532 159.888ZM142.532 153.96H136.376V148.326H142.508L142.532 153.96ZM148.97 171.75H142.808V166.122H148.946L148.97 171.75ZM148.97 165.822H142.808V160.2H148.946L148.97 165.822ZM148.97 159.888H142.808V154.26H148.946L148.97 159.888ZM148.97 153.96H142.808V148.326H148.946L148.97 153.96ZM155.402 171.75H149.246V166.122H155.378L155.402 171.75ZM155.402 165.822H149.246V160.2H155.378L155.402 165.822ZM155.402 159.888H149.246V154.26H155.378L155.402 159.888ZM155.402 153.96H149.246V148.326H155.378L155.402 153.96ZM161.84 171.75H155.678V166.122H161.816L161.84 171.75ZM161.84 165.822H155.678V160.2H161.816L161.84 165.822ZM161.84 159.888H155.678V154.26H161.816L161.84 159.888ZM161.84 153.96H155.678V148.326H161.816L161.84 153.96Z" fill="black"/>
<path d="M104.3 171.75C104.3 171.75 108.218 165.822 110.654 165.822C113.222 165.822 114.584 169.128 116.786 169.128C118.988 169.128 120.56 161.85 123.224 161.85C125.888 161.85 127.286 170.898 129.956 170.898C132.626 170.898 135.164 159.888 137.984 159.888C140.804 159.888 141.104 163.35 142.52 163.35C144.218 163.35 145.52 153.96 149.258 153.96C152.858 153.96 152.858 159.888 155.69 159.888C158.522 159.888 157.922 150.588 162.128 150.588V178.254H104.33L104.3 171.75Z" fill="#7049A3"/>
<path opacity="0.4" d="M104.3 171.75C104.3 171.75 108.218 165.822 110.654 165.822C113.222 165.822 114.584 169.128 116.786 169.128C118.988 169.128 120.56 161.85 123.224 161.85C125.888 161.85 127.286 170.898 129.956 170.898C132.626 170.898 135.164 159.888 137.984 159.888C140.804 159.888 141.104 163.35 142.52 163.35C144.218 163.35 145.52 153.96 149.258 153.96C152.858 153.96 152.858 159.888 155.69 159.888C158.522 159.888 157.922 150.588 162.128 150.588V178.254H104.33L104.3 171.75Z" fill="white"/>
<path d="M104.54 171.918L104.036 171.588C104.198 171.336 108.074 165.522 110.636 165.522C112.082 165.522 113.132 166.446 114.146 167.322C115.01 168.084 115.82 168.804 116.768 168.804C117.716 168.804 118.568 167.166 119.408 165.582C120.5 163.59 121.628 161.526 123.206 161.526C124.784 161.526 125.756 163.806 126.842 166.224C127.754 168.264 128.798 170.574 129.938 170.574C131.078 170.574 132.398 167.802 133.538 165.354C134.966 162.354 136.316 159.564 137.936 159.564C139.736 159.564 140.6 160.842 141.278 161.868C141.692 162.468 142.046 163.026 142.478 163.026C142.91 163.026 143.678 161.286 144.224 159.888C145.352 157.104 146.756 153.636 149.21 153.636C151.292 153.636 152.264 155.436 153.122 157.026C153.86 158.388 154.496 159.564 155.642 159.564C156.692 159.564 157.25 157.764 157.844 155.814C158.642 153.216 159.548 150.264 162.08 150.264V150.864C159.992 150.864 159.188 153.474 158.414 155.994C157.76 158.136 157.136 160.194 155.642 160.194C154.148 160.194 153.35 158.742 152.594 157.338C151.778 155.826 150.932 154.266 149.21 154.266C147.158 154.266 145.838 157.524 144.776 160.146C143.954 162.18 143.36 163.656 142.478 163.656C141.722 163.656 141.278 162.96 140.774 162.228C140.174 161.274 139.43 160.194 137.936 160.194C136.694 160.194 135.308 163.092 134.078 165.648C132.71 168.504 131.414 171.204 129.908 171.204C128.402 171.204 127.352 168.918 126.26 166.5C125.348 164.466 124.31 162.156 123.176 162.156C122.042 162.156 120.866 164.142 119.906 165.9C118.946 167.658 117.968 169.434 116.738 169.434C115.508 169.434 114.626 168.606 113.738 167.802C112.85 166.998 111.848 166.128 110.63 166.128C108.776 166.122 105.602 170.304 104.54 171.918Z" fill="#7049A3"/>
<path d="M116.3 173.73C116.236 173.736 116.171 173.736 116.108 173.73C114.698 173.562 113.924 171.87 113.294 170.508C113.106 170.068 112.89 169.641 112.646 169.23C112.01 168.27 111.296 167.826 110.522 167.916C109.322 168.06 108.284 169.056 107.354 169.932L106.952 170.31C106.112 171.084 105.29 171.9 104.522 172.746L104.078 172.344C104.864 171.486 105.692 170.652 106.544 169.866C106.676 169.752 106.802 169.626 106.94 169.5C107.888 168.6 109.07 167.484 110.456 167.322C111.452 167.196 112.388 167.748 113.144 168.9C113.408 169.334 113.641 169.788 113.84 170.256C114.404 171.456 115.106 173.004 116.18 173.136C117.254 173.268 118.46 171.264 119.138 170.064C119.264 169.83 119.384 169.626 119.486 169.464C119.888 168.804 120.278 168.138 120.686 167.472C121.352 166.332 122.048 165.144 122.792 164.022C123.378 163.128 124.021 162.272 124.718 161.46C125.72 160.302 126.68 159.714 127.58 159.708C127.939 159.715 128.292 159.803 128.613 159.965C128.934 160.127 129.214 160.359 129.434 160.644C130.368 161.814 131.1 163.132 131.6 164.544C131.956 165.458 132.379 166.344 132.866 167.196C133.054 167.554 133.333 167.857 133.676 168.072C134.234 168.354 134.876 167.88 135.296 167.424C136.268 166.337 137.127 165.153 137.858 163.89L138.05 163.584C138.134 163.446 138.224 163.296 138.314 163.134C138.914 162.108 139.754 160.692 141.098 160.656C141.956 160.656 142.592 161.418 143.186 162.18C143.87 163.05 144.326 163.56 144.878 163.38C145.115 163.268 145.322 163.099 145.478 162.888C146.473 161.609 147.281 160.195 147.878 158.688C148.1 158.196 148.316 157.704 148.544 157.224C148.681 156.911 148.861 156.618 149.078 156.354C149.238 156.142 149.45 155.975 149.694 155.87C149.938 155.765 150.206 155.725 150.47 155.754C151.67 155.952 152.576 157.92 153.098 159.102C153.17 159.258 153.23 159.396 153.284 159.504L153.362 159.672C153.896 160.788 154.448 161.946 155.336 162.258C155.598 162.331 155.872 162.351 156.142 162.317C156.411 162.283 156.672 162.196 156.908 162.06L157.436 161.802C158.966 161.052 160.286 160.404 162.182 160.404V161.004C160.424 161.004 159.218 161.604 157.7 162.336L157.166 162.6C156.86 162.773 156.523 162.882 156.175 162.92C155.826 162.958 155.473 162.925 155.138 162.822C154.01 162.426 153.38 161.1 152.822 159.93L152.744 159.762C152.69 159.648 152.624 159.51 152.552 159.342C152.138 158.418 151.286 156.492 150.374 156.342C150.208 156.333 150.043 156.367 149.894 156.439C149.745 156.511 149.617 156.62 149.522 156.756C149.344 156.979 149.199 157.225 149.09 157.488C148.856 157.962 148.646 158.448 148.43 158.928C147.82 160.487 146.992 161.952 145.97 163.278C145.75 163.569 145.458 163.799 145.124 163.944C144.116 164.316 143.396 163.398 142.724 162.582C142.22 161.946 141.704 161.286 141.134 161.286C140.126 161.286 139.424 162.486 138.86 163.47C138.758 163.638 138.668 163.794 138.578 163.932L138.392 164.238C137.637 165.536 136.753 166.755 135.752 167.874C134.936 168.732 134.126 168.996 133.43 168.642C132.985 168.378 132.621 167.996 132.38 167.538C131.876 166.662 131.439 165.749 131.072 164.808C130.599 163.456 129.901 162.195 129.008 161.076C128.844 160.859 128.636 160.681 128.396 160.554C128.157 160.426 127.892 160.353 127.622 160.338C126.902 160.338 126.092 160.866 125.222 161.88C124.545 162.673 123.92 163.509 123.35 164.382C122.606 165.492 121.922 166.668 121.256 167.808C120.866 168.474 120.47 169.146 120.056 169.806C119.96 169.968 119.846 170.172 119.72 170.406C118.88 171.708 117.74 173.73 116.3 173.73Z" fill="#263238"/>
<path opacity="0.7" d="M116.3 173.73C116.236 173.736 116.171 173.736 116.108 173.73C114.698 173.562 113.924 171.87 113.294 170.508C113.106 170.068 112.89 169.641 112.646 169.23C112.01 168.27 111.296 167.826 110.522 167.916C109.322 168.06 108.284 169.056 107.354 169.932L106.952 170.31C106.112 171.084 105.29 171.9 104.522 172.746L104.078 172.344C104.864 171.486 105.692 170.652 106.544 169.866C106.676 169.752 106.802 169.626 106.94 169.5C107.888 168.6 109.07 167.484 110.456 167.322C111.452 167.196 112.388 167.748 113.144 168.9C113.408 169.334 113.641 169.788 113.84 170.256C114.404 171.456 115.106 173.004 116.18 173.136C117.254 173.268 118.46 171.264 119.138 170.064C119.264 169.83 119.384 169.626 119.486 169.464C119.888 168.804 120.278 168.138 120.686 167.472C121.352 166.332 122.048 165.144 122.792 164.022C123.378 163.128 124.021 162.272 124.718 161.46C125.72 160.302 126.68 159.714 127.58 159.708C127.939 159.715 128.292 159.803 128.613 159.965C128.934 160.127 129.214 160.359 129.434 160.644C130.368 161.814 131.1 163.132 131.6 164.544C131.956 165.458 132.379 166.344 132.866 167.196C133.054 167.554 133.333 167.857 133.676 168.072C134.234 168.354 134.876 167.88 135.296 167.424C136.268 166.337 137.127 165.153 137.858 163.89L138.05 163.584C138.134 163.446 138.224 163.296 138.314 163.134C138.914 162.108 139.754 160.692 141.098 160.656C141.956 160.656 142.592 161.418 143.186 162.18C143.87 163.05 144.326 163.56 144.878 163.38C145.115 163.268 145.322 163.099 145.478 162.888C146.473 161.609 147.281 160.195 147.878 158.688C148.1 158.196 148.316 157.704 148.544 157.224C148.681 156.911 148.861 156.618 149.078 156.354C149.238 156.142 149.45 155.975 149.694 155.87C149.938 155.765 150.206 155.725 150.47 155.754C151.67 155.952 152.576 157.92 153.098 159.102C153.17 159.258 153.23 159.396 153.284 159.504L153.362 159.672C153.896 160.788 154.448 161.946 155.336 162.258C155.598 162.331 155.872 162.351 156.142 162.317C156.411 162.283 156.672 162.196 156.908 162.06L157.436 161.802C158.966 161.052 160.286 160.404 162.182 160.404V161.004C160.424 161.004 159.218 161.604 157.7 162.336L157.166 162.6C156.86 162.773 156.523 162.882 156.175 162.92C155.826 162.958 155.473 162.925 155.138 162.822C154.01 162.426 153.38 161.1 152.822 159.93L152.744 159.762C152.69 159.648 152.624 159.51 152.552 159.342C152.138 158.418 151.286 156.492 150.374 156.342C150.208 156.333 150.043 156.367 149.894 156.439C149.745 156.511 149.617 156.62 149.522 156.756C149.344 156.979 149.199 157.225 149.09 157.488C148.856 157.962 148.646 158.448 148.43 158.928C147.82 160.487 146.992 161.952 145.97 163.278C145.75 163.569 145.458 163.799 145.124 163.944C144.116 164.316 143.396 163.398 142.724 162.582C142.22 161.946 141.704 161.286 141.134 161.286C140.126 161.286 139.424 162.486 138.86 163.47C138.758 163.638 138.668 163.794 138.578 163.932L138.392 164.238C137.637 165.536 136.753 166.755 135.752 167.874C134.936 168.732 134.126 168.996 133.43 168.642C132.985 168.378 132.621 167.996 132.38 167.538C131.876 166.662 131.439 165.749 131.072 164.808C130.599 163.456 129.901 162.195 129.008 161.076C128.844 160.859 128.636 160.681 128.396 160.554C128.157 160.426 127.892 160.353 127.622 160.338C126.902 160.338 126.092 160.866 125.222 161.88C124.545 162.673 123.92 163.509 123.35 164.382C122.606 165.492 121.922 166.668 121.256 167.808C120.866 168.474 120.47 169.146 120.056 169.806C119.96 169.968 119.846 170.172 119.72 170.406C118.88 171.708 117.74 173.73 116.3 173.73Z" fill="white"/>
<path d="M104.486 171.978L104.09 171.528C104.222 171.408 107.366 168.636 110.3 168.636C111.514 168.652 112.713 168.906 113.828 169.386C114.757 169.797 115.758 170.022 116.774 170.046C117.974 170.046 119.06 168.48 120.11 166.962C121.16 165.444 122.084 164.118 123.212 164.118C124.34 164.118 125.27 165.174 126.284 166.29C127.298 167.406 128.42 168.636 129.644 168.636C130.868 168.636 132.518 166.728 134.012 165.036C135.632 163.236 137.156 161.49 138.434 161.49C139.014 161.51 139.584 161.648 140.11 161.894C140.636 162.141 141.107 162.491 141.494 162.924C141.944 163.332 142.298 163.656 142.694 163.656C143.006 163.5 143.75 161.538 144.344 159.96C145.736 156.3 147.308 152.16 149.27 152.16C151.01 152.16 152.27 154.758 153.47 157.278C154.322 159.024 155.27 161.01 156.056 161.01C156.842 161.01 157.622 159.852 158.414 158.61C159.386 157.11 160.484 155.418 162.08 155.418H162.122V156.018C160.838 156.018 159.86 157.488 158.924 158.934C157.988 160.38 157.202 161.586 156.062 161.586C154.922 161.586 153.998 159.702 152.936 157.512C151.874 155.322 150.62 152.712 149.258 152.712C147.71 152.712 146.018 157.182 144.896 160.14C143.774 163.098 143.294 164.22 142.682 164.22C142.064 164.129 141.502 163.812 141.104 163.332C140.77 162.951 140.362 162.642 139.905 162.422C139.448 162.203 138.952 162.077 138.446 162.054C137.438 162.054 135.932 163.752 134.474 165.402C132.74 167.352 131.102 169.2 129.674 169.2C128.246 169.2 127.01 167.904 125.87 166.656C124.946 165.642 124.07 164.682 123.242 164.682C122.414 164.682 121.514 166.002 120.632 167.268C119.492 168.912 118.316 170.61 116.804 170.61C115.717 170.585 114.645 170.349 113.648 169.914C112.599 169.461 111.472 169.218 110.33 169.2C107.594 169.236 104.516 171.948 104.486 171.978Z" fill="#263238"/>
<path d="M166.058 178.404H104.33C104.25 178.404 104.174 178.372 104.118 178.316C104.061 178.26 104.03 178.184 104.03 178.104V145.476C104.03 145.396 104.061 145.32 104.118 145.264C104.174 145.208 104.25 145.176 104.33 145.176C104.409 145.176 104.486 145.208 104.542 145.264C104.598 145.32 104.63 145.396 104.63 145.476V177.804H166.058C166.137 177.804 166.214 177.836 166.27 177.892C166.326 177.948 166.358 178.024 166.358 178.104C166.358 178.184 166.326 178.26 166.27 178.316C166.214 178.372 166.137 178.404 166.058 178.404Z" fill="#263238"/>
<g opacity="0.5">
<path d="M166.058 178.404H104.33C104.25 178.404 104.174 178.372 104.118 178.316C104.061 178.26 104.03 178.184 104.03 178.104V145.476C104.03 145.396 104.061 145.32 104.118 145.264C104.174 145.208 104.25 145.176 104.33 145.176C104.409 145.176 104.486 145.208 104.542 145.264C104.598 145.32 104.63 145.396 104.63 145.476V177.804H166.058C166.137 177.804 166.214 177.836 166.27 177.892C166.326 177.948 166.358 178.024 166.358 178.104C166.358 178.184 166.326 178.26 166.27 178.316C166.214 178.372 166.137 178.404 166.058 178.404Z" fill="white"/>
</g>
<g opacity="0.3">
<path d="M194.366 150.288H179.582V150.888H194.366V150.288Z" fill="black"/>
<path d="M194.366 151.992H179.582V152.592H194.366V151.992Z" fill="black"/>
<path d="M194.366 153.69H179.582V154.29H194.366V153.69Z" fill="black"/>
<path d="M188.366 155.394H179.582V155.994H188.366V155.394Z" fill="black"/>
</g>
<g opacity="0.3">
<path d="M194.366 160.194H179.582V160.794H194.366V160.194Z" fill="black"/>
<path d="M194.366 161.892H179.582V162.492H194.366V161.892Z" fill="black"/>
<path d="M194.366 163.596H179.582V164.196H194.366V163.596Z" fill="black"/>
<path d="M184.166 165.3H179.582V165.9H184.166V165.3Z" fill="black"/>
</g>
<g opacity="0.3">
<path d="M194.366 170.1H179.582V170.7H194.366V170.1Z" fill="black"/>
<path d="M194.366 171.798H179.582V172.398H194.366V171.798Z" fill="black"/>
<path d="M194.366 173.502H179.582V174.102H194.366V173.502Z" fill="black"/>
<path d="M191.366 175.2H179.582V175.8H191.366V175.2Z" fill="black"/>
</g>
<path d="M219.242 53.316H200.3C198.571 53.3176 196.914 54.0054 195.692 55.2284C194.47 56.4513 193.784 58.1093 193.784 59.838V78.264C193.784 79.9921 194.471 81.6495 195.693 82.8715C196.915 84.0935 198.572 84.78 200.3 84.78H210.854L214.064 91.662L215.264 84.78H219.284C221.013 84.78 222.671 84.0937 223.894 82.8719C225.117 81.65 225.805 79.9927 225.806 78.264V59.838C225.806 58.978 225.636 58.1264 225.306 57.3324C224.975 56.5384 224.491 55.8175 223.881 55.2113C223.271 54.6052 222.547 54.1256 221.751 53.8003C220.955 53.4751 220.102 53.3105 219.242 53.316Z" fill="#7049A3"/>
<path d="M214.304 69.828C215.06 67.866 216.908 66.75 218.444 67.338C219.98 67.926 220.604 69.996 219.854 71.958C219.104 73.92 217.244 75.03 215.714 74.442C214.184 73.854 213.548 71.79 214.304 69.828Z" fill="#7049A3"/>
<path d="M201.86 65.124L204.428 58.2C204.428 58.2 207.62 63.084 211.406 64.536L210.086 67.974L209.876 68.514L208.556 71.958C204.77 70.5 199.13 71.958 199.13 71.958L201.86 65.124Z" fill="#7049A3"/>
<path opacity="0.8" d="M214.304 69.828C215.06 67.866 216.908 66.75 218.444 67.338C219.98 67.926 220.604 69.996 219.854 71.958C219.104 73.92 217.244 75.03 215.714 74.442C214.184 73.854 213.548 71.79 214.304 69.828Z" fill="white"/>
<path opacity="0.8" d="M201.86 65.124L204.428 58.2C204.428 58.2 207.62 63.084 211.406 64.536L210.086 67.974L209.876 68.514L208.556 71.958C204.77 70.5 199.13 71.958 199.13 71.958L201.86 65.124Z" fill="white"/>
<path d="M215.084 73.554C215.084 73.554 213.086 77.568 210.92 79.242C210.849 79.3032 210.759 79.3369 210.665 79.3369C210.571 79.3369 210.481 79.3032 210.41 79.242L208.01 77.04C207.97 76.9987 207.94 76.9492 207.921 76.895C207.902 76.8408 207.896 76.7832 207.901 76.7261C207.907 76.6691 207.925 76.6139 207.954 76.5645C207.983 76.5151 208.023 76.4726 208.07 76.44C209 75.84 211.154 74.394 212.27 72.624C213.734 70.266 215.084 73.554 215.084 73.554Z" fill="#263238"/>
<path d="M199.19 72.168C200.06 72.504 201.974 69.624 203.462 65.742C204.95 61.86 205.46 58.446 204.59 58.11C203.72 57.774 201.812 60.654 200.318 64.536C198.824 68.418 198.326 71.832 199.19 72.168Z" fill="white"/>
<path opacity="0.4" d="M204.41 59.772C204.245 61.4742 203.841 63.1446 203.21 64.734L202.964 65.388C202.892 65.568 202.826 65.754 202.748 65.928C202.152 67.517 201.345 69.0185 200.348 70.392C199.934 70.908 199.58 71.16 199.34 71.064C198.644 70.8 199.142 67.824 200.45 64.422C201.758 61.02 203.378 58.476 204.05 58.74C204.32 58.8 204.422 59.196 204.41 59.772Z" fill="black"/>
<path opacity="0.2" d="M204.41 59.772C204.245 61.4741 203.841 63.1445 203.21 64.734L202.964 65.388C202.892 65.568 202.826 65.754 202.748 65.928C202.152 67.5169 201.345 69.0184 200.348 70.392C200.548 68.4655 201.037 66.5803 201.8 64.8C202.425 63.0077 203.304 61.3145 204.41 59.772Z" fill="black"/>
<path d="M216.134 75.066C216.134 75.066 216.908 74.328 218.072 71.304C219.326 68.034 219.158 67.194 219.158 67.194L210.704 63.948C210.704 63.948 210.764 65.058 209.588 68.148C208.412 71.238 207.68 71.838 207.68 71.838L216.134 75.066Z" fill="#263238"/>
<path d="M202.766 65.928C202.844 65.748 202.91 65.568 202.982 65.382C203.054 65.196 203.15 64.944 203.228 64.728L202.382 64.59C202.292 64.5778 202.201 64.5984 202.125 64.6479C202.049 64.6975 201.993 64.7728 201.968 64.86L201.92 64.986C201.88 65.0668 201.871 65.1595 201.894 65.2467C201.917 65.3339 201.971 65.4097 202.046 65.46L202.766 65.928Z" fill="white"/>
<path opacity="0.2" d="M202.766 65.928C202.844 65.748 202.91 65.568 202.982 65.382C203.054 65.196 203.15 64.944 203.228 64.728L202.382 64.59C202.292 64.5778 202.201 64.5984 202.125 64.6479C202.049 64.6975 201.993 64.7728 201.968 64.86L201.92 64.986C201.88 65.0668 201.871 65.1595 201.894 65.2467C201.917 65.3339 201.971 65.4097 202.046 65.46L202.766 65.928Z" fill="black"/>
<path opacity="0.2" d="M216.134 75.066C216.134 75.066 216.908 74.328 218.072 71.304C219.326 68.034 219.158 67.194 219.158 67.194L210.704 63.948C210.704 63.948 210.764 65.058 209.588 68.148C208.412 71.238 207.68 71.838 207.68 71.838L216.134 75.066Z" fill="white"/>
<path d="M223.712 246.174H219.422L219.248 236.238H223.538L223.712 246.174Z" fill="#E4897B"/>
<path d="M219.464 245.676H224.15C224.235 245.676 224.317 245.705 224.383 245.758C224.448 245.812 224.493 245.887 224.51 245.97L225.26 249.786C225.278 249.879 225.275 249.975 225.251 250.067C225.227 250.159 225.183 250.244 225.122 250.317C225.062 250.39 224.985 250.449 224.899 250.489C224.813 250.528 224.719 250.549 224.624 250.548C222.932 250.518 220.496 250.416 218.366 250.416C215.888 250.416 213.734 250.554 210.824 250.554C209.06 250.554 208.616 248.754 209.36 248.61C212.732 247.878 215.48 247.8 218.42 246.012C218.73 245.805 219.092 245.689 219.464 245.676Z" fill="#263238"/>
<path d="M225.122 242.946H217.532C216.722 233.16 214.082 200.532 213.932 189.372C213.83 180.432 214.484 162.372 214.88 152.448H229.7C228.908 162.318 227.504 180.444 227.006 190.38C226.478 201.318 225.434 233.274 225.122 242.946Z" fill="#7049A3"/>
<path opacity="0.7" d="M213.95 189.372C214.082 200.532 216.716 233.172 217.55 242.946H225.146C225.374 235.65 226.028 215.658 226.574 201.594C226.748 197.016 226.91 193.068 227.048 190.38C227.348 184.38 227.978 175.452 228.596 167.124C229.01 161.616 229.418 156.378 229.736 152.448H214.898C214.502 162.348 213.848 180.432 213.95 189.372Z" fill="white"/>
<path d="M216.44 241.434C216.404 241.434 216.776 244.434 216.776 244.434H225.614L225.92 241.74L216.44 241.434Z" fill="#7049A3"/>
<path opacity="0.1" d="M226.55 201.6C226.724 197.022 226.886 193.074 227.024 190.386C227.324 184.386 227.786 177.744 228.404 169.416C226.73 168.948 223.994 167.736 223.46 166.806L225.404 169.41C225.08 175.8 225.452 190.746 226.55 201.6Z" fill="black"/>
<path d="M239.396 246.174H235.106L234.488 236.238H238.778L239.396 246.174Z" fill="#E4897B"/>
<path d="M240.422 242.946H232.832C232.394 239.52 231.632 233.298 230.756 226.146C229.16 212.946 227.294 196.602 226.892 189.348C226.646 184.83 226.484 177.978 226.382 171.024C226.28 164.22 226.238 157.326 226.214 152.424H240.014C240.242 164.712 240.074 180.414 240.014 190.35C239.942 201.318 240.308 233.274 240.422 242.946Z" fill="#7049A3"/>
<path opacity="0.7" d="M240.422 242.946H232.832C232.394 239.52 231.632 233.298 230.756 226.146C229.16 212.946 227.294 196.602 226.892 189.348C226.646 184.83 226.484 177.978 226.382 171.024C226.28 164.22 226.238 157.326 226.214 152.424H240.014C240.242 164.712 240.074 180.414 240.014 190.35C239.942 201.318 240.308 233.274 240.422 242.946Z" fill="white"/>
<path d="M231.734 241.434C231.704 241.434 232.202 244.434 232.202 244.434H241.046L241.232 241.74L231.734 241.434Z" fill="#7049A3"/>
<path opacity="0.6" d="M216.44 241.434C216.404 241.434 216.776 244.434 216.776 244.434H225.614L225.92 241.74L216.44 241.434Z" fill="white"/>
<path opacity="0.6" d="M231.734 241.434C231.704 241.434 232.202 244.434 232.202 244.434H241.046L241.232 241.74L231.734 241.434Z" fill="white"/>
<path d="M235.1 245.676H239.786C239.871 245.675 239.954 245.704 240.021 245.758C240.088 245.811 240.134 245.886 240.152 245.97L241.07 249.786C241.095 249.877 241.099 249.973 241.081 250.066C241.062 250.158 241.022 250.245 240.964 250.32C240.905 250.394 240.83 250.453 240.744 250.493C240.658 250.533 240.564 250.551 240.47 250.548C238.778 250.518 236.336 250.416 234.212 250.416C231.728 250.416 229.586 250.554 226.67 250.554C224.912 250.554 224.39 248.754 225.122 248.61C228.464 247.878 231.206 247.8 234.074 246.012C234.376 245.803 234.732 245.687 235.1 245.676Z" fill="#263238"/>
<path d="M194.264 125.16L189.59 121.86L193.088 118.26C193.088 118.26 196.688 120.108 196.334 123.42L194.264 125.16Z" fill="#E4897B"/>
<path d="M187.754 118.23L191 116.19L193.088 118.29L189.59 121.86L187.754 118.23Z" fill="#E4897B"/>
<path d="M217.292 116.646C212.852 117.954 210.692 125.748 207.014 133.11L196.358 122.526L192.974 125.526C192.974 125.526 202.73 141.018 207.338 141.024C213.08 141.024 219.05 125.052 219.05 125.052L217.292 116.646Z" fill="#263238"/>
<path opacity="0.1" d="M219.05 125.064C219.05 125.064 218.102 127.59 216.602 130.638C215.15 133.59 213.17 137.034 211.028 139.116C209.828 140.286 208.574 141.03 207.332 141.03C202.73 141.03 192.98 125.532 192.98 125.532L196.358 122.532L207.014 133.116C210.668 125.754 212.852 117.96 217.292 116.652L219.05 125.064Z" fill="white"/>
<path opacity="0.2" d="M216.602 130.638C215.15 133.59 213.17 137.034 211.028 139.116C211.262 132.054 214.724 125.16 214.724 125.16C215.693 126.85 216.33 128.709 216.602 130.638Z" fill="black"/>
<path d="M242.414 117.84C238.634 138.84 240.014 152.454 240.014 152.454C240.014 152.454 222.128 152.862 214.904 152.454C211.052 126.978 217.304 116.646 217.304 116.646C219.19 116.266 221.097 116.004 223.016 115.86C223.418 115.86 223.832 115.812 224.252 115.794C227.661 115.8 231.066 116 234.452 116.394C235.094 116.46 235.748 116.55 236.378 116.64C239.576 117.096 242.414 117.84 242.414 117.84Z" fill="#263238"/>
<path opacity="0.1" d="M242.414 117.834C241.946 120.444 241.556 122.94 241.214 125.298C240.71 129.03 240.368 132.45 240.146 135.498C240.08 136.422 240.02 137.298 239.972 138.168C239.792 141.306 239.744 143.976 239.75 146.142C239.75 150.21 239.996 152.448 239.996 152.448C239.996 152.448 222.11 152.862 214.886 152.448C211.028 126.978 217.286 116.646 217.286 116.646C219.172 116.267 221.079 116.006 222.998 115.866C223.4 115.83 223.814 115.812 224.234 115.794C227.642 115.8 231.048 116 234.434 116.394C235.07 116.46 235.718 116.55 236.354 116.64C239.576 117.096 242.414 117.834 242.414 117.834Z" fill="white"/>
<path d="M232.964 116.166C231.428 117.774 229.004 119.118 225.128 118.974C222.158 118.86 221.744 116.988 222.266 115.974C224.066 115.602 224.888 114.816 225.134 113.82C225.38 112.824 225.038 111.468 224.534 110.22L229.544 106.02L230.396 105.306C230.396 105.546 230.36 105.798 230.348 106.068C230.291 107.047 230.291 108.029 230.348 109.008C230.504 111.738 231.158 114.75 232.964 116.166Z" fill="#E4897B"/>
<path opacity="0.2" d="M230.342 108.978C229.406 110.886 227.768 113.178 225.134 113.814C225.41 112.752 225.038 111.462 224.534 110.214L229.544 106.014C229.814 106.014 230.078 106.014 230.348 106.062C230.29 107.033 230.288 108.007 230.342 108.978Z" fill="black"/>
<path d="M227.9 119.49C226.994 120.006 226.1 120.522 225.176 121.05C224.809 127.893 224.793 134.75 225.128 141.594C224.672 142.362 224.222 143.13 223.778 143.91C223.178 143.064 222.626 142.218 222.062 141.36C222.419 134.543 223.122 127.748 224.168 121.002C223.856 120.402 223.568 119.802 223.244 119.202L225.95 118.224C226.592 118.644 227.246 119.07 227.9 119.49Z" fill="white"/>
<path opacity="0.2" d="M225.008 136.314C231.68 136.572 237.128 137.43 240.008 137.388C239.828 140.52 239.78 143.988 239.786 146.142C227.186 143.67 223.226 140.142 223.226 140.142L225.008 136.314Z" fill="black"/>
<path opacity="0.2" d="M241.232 125.298C240.728 129.03 240.386 132.45 240.164 135.498C237.764 130.602 239.564 124.698 239.564 124.698L241.232 125.298Z" fill="black"/>
<path d="M218.828 97.596C218.09 99.282 218 102.888 220.562 101.994C223.124 101.1 220.1 94.71 218.828 97.596Z" fill="#263238"/>
<path d="M231.116 101.322C230.894 105.828 230.996 108.474 228.746 110.79C225.362 114.276 219.746 112.23 218.636 107.736C217.616 103.692 218.15 97.008 222.542 95.202C223.515 94.8024 224.574 94.6562 225.62 94.7772C226.665 94.8982 227.663 95.2823 228.519 95.8937C229.376 96.5051 230.063 97.3238 230.517 98.2731C230.972 99.2224 231.177 100.271 231.116 101.322Z" fill="#E4897B"/>
<path d="M224.3 102.6C224.3 102.966 224.114 103.26 223.874 103.26C223.634 103.26 223.436 102.966 223.436 102.6C223.436 102.234 223.622 101.934 223.862 101.934C224.102 101.934 224.3 102.228 224.3 102.6Z" fill="#263238"/>
<path d="M220.142 102.6C220.142 102.966 219.95 103.266 219.71 103.266C219.47 103.266 219.272 102.972 219.272 102.606C219.272 102.24 219.458 101.94 219.698 101.94C219.938 101.94 220.136 102.24 220.142 102.6Z" fill="#263238"/>
<path d="M221.462 102.786C221.022 103.871 220.434 104.891 219.716 105.816C219.97 105.984 220.257 106.097 220.558 106.146C220.859 106.196 221.167 106.182 221.462 106.104V102.786Z" fill="#DE5753"/>
<path d="M225.554 101.256C225.515 101.261 225.476 101.256 225.441 101.241C225.405 101.226 225.374 101.203 225.35 101.172C225.19 100.953 224.982 100.775 224.741 100.651C224.501 100.527 224.234 100.461 223.964 100.458C223.907 100.461 223.851 100.443 223.807 100.406C223.764 100.369 223.736 100.317 223.73 100.26C223.727 100.232 223.731 100.203 223.739 100.176C223.748 100.149 223.762 100.124 223.78 100.102C223.799 100.08 223.821 100.062 223.846 100.049C223.872 100.036 223.899 100.028 223.928 100.026C224.271 100.025 224.61 100.104 224.916 100.259C225.223 100.413 225.489 100.637 225.692 100.914C225.716 100.943 225.731 100.978 225.737 101.016C225.743 101.053 225.739 101.091 225.724 101.126C225.71 101.161 225.687 101.192 225.657 101.214C225.627 101.237 225.591 101.252 225.554 101.256Z" fill="#263238"/>
<path d="M218.33 101.184C218.291 101.195 218.249 101.195 218.21 101.184C218.184 101.172 218.161 101.155 218.142 101.134C218.123 101.112 218.109 101.088 218.099 101.061C218.09 101.034 218.086 101.006 218.087 100.978C218.089 100.949 218.096 100.922 218.108 100.896C218.25 100.588 218.463 100.319 218.731 100.11C218.998 99.9013 219.311 99.7593 219.644 99.696C219.7 99.6907 219.756 99.707 219.801 99.7415C219.845 99.7761 219.875 99.8263 219.884 99.882C219.893 99.9385 219.878 99.996 219.845 100.042C219.811 100.088 219.76 100.119 219.704 100.128C219.44 100.179 219.192 100.295 218.983 100.464C218.773 100.634 218.609 100.852 218.504 101.1C218.484 101.127 218.458 101.149 218.428 101.164C218.397 101.179 218.364 101.185 218.33 101.184Z" fill="#263238"/>
<path d="M224.042 97.71C224.042 97.71 225.284 96.828 225.842 97.782C226.4 98.736 226.376 101.292 226.376 101.292L226.622 100.836C226.622 100.836 228.218 106.524 230.54 105.096C232.862 103.668 236.27 97.896 230.852 94.944C230.852 94.944 230.252 93.57 226.694 92.892C223.136 92.214 218.786 94.428 218.048 96.792C217.31 99.156 218.342 100.476 218.342 100.476C218.461 99.9611 218.697 99.4806 219.032 99.072C219.079 99.3138 219.185 99.5401 219.341 99.7307C219.497 99.9213 219.698 100.07 219.926 100.164C219.889 99.6802 219.989 99.1958 220.214 98.766C220.329 99.1849 220.534 99.5739 220.814 99.906C221.072 97.47 222.728 96.972 223.256 96.99C223.447 97.0088 223.627 97.0891 223.769 97.2189C223.91 97.3488 224.006 97.5211 224.042 97.71Z" fill="#263238"/>
<path d="M232.898 105.054C232.735 105.59 232.468 106.088 232.11 106.518C231.752 106.949 231.312 107.304 230.816 107.562C229.478 108.246 228.5 107.118 228.608 105.696C228.71 104.418 229.52 102.522 231.008 102.432C231.327 102.421 231.644 102.488 231.931 102.629C232.218 102.77 232.466 102.979 232.653 103.238C232.84 103.497 232.96 103.799 233.003 104.115C233.046 104.432 233.009 104.755 232.898 105.054Z" fill="#E4897B"/>
<path d="M221.606 107.616C221.992 108.02 222.349 108.451 222.674 108.906L222.938 108.774C224.138 108.174 224.486 107.502 224.522 106.932C224.528 106.657 224.47 106.384 224.354 106.134C224.292 105.99 224.209 105.857 224.108 105.738C223.534 106.437 222.819 107.006 222.008 107.406C221.768 107.544 221.606 107.616 221.606 107.616Z" fill="#263238"/>
<path d="M222.008 107.4L222.332 107.772C223.46 107.202 224.174 106.65 224.354 106.128C224.292 105.984 224.209 105.851 224.108 105.732C223.534 106.431 222.818 107 222.008 107.4Z" fill="white"/>
<path d="M222.938 108.774C224.138 108.174 224.486 107.502 224.522 106.932C224.069 107.169 223.662 107.486 223.322 107.868C223.102 108.122 222.968 108.439 222.938 108.774Z" fill="#A24E3F"/>
<path d="M232.244 114.33C232.244 114.33 230.834 116.13 225.77 117.84C224.934 116.938 224.413 115.788 224.288 114.564L221.606 115.764C221.606 115.764 220.79 118.218 222.008 119.964L225.74 118.296L228.602 120.732C228.602 120.732 233.264 117.768 234.104 116.298L232.244 114.33Z" fill="#263238"/>
<path d="M224.192 146.442H211.406C211.163 146.439 210.93 146.345 210.752 146.18C210.573 146.015 210.462 145.79 210.44 145.548L208.64 128.58C208.628 128.466 208.641 128.351 208.676 128.243C208.712 128.134 208.77 128.034 208.847 127.95C208.925 127.865 209.019 127.798 209.124 127.753C209.228 127.707 209.342 127.685 209.456 127.686H222.236C222.48 127.689 222.714 127.782 222.893 127.947C223.072 128.112 223.185 128.337 223.208 128.58L225.008 145.548C225.021 145.662 225.009 145.777 224.974 145.886C224.939 145.995 224.88 146.096 224.803 146.18C224.726 146.265 224.631 146.332 224.526 146.377C224.421 146.422 224.307 146.444 224.192 146.442Z" fill="#263238"/>
<path opacity="0.6" d="M224.192 146.442H211.406C211.163 146.439 210.93 146.345 210.752 146.18C210.573 146.015 210.462 145.79 210.44 145.548L208.64 128.58C208.628 128.466 208.641 128.351 208.676 128.243C208.712 128.134 208.77 128.034 208.847 127.95C208.925 127.865 209.019 127.798 209.124 127.753C209.228 127.707 209.342 127.685 209.456 127.686H222.236C222.48 127.689 222.714 127.782 222.893 127.947C223.072 128.112 223.185 128.337 223.208 128.58L225.008 145.548C225.021 145.662 225.009 145.777 224.974 145.886C224.939 145.995 224.88 146.096 224.803 146.18C224.726 146.265 224.631 146.332 224.526 146.377C224.421 146.422 224.307 146.444 224.192 146.442Z" fill="white"/>
<path opacity="0.2" d="M223.658 146.442H211.406C211.163 146.439 210.93 146.345 210.752 146.18C210.573 146.015 210.462 145.79 210.44 145.548L208.64 128.58C208.628 128.466 208.641 128.351 208.676 128.243C208.712 128.134 208.77 128.034 208.847 127.95C208.925 127.865 209.019 127.798 209.124 127.753C209.228 127.707 209.342 127.685 209.456 127.686H221.72C221.963 127.691 222.197 127.784 222.376 127.949C222.555 128.113 222.667 128.338 222.692 128.58L224.492 145.548C224.505 145.663 224.493 145.78 224.457 145.891C224.42 146.001 224.36 146.102 224.281 146.187C224.202 146.272 224.105 146.339 223.998 146.383C223.89 146.427 223.774 146.447 223.658 146.442Z" fill="white"/>
<path d="M216.206 135.678C216.028 135.674 215.852 135.709 215.688 135.779C215.525 135.849 215.379 135.953 215.259 136.084C215.139 136.215 215.048 136.371 214.993 136.54C214.938 136.709 214.92 136.887 214.94 137.064C214.977 137.439 215.15 137.787 215.426 138.042C215.703 138.298 216.063 138.443 216.44 138.45C216.617 138.454 216.794 138.419 216.957 138.349C217.121 138.279 217.267 138.175 217.387 138.044C217.507 137.913 217.597 137.757 217.652 137.588C217.707 137.419 217.726 137.241 217.706 137.064C217.329 137.057 216.969 136.912 216.692 136.656C216.416 136.401 216.243 136.053 216.206 135.678Z" fill="#263238"/>
<path opacity="0.3" d="M218.972 129.03H212.216C212.049 129.028 211.887 128.979 211.747 128.889C211.607 128.798 211.495 128.671 211.424 128.52L211.022 127.686H219.932L219.674 128.52C219.629 128.67 219.536 128.802 219.409 128.894C219.282 128.986 219.129 129.034 218.972 129.03Z" fill="black"/>
<path d="M220.64 135.408L217.688 135.162L217.814 139.092L220.298 140.394L225.998 139.872L226.46 137.226C224.57 134.478 220.64 135.408 220.64 135.408Z" fill="#E4897B"/>
<path d="M239.396 119.082C236.396 122.886 239.69 130.332 241.268 138.396L226.37 136.488L225.5 140.934C225.5 140.934 242.678 147.282 246.332 144.48C250.892 140.988 247.934 128.28 245.576 122.022C245.004 120.312 243.887 118.836 242.396 117.822C241.834 117.794 241.272 117.893 240.753 118.111C240.233 118.329 239.77 118.661 239.396 119.082Z" fill="#263238"/>
<path opacity="0.1" d="M239.396 119.082C236.396 122.886 239.69 130.332 241.268 138.396L226.37 136.488L225.5 140.934C225.5 140.934 242.678 147.282 246.332 144.48C250.892 140.988 247.934 128.28 245.576 122.022C245.004 120.312 243.887 118.836 242.396 117.822C241.834 117.794 241.272 117.893 240.753 118.111C240.233 118.329 239.77 118.661 239.396 119.082Z" fill="white"/>
<path d="M230.792 153.18C233.924 153.136 237.054 153.042 240.182 152.898C240.182 153.432 240.236 153.972 240.26 154.506C237.104 154.658 233.948 154.75 230.792 154.782V153.18Z" fill="#263238"/>
<path d="M218.3 154.65C217.1 154.606 215.9 154.558 214.7 154.506L214.772 152.898C215.972 152.958 217.136 153 218.324 153.042L218.3 154.65Z" fill="#263238"/>
<path d="M218.84 153.06C222.568 153.18 226.296 153.222 230.024 153.186V154.8C226.296 154.836 222.568 154.796 218.84 154.68V153.06Z" fill="#263238"/>
<path d="M222.002 154.944L224.822 154.998C224.842 155 224.862 154.997 224.881 154.991C224.9 154.984 224.917 154.974 224.932 154.96C224.946 154.947 224.958 154.93 224.966 154.912C224.974 154.894 224.978 154.874 224.978 154.854V153.204C224.976 153.165 224.96 153.127 224.932 153.1C224.905 153.072 224.867 153.055 224.828 153.054L222.008 153C221.989 152.999 221.969 153.002 221.951 153.009C221.933 153.016 221.916 153.027 221.902 153.04C221.888 153.053 221.877 153.07 221.869 153.087C221.862 153.105 221.858 153.125 221.858 153.144V154.8C221.858 154.838 221.873 154.875 221.9 154.902C221.927 154.929 221.964 154.944 222.002 154.944Z" fill="white"/>
<path d="M74.0019 124.586C78.2102 120.377 78.2102 113.554 74.0019 109.346C69.7936 105.138 62.9707 105.138 58.7624 109.346C54.5541 113.554 54.5541 120.377 58.7624 124.586C62.9707 128.794 69.7936 128.794 74.0019 124.586Z" fill="#7049A3"/>
<path d="M67.9757 114.678C67.9757 113.772 67.1957 113.154 65.9537 113.154C65.4444 113.125 64.936 113.224 64.4749 113.442C64.0137 113.66 63.6145 113.99 63.3137 114.402L61.7417 113.382C62.6477 112.152 64.1057 111.408 66.1277 111.408C68.5277 111.408 70.0937 112.494 70.0937 114.354C70.0937 116.994 67.3277 117.234 67.3277 119.154H65.2997C65.2997 116.748 67.9757 116.298 67.9757 114.678ZM65.0117 121.752C65.0057 121.496 65.0762 121.244 65.214 121.028C65.3518 120.812 65.5508 120.642 65.7855 120.54C66.0203 120.437 66.2803 120.407 66.5323 120.453C66.7843 120.499 67.0169 120.619 67.2006 120.797C67.3842 120.976 67.5106 121.205 67.5635 121.455C67.6164 121.706 67.5936 121.967 67.4978 122.204C67.402 122.442 67.2377 122.646 67.0258 122.789C66.8138 122.933 66.5638 123.011 66.3077 123.012C66.1386 123.019 65.9697 122.992 65.8116 122.932C65.6534 122.872 65.5091 122.78 65.3878 122.662C65.2664 122.544 65.1704 122.402 65.1058 122.246C65.0411 122.089 65.0091 121.921 65.0117 121.752Z" fill="white"/>
<path d="M66.3797 124.662L64.9097 126.654L66.3797 131.052L67.8557 126.654L66.3797 124.662Z" fill="#7049A3"/>
<path d="M75.5178 210.252L76.5979 250.554H75.0739L73.2979 210.252H75.5178Z" fill="#263238"/>
<path d="M70.4237 211.17H56.7857L52.4657 250.554H50.7017L54.6797 208.368L70.4237 208.788V211.17Z" fill="#263238"/>
<path d="M71.4198 208.788H90.7398H91.7358L95.9838 250.554H95.0238L94.8378 249.036L94.9878 250.554H94.0278L89.1498 211.266H73.2558L73.1298 250.554H72.1338H72.0618H71.0658L70.4238 208.788H71.4198Z" fill="#263238"/>
<path opacity="0.2" d="M72.0621 250.554L71.4141 208.788H91.7361L95.9841 250.554H95.0241L90.1401 211.266H73.2561L73.1301 250.554H72.0621Z" fill="white"/>
<path opacity="0.2" d="M56.7859 211.17H55.6759L51.4639 250.554H52.4659L56.7859 211.17Z" fill="white"/>
<path d="M77.9298 202.566L73.6518 166.926C73.4178 164.748 71.7978 163.104 69.8718 163.104H49.9518C49.696 163.122 49.4578 163.241 49.2892 163.435C49.1207 163.628 49.0353 163.88 49.0518 164.136V201.42C49.0518 205.8 52.1598 209.352 56.0058 209.352H95.8398C95.963 209.343 96.0775 209.285 96.1584 209.192C96.2393 209.099 96.2801 208.977 96.2718 208.854C96.2718 206.892 94.8798 205.302 93.1578 205.302H80.6298C79.9218 205.258 79.2548 204.955 78.7566 204.45C78.2583 203.945 77.964 203.274 77.9298 202.566Z" fill="#263238"/>
<path opacity="0.5" d="M49.0518 164.136V201.414C49.0518 205.8 52.1598 209.352 55.9998 209.352H95.8398C95.9635 209.343 96.0786 209.285 96.1604 209.192C96.2423 209.099 96.2845 208.978 96.2779 208.854C96.2854 207.934 95.9617 207.041 95.3658 206.34C95.0947 206.017 94.757 205.757 94.3759 205.577C93.9948 205.397 93.5793 205.301 93.1578 205.296H80.6298C80.3534 205.296 80.0792 205.248 79.8198 205.152C79.2938 204.94 78.8378 204.585 78.5037 204.127C78.1696 203.668 77.9708 203.126 77.9298 202.56L73.6458 166.926C73.4238 164.742 71.7978 163.104 69.8718 163.104H49.9518C49.7857 163.108 49.6241 163.159 49.486 163.252C49.3479 163.344 49.239 163.474 49.1718 163.626C49.0908 163.784 49.0496 163.959 49.0518 164.136Z" fill="white"/>
<path opacity="0.3" d="M52.73 163.104V197.22C52.73 201.6 55.844 205.152 59.684 205.152H79.82C79.2939 204.94 78.8379 204.585 78.5038 204.127C78.1697 203.668 77.9709 203.126 77.93 202.56L73.646 166.926C73.424 164.742 71.798 163.104 69.872 163.104H52.73Z" fill="white"/>
<path d="M78.1039 187.374C77.5897 185.974 76.9761 184.613 76.2679 183.3L59.2279 184.236C59.2279 184.236 53.1739 201.102 60.4999 205.428C62.7019 206.736 66.3379 207.228 70.3399 207.336C71.4428 207.362 72.5398 207.168 73.5666 206.765C74.5933 206.361 75.5291 205.756 76.3189 204.986C77.1087 204.216 77.7366 203.296 78.1657 202.279C78.5949 201.263 78.8166 200.171 78.8179 199.068C78.8179 199.068 78.8059 190.2 78.1039 187.374Z" fill="#263238"/>
<path d="M62.8521 199.608V206.4C68.9181 208.152 81.5121 207.486 88.9941 206.874C90.6196 206.741 92.1357 206.002 93.2408 204.802C94.3459 203.603 94.9589 202.031 94.958 200.4V194.82C94.9591 193.916 94.6838 193.033 94.1691 192.29C93.6543 191.547 92.9247 190.979 92.0781 190.662C88.4781 189.294 81.8781 187.26 74.9421 187.368C71.7229 187.411 68.6498 188.718 66.3873 191.009C64.1249 193.3 62.8549 196.388 62.8521 199.608Z" fill="#263238"/>
<path d="M94.3158 219.288C92.1138 225.252 89.5638 232.716 86.8398 242.136L86.6958 242.652L86.5338 243.192L83.7258 242.508L82.6698 242.25C82.6698 242.25 82.7058 241.836 82.7958 241.098C82.7958 240.942 82.8318 240.774 82.8498 240.6C83.6058 234.03 86.5218 209.91 89.4138 204.9C87.5134 205.244 85.573 205.308 83.6538 205.092C81.8538 204.786 79.6938 192.396 79.6938 192.396C82.7111 191.585 85.8161 191.146 88.9398 191.088H89.0058C89.0058 191.088 98.1258 193.236 99.8778 195.816C102.038 198.972 100.04 203.82 94.3158 219.288Z" fill="#FFB573"/>
<path d="M90.6797 250.554L84.0797 247.65L81.9977 245.322L81.3557 246.198L80.5697 245.856C80.1977 242.934 81.6197 241.566 82.3697 240.948L82.5917 240.774L82.6757 240.708H82.7117L82.8137 240.63L82.8737 240.594L86.4737 242.19C86.4737 242.19 86.5337 242.382 86.6477 242.688C87.0077 243.702 87.9017 246.024 88.8857 247.26L89.0117 247.41C89.1198 247.545 89.2426 247.668 89.3777 247.776C92.1917 249.966 90.6797 250.554 90.6797 250.554Z" fill="#7049A3"/>
<path d="M89.0598 247.374C88.0338 247.776 86.5758 246.774 85.4598 245.43C84.7945 244.508 84.2103 243.531 83.7138 242.508C83.4692 241.998 83.1564 241.524 82.7838 241.098C82.6338 240.96 82.4898 240.9 82.3638 240.96L82.5858 240.786L82.6698 240.72H82.7058L82.8078 240.642L82.8678 240.606C83.2458 240.324 83.6658 240.006 83.6658 240.006L86.5698 241.29C86.5698 241.29 86.6538 241.632 86.7978 242.16C87.1758 243.504 87.9978 246.06 88.8918 247.248L89.0598 247.374Z" fill="#FFB573"/>
<path opacity="0.1" d="M94.3157 219.288C92.1137 225.252 89.5637 232.716 86.8397 242.136C87.2177 243.48 88.0397 246.036 88.9337 247.224L89.0597 247.374C89.1678 247.509 89.2906 247.632 89.4257 247.74C92.1917 249.966 90.6797 250.554 90.6797 250.554L84.0797 247.65L81.9977 245.322L81.3557 246.198L80.5697 245.856C80.1977 242.934 81.6197 241.566 82.3697 240.948L82.5917 240.774L82.6757 240.708H82.7117L82.8137 240.63C83.5697 234.06 86.4857 209.94 89.3777 204.93C87.4773 205.274 85.5368 205.338 83.6177 205.122C81.8177 204.816 79.6577 192.426 79.6577 192.426C82.6749 191.615 85.7799 191.176 88.9037 191.118H88.9697C88.9697 191.118 87.8657 191.22 86.3657 193.11C86.3657 193.11 92.4917 194.25 94.1657 197.49C94.8557 198.768 94.6997 208.344 94.3157 219.288Z" fill="black"/>
<path d="M79.6998 192.396C79.6998 192.396 90.1818 194.04 91.9398 196.596C94.9398 201.024 89.5398 209.736 79.5918 244.494L75.7218 243.54C75.7218 243.54 77.9538 212.004 81.3018 206.19C81.3018 206.19 76.8258 206.79 74.3418 206.382C71.1498 205.866 69.1278 195.216 79.6998 192.396Z" fill="#FFB573"/>
<path d="M75.086 250.332H75.944L76.178 249.27L79.022 250.554H86.222C86.222 250.554 87.368 249.402 83.942 248.484C83.7741 248.438 83.6113 248.376 83.456 248.298C81.626 247.446 79.028 244.548 79.028 244.548H75.08C74.9597 244.731 74.8514 244.921 74.756 245.118C74.3 246 73.574 247.8 75.086 250.332Z" fill="#7049A3"/>
<path d="M74.75 245.118C75.272 244.518 77.642 247.092 79.382 247.962C80.93 248.73 82.676 249.072 83.45 248.286C81.62 247.434 78.746 243.69 78.746 243.69H75.572C75.572 243.69 74.936 244.746 74.75 245.118Z" fill="#FFB573"/>
<path d="M99.0016 190.302V191.73C99.0016 192.096 98.5696 192.246 98.2096 192.246H69.6376C69.2716 192.246 68.8276 192.096 68.8276 191.73V190.302H99.0016Z" fill="#263238"/>
<path opacity="0.4" d="M99.0016 190.302V191.73C99.0016 192.096 98.5696 192.246 98.2096 192.246H69.6376C69.2716 192.246 68.8276 192.096 68.8276 191.73V190.302H99.0016Z" fill="white"/>
<path opacity="0.2" d="M99.0021 190.302V191.73C99.0021 192.096 98.5701 192.246 98.2101 192.246H79.3641C78.9981 192.246 78.5601 192.096 78.5601 191.73V190.302H99.0021Z" fill="black"/>
<path d="M103.784 175.458L100.382 190.884C100.32 191.132 100.179 191.352 99.9792 191.51C99.7794 191.669 99.5326 191.757 99.2776 191.76H80.6776C80.5647 191.754 80.4548 191.722 80.3559 191.667C80.257 191.613 80.1718 191.536 80.1066 191.444C80.0414 191.351 79.9979 191.246 79.9794 191.134C79.9609 191.023 79.9678 190.908 79.9996 190.8L83.3956 175.488C83.465 175.254 83.6125 175.052 83.8135 174.914C84.0146 174.777 84.2568 174.712 84.4996 174.732H103.1C103.58 174.726 103.892 174.954 103.784 175.458Z" fill="#263238"/>
<path opacity="0.4" d="M103.784 175.458L100.382 190.884C100.321 191.132 100.179 191.352 99.9796 191.51C99.7798 191.669 99.533 191.757 99.278 191.76H81.332C81.2164 191.757 81.1029 191.728 81.0005 191.675C80.8981 191.621 80.8094 191.545 80.7414 191.451C80.6735 191.358 80.628 191.25 80.6087 191.136C80.5894 191.022 80.5967 190.905 80.63 190.794L84.032 175.482C84.0994 175.247 84.2465 175.043 84.448 174.905C84.6495 174.767 84.8928 174.704 85.136 174.726H103.1C103.58 174.726 103.892 174.954 103.784 175.458Z" fill="white"/>
<path opacity="0.2" d="M94.622 183.3C94.5638 183.926 94.2852 184.511 93.8357 184.951C93.3862 185.39 92.7952 185.656 92.168 185.7C91.13 185.7 90.518 184.632 90.812 183.3C91.106 181.968 92.138 180.954 93.158 180.9C92.858 182.22 93.494 183.3 94.526 183.3H94.622Z" fill="black"/>
<path d="M77.6897 158.052C80.8937 160.77 84.0797 163.92 87.8297 165.804L87.8837 165.834C87.5178 165.755 87.1369 165.782 86.7857 165.912C86.2849 166.091 85.8626 166.44 85.592 166.898C85.3213 167.356 85.2193 167.895 85.3037 168.42C85.3204 168.534 85.3591 168.644 85.4177 168.744C84.2177 166.782 82.5497 165.042 81.0737 163.242C79.4297 161.34 77.7797 159.408 76.1477 157.47C75.9365 157.215 75.8262 156.891 75.838 156.56C75.8498 156.23 75.9828 155.915 76.2117 155.675C76.4405 155.436 76.7494 155.289 77.0794 155.263C77.4094 155.236 77.7377 155.332 78.0017 155.532C80.0417 157.098 82.0157 158.724 83.9297 160.44C85.9397 162.312 88.0217 164.04 89.5997 166.368C89.7372 166.595 89.8537 166.834 89.9477 167.082C90.1135 167.501 90.1692 167.956 90.1094 168.403C90.0497 168.85 89.8765 169.274 89.6064 169.635C89.3363 169.995 88.9783 170.281 88.5665 170.465C88.1546 170.648 87.7027 170.723 87.2537 170.682C86.881 170.64 86.5133 170.561 86.1557 170.448C81.4217 168.69 77.6657 165.348 74.0057 162.048C71.4977 159.528 75.0197 155.76 77.7017 158.1L77.6897 158.052Z" fill="#E9B376"/>
<path d="M83.0356 161.778C82.8376 165.624 80.0356 169.608 80.0356 169.608L79.3696 169.236L76.0456 167.436C76.0456 167.436 75.9736 167.256 75.8596 166.95C75.7456 166.644 75.6016 166.284 75.4216 165.81C74.4916 163.338 72.7996 158.706 72.4756 156.744C76.3876 156.264 78.2956 157.974 83.0356 161.778Z" fill="#7049A3"/>
<path opacity="0.7" d="M83.0356 161.778C82.8376 165.624 80.0356 169.608 80.0356 169.608L79.3696 169.236L76.0456 167.436C76.0456 167.436 75.9736 167.256 75.8596 166.95C75.7456 166.644 75.6016 166.284 75.4216 165.81C74.4916 163.338 72.7996 158.706 72.4756 156.744C76.3876 156.264 78.2956 157.974 83.0356 161.778Z" fill="white"/>
<path opacity="0.2" d="M79.3879 169.236L76.0639 167.436C76.0639 167.436 75.9919 167.256 75.8779 166.95C75.9155 165.979 76.0137 165.011 76.1719 164.052C77.0512 164.632 77.7941 165.396 78.3493 166.291C78.9046 167.186 79.2589 168.191 79.3879 169.236Z" fill="black"/>
<path d="M56.1436 162.276C56.1436 162.372 56.1796 162.462 56.2036 162.558C57.0376 165.912 57.6556 168.774 58.1056 171.27C58.6007 173.878 58.9214 176.516 59.0656 179.166C59.1541 181.027 59.102 182.893 58.9096 184.746L76.7656 185.346C77.4676 179.544 77.8216 176.064 78.0796 172.524C78.3138 170.103 78.3839 167.67 78.2896 165.24C78.2896 162.09 76.0816 158.388 72.9436 157.842C72.0676 157.692 71.1436 157.548 70.2856 157.44L69.8116 157.386C66.516 157.049 63.1882 157.213 59.9416 157.872C58.1716 158.286 55.7296 159.792 56.1436 162.276Z" fill="#7049A3"/>
<path opacity="0.7" d="M56.1436 162.276C56.1436 162.372 56.1796 162.462 56.2036 162.558C57.0376 165.912 57.6556 168.774 58.1056 171.27C58.6007 173.878 58.9214 176.516 59.0656 179.166C59.1541 181.027 59.102 182.893 58.9096 184.746L76.7656 185.346C77.4676 179.544 77.8216 176.064 78.0796 172.524C78.3138 170.103 78.3839 167.67 78.2896 165.24C78.2896 162.09 76.0816 158.388 72.9436 157.842C72.0676 157.692 71.1436 157.548 70.2856 157.44L69.8116 157.386C66.516 157.049 63.1882 157.213 59.9416 157.872C58.1716 158.286 55.7296 159.792 56.1436 162.276Z" fill="white"/>
<path opacity="0.2" d="M59.0656 179.166C58.9194 176.515 58.5967 173.878 58.0996 171.27C60.0976 168.48 62.0176 166.14 62.0176 166.14C62.0176 166.14 66.2236 174.78 59.0656 179.166Z" fill="black"/>
<path d="M60.8298 165.804C60.5958 169.602 59.8758 175.47 60.1398 179.16L60.0078 178.692C59.8938 178.476 59.9718 178.692 60.0978 178.818C61.5318 180.414 63.3918 181.656 65.1618 182.958C67.0698 184.326 69.8838 186.216 71.8518 187.566C72.17 187.731 72.4098 188.015 72.5184 188.357C72.627 188.698 72.5955 189.069 72.4308 189.387C72.2661 189.705 71.9817 189.945 71.6402 190.054C71.2987 190.162 70.928 190.131 70.6098 189.966C69.2958 189.456 68.0418 188.886 66.7698 188.31C63.7698 186.816 56.1258 183.408 55.3338 180.048C54.5238 175.002 54.9678 170.268 55.4478 165.276C55.521 164.56 55.8756 163.902 56.4338 163.448C56.9919 162.993 57.7077 162.779 58.4238 162.852C59.1399 162.925 59.7975 163.28 60.2521 163.838C60.7067 164.396 60.921 165.112 60.8478 165.828L60.8298 165.804Z" fill="#E9B376"/>
<path d="M76.3279 186.894L75.1879 186.204C74.9775 186.074 74.7389 185.997 74.4924 185.98C74.2458 185.962 73.9987 186.004 73.7719 186.102L71.6239 187.032C71.1994 187.214 70.8247 187.496 70.5314 187.853C70.2381 188.21 70.0345 188.632 69.9379 189.084L69.8179 189.648C71.6179 190.926 74.5279 190.962 74.5279 190.962L75.3499 191.07C75.5186 191.096 75.6909 191.089 75.8568 191.048C76.0227 191.007 76.1788 190.934 76.3161 190.832C76.4534 190.731 76.5692 190.603 76.6567 190.456C76.7442 190.31 76.8017 190.147 76.8259 189.978L77.0539 188.346C77.0872 188.06 77.0363 187.77 76.9074 187.512C76.7784 187.254 76.577 187.039 76.3279 186.894Z" fill="#EBB376"/>
<path d="M60.1279 157.878C56.5279 158.712 55.2019 161.604 54.3979 167.856C55.9999 169.692 61.4119 170.412 61.4119 170.412C61.4119 170.412 63.4519 161.028 60.1279 157.878Z" fill="#7049A3"/>
<path d="M61.1299 157.626C60.7219 157.68 62.1679 162.048 68.3299 162.78C74.4919 163.512 73.5499 157.98 72.9619 156.648C72.9379 156.648 65.5579 157.002 61.1299 157.626Z" fill="#EBB376"/>
<path d="M61.3217 137.532C61.3217 137.532 64.4657 133.41 70.9577 134.868C77.4497 136.326 78.1157 147.654 75.2357 152.016C70.1836 152.255 65.1829 153.14 60.3557 154.65C60.3557 154.65 56.6297 146.706 57.7457 141.762C58.8617 136.818 61.3217 137.532 61.3217 137.532Z" fill="#263238"/>
<path d="M63.4997 148.704C64.0997 151.338 64.8257 156.144 63.0737 157.83C63.0737 157.83 65.5577 157.542 70.6997 160.956C72.2897 158.826 71.1797 158.094 71.1797 158.094C68.2457 157.302 68.2277 155.142 68.6537 153.126L63.4997 148.704Z" fill="#EBB376"/>
<path opacity="0.2" d="M65.6176 150.51L68.6656 153.126C68.5593 153.597 68.4971 154.077 68.4796 154.56C67.3576 154.362 65.7856 153.09 65.6176 151.92C65.5311 151.454 65.5311 150.976 65.6176 150.51Z" fill="black"/>
<path d="M61.4599 143.4C62.1139 147.642 62.2999 149.442 64.6399 151.542C68.1559 154.698 73.1719 153.258 73.7899 148.98C74.3479 145.128 73.1899 138.84 68.8879 137.31C67.9769 136.95 66.9863 136.84 66.0185 136.991C65.0507 137.143 64.141 137.55 63.3835 138.171C62.626 138.792 62.0483 139.605 61.71 140.524C61.3718 141.443 61.2855 142.436 61.4599 143.4Z" fill="#EBB376"/>
<path d="M66.8178 144.276C66.8598 144.63 67.0758 144.918 67.3038 144.876C67.5318 144.834 67.6878 144.57 67.6458 144.21C67.6038 143.85 67.3878 143.568 67.1598 143.58C66.9318 143.592 66.7818 143.916 66.8178 144.276Z" fill="#263238"/>
<path d="M71.2999 143.958C71.3359 144.312 71.5519 144.6 71.7799 144.558C72.0079 144.516 72.1639 144.252 72.1279 143.892C72.0919 143.532 71.8699 143.25 71.6419 143.262C71.4139 143.274 71.2279 143.598 71.2999 143.958Z" fill="#263238"/>
<path d="M71.5098 143.316L72.3258 143.034C72.3258 143.034 71.9658 143.724 71.5098 143.316Z" fill="#263238"/>
<path d="M69.9917 144.798C70.3963 145.604 70.9002 146.356 71.4917 147.036C71.3255 147.17 71.1317 147.265 70.9241 147.315C70.7166 147.365 70.5006 147.368 70.2917 147.324L69.9917 144.798Z" fill="#D58745"/>
<path d="M65.8996 142.056C65.9271 142.059 65.9548 142.055 65.9807 142.046C66.0066 142.037 66.0302 142.022 66.0496 142.002C66.2204 141.812 66.4365 141.668 66.6778 141.584C66.9191 141.5 67.1778 141.479 67.4296 141.522C67.4557 141.528 67.4827 141.529 67.509 141.524C67.5354 141.52 67.5605 141.51 67.583 141.495C67.6054 141.481 67.6246 141.462 67.6395 141.439C67.6544 141.417 67.6647 141.392 67.6696 141.366C67.6773 141.309 67.6638 141.251 67.6317 141.204C67.5996 141.156 67.5512 141.122 67.4956 141.108C67.1767 141.054 66.8495 141.081 66.5436 141.186C66.2377 141.291 65.9627 141.47 65.7436 141.708C65.7051 141.747 65.6836 141.8 65.6836 141.855C65.6836 141.91 65.7051 141.963 65.7436 142.002C65.7646 142.021 65.7893 142.036 65.8161 142.045C65.8429 142.054 65.8713 142.058 65.8996 142.056Z" fill="#263238"/>
<path d="M72.8358 141.528C72.8752 141.532 72.915 141.525 72.9503 141.507C72.9856 141.489 73.0149 141.461 73.0346 141.427C73.0543 141.392 73.0636 141.353 73.0613 141.313C73.0591 141.274 73.0453 141.236 73.0218 141.204C72.8328 140.922 72.5812 140.688 72.2867 140.519C71.9921 140.35 71.6626 140.252 71.3238 140.232C71.2972 140.232 71.2709 140.237 71.2466 140.248C71.2223 140.259 71.2006 140.275 71.183 140.295C71.1654 140.315 71.1522 140.338 71.1444 140.363C71.1366 140.389 71.1344 140.416 71.1378 140.442C71.1422 140.498 71.1674 140.551 71.2084 140.59C71.2494 140.628 71.3033 140.651 71.3598 140.652C71.6264 140.673 71.8849 140.753 72.1156 140.889C72.3464 141.024 72.5434 141.209 72.6918 141.432C72.7253 141.482 72.777 141.516 72.8358 141.528Z" fill="#263238"/>
<path d="M67.064 143.634L67.874 143.352C67.874 143.352 67.52 144.042 67.064 143.634Z" fill="#263238"/>
<path d="M62.5581 145.878C62.5581 145.878 65.6361 143.028 64.5561 139.044C64.5561 139.044 70.2501 136.236 73.0581 141.978C73.0581 141.978 73.1361 136.866 67.5141 136.326C61.8921 135.786 55.9761 143.826 62.7141 148.998L62.5581 145.878Z" fill="#263238"/>
<path d="M60.3858 146.946C60.8842 147.71 61.6654 148.245 62.5579 148.434C63.7039 148.644 64.1119 147.504 63.6559 146.394C63.2479 145.398 62.1619 144.09 61.0759 144.378C59.9899 144.666 59.7498 145.986 60.3858 146.946Z" fill="#EBB376"/>
<path d="M73.898 144.42C73.8728 144.419 73.8484 144.41 73.8281 144.396C73.8077 144.381 73.7924 144.36 73.784 144.336C71.06 137.076 64.22 139.176 64.148 139.2C64.1178 139.209 64.085 139.206 64.0569 139.192C64.0288 139.177 64.0076 139.152 63.998 139.122C63.9924 139.107 63.99 139.09 63.9909 139.074C63.9918 139.058 63.9961 139.042 64.0034 139.027C64.0107 139.013 64.0209 139 64.0334 138.989C64.0459 138.979 64.0604 138.971 64.076 138.966C64.148 138.966 71.204 136.776 74.012 144.252C74.0177 144.267 74.0204 144.283 74.0199 144.299C74.0193 144.315 74.0156 144.331 74.0089 144.345C74.0022 144.36 73.9926 144.373 73.9808 144.384C73.969 144.394 73.9551 144.403 73.94 144.408L73.898 144.42Z" fill="#263238"/>
<path d="M69.9798 149.136C69.8958 149.136 67.9638 149.1 67.2318 147.822C67.2143 147.789 67.2102 147.751 67.2202 147.715C67.2303 147.679 67.2538 147.649 67.2858 147.63C67.3019 147.621 67.3197 147.614 67.3382 147.612C67.3567 147.61 67.3754 147.611 67.3934 147.616C67.4113 147.621 67.4281 147.63 67.4426 147.641C67.4571 147.653 67.4691 147.668 67.4778 147.684C68.1258 148.824 69.9618 148.884 69.9798 148.884C69.9985 148.883 70.0171 148.886 70.0345 148.893C70.0519 148.899 70.0679 148.909 70.0813 148.922C70.0948 148.935 70.1055 148.951 70.1128 148.968C70.1201 148.985 70.1239 149.003 70.1238 149.022C70.1169 149.055 70.0987 149.084 70.0724 149.105C70.0461 149.126 70.0134 149.137 69.9798 149.136Z" fill="#263238"/>
<path d="M71.2039 168.552C71.1705 168.552 71.1383 168.539 71.114 168.516C67.6788 165.403 64.9057 161.63 62.96 157.422C62.9479 157.386 62.9499 157.347 62.9654 157.313C62.981 157.278 63.0091 157.251 63.044 157.236C63.0609 157.229 63.079 157.226 63.0972 157.226C63.1155 157.226 63.1335 157.23 63.1502 157.237C63.167 157.245 63.1821 157.255 63.1948 157.268C63.2074 157.281 63.2173 157.297 63.224 157.314C65.116 161.411 67.8018 165.092 71.126 168.144C71.414 166.914 72.602 161.016 69.998 156.834C69.9781 156.803 69.9713 156.765 69.9792 156.729C69.9871 156.693 70.0089 156.662 70.04 156.642C70.071 156.622 70.1086 156.615 70.1447 156.623C70.1807 156.631 70.2121 156.653 70.232 156.684C73.232 161.454 71.36 168.378 71.342 168.45C71.3361 168.473 71.3241 168.494 71.3072 168.511C71.2903 168.528 71.2692 168.54 71.246 168.546L71.2039 168.552Z" fill="#263238"/>
<path d="M71.3779 168.282L71.8879 168.828C71.9273 168.879 71.9487 168.941 71.9487 169.005C71.9487 169.069 71.9273 169.131 71.8879 169.182L71.4739 169.824C71.4506 169.86 71.4196 169.89 71.3832 169.912C71.3468 169.935 71.3058 169.949 71.2633 169.953C71.2208 169.958 71.1778 169.953 71.1374 169.939C71.0971 169.925 71.0603 169.902 71.0299 169.872L70.5559 169.416C70.5111 169.373 70.4815 169.316 70.4718 169.254C70.462 169.192 70.4726 169.129 70.5019 169.074L70.8799 168.348C70.8989 168.3 70.9301 168.259 70.9705 168.227C71.0109 168.196 71.0589 168.176 71.1096 168.169C71.1603 168.162 71.2119 168.169 71.2591 168.189C71.3062 168.209 71.3472 168.241 71.3779 168.282Z" fill="white"/>
<path opacity="0.7" d="M60.1279 157.878C56.5279 158.712 55.2019 161.604 54.3979 167.856C55.9999 169.692 61.4119 170.412 61.4119 170.412C61.4119 170.412 63.4519 161.028 60.1279 157.878Z" fill="white"/>
<path d="M79.0098 156.684L77.5518 152.964L74.5518 156.198C74.5518 156.198 76.0518 159.438 77.6838 158.598L79.0098 156.684Z" fill="#EBB376"/>
<path d="M74.408 150.57L72.752 154.23L74.528 156.198L77.552 152.964L74.408 150.57Z" fill="#EBB376"/>
<path d="M83.51 169.26C84.1657 169.628 84.8475 169.946 85.55 170.214L86.15 170.424L86.522 170.526L86.702 170.574H86.75H86.87L87.122 170.61H87.248H87.422H87.782C87.9864 170.589 88.1878 170.545 88.382 170.478C88.6576 170.382 88.9152 170.24 89.144 170.058C89.4141 169.845 89.6386 169.58 89.804 169.278C89.8817 169.134 89.946 168.984 89.996 168.828C90.0331 168.712 90.0612 168.594 90.08 168.474C90.1032 168.357 90.1172 168.239 90.122 168.12C90.1284 168.044 90.1284 167.968 90.122 167.892C90.1156 167.755 90.0995 167.619 90.074 167.484C90.0437 167.327 90.0016 167.173 89.948 167.022L89.822 166.716L89.708 166.488L89.6 166.308C89.3798 165.947 89.131 165.604 88.856 165.282C88.622 164.994 88.388 164.736 88.16 164.478C87.698 163.974 87.236 163.5 86.768 163.038C85.832 162.12 84.896 161.238 83.93 160.38C82.016 158.664 80.042 157.038 78.002 155.472C77.7379 155.272 77.4097 155.176 77.0796 155.203C76.7496 155.229 76.4408 155.376 76.2119 155.615C75.983 155.855 75.85 156.17 75.8383 156.5C75.8265 156.831 75.9367 157.155 76.148 157.41C77.78 159.342 79.43 161.274 81.068 163.17C81.878 164.13 82.7 165.072 83.468 166.032C83.864 166.506 84.242 166.98 84.596 167.448C84.77 167.676 84.938 167.91 85.088 168.132C85.2077 168.305 85.3159 168.485 85.412 168.672C85.3956 168.646 85.3834 168.618 85.376 168.588C85.3483 168.514 85.3262 168.438 85.31 168.36C85.2917 168.263 85.2797 168.165 85.274 168.066V167.898C85.2751 167.797 85.2851 167.697 85.304 167.598C85.3216 167.5 85.3456 167.404 85.376 167.31C85.42 167.17 85.4783 167.036 85.55 166.908C85.7011 166.64 85.9052 166.405 86.15 166.218C86.3504 166.064 86.5729 165.94 86.81 165.852C86.9648 165.796 87.126 165.76 87.29 165.744C87.3697 165.735 87.4502 165.735 87.53 165.744H87.716H87.848H87.908H87.866L87.782 165.708L87.488 165.576C87.074 165.372 86.612 165.09 86.144 164.796C85.166 164.25 82.274 168.6 83.51 169.26Z" fill="#E9B376"/>
</svg>
