<svg width="24" height="24" viewBox="0 0 26 27" fill="none" xmlns="http://www.w3.org/2000/svg">
<path d="M0 5.52148V7.14648H15.4375V19.334H10.4358C10.0734 17.9373 8.81725 16.8965 7.3125 16.8965C5.80775 16.8965 4.55163 17.9373 4.18925 19.334H3.25V15.2715H1.625V20.959H4.18925C4.55163 22.3557 5.80775 23.3965 7.3125 23.3965C8.81725 23.3965 10.0734 22.3557 10.4358 20.959H17.1893C17.5516 22.3557 18.8078 23.3965 20.3125 23.3965C21.8172 23.3965 23.0734 22.3557 23.4357 20.959H26V14.3322L25.9488 14.2047L24.3238 9.32967L24.1475 8.77148H17.0625V5.52148H0ZM0.8125 8.77148V10.3965H8.125V8.77148H0.8125ZM17.0625 10.3965H22.9783L24.375 14.5605V19.334H23.4357C23.0734 17.9373 21.8172 16.8965 20.3125 16.8965C18.8078 16.8965 17.5516 17.9373 17.1893 19.334H17.0625V10.3965ZM1.625 12.0215V13.6465H6.5V12.0215H1.625ZM7.3125 18.5215C8.22006 18.5215 8.9375 19.2389 8.9375 20.1465C8.9375 21.054 8.22006 21.7715 7.3125 21.7715C6.40494 21.7715 5.6875 21.054 5.6875 20.1465C5.6875 19.2389 6.40494 18.5215 7.3125 18.5215ZM20.3125 18.5215C21.2201 18.5215 21.9375 19.2389 21.9375 20.1465C21.9375 21.054 21.2201 21.7715 20.3125 21.7715C19.4049 21.7715 18.6875 21.054 18.6875 20.1465C18.6875 19.2389 19.4049 18.5215 20.3125 18.5215Z" fill="#FACC15"/>
</svg>
