<svg width="24" height="24" viewBox="0 0 30 31" fill="none" xmlns="http://www.w3.org/2000/svg">
<path d="M6.25 21.8965C6.25 22.5595 6.51339 23.1954 6.98223 23.6643C7.45107 24.1331 8.08696 24.3965 8.75 24.3965C9.41304 24.3965 10.0489 24.1331 10.5178 23.6643C10.9866 23.1954 11.25 22.5595 11.25 21.8965C11.25 21.2334 10.9866 20.5976 10.5178 20.1287C10.0489 19.6599 9.41304 19.3965 8.75 19.3965C8.08696 19.3965 7.45107 19.6599 6.98223 20.1287C6.51339 20.5976 6.25 21.2334 6.25 21.8965ZM18.75 21.8965C18.75 22.5595 19.0134 23.1954 19.4822 23.6643C19.9511 24.1331 20.587 24.3965 21.25 24.3965C21.913 24.3965 22.5489 24.1331 23.0178 23.6643C23.4866 23.1954 23.75 22.5595 23.75 21.8965C23.75 21.2334 23.4866 20.5976 23.0178 20.1287C22.5489 19.6599 21.913 19.3965 21.25 19.3965C20.587 19.3965 19.9511 19.6599 19.4822 20.1287C19.0134 20.5976 18.75 21.2334 18.75 21.8965Z" stroke="white" stroke-width="2" stroke-linecap="round" stroke-linejoin="round"/>
<path d="M6.25 21.8965H3.75V8.14648C3.75 7.81496 3.8817 7.49702 4.11612 7.2626C4.35054 7.02818 4.66848 6.89648 5 6.89648H16.25V14.3965H10M10 14.3965L12.5 16.8965M10 14.3965L12.5 11.8965M11.25 21.8965H18.75M16.25 8.14648H22.5L26.25 14.3965V21.8965H23.75" stroke="white" stroke-width="2" stroke-linecap="round" stroke-linejoin="round"/>
</svg>
