<svg width="24" height="24" viewBox="0 0 26 27" fill="none" xmlns="http://www.w3.org/2000/svg">
<path d="M24.375 23.3965C24.375 20.9858 22.6143 18.9838 20.3125 18.5946V17.709H21.125V16.084H17.875V17.709H18.6875V18.5946C16.3857 18.9838 14.625 20.9858 14.625 23.3965H13.8125V25.0215H25.1875V23.3965H24.375ZM16.25 23.3965C16.25 21.6041 17.7076 20.1465 19.5 20.1465C21.2924 20.1465 22.75 21.6041 22.75 23.3965H16.25Z" fill="#FACC15"/>
<path d="M11.375 23.3965H7.3125V7.14648H18.6875V13.6465H20.3125V3.89648C20.3125 3.0003 19.5837 2.27148 18.6875 2.27148H7.3125C6.41631 2.27148 5.6875 3.0003 5.6875 3.89648V23.3965C5.6875 24.2927 6.41631 25.0215 7.3125 25.0215H11.375V23.3965ZM7.3125 3.89648H18.6875V5.52148H7.3125V3.89648Z" fill="#FACC15"/>
</svg>
