<svg width="22" height="22" viewBox="0 0 26 27" fill="none" xmlns="http://www.w3.org/2000/svg">
<path d="M12.9993 16.8968V15.8135C12.9993 14.7301 12.9993 14.1885 14.0827 13.6468C15.166 13.1051 16.2493 12.5635 16.2493 10.9385C16.2493 9.85514 15.166 8.23014 12.9993 8.23014C10.8327 8.23014 9.74935 9.59948 9.74935 11.4801M12.9993 17.9801V20.1468M2.16602 4.96931C2.16602 3.77981 3.13885 2.81348 4.32185 2.81348H21.6768C22.8663 2.81348 23.8327 3.78631 23.8327 4.96931V22.3243C23.8327 23.5149 22.8598 24.4801 21.6768 24.4801H4.32185C3.75053 24.4787 3.20301 24.2511 2.79902 23.8471C2.39504 23.4431 2.16745 22.8956 2.16602 22.3243V4.96931Z" stroke="#FACC15" stroke-width="2"/>
</svg>
