<svg width="148" height="54" viewBox="0 0 148 54" fill="none" xmlns="http://www.w3.org/2000/svg">
<path d="M1.30648 0.565232C1.07349 1.19763 8.0632 49.9259 8.59575 51.3239C8.76218 51.8232 9.1283 52.2891 9.39458 52.389C9.69414 52.4888 13.7548 52.0561 18.4479 51.4237C23.141 50.7913 29.3985 49.9592 32.3275 49.5598C35.2565 49.1604 37.8527 48.6611 38.0857 48.4614C38.4186 48.1286 37.42 43.7018 33.1596 26.2608C30.2306 14.3117 27.7676 4.15994 27.6677 3.76053C27.5678 3.36112 27.2017 2.86185 26.8689 2.66215C26.4029 2.42916 3.76952 -0.000602295 1.77246 -0.000602295C1.63932 -0.000602295 1.40633 0.265673 1.30648 0.565232ZM15.0196 3.1947C20.8777 3.69396 25.7705 4.19323 25.9036 4.29308C26.1366 4.52607 34.1582 37.9436 34.1582 38.7757C34.1582 39.042 34.0916 39.275 33.9917 39.275C33.9252 39.275 28.8659 39.7409 22.7749 40.2735C16.6839 40.8393 11.1587 41.272 10.493 41.272H9.26144L8.66232 37.3445C8.36276 35.2143 7.03139 26.4605 5.70001 17.8731C3.66967 4.62592 3.40339 2.3293 3.83609 2.3293C4.13565 2.3293 9.16159 2.72872 15.0196 3.1947ZM25.2712 43.8016C26.9354 45.4658 26.7025 48.1619 24.8385 48.9274C22.1092 50.0591 19.513 45.8985 21.5767 43.7018C22.5752 42.6367 24.1728 42.67 25.2712 43.8016Z" fill="white"/>
<path d="M0.00644492 3.16078C-0.226546 4.12603 5.93106 50.4579 6.56347 52.5215C6.76317 53.0873 7.19587 53.753 7.562 53.9194C8.02798 54.1857 11.7225 53.753 21.7079 52.2552C29.1636 51.1236 35.5542 50.0585 35.9536 49.892C36.5194 49.659 36.4195 49.6258 35.4876 49.7589C26.0681 51.0903 11.8557 52.9209 10.6907 52.9875C7.89484 53.0873 8.29425 54.6184 4.33341 27.2919C2.36964 13.8451 0.638848 2.6948 0.50571 2.52838C0.372573 2.36196 0.139582 2.66151 0.00644492 3.16078Z" fill="white"/>
<path d="M47.7173 1.84741C47.5797 1.98055 47.4766 2.31339 47.4766 2.57967C47.4766 2.84594 50.6748 7.30605 54.5953 12.4984L61.714 21.9512H63.296C64.1557 21.9512 65.0499 21.7848 65.2906 21.5518C65.7721 21.0858 65.8752 2.77937 65.3938 2.04712C65.2218 1.74756 64.534 1.64771 63.4335 1.71428L61.7484 1.81413L61.5765 8.40443L61.4045 14.9947L56.3836 8.40443L51.3626 1.81413L49.6775 1.71428C48.749 1.64771 47.8549 1.71428 47.7173 1.84741Z" fill="white"/>
<path d="M80.1483 1.94767C77.1907 2.84635 74.4052 5.54238 73.4422 8.47141C72.6857 10.8346 72.8576 14.163 73.8549 16.3598C75.1961 19.2223 78.4976 21.6853 81.18 21.7519L82.3836 21.7852V20.1209C82.3836 18.5233 82.3492 18.4567 81.008 17.8576C78.1537 16.5595 77.0532 14.8953 77.0532 11.7998C77.0532 8.73768 78.6351 6.50763 81.3863 5.64224C82.59 5.24282 82.59 5.20954 82.4868 3.54532C82.3836 1.6814 81.971 1.41512 80.1483 1.94767Z" fill="white"/>
<path d="M84.7528 2.11369C84.6496 2.34668 84.6152 3.21207 84.684 4.0109C84.7872 5.30899 84.8904 5.47541 85.8877 5.7084C87.4352 6.10781 89.2579 8.03831 89.7737 9.80238C90.7367 13.1308 89.3267 16.3594 86.3347 17.6908L84.6152 18.4563V20.1871C84.6152 21.8846 84.6496 21.9512 85.5782 21.9512C86.8506 21.9179 89.0515 20.9194 90.5991 19.6213C95.2417 15.6604 95.2417 7.97174 90.5991 4.0109C89.1891 2.81266 86.6099 1.64771 85.4062 1.64771C85.1311 1.64771 84.856 1.84741 84.7528 2.11369Z" fill="white"/>
<path d="M106.764 2.18011C105.973 2.44639 104.701 3.21193 103.91 3.84433C98.1321 8.63728 99.3357 18.0568 106.111 21.1522C108.999 22.4836 110.065 22.184 110.065 20.0205C110.065 18.8223 109.825 18.5893 107.933 17.7239C105.044 16.3925 103.6 13.0974 104.563 9.83552C105.079 8.07145 106.97 6.07439 108.483 5.70826C109.756 5.37542 110.375 4.11061 109.859 2.71267C109.481 1.64757 108.69 1.51443 106.764 2.18011Z" fill="white"/>
<path d="M112.026 1.84708C111.888 1.98021 111.785 2.77904 111.785 3.64443C111.785 5.2088 111.82 5.24208 113.298 5.77463C114.124 6.07419 115.293 6.83973 115.878 7.50542C116.909 8.57052 117.15 8.67037 118.594 8.57052C120.039 8.47067 120.211 8.37081 120.314 7.60527C120.451 6.54017 117.838 3.57786 115.946 2.6459C114.468 1.91365 112.404 1.51423 112.026 1.84708Z" fill="white"/>
<path d="M134.722 1.8807C134.618 2.04712 133.208 5.17585 131.592 8.9037C129.185 14.2958 128.669 15.7603 129.013 16.1597C129.494 16.7255 132.211 16.7921 132.658 16.193C132.865 15.9933 133.827 13.8631 134.825 11.5332C136.028 8.77056 136.751 7.43919 136.923 7.73875C137.232 8.2713 141.359 17.6575 141.359 17.8239C141.359 17.8905 138.367 17.957 134.756 17.957C131.111 17.957 127.981 18.0902 127.775 18.2233C127.603 18.3565 127.156 19.0221 126.812 19.7544C125.746 21.9512 125.711 21.9512 136.888 21.9512C145.417 21.9512 146.827 21.8846 146.999 21.4519C147.136 21.0525 140.293 4.74315 138.917 2.24682C138.642 1.78084 138.161 1.64771 136.716 1.64771C135.719 1.64771 134.79 1.74756 134.722 1.8807Z" fill="white"/>
<path d="M110.202 10.7679C110.099 11.0342 110.065 11.7997 110.133 12.4987L110.237 13.7968L113.607 13.8966C116.22 13.9632 116.943 14.0963 116.943 14.4624C116.943 15.2946 114.776 17.3582 113.229 17.9906C111.75 18.623 111.75 18.623 111.853 20.1874C111.956 21.552 112.059 21.785 112.747 21.8849C115.051 22.2177 118.765 19.6548 120.244 16.7591C120.966 15.3278 121.207 14.3626 121.207 12.6651L121.241 10.4683L115.808 10.3685C111.371 10.3019 110.374 10.3685 110.202 10.7679Z" fill="white"/>
<path d="M47.6148 15.3946C47.5461 15.6275 47.4773 17.1919 47.5461 18.8228L47.6492 21.7852H49.3687H51.0882V18.4567V15.1283L49.4375 15.0284C48.3026 14.9619 47.7524 15.0617 47.6148 15.3946Z" fill="white"/>
<path d="M52.7734 34.7412C52.7734 34.777 52.7409 34.7949 52.6758 34.7949C52.4316 34.7949 52.0605 34.7738 51.5625 34.7314C51.0677 34.6891 50.6966 34.668 50.4492 34.668C50.1367 34.668 49.9544 34.6794 49.9023 34.7021C49.7819 34.7575 49.7217 34.9137 49.7217 35.1709C49.7217 35.4801 49.7998 35.6559 49.9561 35.6982C50.0212 35.7145 50.1204 35.7227 50.2539 35.7227C50.4785 35.7227 50.8138 35.7113 51.2598 35.6885C51.709 35.6624 52.0459 35.6494 52.2705 35.6494C52.3779 35.6494 52.4316 35.9359 52.4316 36.5088C52.4316 37.0068 52.4137 37.2965 52.3779 37.3779C52.3551 37.4365 52.3112 37.4658 52.2461 37.4658C52.2884 37.4658 52.1859 37.4544 51.9385 37.4316C51.5902 37.3991 51.0628 37.3828 50.3564 37.3828C50.1286 37.3828 50 37.3844 49.9707 37.3877C49.8047 37.4137 49.7217 37.4837 49.7217 37.5977C49.7217 38.0599 49.7412 38.5921 49.7803 39.1943C49.8128 39.738 49.8291 39.9805 49.8291 39.9219C49.8291 40.0065 49.7266 40.0553 49.5215 40.0684C49.5768 40.0651 49.432 40.0635 49.0869 40.0635C48.4782 40.0635 48.0859 40.0423 47.9102 40C47.8158 39.9772 47.7686 39.9268 47.7686 39.8486C47.7686 39.4873 47.7799 38.9453 47.8027 38.2227C47.8288 37.4967 47.8418 36.9531 47.8418 36.5918C47.8418 36.1621 47.8223 35.6217 47.7832 34.9707C47.7246 33.9648 47.6937 33.4245 47.6904 33.3496L47.6855 33.291C47.6823 33.2096 47.7311 33.1689 47.832 33.1689C48.0729 33.1689 48.4359 33.1738 48.9209 33.1836C49.4092 33.1934 49.7754 33.1982 50.0195 33.1982C50.2799 33.1982 50.6706 33.1787 51.1914 33.1396C51.7155 33.1006 52.1077 33.0811 52.3682 33.0811C52.5309 33.0811 52.6221 33.1478 52.6416 33.2812C52.6416 33.4212 52.6481 33.6312 52.6611 33.9111C52.6676 33.9827 52.6888 34.1211 52.7246 34.3262C52.7572 34.5052 52.7734 34.6436 52.7734 34.7412ZM62.6367 36.582C62.6367 37.5977 62.3128 38.4489 61.665 39.1357C61.0042 39.8324 60.1676 40.1807 59.1553 40.1807C58.1494 40.1807 57.3145 39.8291 56.6504 39.126C55.9993 38.4391 55.6738 37.5911 55.6738 36.582C55.6738 35.5697 55.9993 34.7184 56.6504 34.0283C57.3145 33.3219 58.1494 32.9688 59.1553 32.9688C60.1546 32.9688 60.988 33.3219 61.6553 34.0283C62.3096 34.7249 62.6367 35.5762 62.6367 36.582ZM60.7861 36.5723C60.7861 36.084 60.638 35.6689 60.3418 35.3271C60.0326 34.9691 59.637 34.79 59.1553 34.79C58.6963 34.79 58.3073 34.9756 57.9883 35.3467C57.679 35.7048 57.5244 36.1165 57.5244 36.582C57.5244 37.0801 57.6693 37.4951 57.959 37.8271C58.265 38.1755 58.6637 38.3496 59.1553 38.3496C59.6143 38.3496 60.0049 38.1657 60.3271 37.7979C60.6331 37.4463 60.7861 37.0378 60.7861 36.5723ZM71.6846 39.9512C71.6846 39.974 71.652 39.9902 71.5869 40C71.4632 40.0195 71.1523 40.0293 70.6543 40.0293C70.2279 40.0293 69.9382 40.0195 69.7852 40C69.7135 39.9902 69.6729 39.9821 69.6631 39.9756C69.6436 39.9658 69.6208 39.9333 69.5947 39.8779C69.5459 39.751 69.4743 39.5622 69.3799 39.3115C69.2529 38.986 69.0544 38.5059 68.7842 37.8711C68.7256 37.7441 68.5905 37.6742 68.3789 37.6611C68.4766 37.6676 68.3089 37.6709 67.876 37.6709C67.8271 37.6709 67.8027 37.7539 67.8027 37.9199C67.8027 38.1413 67.8223 38.4717 67.8613 38.9111C67.9036 39.3506 67.9248 39.681 67.9248 39.9023C67.9248 39.9577 67.9102 39.9902 67.8809 40C67.8353 40.0033 67.7897 40.0065 67.7441 40.0098C67.5521 40.0228 67.2526 40.0293 66.8457 40.0293C66.3802 40.0293 66.1003 40.0195 66.0059 40C65.9115 39.9805 65.8643 39.93 65.8643 39.8486C65.8643 39.4906 65.8805 38.9502 65.9131 38.2275C65.9489 37.5049 65.9668 36.9629 65.9668 36.6016C65.9668 35.2246 65.9359 34.1504 65.874 33.3789L65.8691 33.3105C65.8659 33.2552 65.9163 33.2178 66.0205 33.1982C66.1279 33.1787 66.626 33.1592 67.5146 33.1396C68.1169 33.1266 68.597 33.1201 68.9551 33.1201C69.6973 33.1201 70.3027 33.2878 70.7715 33.623C71.3021 34.0007 71.5674 34.5459 71.5674 35.2588C71.5674 35.734 71.499 36.1133 71.3623 36.3965C71.2256 36.6797 70.9733 36.9548 70.6055 37.2217C70.5306 37.2738 70.4932 37.3226 70.4932 37.3682C70.4932 37.3649 70.6917 37.7734 71.0889 38.5938C71.486 39.4141 71.6846 39.8665 71.6846 39.9512ZM69.6338 35.5713C69.6338 35.1742 69.5036 34.8991 69.2432 34.7461C69.0413 34.6289 68.7256 34.5703 68.2959 34.5703C67.9867 34.5703 67.8223 34.6175 67.8027 34.7119C67.7832 34.8226 67.7734 35.1416 67.7734 35.6689C67.7734 35.7438 67.7751 35.8545 67.7783 36.001C67.7816 36.1475 67.7832 36.2565 67.7832 36.3281C67.7832 36.3444 67.8353 36.3607 67.9395 36.377C68.138 36.4062 68.3464 36.4209 68.5645 36.4209C69.2773 36.4209 69.6338 36.1377 69.6338 35.5713ZM83.0713 37.7539C83.0713 38.4147 82.793 38.9811 82.2363 39.4531C81.748 39.8698 81.154 40.1351 80.4541 40.249C80.4281 40.2523 80.4069 40.2539 80.3906 40.2539C80.3158 40.2539 80.1497 40.026 79.8926 39.5703C79.6354 39.1113 79.5068 38.8314 79.5068 38.7305C79.5068 38.6947 79.5312 38.6719 79.5801 38.6621C80.0521 38.5547 80.3646 38.4635 80.5176 38.3887C80.8561 38.2194 81.0254 37.9688 81.0254 37.6367C81.0254 37.4251 80.9147 37.1891 80.6934 36.9287C80.3092 36.486 80.1009 36.2402 80.0684 36.1914C79.8438 35.8529 79.7314 35.4785 79.7314 35.0684C79.7314 34.4727 80.0065 33.9779 80.5566 33.584C81.0059 33.2585 81.5576 33.0469 82.2119 32.9492C82.2477 32.946 82.2754 32.9443 82.2949 32.9443C82.3438 32.9443 82.3828 32.9834 82.4121 33.0615C82.4967 33.2992 82.6937 33.7288 83.0029 34.3506C83.0127 34.3701 83.0176 34.3864 83.0176 34.3994C83.0176 34.4548 82.9883 34.4824 82.9297 34.4824C82.9036 34.4824 82.8597 34.4775 82.7979 34.4678C82.736 34.458 82.6888 34.4531 82.6562 34.4531C82.4219 34.4531 82.2168 34.5068 82.041 34.6143C81.8294 34.738 81.7236 34.9105 81.7236 35.1318C81.7236 35.3304 81.8408 35.5745 82.0752 35.8643C82.4886 36.3851 82.7051 36.6585 82.7246 36.6846C82.9557 37.0426 83.0713 37.3991 83.0713 37.7539ZM93.1641 36.582C93.1641 37.5977 92.8402 38.4489 92.1924 39.1357C91.5316 39.8324 90.695 40.1807 89.6826 40.1807C88.6768 40.1807 87.8418 39.8291 87.1777 39.126C86.5267 38.4391 86.2012 37.5911 86.2012 36.582C86.2012 35.5697 86.5267 34.7184 87.1777 34.0283C87.8418 33.3219 88.6768 32.9688 89.6826 32.9688C90.682 32.9688 91.5153 33.3219 92.1826 34.0283C92.8369 34.7249 93.1641 35.5762 93.1641 36.582ZM91.3135 36.5723C91.3135 36.084 91.1654 35.6689 90.8691 35.3271C90.5599 34.9691 90.1644 34.79 89.6826 34.79C89.2236 34.79 88.8346 34.9756 88.5156 35.3467C88.2064 35.7048 88.0518 36.1165 88.0518 36.582C88.0518 37.0801 88.1966 37.4951 88.4863 37.8271C88.7923 38.1755 89.1911 38.3496 89.6826 38.3496C90.1416 38.3496 90.5322 38.1657 90.8545 37.7979C91.1605 37.4463 91.3135 37.0378 91.3135 36.5723ZM101.436 34.7412C101.436 34.777 101.403 34.7949 101.338 34.7949C101.094 34.7949 100.723 34.7738 100.225 34.7314C99.7298 34.6891 99.3587 34.668 99.1113 34.668C98.7988 34.668 98.6165 34.6794 98.5645 34.7021C98.444 34.7575 98.3838 34.9137 98.3838 35.1709C98.3838 35.4801 98.4619 35.6559 98.6182 35.6982C98.6833 35.7145 98.7826 35.7227 98.916 35.7227C99.1406 35.7227 99.4759 35.7113 99.9219 35.6885C100.371 35.6624 100.708 35.6494 100.933 35.6494C101.04 35.6494 101.094 35.9359 101.094 36.5088C101.094 37.0068 101.076 37.2965 101.04 37.3779C101.017 37.4365 100.973 37.4658 100.908 37.4658C100.951 37.4658 100.848 37.4544 100.601 37.4316C100.252 37.3991 99.7249 37.3828 99.0186 37.3828C98.7907 37.3828 98.6621 37.3844 98.6328 37.3877C98.4668 37.4137 98.3838 37.4837 98.3838 37.5977C98.3838 38.0599 98.4033 38.5921 98.4424 39.1943C98.4749 39.738 98.4912 39.9805 98.4912 39.9219C98.4912 40.0065 98.3887 40.0553 98.1836 40.0684C98.2389 40.0651 98.0941 40.0635 97.749 40.0635C97.1403 40.0635 96.748 40.0423 96.5723 40C96.4779 39.9772 96.4307 39.9268 96.4307 39.8486C96.4307 39.4873 96.4421 38.9453 96.4648 38.2227C96.4909 37.4967 96.5039 36.9531 96.5039 36.5918C96.5039 36.1621 96.4844 35.6217 96.4453 34.9707C96.3867 33.9648 96.3558 33.4245 96.3525 33.3496L96.3477 33.291C96.3444 33.2096 96.3932 33.1689 96.4941 33.1689C96.735 33.1689 97.098 33.1738 97.583 33.1836C98.0713 33.1934 98.4375 33.1982 98.6816 33.1982C98.9421 33.1982 99.3327 33.1787 99.8535 33.1396C100.378 33.1006 100.77 33.0811 101.03 33.0811C101.193 33.0811 101.284 33.1478 101.304 33.2812C101.304 33.4212 101.31 33.6312 101.323 33.9111C101.33 33.9827 101.351 34.1211 101.387 34.3262C101.419 34.5052 101.436 34.6436 101.436 34.7412ZM109.272 34.6436C109.272 34.7087 109.237 34.7412 109.165 34.7412C109.041 34.7412 108.551 34.7168 107.695 34.668C107.676 35.4915 107.666 36.0661 107.666 36.3916C107.666 36.7757 107.681 37.3535 107.71 38.125C107.743 38.8965 107.759 39.4743 107.759 39.8584C107.759 39.9202 107.744 39.9593 107.715 39.9756C107.705 39.9821 107.66 39.9902 107.578 40C107.383 40.026 107.096 40.0391 106.719 40.0391C106.299 40.0391 106.004 40.026 105.835 40C105.744 39.9837 105.698 39.9333 105.698 39.8486C105.698 39.4645 105.715 38.8883 105.747 38.1201C105.78 37.3519 105.796 36.7757 105.796 36.3916C105.796 36.1377 105.783 35.5713 105.757 34.6924C105.106 34.7575 104.587 34.79 104.199 34.79C104.147 34.79 104.121 34.7738 104.121 34.7412C104.121 34.6989 104.144 34.5736 104.189 34.3652C104.242 34.1374 104.271 33.999 104.277 33.9502C104.287 33.7972 104.299 33.6442 104.312 33.4912C104.334 33.2471 104.373 33.125 104.429 33.125C104.435 33.125 104.458 33.1266 104.497 33.1299C105.024 33.1982 105.804 33.2324 106.836 33.2324C107.129 33.2324 107.669 33.2015 108.457 33.1396C108.88 33.1071 109.093 33.0908 109.097 33.0908C109.162 33.0908 109.199 33.0957 109.209 33.1055C109.219 33.112 109.225 33.1429 109.229 33.1982C109.229 33.2861 109.225 33.4082 109.219 33.5645C109.212 33.737 109.209 33.859 109.209 33.9307C109.209 34.012 109.219 34.1325 109.238 34.292C109.261 34.4482 109.272 34.5654 109.272 34.6436ZM120.972 35.6494C120.972 35.6592 120.669 36.3151 120.063 37.6172C119.448 38.9453 119.097 39.6924 119.009 39.8584C118.979 39.917 118.962 39.9495 118.955 39.9561C118.942 39.9723 118.911 39.987 118.862 40C118.781 40.0195 118.55 40.0293 118.169 40.0293C117.814 40.0293 117.598 40.0195 117.52 40C117.454 39.9837 117.415 39.9707 117.402 39.9609C117.389 39.9512 117.368 39.9202 117.339 39.8682C117.319 39.8324 117.227 39.6029 117.061 39.1797L116.528 37.8223L115.986 39.1943C115.931 39.3506 115.84 39.5752 115.713 39.8682C115.68 39.9235 115.658 39.9577 115.645 39.9707C115.632 39.9805 115.594 39.9902 115.532 40C115.422 40.0195 115.208 40.0293 114.893 40.0293C114.502 40.0293 114.268 40.0195 114.189 40C114.134 39.987 114.089 39.9398 114.053 39.8584C112.777 37.238 112.139 35.835 112.139 35.6494C112.139 35.389 112.147 35 112.163 34.4824C112.183 33.9616 112.192 33.571 112.192 33.3105C112.192 33.2031 112.225 33.1494 112.29 33.1494C112.476 33.1494 112.756 33.1576 113.13 33.1738C113.507 33.1901 113.791 33.1982 113.979 33.1982C114.054 33.1982 114.092 33.2292 114.092 33.291C114.092 33.5514 114.079 33.9453 114.053 34.4727C114.03 34.9967 114.019 35.389 114.019 35.6494C114.019 35.7471 114.137 36.0579 114.375 36.582C114.59 37.0508 114.746 37.3682 114.844 37.5342C114.893 37.6188 114.925 37.6611 114.941 37.6611C114.967 37.6611 115.034 37.5049 115.142 37.1924C115.448 36.3167 115.604 35.7992 115.61 35.6396C115.623 35.3402 115.625 34.9593 115.615 34.4971C115.605 33.8298 115.601 33.4473 115.601 33.3496C115.601 33.2878 115.605 33.252 115.615 33.2422C115.625 33.2292 115.661 33.2178 115.723 33.208C115.889 33.1885 116.175 33.1787 116.582 33.1787C117.204 33.1787 117.515 33.2227 117.515 33.3105C117.515 33.5286 117.507 33.8672 117.49 34.3262C117.474 34.7721 117.467 35.1107 117.471 35.3418V35.5908C117.471 35.7568 117.638 36.2858 117.974 37.1777C118.088 37.487 118.156 37.6416 118.179 37.6416C118.195 37.6416 118.228 37.5993 118.276 37.5146C118.368 37.3551 118.514 37.0394 118.716 36.5674C118.94 36.0531 119.053 35.7471 119.053 35.6494C119.053 35.3857 119.04 34.9919 119.014 34.4678C118.991 33.9404 118.979 33.5465 118.979 33.2861C118.979 33.2275 119.017 33.1982 119.092 33.1982C119.284 33.1982 119.572 33.1901 119.956 33.1738C120.343 33.1576 120.633 33.1494 120.825 33.1494C120.887 33.1494 120.918 33.2145 120.918 33.3447C120.918 33.6019 120.926 33.9876 120.942 34.502C120.962 35.013 120.972 35.3955 120.972 35.6494ZM130.635 39.8779C130.635 39.9365 130.594 39.9772 130.513 40C130.415 40.026 130.112 40.0391 129.604 40.0391C129.139 40.0391 128.84 40.026 128.706 40C128.595 39.9772 128.525 39.904 128.496 39.7803C128.385 39.3115 128.299 39.0609 128.237 39.0283C128.185 39.0055 127.749 38.9941 126.929 38.9941C126.375 38.9941 126.081 39.0088 126.045 39.0381C125.99 39.0902 125.928 39.2643 125.859 39.5605C125.798 39.8307 125.723 39.9772 125.635 40C125.524 40.026 125.153 40.0391 124.521 40.0391C124.023 40.0391 123.774 39.9919 123.774 39.8975C123.774 39.8128 124.142 38.7728 124.878 36.7773C125.675 34.6191 126.108 33.4326 126.177 33.2178C126.216 33.0941 126.261 33.0322 126.313 33.0322C126.401 33.0322 126.536 33.0404 126.719 33.0566C126.904 33.0729 127.043 33.0811 127.134 33.0811C127.222 33.0811 127.35 33.0762 127.52 33.0664C127.692 33.0534 127.821 33.0469 127.905 33.0469C127.967 33.0469 128.024 33.1006 128.076 33.208C128.236 33.5498 128.701 34.7217 129.473 36.7236C130.247 38.7386 130.635 39.79 130.635 39.8779ZM127.173 35.4297C127.104 35.5729 126.989 35.8838 126.826 36.3623C126.65 36.8701 126.562 37.168 126.562 37.2559C126.562 37.3145 126.66 37.347 126.855 37.3535C126.956 37.36 127.122 37.3633 127.354 37.3633C127.568 37.3633 127.687 37.3372 127.71 37.2852C127.716 37.2689 127.72 37.2461 127.72 37.2168C127.72 37.1094 127.645 36.8132 127.495 36.3281C127.349 35.8594 127.241 35.5599 127.173 35.4297ZM139.458 39.9512C139.458 39.974 139.425 39.9902 139.36 40C139.237 40.0195 138.926 40.0293 138.428 40.0293C138.001 40.0293 137.712 40.0195 137.559 40C137.487 39.9902 137.446 39.9821 137.437 39.9756C137.417 39.9658 137.394 39.9333 137.368 39.8779C137.319 39.751 137.248 39.5622 137.153 39.3115C137.026 38.986 136.828 38.5059 136.558 37.8711C136.499 37.7441 136.364 37.6742 136.152 37.6611C136.25 37.6676 136.082 37.6709 135.649 37.6709C135.601 37.6709 135.576 37.7539 135.576 37.9199C135.576 38.1413 135.596 38.4717 135.635 38.9111C135.677 39.3506 135.698 39.681 135.698 39.9023C135.698 39.9577 135.684 39.9902 135.654 40C135.609 40.0033 135.563 40.0065 135.518 40.0098C135.326 40.0228 135.026 40.0293 134.619 40.0293C134.154 40.0293 133.874 40.0195 133.779 40C133.685 39.9805 133.638 39.93 133.638 39.8486C133.638 39.4906 133.654 38.9502 133.687 38.2275C133.722 37.5049 133.74 36.9629 133.74 36.6016C133.74 35.2246 133.709 34.1504 133.647 33.3789L133.643 33.3105C133.639 33.2552 133.69 33.2178 133.794 33.1982C133.901 33.1787 134.399 33.1592 135.288 33.1396C135.89 33.1266 136.37 33.1201 136.729 33.1201C137.471 33.1201 138.076 33.2878 138.545 33.623C139.076 34.0007 139.341 34.5459 139.341 35.2588C139.341 35.734 139.272 36.1133 139.136 36.3965C138.999 36.6797 138.747 36.9548 138.379 37.2217C138.304 37.2738 138.267 37.3226 138.267 37.3682C138.267 37.3649 138.465 37.7734 138.862 38.5938C139.259 39.4141 139.458 39.8665 139.458 39.9512ZM137.407 35.5713C137.407 35.1742 137.277 34.8991 137.017 34.7461C136.815 34.6289 136.499 34.5703 136.069 34.5703C135.76 34.5703 135.596 34.6175 135.576 34.7119C135.557 34.8226 135.547 35.1416 135.547 35.6689C135.547 35.7438 135.549 35.8545 135.552 36.001C135.555 36.1475 135.557 36.2565 135.557 36.3281C135.557 36.3444 135.609 36.3607 135.713 36.377C135.911 36.4062 136.12 36.4209 136.338 36.4209C137.051 36.4209 137.407 36.1377 137.407 35.5713ZM147.515 38.4814C147.515 38.6214 147.487 38.8786 147.432 39.2529C147.373 39.6598 147.321 39.9023 147.275 39.9805C147.236 40.0423 147.183 40.0732 147.114 40.0732C147.085 40.0732 147.036 40.0684 146.968 40.0586C146.73 40.026 146.037 40.0098 144.888 40.0098C144.637 40.0098 144.264 40.0081 143.77 40.0049C143.275 40.0016 142.904 40 142.656 40C142.549 40 142.495 39.9528 142.495 39.8584C142.495 39.4938 142.515 38.9469 142.554 38.2178C142.596 37.4854 142.617 36.9368 142.617 36.5723C142.617 36.2012 142.598 35.5094 142.559 34.4971C142.549 34.2367 142.531 33.8477 142.505 33.3301L142.5 33.2617C142.493 33.1868 142.534 33.1494 142.622 33.1494C142.863 33.1494 143.224 33.1559 143.706 33.1689C144.191 33.182 144.554 33.1885 144.795 33.1885C145.033 33.1885 145.391 33.182 145.869 33.1689C146.348 33.1559 146.706 33.1494 146.943 33.1494C147.113 33.1494 147.21 33.2129 147.236 33.3398C147.253 33.4147 147.277 33.6426 147.31 34.0234C147.345 34.401 147.363 34.6305 147.363 34.7119C147.363 34.7803 147.331 34.8145 147.266 34.8145C147.246 34.8145 147.212 34.8128 147.163 34.8096C146.297 34.738 145.519 34.7021 144.829 34.7021C144.657 34.7021 144.551 34.7428 144.512 34.8242C144.495 34.8633 144.487 34.9886 144.487 35.2002C144.487 35.4215 144.52 35.568 144.585 35.6396C144.64 35.7015 144.746 35.7324 144.902 35.7324C144.935 35.7324 144.998 35.7308 145.093 35.7275C145.187 35.721 145.265 35.7178 145.327 35.7178C145.737 35.7178 146.152 35.7064 146.572 35.6836C146.608 35.6803 146.698 35.6722 146.841 35.6592C146.951 35.6462 147.039 35.6396 147.104 35.6396C147.183 35.6396 147.222 35.6771 147.222 35.752C147.222 35.6836 147.192 35.9326 147.134 36.499C147.108 36.7594 147.095 37.0199 147.095 37.2803C147.095 37.3454 147.048 37.3779 146.953 37.3779C146.953 37.3779 146.807 37.3617 146.514 37.3291C146.328 37.3096 145.905 37.2998 145.244 37.2998H144.727C144.593 37.2998 144.515 37.3324 144.492 37.3975C144.489 37.4137 144.487 37.5146 144.487 37.7002C144.487 37.9476 144.504 38.1071 144.536 38.1787C144.591 38.3024 144.8 38.3757 145.161 38.3984C145.155 38.3984 145.392 38.3984 145.874 38.3984C146.047 38.3984 146.302 38.3838 146.641 38.3545C146.982 38.3219 147.238 38.3057 147.407 38.3057C147.479 38.3057 147.515 38.3643 147.515 38.4814Z" fill="white"/>
<path d="M50.8445 47.7539C50.8445 48.4147 50.5662 48.9811 50.0096 49.4531C49.5213 49.8698 48.9272 50.1351 48.2273 50.249C48.2013 50.2523 48.1801 50.2539 48.1639 50.2539C48.089 50.2539 47.923 50.026 47.6658 49.5703C47.4087 49.1113 47.2801 48.8314 47.2801 48.7305C47.2801 48.6947 47.3045 48.6719 47.3533 48.6621C47.8253 48.5547 48.1378 48.4635 48.2908 48.3887C48.6294 48.2194 48.7986 47.9688 48.7986 47.6367C48.7986 47.4251 48.688 47.1891 48.4666 46.9287C48.0825 46.486 47.8742 46.2402 47.8416 46.1914C47.617 45.8529 47.5047 45.4785 47.5047 45.0684C47.5047 44.4727 47.7798 43.9779 48.3299 43.584C48.7791 43.2585 49.3309 43.0469 49.9852 42.9492C50.021 42.946 50.0486 42.9443 50.0682 42.9443C50.117 42.9443 50.1561 42.9834 50.1854 43.0615C50.27 43.2992 50.4669 43.7288 50.7762 44.3506C50.7859 44.3701 50.7908 44.3864 50.7908 44.3994C50.7908 44.4548 50.7615 44.4824 50.7029 44.4824C50.6769 44.4824 50.6329 44.4775 50.5711 44.4678C50.5092 44.458 50.462 44.4531 50.4295 44.4531C50.1951 44.4531 49.99 44.5068 49.8143 44.6143C49.6027 44.738 49.4969 44.9105 49.4969 45.1318C49.4969 45.3304 49.6141 45.5745 49.8484 45.8643C50.2618 46.3851 50.4783 46.6585 50.4979 46.6846C50.729 47.0426 50.8445 47.3991 50.8445 47.7539ZM64.6373 46.582C64.6373 47.5977 64.3134 48.4489 63.6656 49.1357C63.0048 49.8324 62.1682 50.1807 61.1559 50.1807C60.15 50.1807 59.315 49.8291 58.651 49.126C57.9999 48.4391 57.6744 47.5911 57.6744 46.582C57.6744 45.5697 57.9999 44.7184 58.651 44.0283C59.315 43.3219 60.15 42.9688 61.1559 42.9688C62.1552 42.9688 62.9885 43.3219 63.6559 44.0283C64.3102 44.7249 64.6373 45.5762 64.6373 46.582ZM62.7867 46.5723C62.7867 46.084 62.6386 45.6689 62.3424 45.3271C62.0331 44.9691 61.6376 44.79 61.1559 44.79C60.6969 44.79 60.3079 44.9756 59.9889 45.3467C59.6796 45.7048 59.525 46.1165 59.525 46.582C59.525 47.0801 59.6699 47.4951 59.9596 47.8271C60.2656 48.1755 60.6643 48.3496 61.1559 48.3496C61.6148 48.3496 62.0055 48.1657 62.3277 47.7979C62.6337 47.4463 62.7867 47.0378 62.7867 46.5723ZM76.0521 50.083C75.7722 50.083 75.4076 50.0765 74.9584 50.0635C74.3725 50.0505 74.0079 50.0423 73.8646 50.0391L72.4047 50.0195C72.2582 50.0228 72.0482 50.0163 71.7748 50C71.6804 49.9837 71.6332 49.9333 71.6332 49.8486C71.6332 49.4938 71.6381 48.9632 71.6479 48.2568C71.6609 47.5472 71.6674 47.015 71.6674 46.6602C71.6674 46.2826 71.656 45.7178 71.6332 44.9658C71.6104 44.2106 71.599 43.6442 71.599 43.2666C71.599 43.195 71.6479 43.1592 71.7455 43.1592C71.8432 43.1592 71.988 43.1641 72.1801 43.1738C72.3754 43.1836 72.5202 43.1885 72.6146 43.1885C72.7221 43.1885 72.8816 43.1836 73.0932 43.1738C73.3048 43.1608 73.4643 43.1543 73.5717 43.1543C73.6205 43.1543 73.6433 43.1852 73.64 43.2471L73.6352 43.3105C73.5961 43.9225 73.5521 44.8421 73.5033 46.0693L73.4984 47.3584C73.4984 47.7751 73.5001 48.0794 73.5033 48.2715C73.5066 48.3105 73.5098 48.3496 73.5131 48.3887C73.5163 48.4277 73.5408 48.4521 73.5863 48.4619C73.5896 48.4619 73.6319 48.4619 73.7133 48.4619C74.0063 48.4619 74.4441 48.4473 75.0268 48.418C75.6127 48.3854 76.0521 48.3691 76.3451 48.3691C76.433 48.3691 76.477 48.4066 76.477 48.4814C76.477 49.0381 76.4363 49.5182 76.3549 49.9219C76.3386 50.0065 76.3044 50.057 76.2523 50.0732C76.2361 50.0798 76.1693 50.083 76.0521 50.083ZM89.0637 47.6025C89.0637 48.4326 88.9644 48.999 88.7658 49.3018C88.4012 49.8551 87.4914 50.1318 86.0363 50.1318C85.3788 50.1318 84.8726 50.0814 84.5178 49.9805C83.9514 49.8177 83.5835 49.5068 83.4143 49.0479C83.3296 48.8232 83.2873 48.4229 83.2873 47.8467C83.2873 47.7132 83.2922 47.5146 83.302 47.251C83.3117 46.9873 83.3166 46.7904 83.3166 46.6602C83.3166 46.2826 83.2987 45.7161 83.2629 44.9609C83.2271 44.2057 83.2092 43.641 83.2092 43.2666C83.2092 43.1885 83.2434 43.1494 83.3117 43.1494C83.5103 43.1494 83.8098 43.1576 84.2102 43.1738C84.6138 43.1901 84.9149 43.1982 85.1135 43.1982C85.1949 43.1982 85.2355 43.234 85.2355 43.3057C85.2355 43.7354 85.2209 44.3799 85.1916 45.2393C85.1656 46.0954 85.1525 46.7383 85.1525 47.168C85.1525 47.679 85.2062 48.0241 85.3137 48.2031C85.4569 48.4473 85.7564 48.5693 86.2121 48.5693C86.8794 48.5693 87.2131 48.2454 87.2131 47.5977C87.2131 47.1257 87.2017 46.4176 87.1789 45.4736C87.1561 44.5296 87.1447 43.8216 87.1447 43.3496C87.1447 43.2487 87.1854 43.1982 87.2668 43.1982C87.4589 43.1982 87.7486 43.1901 88.1359 43.1738C88.5233 43.1576 88.813 43.1494 89.0051 43.1494C89.0995 43.1494 89.1467 43.1885 89.1467 43.2666C89.1467 43.641 89.1304 44.2057 89.0979 44.9609C89.0686 45.7161 89.0539 46.2826 89.0539 46.6602C89.0539 46.7643 89.0555 46.9222 89.0588 47.1338C89.062 47.3421 89.0637 47.4984 89.0637 47.6025ZM100.986 44.6436C100.986 44.7087 100.951 44.7412 100.879 44.7412C100.755 44.7412 100.265 44.7168 99.4092 44.668C99.3896 45.4915 99.3799 46.0661 99.3799 46.3916C99.3799 46.7757 99.3945 47.3535 99.4238 48.125C99.4564 48.8965 99.4727 49.4743 99.4727 49.8584C99.4727 49.9202 99.458 49.9593 99.4287 49.9756C99.4189 49.9821 99.3734 49.9902 99.292 50C99.0967 50.026 98.8102 50.0391 98.4326 50.0391C98.0127 50.0391 97.7181 50.026 97.5488 50C97.4577 49.9837 97.4121 49.9333 97.4121 49.8486C97.4121 49.4645 97.4284 48.8883 97.4609 48.1201C97.4935 47.3519 97.5098 46.7757 97.5098 46.3916C97.5098 46.1377 97.4967 45.5713 97.4707 44.6924C96.8197 44.7575 96.3005 44.79 95.9131 44.79C95.861 44.79 95.835 44.7738 95.835 44.7412C95.835 44.6989 95.8577 44.5736 95.9033 44.3652C95.9554 44.1374 95.9847 43.999 95.9912 43.9502C96.001 43.7972 96.0124 43.6442 96.0254 43.4912C96.0482 43.2471 96.0872 43.125 96.1426 43.125C96.1491 43.125 96.1719 43.1266 96.2109 43.1299C96.7383 43.1982 97.5179 43.2324 98.5498 43.2324C98.8428 43.2324 99.3831 43.2015 100.171 43.1396C100.594 43.1071 100.807 43.0908 100.811 43.0908C100.876 43.0908 100.913 43.0957 100.923 43.1055C100.933 43.112 100.939 43.1429 100.942 43.1982C100.942 43.2861 100.939 43.4082 100.933 43.5645C100.926 43.737 100.923 43.859 100.923 43.9307C100.923 44.012 100.933 44.1325 100.952 44.292C100.975 44.4482 100.986 44.5654 100.986 44.6436ZM109.696 46.3916C109.696 46.7757 109.706 47.3535 109.725 48.125C109.745 48.8965 109.755 49.4743 109.755 49.8584C109.755 49.9235 109.74 49.9642 109.711 49.9805C109.704 49.9837 109.662 49.9902 109.584 50C109.372 50.026 109.089 50.0391 108.734 50.0391C108.259 50.0391 107.956 50.026 107.826 50C107.732 49.9805 107.684 49.93 107.684 49.8486C107.684 49.9007 107.699 49.6143 107.728 48.9893C107.787 47.6709 107.816 46.805 107.816 46.3916C107.816 46.0433 107.805 45.5208 107.782 44.8242C107.759 44.1276 107.748 43.6051 107.748 43.2568C107.748 43.1852 107.785 43.1494 107.86 43.1494C107.961 43.1494 108.112 43.1543 108.314 43.1641C108.519 43.1738 108.672 43.1787 108.773 43.1787C108.874 43.1787 109.022 43.1738 109.218 43.1641C109.416 43.1543 109.566 43.1494 109.667 43.1494C109.761 43.1494 109.808 43.1852 109.808 43.2568C109.808 43.6051 109.789 44.1276 109.75 44.8242C109.714 45.5208 109.696 46.0433 109.696 46.3916ZM123.674 46.582C123.674 47.5977 123.351 48.4489 122.703 49.1357C122.042 49.8324 121.205 50.1807 120.193 50.1807C119.187 50.1807 118.352 49.8291 117.688 49.126C117.037 48.4391 116.712 47.5911 116.712 46.582C116.712 45.5697 117.037 44.7184 117.688 44.0283C118.352 43.3219 119.187 42.9688 120.193 42.9688C121.192 42.9688 122.026 43.3219 122.693 44.0283C123.347 44.7249 123.674 45.5762 123.674 46.582ZM121.824 46.5723C121.824 46.084 121.676 45.6689 121.379 45.3271C121.07 44.9691 120.675 44.79 120.193 44.79C119.734 44.79 119.345 44.9756 119.026 45.3467C118.717 45.7048 118.562 46.1165 118.562 46.582C118.562 47.0801 118.707 47.4951 118.997 47.8271C119.303 48.1755 119.701 48.3496 120.193 48.3496C120.652 48.3496 121.043 48.1657 121.365 47.7979C121.671 47.4463 121.824 47.0378 121.824 46.5723ZM137.135 43.3008C137.135 43.6719 137.119 44.2301 137.086 44.9756C137.057 45.7178 137.042 46.276 137.042 46.6504V49.8682C137.042 49.9561 136.995 50 136.901 50C136.823 50 136.704 50.0033 136.544 50.0098C136.388 50.0163 136.271 50.0195 136.193 50.0195C136.108 50.0195 135.981 50.013 135.812 50C135.643 49.987 135.516 49.9805 135.431 49.9805C135.372 49.9805 135.302 49.9268 135.221 49.8193C134.987 49.5036 134.459 48.8037 133.639 47.7197C133.414 47.417 133.073 46.971 132.614 46.3818C132.601 46.3623 132.576 46.3428 132.54 46.3232C132.514 46.346 132.501 46.3818 132.501 46.4307C132.501 46.8083 132.511 47.3747 132.531 48.1299C132.553 48.8851 132.565 49.4515 132.565 49.8291C132.565 49.943 132.521 50 132.433 50H130.744C130.649 50 130.602 49.9495 130.602 49.8486C130.602 49.4971 130.618 48.9665 130.651 48.2568C130.687 47.5472 130.704 47.015 130.704 46.6602C130.704 46.2858 130.688 45.7259 130.656 44.9805C130.626 44.235 130.612 43.6768 130.612 43.3057C130.612 43.234 130.675 43.1982 130.802 43.1982C130.991 43.1982 131.224 43.1852 131.5 43.1592C131.566 43.1527 131.694 43.1315 131.886 43.0957C132.049 43.0664 132.177 43.0518 132.272 43.0518C132.311 43.0518 132.371 43.1071 132.453 43.2178L134.274 45.7129C134.437 45.9375 134.682 46.2663 135.011 46.6992C135.093 46.8001 135.163 46.8506 135.221 46.8506C135.263 46.8506 135.285 46.7236 135.285 46.4697C135.285 46.1279 135.265 45.6136 135.226 44.9268C135.19 44.2399 135.172 43.724 135.172 43.3789C135.172 43.2585 135.206 43.1982 135.275 43.1982C135.47 43.1982 135.765 43.1901 136.159 43.1738C136.552 43.1576 136.847 43.1494 137.042 43.1494C137.104 43.1494 137.135 43.1999 137.135 43.3008ZM147.573 47.7539C147.573 48.4147 147.295 48.9811 146.738 49.4531C146.25 49.8698 145.656 50.1351 144.956 50.249C144.93 50.2523 144.909 50.2539 144.893 50.2539C144.818 50.2539 144.652 50.026 144.395 49.5703C144.138 49.1113 144.009 48.8314 144.009 48.7305C144.009 48.6947 144.033 48.6719 144.082 48.6621C144.554 48.5547 144.867 48.4635 145.02 48.3887C145.358 48.2194 145.528 47.9688 145.528 47.6367C145.528 47.4251 145.417 47.1891 145.196 46.9287C144.811 46.486 144.603 46.2402 144.571 46.1914C144.346 45.8529 144.234 45.4785 144.234 45.0684C144.234 44.4727 144.509 43.9779 145.059 43.584C145.508 43.2585 146.06 43.0469 146.714 42.9492C146.75 42.946 146.778 42.9443 146.797 42.9443C146.846 42.9443 146.885 42.9834 146.914 43.0615C146.999 43.2992 147.196 43.7288 147.505 44.3506C147.515 44.3701 147.52 44.3864 147.52 44.3994C147.52 44.4548 147.49 44.4824 147.432 44.4824C147.406 44.4824 147.362 44.4775 147.3 44.4678C147.238 44.458 147.191 44.4531 147.158 44.4531C146.924 44.4531 146.719 44.5068 146.543 44.6143C146.332 44.738 146.226 44.9105 146.226 45.1318C146.226 45.3304 146.343 45.5745 146.577 45.8643C146.991 46.3851 147.207 46.6585 147.227 46.6846C147.458 47.0426 147.573 47.3991 147.573 47.7539Z" fill="white"/>
</svg>
