<svg width="733" height="540" viewBox="0 0 733 540" fill="none" xmlns="http://www.w3.org/2000/svg">
<path d="M60.7715 122.42C88.2682 110.724 122.516 118.134 155.962 123.277C156.274 117.049 160.046 109.469 156.094 105.124C151.293 99.845 151.735 94.2985 154.624 88.72C162.012 74.455 151.427 59.2763 140.74 46.6553C138.331 43.8171 135.287 41.587 131.854 40.1462C128.422 38.7055 124.698 38.0947 120.985 38.3635L101.187 39.7776C96.3697 40.1217 91.7721 41.9289 88.0098 44.9574C84.2474 47.9858 81.4997 52.091 80.1342 56.7238C75.407 63.153 72.8768 69.5643 74.4698 75.9423C67.3892 80.7812 66.1995 86.6221 69.3813 93.2067C72.0793 97.3527 72.0506 101.389 69.2586 105.313C65.5918 110.316 62.7834 115.894 60.9485 121.819L60.7715 122.42Z" fill="#2F2E41"/>
<path d="M714.209 476.963H153.791C148.807 476.963 144.028 474.983 140.504 471.459C136.98 467.935 135 463.156 135 458.172C338.151 434.562 537.485 434.562 733 458.172C733 463.156 731.02 467.935 727.496 471.459C723.972 474.983 719.193 476.963 714.209 476.963Z" fill="#2F2E41"/>
<path d="M733 459.277L135 458.172L204.306 341.556L204.638 341.004V83.9964C204.637 80.8769 205.252 77.7878 206.445 74.9057C207.639 72.0236 209.389 69.4049 211.595 67.1991C213.8 64.9932 216.419 63.2435 219.301 62.0498C222.183 60.8562 225.272 60.2419 228.392 60.2422H636.292C639.411 60.2419 642.501 60.8562 645.383 62.0498C648.265 63.2435 650.883 64.9932 653.089 67.1991C655.295 69.4049 657.045 72.0236 658.239 74.9057C659.432 77.7878 660.046 80.8769 660.046 83.9964V342.772L733 459.277Z" fill="#3F3D56"/>
<path d="M227.851 76.8223C225.799 76.8246 223.833 77.6406 222.382 79.0911C220.932 80.5417 220.116 82.5084 220.113 84.5598V318.896C220.116 320.948 220.932 322.915 222.382 324.365C223.833 325.816 225.799 326.632 227.851 326.634H640.15C642.202 326.631 644.168 325.815 645.619 324.365C647.069 322.914 647.885 320.948 647.888 318.896V84.5598C647.885 82.5084 647.069 80.5418 645.619 79.0912C644.168 77.6407 642.202 76.8247 640.15 76.8223H227.851Z" fill="#EEEEEE"/>
<path d="M229.578 357.584C228.944 357.585 228.324 357.767 227.79 358.109C227.256 358.451 226.831 358.939 226.565 359.514L205.21 405.939C204.977 406.445 204.876 407 204.914 407.555C204.953 408.11 205.13 408.646 205.43 409.114C205.73 409.582 206.143 409.968 206.631 410.235C207.119 410.502 207.666 410.641 208.222 410.641H657.314C657.879 410.641 658.435 410.497 658.929 410.222C659.423 409.946 659.838 409.549 660.135 409.069C660.432 408.588 660.601 408.039 660.627 407.474C660.652 406.91 660.532 406.348 660.279 405.842L637.067 359.417C636.793 358.865 636.37 358.401 635.846 358.077C635.322 357.753 634.718 357.582 634.102 357.584H229.578Z" fill="#2F2E41"/>
<path d="M432.341 72.9541C435.088 72.9541 437.315 70.7271 437.315 67.98C437.315 65.2329 435.088 63.0059 432.341 63.0059C429.594 63.0059 427.367 65.2329 427.367 67.98C427.367 70.7271 429.594 72.9541 432.341 72.9541Z" fill="white"/>
<path d="M388.2 419.484C387.471 419.485 386.763 419.726 386.184 420.169C385.605 420.613 385.189 421.234 384.998 421.938L379.642 441.834C379.509 442.326 379.492 442.841 379.59 443.341C379.689 443.84 379.902 444.31 380.211 444.714C380.521 445.118 380.919 445.445 381.376 445.67C381.832 445.896 382.334 446.013 382.843 446.013H484.717C485.246 446.013 485.767 445.887 486.237 445.644C486.707 445.402 487.112 445.051 487.418 444.62C487.725 444.189 487.924 443.692 487.999 443.168C488.074 442.645 488.023 442.111 487.85 441.612L480.963 421.715C480.737 421.064 480.314 420.499 479.752 420.099C479.191 419.7 478.519 419.485 477.829 419.484H388.2Z" fill="#2F2E41"/>
<path d="M660.047 337.135V341.556H204.307L204.65 341.004V337.135H660.047Z" fill="#2F2E41"/>
<path d="M647.334 154.75C690.067 154.75 724.709 120.108 724.709 77.3752C724.709 34.6421 690.067 0 647.334 0C604.601 0 569.959 34.6421 569.959 77.3752C569.959 120.108 604.601 154.75 647.334 154.75Z" fill="#3457D5"/>
<path d="M679.39 111.089H615.279C614.107 111.088 612.983 110.621 612.154 109.792C611.325 108.964 610.859 107.84 610.857 106.667V67.9801C610.859 66.8078 611.325 65.6839 612.154 64.855C612.983 64.0261 614.107 63.5599 615.279 63.5586H679.39C680.562 63.5599 681.686 64.0261 682.515 64.855C683.344 65.6839 683.81 66.8078 683.811 67.9801V106.667C683.81 107.84 683.344 108.964 682.515 109.792C681.686 110.621 680.562 111.088 679.39 111.089ZM615.279 67.9801V106.667H679.393L679.39 67.9801H615.279Z" fill="white"/>
<path d="M667.231 67.9795H627.438V50.2938C627.438 37.4839 635.804 28.1865 647.333 28.1865C658.862 28.1865 667.229 37.4839 667.229 50.2938L667.231 67.9795ZM631.859 63.5581H662.809V50.2938C662.809 39.8808 656.445 32.608 647.333 32.608C638.221 32.608 631.859 39.8808 631.859 50.2938V63.5581Z" fill="white"/>
<path d="M647.336 90.6398C649.777 90.6398 651.757 88.6603 651.757 86.2184C651.757 83.7765 649.777 81.7969 647.336 81.7969C644.894 81.7969 642.914 83.7765 642.914 86.2184C642.914 88.6603 644.894 90.6398 647.336 90.6398Z" fill="white"/>
<path d="M203.522 208.328L144.619 239.644L143.873 213.547C163.099 210.338 181.39 204.75 198.302 195.653L204.463 180.433C205.134 178.774 206.225 177.319 207.629 176.209C209.033 175.1 210.701 174.375 212.469 174.105C214.238 173.834 216.046 174.029 217.717 174.669C219.388 175.309 220.864 176.372 221.999 177.755C223.661 179.778 224.492 182.356 224.323 184.969C224.154 187.581 222.999 190.031 221.091 191.824L203.522 208.328Z" fill="#FFB8B8"/>
<path d="M59.599 389.133C59.1693 387.557 59.0781 385.908 59.3313 384.294C59.5846 382.68 60.1765 381.138 61.0683 379.77L74.0076 359.912C77.0681 355.215 81.7641 351.823 87.1846 350.393C92.605 348.962 98.3635 349.597 103.343 352.173C97.9046 361.429 98.6627 369.549 105.221 376.606C95.0402 381.576 85.631 387.991 77.2846 395.651C75.7609 396.69 74.0111 397.35 72.1809 397.575C70.3506 397.801 68.493 397.586 66.7627 396.948C65.0324 396.31 63.4795 395.268 62.2334 393.909C60.9874 392.549 60.0841 390.912 59.599 389.133Z" fill="#2F2E41"/>
<path d="M206.206 363.168C204.248 366.432 201.484 369.137 198.179 371.025C194.875 372.912 191.14 373.919 187.335 373.948L101.374 374.599L97.6465 352.976L135.672 341.792L103.611 317.187L138.655 276.178L202.305 335.503C206.025 338.97 208.442 343.609 209.152 348.645C209.862 353.681 208.822 358.808 206.206 363.168Z" fill="#2F2E41"/>
<path d="M87.9523 511.045H67.8209C49.7458 387.147 31.3471 262.903 85.7155 216.53L149.838 226.968L141.636 281.398L105.847 322.406L87.9523 511.045Z" fill="#2F2E41"/>
<path d="M105.649 539.112C104.073 539.542 102.424 539.633 100.81 539.38C99.196 539.127 97.6541 538.535 96.2854 537.643L74.4269 534.705C69.7299 531.645 66.3371 526.949 64.9067 521.529C63.4763 516.108 64.1104 510.35 66.6859 505.37C75.9427 510.808 84.063 510.049 91.1194 503.491C96.1053 513.558 104.32 512.944 112.166 521.426C113.205 522.949 113.865 524.699 114.09 526.529C114.316 528.36 114.101 530.217 113.463 531.948C112.826 533.678 111.784 535.231 110.424 536.477C109.065 537.723 107.428 538.626 105.649 539.112Z" fill="#2F2E41"/>
<path d="M135.671 133.767L98.3906 124.82C104.582 112.146 105.092 98.0438 102.119 83.0659L127.469 82.3203C128.264 100.946 130.667 118.347 135.671 133.767Z" fill="#FFB8B8"/>
<path d="M145.918 249.418C118.779 267.911 99.6036 250.051 84.9705 222.495C87.0039 205.633 83.7115 185.454 77.6138 163.528C74.902 153.858 75.9144 143.522 80.4513 134.561C84.9881 125.6 92.7197 118.666 102.119 115.127L134.181 128.548C161.404 150.739 166.763 174.775 156.549 200.127L145.918 249.418Z" fill="#3457D5"/>
<path d="M67.8203 152.408L37.996 168.065L90.9342 199.381L98.3002 217.55C98.7918 218.763 99.0313 220.063 99.0041 221.372C98.9769 222.68 98.6834 223.969 98.1418 225.16C97.6001 226.351 96.8214 227.42 95.8534 228.3C94.8853 229.181 93.748 229.855 92.5109 230.281C91.1047 230.766 89.6053 230.919 88.1301 230.728C86.6549 230.536 85.2441 230.006 84.008 229.179C82.772 228.351 81.7443 227.249 81.0055 225.957C80.2666 224.666 79.8367 223.222 79.7494 221.737L79.0045 209.074L11.7206 186.87C9.45368 186.122 7.3867 184.868 5.67621 183.203C3.96572 181.537 2.65659 179.505 1.84799 177.259C0.669344 173.985 0.609358 170.412 1.6774 167.101C2.74544 163.789 4.88124 160.925 7.75061 158.956L61.8555 121.838L67.8203 152.408Z" fill="#FFB8B8"/>
<path d="M97.6456 155.39C85.207 149.939 73.8963 155.86 59.6196 160.609L57.3828 121.092C71.5589 113.536 85.0749 111.499 97.6457 117.364L97.6456 155.39Z" fill="#3457D5"/>
<path d="M112.525 101.895C125.67 101.895 136.327 91.2377 136.327 78.0921C136.327 64.9466 125.67 54.29 112.525 54.29C99.3792 54.29 88.7227 64.9466 88.7227 78.0921C88.7227 91.2377 99.3792 101.895 112.525 101.895Z" fill="#FFB8B8"/>
<path d="M141 75.0891C117.434 77.3972 99.4766 73.5431 88 62.5691V53.7314H139L141 75.0891Z" fill="#2F2E41"/>
<path d="M305.321 154.005C304.907 155.129 317.328 241.721 318.274 244.205C318.57 245.092 319.22 245.92 319.693 246.098C320.226 246.275 327.442 245.506 335.781 244.382C344.121 243.259 355.241 241.78 360.446 241.07C365.651 240.36 370.264 239.473 370.678 239.118C371.27 238.527 369.495 230.66 361.925 199.667C356.72 178.433 352.343 160.393 352.165 159.683C351.988 158.974 351.337 158.087 350.746 157.732C349.918 157.318 309.698 153 306.149 153C305.912 153 305.498 153.473 305.321 154.005ZM329.689 158.678C340.099 159.565 348.794 160.452 349.03 160.63C349.445 161.044 363.699 220.428 363.699 221.906C363.699 222.38 363.581 222.794 363.403 222.794C363.285 222.794 354.295 223.622 343.471 224.568C332.647 225.573 322.828 226.342 321.645 226.342H319.457L318.392 219.363C317.86 215.578 315.494 200.022 313.128 184.762C309.52 161.221 309.047 157.14 309.816 157.14C310.348 157.14 319.279 157.85 329.689 158.678ZM347.907 230.838C350.864 233.795 350.45 238.586 347.138 239.946C342.288 241.957 337.674 234.564 341.341 230.66C343.116 228.767 345.955 228.827 347.907 230.838Z" fill="#3457D5"/>
<path d="M303.011 158.618C302.597 160.333 313.54 242.666 314.663 246.333C315.018 247.339 315.787 248.522 316.438 248.817C317.266 249.29 323.831 248.522 341.575 245.86C354.824 243.849 366.181 241.956 366.89 241.66C367.896 241.246 367.719 241.187 366.062 241.424C349.324 243.79 324.068 247.043 321.998 247.161C317.029 247.339 317.739 250.059 310.701 201.499C307.211 177.604 304.135 157.79 303.899 157.494C303.662 157.198 303.248 157.731 303.011 158.618Z" fill="#3457D5"/>
<path d="M387.795 156.284C387.551 156.52 387.367 157.112 387.367 157.585C387.367 158.058 393.051 165.984 400.017 175.211L412.668 192.009H415.479C417.007 192.009 418.595 191.713 419.023 191.299C419.879 190.471 420.062 157.94 419.207 156.639C418.901 156.106 417.679 155.929 415.723 156.047L412.729 156.225L412.423 167.936L412.118 179.647L403.195 167.936L394.273 156.225L391.278 156.047C389.628 155.929 388.039 156.047 387.795 156.284Z" fill="#3457D5"/>
<path d="M445.425 156.462C440.169 158.059 435.219 162.85 433.508 168.055C432.164 172.254 432.469 178.169 434.242 182.073C436.625 187.16 442.492 191.536 447.258 191.655L449.397 191.714V188.757C449.397 185.917 449.336 185.799 446.953 184.734C441.881 182.428 439.925 179.47 439.925 173.97C439.925 168.528 442.736 164.565 447.625 163.027C449.764 162.318 449.764 162.259 449.581 159.301C449.397 155.989 448.664 155.516 445.425 156.462Z" fill="#3457D5"/>
<path d="M453.608 156.757C453.424 157.171 453.363 158.709 453.486 160.128C453.669 162.435 453.852 162.731 455.624 163.145C458.374 163.855 461.613 167.285 462.53 170.42C464.241 176.335 461.736 182.072 456.419 184.438L453.363 185.798V188.874C453.363 191.89 453.424 192.009 455.074 192.009C457.336 191.95 461.247 190.175 463.997 187.868C472.247 180.83 472.247 167.167 463.997 160.128C461.491 157.999 456.908 155.929 454.769 155.929C454.28 155.929 453.791 156.284 453.608 156.757Z" fill="#3457D5"/>
<path d="M492.722 156.875C491.317 157.348 489.056 158.709 487.65 159.833C477.383 168.35 479.522 185.089 491.561 190.589C496.695 192.955 498.589 192.423 498.589 188.578C498.589 186.449 498.161 186.035 494.8 184.497C489.667 182.131 487.1 176.276 488.811 170.479C489.728 167.344 493.089 163.796 495.778 163.145C498.039 162.553 499.139 160.306 498.222 157.822C497.55 155.929 496.145 155.692 492.722 156.875Z" fill="#3457D5"/>
<path d="M502.074 156.283C501.83 156.52 501.646 157.939 501.646 159.477C501.646 162.257 501.708 162.316 504.335 163.262C505.802 163.795 507.88 165.155 508.919 166.338C510.752 168.231 511.18 168.408 513.747 168.231C516.313 168.053 516.619 167.876 516.802 166.515C517.047 164.623 512.402 159.359 509.041 157.703C506.413 156.401 502.747 155.692 502.074 156.283Z" fill="#3457D5"/>
<path d="M542.404 156.343C542.22 156.639 539.715 162.199 536.843 168.823C532.565 178.405 531.648 181.007 532.259 181.717C533.115 182.723 537.943 182.841 538.737 181.776C539.104 181.421 540.815 177.636 542.587 173.496C544.726 168.586 546.009 166.221 546.315 166.753C546.865 167.699 554.198 184.379 554.198 184.675C554.198 184.793 548.882 184.911 542.465 184.911C535.987 184.911 530.426 185.148 530.059 185.384C529.754 185.621 528.959 186.804 528.348 188.105C526.454 192.009 526.392 192.009 546.254 192.009C561.41 192.009 563.915 191.89 564.221 191.122C564.465 190.412 552.304 161.43 549.859 156.994C549.371 156.166 548.515 155.929 545.948 155.929C544.176 155.929 542.526 156.106 542.404 156.343Z" fill="#3457D5"/>
<path d="M498.832 172.135C498.649 172.608 498.588 173.969 498.71 175.211L498.893 177.518L504.882 177.695C509.527 177.813 510.81 178.05 510.81 178.701C510.81 180.179 506.96 183.846 504.21 184.97C501.582 186.094 501.582 186.094 501.766 188.874C501.949 191.299 502.132 191.713 503.355 191.89C507.449 192.482 514.049 187.928 516.677 182.782C517.96 180.238 518.388 178.523 518.388 175.507L518.449 171.603L508.794 171.426C500.91 171.307 499.138 171.426 498.832 172.135Z" fill="#3457D5"/>
<path d="M387.614 180.358C387.492 180.772 387.37 183.552 387.492 186.45L387.675 191.714H390.731H393.787V185.799V179.884L390.853 179.707C388.836 179.589 387.859 179.766 387.614 180.358Z" fill="#3457D5"/>
<path d="M396.539 214.744C396.539 214.807 396.481 214.839 396.366 214.839C395.932 214.839 395.272 214.802 394.387 214.727C393.508 214.651 392.849 214.614 392.409 214.614C391.854 214.614 391.53 214.634 391.437 214.674C391.223 214.773 391.116 215.05 391.116 215.507C391.116 216.057 391.255 216.369 391.533 216.445C391.648 216.473 391.825 216.488 392.062 216.488C392.461 216.488 393.057 216.468 393.849 216.427C394.648 216.381 395.246 216.358 395.646 216.358C395.836 216.358 395.932 216.867 395.932 217.885C395.932 218.77 395.9 219.285 395.836 219.429C395.796 219.534 395.718 219.586 395.602 219.586C395.677 219.586 395.495 219.565 395.055 219.525C394.437 219.467 393.499 219.438 392.244 219.438C391.839 219.438 391.611 219.441 391.559 219.447C391.264 219.493 391.116 219.617 391.116 219.82C391.116 220.641 391.151 221.587 391.22 222.657C391.278 223.623 391.307 224.054 391.307 223.95C391.307 224.1 391.125 224.187 390.76 224.21C390.859 224.205 390.601 224.202 389.988 224.202C388.906 224.202 388.209 224.164 387.897 224.089C387.729 224.048 387.645 223.959 387.645 223.82C387.645 223.178 387.666 222.215 387.706 220.93C387.752 219.641 387.776 218.674 387.776 218.032C387.776 217.269 387.741 216.309 387.671 215.152C387.567 213.364 387.512 212.404 387.507 212.271L387.498 212.167C387.492 212.022 387.579 211.95 387.758 211.95C388.186 211.95 388.831 211.959 389.693 211.976C390.561 211.993 391.212 212.002 391.645 212.002C392.108 212.002 392.802 211.967 393.728 211.898C394.659 211.828 395.356 211.794 395.819 211.794C396.108 211.794 396.27 211.912 396.305 212.149C396.305 212.398 396.317 212.771 396.34 213.269C396.351 213.396 396.389 213.642 396.452 214.006C396.51 214.324 396.539 214.57 396.539 214.744ZM414.067 218.015C414.067 219.82 413.491 221.333 412.34 222.553C411.166 223.791 409.679 224.41 407.88 224.41C406.092 224.41 404.609 223.785 403.429 222.536C402.272 221.315 401.693 219.808 401.693 218.015C401.693 216.216 402.272 214.703 403.429 213.477C404.609 212.222 406.092 211.594 407.88 211.594C409.656 211.594 411.137 212.222 412.322 213.477C413.485 214.715 414.067 216.228 414.067 218.015ZM410.778 217.998C410.778 217.13 410.515 216.392 409.988 215.785C409.439 215.149 408.736 214.831 407.88 214.831C407.064 214.831 406.373 215.16 405.806 215.82C405.257 216.456 404.982 217.188 404.982 218.015C404.982 218.9 405.239 219.638 405.754 220.228C406.298 220.847 407.006 221.156 407.88 221.156C408.696 221.156 409.39 220.829 409.962 220.176C410.506 219.551 410.778 218.825 410.778 217.998ZM430.145 224.002C430.145 224.043 430.087 224.072 429.971 224.089C429.751 224.124 429.199 224.141 428.314 224.141C427.556 224.141 427.041 224.124 426.77 224.089C426.642 224.072 426.57 224.057 426.553 224.045C426.518 224.028 426.477 223.97 426.431 223.872C426.344 223.646 426.217 223.311 426.049 222.865C425.824 222.287 425.471 221.434 424.991 220.306C424.887 220.08 424.647 219.956 424.271 219.933C424.444 219.944 424.146 219.95 423.377 219.95C423.29 219.95 423.247 220.097 423.247 220.393C423.247 220.786 423.281 221.373 423.351 222.154C423.426 222.935 423.464 223.522 423.464 223.915C423.464 224.014 423.438 224.072 423.386 224.089C423.305 224.095 423.224 224.1 423.143 224.106C422.801 224.129 422.269 224.141 421.546 224.141C420.719 224.141 420.221 224.124 420.054 224.089C419.886 224.054 419.802 223.964 419.802 223.82C419.802 223.184 419.831 222.223 419.889 220.939C419.952 219.655 419.984 218.692 419.984 218.05C419.984 215.603 419.929 213.694 419.819 212.323L419.811 212.202C419.805 212.103 419.895 212.037 420.08 212.002C420.271 211.967 421.156 211.933 422.735 211.898C423.805 211.875 424.658 211.863 425.294 211.863C426.613 211.863 427.689 212.161 428.522 212.757C429.465 213.428 429.937 214.397 429.937 215.664C429.937 216.508 429.815 217.182 429.572 217.685C429.329 218.189 428.881 218.677 428.227 219.152C428.094 219.244 428.028 219.331 428.028 219.412C428.028 219.406 428.381 220.132 429.086 221.59C429.792 223.048 430.145 223.852 430.145 224.002ZM426.501 216.219C426.501 215.513 426.269 215.024 425.806 214.753C425.448 214.544 424.887 214.44 424.123 214.44C423.574 214.44 423.281 214.524 423.247 214.692C423.212 214.888 423.195 215.455 423.195 216.392C423.195 216.526 423.198 216.722 423.203 216.982C423.209 217.243 423.212 217.437 423.212 217.564C423.212 217.593 423.305 217.622 423.49 217.651C423.843 217.703 424.213 217.729 424.6 217.729C425.867 217.729 426.501 217.225 426.501 216.219ZM450.379 220.097C450.379 221.272 449.885 222.278 448.896 223.117C448.028 223.857 446.972 224.329 445.729 224.531C445.682 224.537 445.645 224.54 445.616 224.54C445.483 224.54 445.188 224.135 444.731 223.325C444.274 222.51 444.045 222.012 444.045 221.833C444.045 221.769 444.089 221.729 444.175 221.711C445.014 221.521 445.569 221.359 445.841 221.225C446.443 220.925 446.744 220.479 446.744 219.889C446.744 219.513 446.547 219.094 446.154 218.631C445.471 217.844 445.101 217.408 445.043 217.321C444.644 216.719 444.444 216.054 444.444 215.325C444.444 214.267 444.933 213.387 445.911 212.687C446.709 212.109 447.689 211.733 448.852 211.559C448.916 211.554 448.965 211.551 449 211.551C449.086 211.551 449.156 211.62 449.208 211.759C449.358 212.181 449.708 212.945 450.258 214.05C450.275 214.084 450.284 214.113 450.284 214.136C450.284 214.235 450.232 214.284 450.128 214.284C450.081 214.284 450.003 214.275 449.893 214.258C449.784 214.241 449.7 214.232 449.642 214.232C449.225 214.232 448.861 214.327 448.548 214.518C448.173 214.738 447.985 215.045 447.985 215.438C447.985 215.791 448.193 216.225 448.609 216.74C449.344 217.665 449.729 218.151 449.763 218.197C450.174 218.834 450.379 219.467 450.379 220.097ZM468.314 218.015C468.314 219.82 467.739 221.333 466.588 222.553C465.413 223.791 463.927 224.41 462.128 224.41C460.34 224.41 458.857 223.785 457.677 222.536C456.52 221.315 455.941 219.808 455.941 218.015C455.941 216.216 456.52 214.703 457.677 213.477C458.857 212.222 460.34 211.594 462.128 211.594C463.904 211.594 465.385 212.222 466.57 213.477C467.733 214.715 468.314 216.228 468.314 218.015ZM465.026 217.998C465.026 217.13 464.763 216.392 464.236 215.785C463.687 215.149 462.984 214.831 462.128 214.831C461.312 214.831 460.621 215.16 460.054 215.82C459.505 216.456 459.23 217.188 459.23 218.015C459.23 218.9 459.487 219.638 460.002 220.228C460.546 220.847 461.254 221.156 462.128 221.156C462.943 221.156 463.638 220.829 464.21 220.176C464.754 219.551 465.026 218.825 465.026 217.998ZM483.013 214.744C483.013 214.807 482.955 214.839 482.84 214.839C482.406 214.839 481.746 214.802 480.861 214.727C479.982 214.651 479.323 214.614 478.883 214.614C478.328 214.614 478.004 214.634 477.911 214.674C477.697 214.773 477.59 215.05 477.59 215.507C477.59 216.057 477.729 216.369 478.007 216.445C478.122 216.473 478.299 216.488 478.536 216.488C478.935 216.488 479.531 216.468 480.323 216.427C481.122 216.381 481.72 216.358 482.119 216.358C482.31 216.358 482.406 216.867 482.406 217.885C482.406 218.77 482.374 219.285 482.31 219.429C482.27 219.534 482.192 219.586 482.076 219.586C482.151 219.586 481.969 219.565 481.529 219.525C480.91 219.467 479.973 219.438 478.718 219.438C478.313 219.438 478.085 219.441 478.033 219.447C477.738 219.493 477.59 219.617 477.59 219.82C477.59 220.641 477.625 221.587 477.694 222.657C477.752 223.623 477.781 224.054 477.781 223.95C477.781 224.1 477.599 224.187 477.234 224.21C477.333 224.205 477.075 224.202 476.462 224.202C475.38 224.202 474.683 224.164 474.371 224.089C474.203 224.048 474.119 223.959 474.119 223.82C474.119 223.178 474.14 222.215 474.18 220.93C474.226 219.641 474.249 218.674 474.249 218.032C474.249 217.269 474.215 216.309 474.145 215.152C474.041 213.364 473.986 212.404 473.98 212.271L473.972 212.167C473.966 212.022 474.053 211.95 474.232 211.95C474.66 211.95 475.305 211.959 476.167 211.976C477.035 211.993 477.685 212.002 478.119 212.002C478.582 212.002 479.276 211.967 480.202 211.898C481.133 211.828 481.83 211.794 482.293 211.794C482.582 211.794 482.744 211.912 482.779 212.149C482.779 212.398 482.79 212.771 482.814 213.269C482.825 213.396 482.863 213.642 482.926 214.006C482.984 214.324 483.013 214.57 483.013 214.744ZM496.94 214.57C496.94 214.686 496.876 214.744 496.749 214.744C496.529 214.744 495.658 214.7 494.137 214.614C494.102 216.077 494.085 217.098 494.085 217.677C494.085 218.359 494.111 219.386 494.163 220.757C494.221 222.128 494.25 223.155 494.25 223.837C494.25 223.947 494.224 224.017 494.172 224.045C494.154 224.057 494.073 224.072 493.929 224.089C493.582 224.135 493.073 224.158 492.401 224.158C491.655 224.158 491.132 224.135 490.831 224.089C490.669 224.06 490.588 223.97 490.588 223.82C490.588 223.137 490.617 222.113 490.675 220.748C490.733 219.383 490.762 218.359 490.762 217.677C490.762 217.225 490.738 216.219 490.692 214.657C489.535 214.773 488.613 214.831 487.924 214.831C487.832 214.831 487.785 214.802 487.785 214.744C487.785 214.669 487.826 214.446 487.907 214.076C487.999 213.671 488.051 213.425 488.063 213.338C488.08 213.066 488.101 212.794 488.124 212.523C488.164 212.089 488.234 211.872 488.332 211.872C488.344 211.872 488.384 211.875 488.454 211.88C489.391 212.002 490.776 212.063 492.61 212.063C493.13 212.063 494.091 212.008 495.49 211.898C496.242 211.84 496.621 211.811 496.627 211.811C496.743 211.811 496.809 211.82 496.827 211.837C496.844 211.849 496.856 211.904 496.861 212.002C496.861 212.158 496.856 212.375 496.844 212.653C496.832 212.959 496.827 213.176 496.827 213.303C496.827 213.448 496.844 213.662 496.879 213.946C496.919 214.223 496.94 214.431 496.94 214.57ZM517.729 216.358C517.729 216.375 517.191 217.541 516.115 219.855C515.022 222.215 514.397 223.542 514.241 223.837C514.189 223.941 514.157 223.999 514.146 224.011C514.123 224.04 514.068 224.066 513.981 224.089C513.836 224.124 513.426 224.141 512.749 224.141C512.118 224.141 511.734 224.124 511.595 224.089C511.479 224.06 511.41 224.037 511.387 224.019C511.363 224.002 511.326 223.947 511.274 223.855C511.239 223.791 511.074 223.383 510.779 222.631L509.833 220.219L508.87 222.657C508.772 222.935 508.61 223.334 508.384 223.855C508.326 223.953 508.286 224.014 508.263 224.037C508.24 224.054 508.173 224.072 508.063 224.089C507.867 224.124 507.488 224.141 506.927 224.141C506.232 224.141 505.816 224.124 505.677 224.089C505.579 224.066 505.498 223.982 505.434 223.837C503.167 219.181 502.033 216.687 502.033 216.358C502.033 215.895 502.047 215.204 502.076 214.284C502.111 213.358 502.128 212.664 502.128 212.202C502.128 212.011 502.186 211.915 502.302 211.915C502.632 211.915 503.129 211.93 503.794 211.959C504.465 211.987 504.969 212.002 505.304 212.002C505.437 212.002 505.504 212.057 505.504 212.167C505.504 212.63 505.48 213.33 505.434 214.267C505.394 215.198 505.373 215.895 505.373 216.358C505.373 216.531 505.585 217.084 506.007 218.015C506.389 218.848 506.666 219.412 506.84 219.707C506.927 219.857 506.984 219.933 507.013 219.933C507.06 219.933 507.178 219.655 507.369 219.1C507.913 217.544 508.191 216.624 508.202 216.34C508.225 215.808 508.228 215.131 508.211 214.31C508.193 213.124 508.185 212.444 508.185 212.271C508.185 212.161 508.193 212.097 508.211 212.08C508.228 212.057 508.292 212.037 508.402 212.019C508.697 211.985 509.206 211.967 509.929 211.967C511.034 211.967 511.586 212.045 511.586 212.202C511.586 212.589 511.572 213.191 511.543 214.006C511.514 214.799 511.502 215.4 511.508 215.811V216.254C511.508 216.549 511.806 217.489 512.402 219.074C512.604 219.623 512.726 219.898 512.766 219.898C512.795 219.898 512.853 219.823 512.94 219.672C513.102 219.389 513.362 218.828 513.721 217.989C514.12 217.075 514.319 216.531 514.319 216.358C514.319 215.889 514.296 215.189 514.25 214.258C514.209 213.321 514.189 212.621 514.189 212.158C514.189 212.054 514.256 212.002 514.389 212.002C514.73 212.002 515.242 211.987 515.925 211.959C516.613 211.93 517.128 211.915 517.469 211.915C517.579 211.915 517.634 212.031 517.634 212.262C517.634 212.719 517.648 213.405 517.677 214.319C517.712 215.227 517.729 215.907 517.729 216.358ZM534.901 223.872C534.901 223.976 534.829 224.048 534.684 224.089C534.51 224.135 533.972 224.158 533.07 224.158C532.243 224.158 531.711 224.135 531.474 224.089C531.277 224.048 531.152 223.918 531.1 223.698C530.904 222.865 530.75 222.42 530.641 222.362C530.548 222.322 529.773 222.301 528.315 222.301C527.332 222.301 526.808 222.327 526.745 222.38C526.646 222.472 526.536 222.782 526.415 223.308C526.305 223.788 526.172 224.048 526.016 224.089C525.819 224.135 525.16 224.158 524.037 224.158C523.152 224.158 522.71 224.074 522.71 223.907C522.71 223.756 523.364 221.908 524.671 218.362C526.088 214.527 526.857 212.418 526.979 212.037C527.048 211.817 527.129 211.707 527.222 211.707C527.378 211.707 527.618 211.721 527.942 211.75C528.272 211.779 528.518 211.794 528.68 211.794C528.836 211.794 529.064 211.785 529.365 211.768C529.672 211.745 529.9 211.733 530.051 211.733C530.16 211.733 530.262 211.828 530.354 212.019C530.638 212.627 531.465 214.709 532.836 218.267C534.213 221.847 534.901 223.716 534.901 223.872ZM528.749 215.967C528.628 216.222 528.422 216.774 528.133 217.625C527.821 218.527 527.664 219.056 527.664 219.212C527.664 219.317 527.838 219.374 528.185 219.386C528.364 219.398 528.659 219.403 529.07 219.403C529.452 219.403 529.663 219.357 529.703 219.265C529.715 219.236 529.721 219.195 529.721 219.143C529.721 218.952 529.588 218.426 529.322 217.564C529.061 216.731 528.87 216.199 528.749 215.967ZM550.58 224.002C550.58 224.043 550.522 224.072 550.407 224.089C550.187 224.124 549.634 224.141 548.749 224.141C547.991 224.141 547.477 224.124 547.205 224.089C547.077 224.072 547.005 224.057 546.988 224.045C546.953 224.028 546.913 223.97 546.866 223.872C546.78 223.646 546.652 223.311 546.485 222.865C546.259 222.287 545.906 221.434 545.426 220.306C545.322 220.08 545.082 219.956 544.706 219.933C544.879 219.944 544.581 219.95 543.812 219.95C543.725 219.95 543.682 220.097 543.682 220.393C543.682 220.786 543.717 221.373 543.786 222.154C543.861 222.935 543.899 223.522 543.899 223.915C543.899 224.014 543.873 224.072 543.821 224.089C543.74 224.095 543.659 224.1 543.578 224.106C543.237 224.129 542.704 224.141 541.981 224.141C541.154 224.141 540.657 224.124 540.489 224.089C540.321 224.054 540.237 223.964 540.237 223.82C540.237 223.184 540.266 222.223 540.324 220.939C540.388 219.655 540.419 218.692 540.419 218.05C540.419 215.603 540.364 213.694 540.255 212.323L540.246 212.202C540.24 212.103 540.33 212.037 540.515 212.002C540.706 211.967 541.591 211.933 543.17 211.898C544.24 211.875 545.093 211.863 545.73 211.863C547.049 211.863 548.124 212.161 548.957 212.757C549.9 213.428 550.372 214.397 550.372 215.664C550.372 216.508 550.25 217.182 550.007 217.685C549.764 218.189 549.316 218.677 548.662 219.152C548.529 219.244 548.463 219.331 548.463 219.412C548.463 219.406 548.816 220.132 549.521 221.59C550.227 223.048 550.58 223.852 550.58 224.002ZM546.936 216.219C546.936 215.513 546.704 215.024 546.242 214.753C545.883 214.544 545.322 214.44 544.558 214.44C544.009 214.44 543.717 214.524 543.682 214.692C543.647 214.888 543.63 215.455 543.63 216.392C543.63 216.526 543.633 216.722 543.639 216.982C543.644 217.243 543.647 217.437 543.647 217.564C543.647 217.593 543.74 217.622 543.925 217.651C544.278 217.703 544.648 217.729 545.036 217.729C546.302 217.729 546.936 217.225 546.936 216.219ZM564.897 221.39C564.897 221.639 564.848 222.096 564.749 222.761C564.645 223.484 564.553 223.915 564.472 224.054C564.402 224.164 564.307 224.219 564.185 224.219C564.133 224.219 564.047 224.21 563.925 224.193C563.503 224.135 562.271 224.106 560.229 224.106C559.783 224.106 559.121 224.103 558.242 224.098C557.362 224.092 556.703 224.089 556.263 224.089C556.073 224.089 555.977 224.005 555.977 223.837C555.977 223.189 556.012 222.218 556.081 220.922C556.156 219.62 556.194 218.646 556.194 217.998C556.194 217.338 556.159 216.109 556.09 214.31C556.073 213.847 556.041 213.156 555.994 212.236L555.986 212.115C555.974 211.982 556.046 211.915 556.203 211.915C556.631 211.915 557.273 211.927 558.129 211.95C558.991 211.973 559.636 211.985 560.064 211.985C560.486 211.985 561.122 211.973 561.973 211.95C562.823 211.927 563.459 211.915 563.882 211.915C564.183 211.915 564.356 212.028 564.402 212.254C564.431 212.387 564.475 212.792 564.532 213.468C564.596 214.139 564.628 214.547 564.628 214.692C564.628 214.813 564.57 214.874 564.454 214.874C564.42 214.874 564.359 214.871 564.272 214.865C562.733 214.738 561.351 214.674 560.125 214.674C559.818 214.674 559.63 214.747 559.561 214.891C559.532 214.961 559.517 215.183 559.517 215.559C559.517 215.953 559.575 216.213 559.691 216.34C559.789 216.45 559.977 216.505 560.255 216.505C560.313 216.505 560.425 216.502 560.593 216.497C560.761 216.485 560.9 216.479 561.01 216.479C561.739 216.479 562.476 216.459 563.222 216.418C563.286 216.413 563.445 216.398 563.699 216.375C563.896 216.352 564.052 216.34 564.168 216.34C564.307 216.34 564.376 216.407 564.376 216.54C564.376 216.418 564.324 216.861 564.22 217.868C564.174 218.33 564.151 218.793 564.151 219.256C564.151 219.372 564.067 219.429 563.899 219.429C563.899 219.429 563.639 219.4 563.118 219.343C562.788 219.308 562.036 219.291 560.862 219.291H559.942C559.705 219.291 559.566 219.348 559.526 219.464C559.52 219.493 559.517 219.672 559.517 220.002C559.517 220.442 559.546 220.725 559.604 220.852C559.702 221.072 560.073 221.202 560.715 221.243C560.703 221.243 561.125 221.243 561.981 221.243C562.288 221.243 562.742 221.217 563.344 221.165C563.951 221.107 564.405 221.078 564.706 221.078C564.833 221.078 564.897 221.182 564.897 221.39Z" fill="#3457D5"/>
<path d="M393.351 237.868C393.351 239.042 392.857 240.049 391.868 240.888C391 241.628 389.944 242.099 388.701 242.302C388.654 242.308 388.617 242.311 388.588 242.311C388.455 242.311 388.16 241.906 387.703 241.096C387.246 240.28 387.017 239.783 387.017 239.603C387.017 239.54 387.061 239.499 387.147 239.482C387.986 239.291 388.541 239.129 388.813 238.996C389.415 238.695 389.716 238.25 389.716 237.66C389.716 237.284 389.519 236.864 389.126 236.402C388.443 235.615 388.073 235.178 388.015 235.091C387.616 234.49 387.416 233.825 387.416 233.096C387.416 232.037 387.905 231.158 388.883 230.458C389.681 229.879 390.662 229.503 391.824 229.33C391.888 229.324 391.937 229.321 391.972 229.321C392.059 229.321 392.128 229.391 392.18 229.53C392.33 229.952 392.68 230.715 393.23 231.82C393.247 231.855 393.256 231.884 393.256 231.907C393.256 232.005 393.204 232.054 393.1 232.054C393.053 232.054 392.975 232.046 392.865 232.028C392.756 232.011 392.672 232.002 392.614 232.002C392.197 232.002 391.833 232.098 391.521 232.289C391.145 232.509 390.957 232.815 390.957 233.209C390.957 233.561 391.165 233.995 391.581 234.51C392.316 235.436 392.701 235.921 392.735 235.968C393.146 236.604 393.351 237.237 393.351 237.868ZM417.862 235.786C417.862 237.59 417.286 239.103 416.135 240.324C414.961 241.561 413.474 242.18 411.675 242.18C409.887 242.18 408.404 241.556 407.224 240.306C406.067 239.086 405.488 237.579 405.488 235.786C405.488 233.987 406.067 232.474 407.224 231.248C408.404 229.992 409.887 229.365 411.675 229.365C413.451 229.365 414.932 229.992 416.117 231.248C417.28 232.485 417.862 233.998 417.862 235.786ZM414.573 235.768C414.573 234.901 414.31 234.163 413.783 233.556C413.234 232.919 412.531 232.601 411.675 232.601C410.859 232.601 410.168 232.931 409.601 233.59C409.052 234.227 408.777 234.958 408.777 235.786C408.777 236.671 409.034 237.408 409.549 237.998C410.093 238.617 410.801 238.927 411.675 238.927C412.491 238.927 413.185 238.6 413.757 237.946C414.301 237.321 414.573 236.595 414.573 235.768ZM438.146 242.007C437.649 242.007 437.001 241.995 436.202 241.972C435.161 241.949 434.513 241.935 434.259 241.929L431.664 241.894C431.404 241.9 431.031 241.888 430.545 241.859C430.377 241.83 430.293 241.741 430.293 241.59C430.293 240.96 430.302 240.017 430.319 238.762C430.343 237.501 430.354 236.555 430.354 235.924C430.354 235.253 430.334 234.25 430.293 232.914C430.253 231.571 430.233 230.565 430.233 229.894C430.233 229.767 430.319 229.703 430.493 229.703C430.667 229.703 430.924 229.712 431.265 229.729C431.612 229.746 431.87 229.755 432.037 229.755C432.228 229.755 432.512 229.746 432.888 229.729C433.264 229.706 433.547 229.694 433.738 229.694C433.825 229.694 433.865 229.749 433.86 229.859L433.851 229.972C433.782 231.06 433.703 232.694 433.617 234.874L433.608 237.165C433.608 237.906 433.611 238.446 433.617 238.788C433.622 238.857 433.628 238.927 433.634 238.996C433.64 239.065 433.683 239.109 433.764 239.126C433.77 239.126 433.845 239.126 433.99 239.126C434.51 239.126 435.288 239.1 436.324 239.048C437.365 238.99 438.146 238.961 438.667 238.961C438.823 238.961 438.901 239.028 438.901 239.161C438.901 240.15 438.829 241.003 438.684 241.721C438.655 241.871 438.594 241.961 438.502 241.99C438.473 242.001 438.354 242.007 438.146 242.007ZM461.268 237.599C461.268 239.074 461.091 240.081 460.739 240.619C460.091 241.602 458.474 242.094 455.888 242.094C454.72 242.094 453.82 242.004 453.19 241.825C452.183 241.535 451.529 240.983 451.229 240.167C451.078 239.768 451.003 239.057 451.003 238.033C451.003 237.796 451.012 237.443 451.029 236.974C451.046 236.506 451.055 236.156 451.055 235.924C451.055 235.253 451.023 234.247 450.96 232.905C450.896 231.563 450.864 230.559 450.864 229.894C450.864 229.755 450.925 229.686 451.046 229.686C451.399 229.686 451.931 229.7 452.643 229.729C453.36 229.758 453.895 229.772 454.248 229.772C454.393 229.772 454.465 229.836 454.465 229.963C454.465 230.727 454.439 231.872 454.387 233.399C454.341 234.921 454.318 236.063 454.318 236.827C454.318 237.735 454.413 238.348 454.604 238.666C454.858 239.1 455.391 239.317 456.201 239.317C457.386 239.317 457.979 238.741 457.979 237.59C457.979 236.752 457.959 235.493 457.919 233.816C457.878 232.138 457.858 230.88 457.858 230.041C457.858 229.862 457.93 229.772 458.075 229.772C458.416 229.772 458.931 229.758 459.619 229.729C460.308 229.7 460.822 229.686 461.164 229.686C461.331 229.686 461.415 229.755 461.415 229.894C461.415 230.559 461.386 231.563 461.329 232.905C461.276 234.247 461.25 235.253 461.25 235.924C461.25 236.109 461.253 236.39 461.259 236.766C461.265 237.136 461.268 237.414 461.268 237.599ZM482.455 232.341C482.455 232.457 482.391 232.514 482.264 232.514C482.044 232.514 481.173 232.471 479.652 232.384C479.617 233.848 479.6 234.869 479.6 235.447C479.6 236.13 479.626 237.157 479.678 238.527C479.736 239.898 479.765 240.925 479.765 241.608C479.765 241.718 479.739 241.787 479.687 241.816C479.669 241.828 479.588 241.842 479.444 241.859C479.097 241.906 478.588 241.929 477.917 241.929C477.17 241.929 476.647 241.906 476.346 241.859C476.184 241.83 476.103 241.741 476.103 241.59C476.103 240.908 476.132 239.884 476.19 238.519C476.248 237.154 476.277 236.13 476.277 235.447C476.277 234.996 476.254 233.989 476.207 232.428C475.05 232.543 474.128 232.601 473.439 232.601C473.347 232.601 473.301 232.572 473.301 232.514C473.301 232.439 473.341 232.216 473.422 231.846C473.515 231.441 473.567 231.195 473.578 231.109C473.596 230.837 473.616 230.565 473.639 230.293C473.679 229.859 473.749 229.642 473.847 229.642C473.859 229.642 473.899 229.645 473.969 229.651C474.906 229.772 476.291 229.833 478.125 229.833C478.646 229.833 479.606 229.778 481.006 229.668C481.758 229.61 482.137 229.582 482.142 229.582C482.258 229.582 482.325 229.59 482.342 229.608C482.359 229.619 482.371 229.674 482.377 229.772C482.377 229.929 482.371 230.146 482.359 230.423C482.348 230.73 482.342 230.947 482.342 231.074C482.342 231.219 482.359 231.433 482.394 231.716C482.434 231.994 482.455 232.202 482.455 232.341ZM497.932 235.447C497.932 236.13 497.95 237.157 497.984 238.527C498.019 239.898 498.036 240.925 498.036 241.608C498.036 241.723 498.01 241.796 497.958 241.825C497.947 241.83 497.871 241.842 497.733 241.859C497.357 241.906 496.853 241.929 496.223 241.929C495.378 241.929 494.84 241.906 494.609 241.859C494.441 241.825 494.357 241.735 494.357 241.59C494.357 241.683 494.383 241.174 494.435 240.063C494.54 237.72 494.592 236.182 494.592 235.447C494.592 234.828 494.571 233.9 494.531 232.662C494.49 231.424 494.47 230.496 494.47 229.877C494.47 229.749 494.537 229.686 494.67 229.686C494.849 229.686 495.118 229.694 495.477 229.712C495.841 229.729 496.113 229.738 496.292 229.738C496.472 229.738 496.735 229.729 497.082 229.712C497.435 229.694 497.701 229.686 497.88 229.686C498.048 229.686 498.132 229.749 498.132 229.877C498.132 230.496 498.097 231.424 498.028 232.662C497.964 233.9 497.932 234.828 497.932 235.447ZM522.772 235.786C522.772 237.59 522.196 239.103 521.045 240.324C519.871 241.561 518.384 242.18 516.585 242.18C514.798 242.18 513.314 241.556 512.134 240.306C510.977 239.086 510.399 237.579 510.399 235.786C510.399 233.987 510.977 232.474 512.134 231.248C513.314 229.992 514.798 229.365 516.585 229.365C518.361 229.365 519.842 229.992 521.028 231.248C522.191 232.485 522.772 233.998 522.772 235.786ZM519.483 235.768C519.483 234.901 519.22 234.163 518.694 233.556C518.144 232.919 517.442 232.601 516.585 232.601C515.77 232.601 515.079 232.931 514.512 233.59C513.962 234.227 513.687 234.958 513.687 235.786C513.687 236.671 513.945 237.408 514.46 237.998C515.003 238.617 515.712 238.927 516.585 238.927C517.401 238.927 518.095 238.6 518.668 237.946C519.212 237.321 519.483 236.595 519.483 235.768ZM546.692 229.955C546.692 230.614 546.663 231.606 546.605 232.931C546.553 234.25 546.527 235.242 546.527 235.907V241.625C546.527 241.781 546.443 241.859 546.276 241.859C546.137 241.859 545.926 241.865 545.642 241.877C545.365 241.888 545.156 241.894 545.017 241.894C544.867 241.894 544.641 241.883 544.341 241.859C544.04 241.836 543.814 241.825 543.664 241.825C543.56 241.825 543.435 241.729 543.291 241.538C542.874 240.977 541.937 239.734 540.479 237.807C540.08 237.269 539.473 236.477 538.657 235.43C538.634 235.395 538.591 235.36 538.527 235.326C538.481 235.366 538.458 235.43 538.458 235.517C538.458 236.188 538.475 237.194 538.51 238.536C538.55 239.878 538.571 240.885 538.571 241.556C538.571 241.758 538.492 241.859 538.336 241.859H535.334C535.166 241.859 535.082 241.77 535.082 241.59C535.082 240.966 535.111 240.023 535.169 238.762C535.233 237.501 535.265 236.555 535.265 235.924C535.265 235.259 535.236 234.264 535.178 232.94C535.126 231.615 535.1 230.623 535.1 229.963C535.1 229.836 535.213 229.772 535.438 229.772C535.774 229.772 536.187 229.749 536.679 229.703C536.795 229.691 537.023 229.654 537.364 229.59C537.654 229.538 537.882 229.512 538.05 229.512C538.119 229.512 538.226 229.61 538.371 229.807L541.607 234.241C541.897 234.64 542.333 235.224 542.918 235.994C543.062 236.173 543.187 236.263 543.291 236.263C543.366 236.263 543.404 236.037 543.404 235.586C543.404 234.979 543.369 234.065 543.299 232.844C543.236 231.624 543.204 230.707 543.204 230.094C543.204 229.879 543.265 229.772 543.386 229.772C543.733 229.772 544.257 229.758 544.957 229.729C545.657 229.7 546.18 229.686 546.527 229.686C546.637 229.686 546.692 229.775 546.692 229.955ZM565.241 237.868C565.241 239.042 564.747 240.049 563.757 240.888C562.89 241.628 561.834 242.099 560.59 242.302C560.544 242.308 560.507 242.311 560.478 242.311C560.345 242.311 560.05 241.906 559.593 241.096C559.136 240.28 558.907 239.783 558.907 239.603C558.907 239.54 558.95 239.499 559.037 239.482C559.876 239.291 560.431 239.129 560.703 238.996C561.305 238.695 561.606 238.25 561.606 237.66C561.606 237.284 561.409 236.864 561.016 236.402C560.333 235.615 559.963 235.178 559.905 235.091C559.506 234.49 559.306 233.825 559.306 233.096C559.306 232.037 559.795 231.158 560.773 230.458C561.571 229.879 562.551 229.503 563.714 229.33C563.778 229.324 563.827 229.321 563.862 229.321C563.948 229.321 564.018 229.391 564.07 229.53C564.22 229.952 564.57 230.715 565.12 231.82C565.137 231.855 565.146 231.884 565.146 231.907C565.146 232.005 565.094 232.054 564.99 232.054C564.943 232.054 564.865 232.046 564.755 232.028C564.645 232.011 564.562 232.002 564.504 232.002C564.087 232.002 563.723 232.098 563.41 232.289C563.034 232.509 562.846 232.815 562.846 233.209C562.846 233.561 563.055 233.995 563.471 234.51C564.206 235.436 564.59 235.921 564.625 235.968C565.036 236.604 565.241 237.237 565.241 237.868Z" fill="#3457D5"/>
<path d="M326.65 180.346C326.669 180.454 326.638 180.563 326.557 180.671C326.476 180.779 326.379 180.843 326.265 180.863C325.992 180.911 325.582 180.987 325.036 181.089C324.49 181.191 324.08 181.266 323.807 181.314C323.596 181.351 323.478 181.278 323.451 181.095L323.443 181C323.139 178.809 322.947 177.484 322.865 177.022L322.418 174.484C322.39 174.325 322.338 174.251 322.264 174.265C322.15 174.285 321.983 174.349 321.761 174.459C321.545 174.568 321.378 174.632 321.258 174.653C321.081 174.685 320.975 174.595 320.937 174.384C320.903 174.19 320.849 173.9 320.775 173.514C320.701 173.128 320.647 172.835 320.611 172.635C320.591 172.521 320.647 172.423 320.78 172.341C321.556 171.846 322.132 171.263 322.507 170.592C322.582 170.455 322.654 170.381 322.723 170.369C322.734 170.367 322.769 170.366 322.828 170.368C323.053 170.375 323.387 170.39 323.832 170.411C324.065 170.399 324.407 170.392 324.859 170.389C324.942 170.397 324.993 170.453 325.011 170.555C325.017 170.59 325.022 170.65 325.026 170.738C325.052 171.25 325.237 172.483 325.581 174.437C325.697 175.093 325.873 176.078 326.111 177.392C326.355 178.706 326.534 179.691 326.65 180.346ZM341.796 172.803C342.055 174.273 341.802 175.619 341.036 176.84C340.243 178.108 339.118 178.87 337.66 179.127C336.201 179.384 334.886 179.052 333.713 178.131C332.57 177.246 331.869 176.069 331.61 174.599C331.35 173.124 331.606 171.78 332.379 170.569C333.169 169.32 334.294 168.566 335.752 168.309C337.21 168.052 338.524 168.375 339.694 169.279C340.836 170.159 341.536 171.333 341.796 172.803ZM338.625 173.362C338.522 172.775 338.261 172.296 337.843 171.923C337.397 171.526 336.886 171.378 336.311 171.479C335.724 171.583 335.292 171.894 335.013 172.413C334.751 172.894 334.674 173.436 334.78 174.04C334.885 174.633 335.144 175.118 335.557 175.498C336.005 175.906 336.519 176.059 337.101 175.957C337.659 175.859 338.083 175.534 338.374 174.984C338.643 174.478 338.727 173.937 338.625 173.362ZM335.254 194.265C335.513 195.735 335.26 197.081 334.494 198.302C333.702 199.57 332.576 200.332 331.118 200.589C329.659 200.846 328.344 200.514 327.171 199.593C326.028 198.708 325.327 197.531 325.068 196.061C324.808 194.586 325.064 193.242 325.838 192.031C326.628 190.782 327.752 190.028 329.21 189.771C330.669 189.514 331.983 189.837 333.152 190.741C334.294 191.621 334.995 192.795 335.254 194.265ZM332.084 194.824C331.98 194.237 331.719 193.758 331.301 193.385C330.855 192.988 330.345 192.84 329.769 192.941C329.182 193.045 328.75 193.356 328.471 193.875C328.209 194.356 328.132 194.898 328.238 195.502C328.343 196.095 328.602 196.58 329.015 196.96C329.463 197.368 329.978 197.521 330.559 197.419C331.117 197.321 331.541 196.996 331.832 196.446C332.101 195.94 332.185 195.399 332.084 194.824ZM345.521 197.327C345.54 197.435 345.509 197.544 345.428 197.652C345.347 197.76 345.25 197.824 345.136 197.844C344.863 197.892 344.453 197.968 343.907 198.07C343.361 198.172 342.952 198.247 342.678 198.295C342.467 198.332 342.349 198.259 342.322 198.076L342.314 197.981C342.01 195.79 341.818 194.465 341.736 194.003L341.289 191.465C341.261 191.306 341.21 191.233 341.136 191.246C341.022 191.266 340.854 191.33 340.632 191.44C340.417 191.549 340.249 191.613 340.129 191.634C339.953 191.666 339.846 191.576 339.809 191.365C339.774 191.171 339.72 190.881 339.646 190.495C339.572 190.109 339.518 189.816 339.483 189.616C339.463 189.502 339.519 189.404 339.651 189.322C340.427 188.827 341.003 188.244 341.378 187.573C341.454 187.436 341.526 187.362 341.594 187.35C341.605 187.348 341.641 187.347 341.7 187.349C341.924 187.356 342.258 187.371 342.703 187.392C342.936 187.38 343.278 187.373 343.73 187.37C343.813 187.378 343.864 187.434 343.882 187.536C343.889 187.571 343.893 187.631 343.897 187.719C343.923 188.231 344.108 189.464 344.452 191.418C344.568 192.074 344.745 193.059 344.982 194.374C345.226 195.687 345.405 196.672 345.521 197.327ZM341.295 218.381C341.314 218.489 341.283 218.597 341.202 218.706C341.121 218.814 341.024 218.878 340.91 218.898C340.637 218.946 340.227 219.021 339.681 219.123C339.135 219.226 338.725 219.301 338.452 219.349C338.241 219.386 338.123 219.313 338.096 219.13L338.088 219.034C337.784 216.844 337.592 215.518 337.51 215.057L337.063 212.519C337.035 212.359 336.983 212.286 336.909 212.299C336.795 212.319 336.628 212.384 336.406 212.494C336.19 212.602 336.023 212.667 335.903 212.688C335.726 212.719 335.62 212.629 335.582 212.419C335.548 212.225 335.494 211.935 335.42 211.549C335.346 211.162 335.292 210.869 335.256 210.67C335.236 210.556 335.293 210.458 335.425 210.376C336.201 209.881 336.777 209.298 337.152 208.627C337.227 208.49 337.299 208.415 337.368 208.403C337.379 208.401 337.414 208.401 337.473 208.402C337.698 208.41 338.032 208.424 338.477 208.446C338.71 208.434 339.052 208.427 339.504 208.423C339.587 208.432 339.638 208.488 339.656 208.59C339.662 208.624 339.667 208.685 339.671 208.773C339.697 209.285 339.882 210.518 340.226 212.472C340.342 213.127 340.518 214.112 340.756 215.427C341 216.741 341.179 217.726 341.295 218.381Z" fill="#3457D5"/>
</svg>
