<svg width="161" height="161" viewBox="0 0 161 161" fill="none" xmlns="http://www.w3.org/2000/svg">
<g clip-path="url(#clip0_563_9784)">
<rect x="0.5" y="0.5" width="160" height="160" rx="80" fill="#EEEEEE"/>
<path d="M81.9315 104.945C96.2742 104.945 107.901 93.3177 107.901 78.9751C107.901 64.6325 96.2742 53.0055 81.9315 53.0055C67.5889 53.0055 55.9619 64.6325 55.9619 78.9751C55.9619 93.3177 67.5889 104.945 81.9315 104.945Z" fill="#FFB6B6"/>
<path d="M60.4365 110.76L65.8501 96.9252L93.82 92.7147L96.8251 123.339L68.5545 123.941L60.4365 110.76Z" fill="#FFB6B6"/>
<path d="M108.152 83.7666C107.815 85.1169 107.134 88.3319 106.07 88.3478C105.201 88.3604 104.369 74.4125 105.237 72.1054C106.235 69.455 103.613 66.1022 101.639 64.3812C98.0888 61.2866 90.2083 67.9314 82.195 64.9213C81.9826 64.8416 82.0249 64.8506 79.4945 63.8411C71.7081 60.7344 71.2988 60.6447 70.8527 60.6004C67.0781 60.227 62.4716 63.3157 60.5906 67.0817C58.6352 70.9965 60.269 74.3542 58.4302 83.8251C58.2159 84.9291 57.8794 86.5025 57.3499 86.5257C56.3821 86.5679 55.437 81.3983 55.1895 80.0444C54.1525 74.3716 53.1527 68.9025 55.1895 62.7608C55.4117 62.091 56.781 59.6046 59.5104 54.6592C63.4425 47.5349 65.4202 43.9593 65.9917 43.3169C70.0905 38.7075 77.5513 34.5026 83.8153 36.2954C86.9814 37.2016 86.4137 38.6584 90.2967 40.0762C97.2164 42.6027 103.23 39.5129 104.34 41.6965C104.927 42.8532 103.283 43.8069 103.259 46.0174C103.218 49.8103 108.015 50.9064 110.821 54.6592C112.329 56.6767 114.91 56.6983 108.152 83.7666Z" fill="#2F2E41"/>
<path d="M140.326 133.616C139.279 134.792 138.193 135.944 137.069 137.069C121.959 152.178 101.869 160.5 80.5002 160.5C62.031 160.5 44.5183 154.284 30.3498 142.84C30.3408 142.834 30.3348 142.828 30.3258 142.819C28.4461 141.303 26.6265 139.691 24.8701 137.989C24.9032 137.724 24.9393 137.463 24.9783 137.204C25.225 135.46 25.4987 133.796 25.8054 132.265C28.3167 119.718 61.3604 106.545 62.2205 106.202C62.2325 106.199 62.2385 106.196 62.2385 106.196C62.2385 106.196 66.4912 121.872 84.7137 121.67C97.1258 121.535 94.7197 106.196 94.7197 106.196C94.7197 106.196 94.8701 106.226 95.1528 106.287C98.7377 107.048 123.628 112.515 133.448 119.977C136.44 122.251 138.587 127.093 140.13 132.867C140.196 133.114 140.26 133.366 140.326 133.616Z" fill="#73C2FB"/>
<path d="M137.068 23.9316C121.959 8.82207 101.868 0.5 80.5 0.5C59.1316 0.5 39.0414 8.82207 23.9316 23.9316C8.82186 39.0415 0.5 59.1316 0.5 80.5C0.5 100.004 7.43235 118.443 20.1361 133.002C21.3481 134.395 22.6143 135.751 23.9316 137.069C24.2413 137.378 24.5541 137.688 24.8699 137.989C26.6264 139.691 28.4459 141.303 30.3256 142.819C30.3346 142.828 30.3406 142.834 30.3496 142.84C44.5181 154.283 62.0309 160.5 80.5 160.5C101.868 160.5 121.959 152.178 137.068 137.069C138.193 135.944 139.279 134.792 140.326 133.616C153.369 118.963 160.5 100.281 160.5 80.5C160.5 59.1316 152.178 39.0415 137.068 23.9316ZM140.13 132.867C137.763 135.559 135.219 138.091 132.512 140.44C127.378 144.906 121.664 148.72 115.502 151.757C113.339 152.825 111.123 153.796 108.855 154.666C100.046 158.046 90.4849 159.898 80.5 159.898C70.8639 159.898 61.6248 158.172 53.0745 155.014C49.5646 153.721 46.1722 152.184 42.915 150.425C42.4368 150.166 41.9617 149.905 41.4895 149.637C39.0053 148.229 36.6023 146.693 34.2955 145.032C30.9903 142.663 27.8744 140.043 24.9782 137.204C23.3541 135.613 21.8023 133.956 20.3196 132.233C8.34664 118.326 1.1015 100.244 1.1015 80.5C1.1015 36.7197 36.7195 1.1015 80.5 1.1015C124.28 1.1015 159.898 36.7197 159.898 80.5C159.898 100.548 152.431 118.882 140.13 132.867Z" fill="#3F3D56"/>
</g>
<rect x="3" y="3" width="155" height="155" rx="77.5" stroke="#3457D5" stroke-width="5" stroke-linejoin="round"/>
<defs>
<clipPath id="clip0_563_9784">
<rect x="0.5" y="0.5" width="160" height="160" rx="80" fill="white"/>
</clipPath>
</defs>
</svg>
