<svg width="26" height="26" viewBox="0 0 26 26" fill="none" xmlns="http://www.w3.org/2000/svg">
<path fill-rule="evenodd" clip-rule="evenodd" d="M1.16602 13.0003C1.16602 6.46479 6.46381 1.16699 12.9993 1.16699C19.5349 1.16699 24.8327 6.46479 24.8327 13.0003C24.8327 19.5359 19.5349 24.8337 12.9993 24.8337C6.46381 24.8337 1.16602 19.5359 1.16602 13.0003ZM12.9993 3.16699C7.56838 3.16699 3.16602 7.56936 3.16602 13.0003C3.16602 18.4313 7.56838 22.8337 12.9993 22.8337C18.4303 22.8337 22.8327 18.4313 22.8327 13.0003C22.8327 7.56936 18.4303 3.16699 12.9993 3.16699Z" fill="white"/>
<path fill-rule="evenodd" clip-rule="evenodd" d="M12.9993 7.66699C13.5516 7.66699 13.9993 8.11471 13.9993 8.66699V12.0003H17.3327C17.885 12.0003 18.3327 12.448 18.3327 13.0003C18.3327 13.5526 17.885 14.0003 17.3327 14.0003H13.9993V17.3337C13.9993 17.8859 13.5516 18.3337 12.9993 18.3337C12.4471 18.3337 11.9993 17.8859 11.9993 17.3337V14.0003H8.66602C8.11373 14.0003 7.66602 13.5526 7.66602 13.0003C7.66602 12.448 8.11373 12.0003 8.66602 12.0003H11.9993V8.66699C11.9993 8.11471 12.4471 7.66699 12.9993 7.66699Z" fill="white"/>
</svg>
