<svg width="20" height="21" viewBox="0 0 20 21" fill="none" xmlns="http://www.w3.org/2000/svg">
<path d="M2.5 2.83337H4.16667L4.58333 5.33337M4.58333 5.33337L5.83333 12.8334H15L17.5 5.33337H4.58333Z" stroke="white" stroke-width="2" stroke-linecap="round" stroke-linejoin="round"/>
<path d="M6.66536 17.8334C7.1256 17.8334 7.4987 17.4603 7.4987 17.0001C7.4987 16.5398 7.1256 16.1667 6.66536 16.1667C6.20513 16.1667 5.83203 16.5398 5.83203 17.0001C5.83203 17.4603 6.20513 17.8334 6.66536 17.8334Z" stroke="white" stroke-width="2" stroke-linecap="round" stroke-linejoin="round"/>
<path d="M14.1654 17.8334C14.6256 17.8334 14.9987 17.4603 14.9987 17.0001C14.9987 16.5398 14.6256 16.1667 14.1654 16.1667C13.7051 16.1667 13.332 16.5398 13.332 17.0001C13.332 17.4603 13.7051 17.8334 14.1654 17.8334Z" stroke="#EEEEEE" stroke-width="2" stroke-linecap="round" stroke-linejoin="round"/>
</svg>
