<svg width="26" height="26" viewBox="0 0 26 26" fill="none" xmlns="http://www.w3.org/2000/svg">
<path d="M10.0133 20.58H22.75V22.7467H3.25V18.1501L13.975 7.42509L18.5705 12.0217L10.0133 20.58ZM15.5057 5.89326L17.8046 3.59551C18.0077 3.39241 18.2832 3.27832 18.5705 3.27832C18.8578 3.27832 19.1333 3.39241 19.3364 3.59551L22.4012 6.65917C22.5019 6.75978 22.5818 6.87926 22.6363 7.01078C22.6908 7.14229 22.7189 7.28326 22.7189 7.42563C22.7189 7.568 22.6908 7.70897 22.6363 7.84048C22.5818 7.972 22.5019 8.09148 22.4012 8.19209L20.1023 10.4898L15.5057 5.89326Z" fill="white"/>
</svg>
