<svg width="26" height="26" viewBox="0 0 26 26" fill="none" xmlns="http://www.w3.org/2000/svg">
<path d="M15.1666 13V21.5367C15.2099 21.8617 15.1016 22.2083 14.8524 22.4358C14.7522 22.5363 14.6331 22.6159 14.5021 22.6703C14.371 22.7247 14.2305 22.7526 14.0886 22.7526C13.9468 22.7526 13.8063 22.7247 13.6752 22.6703C13.5442 22.6159 13.4251 22.5363 13.3249 22.4358L11.1474 20.2583C11.0292 20.1428 10.9394 20.0016 10.8849 19.8456C10.8304 19.6896 10.8127 19.5231 10.8332 19.3592V13H10.8007L4.56073 5.005C4.38481 4.77916 4.30543 4.49286 4.33993 4.20867C4.37444 3.92449 4.52004 3.66551 4.7449 3.48833C4.95073 3.33667 5.17823 3.25 5.41656 3.25H20.5832C20.8216 3.25 21.0491 3.33667 21.2549 3.48833C21.4798 3.66551 21.6254 3.92449 21.6599 4.20867C21.6944 4.49286 21.615 4.77916 21.4391 5.005L15.1991 13H15.1666Z" fill="white"/>
</svg>
