<svg width="20" height="21" viewBox="0 0 20 21" fill="none" xmlns="http://www.w3.org/2000/svg">
<g clip-path="url(#clip0_676_628)">
<path fill-rule="evenodd" clip-rule="evenodd" d="M3.40901 2.45399C3.83097 2.03204 4.40326 1.79498 5 1.79498H15C15.5967 1.79498 16.169 2.03204 16.591 2.45399C17.0129 2.87595 17.25 3.44825 17.25 4.04498V17.795C17.25 18.3917 17.0129 18.964 16.591 19.386C16.169 19.8079 15.5967 20.045 15 20.045H5C4.40326 20.045 3.83097 19.8079 3.40901 19.386C2.98705 18.964 2.75 18.3917 2.75 17.795V4.04498C2.75 3.44825 2.98705 2.87595 3.40901 2.45399ZM5 3.79498C4.9337 3.79498 4.87011 3.82132 4.82322 3.86821C4.77634 3.91509 4.75 3.97868 4.75 4.04498V17.795C4.75 17.8613 4.77634 17.9249 4.82322 17.9718C4.87011 18.0186 4.9337 18.045 5 18.045H15C15.0663 18.045 15.1299 18.0186 15.1768 17.9718C15.2237 17.9249 15.25 17.8613 15.25 17.795V4.04498C15.25 3.97868 15.2237 3.91509 15.1768 3.86821C15.1299 3.82132 15.0663 3.79498 15 3.79498H5ZM5.25 6.54498C5.25 5.9927 5.69772 5.54498 6.25 5.54498H8.75C9.30228 5.54498 9.75 5.9927 9.75 6.54498C9.75 7.09727 9.30228 7.54498 8.75 7.54498H6.25C5.69772 7.54498 5.25 7.09727 5.25 6.54498ZM5.25 10.92C5.25 10.3677 5.69772 9.91998 6.25 9.91998H13.75C14.3023 9.91998 14.75 10.3677 14.75 10.92C14.75 11.4723 14.3023 11.92 13.75 11.92H6.25C5.69772 11.92 5.25 11.4723 5.25 10.92ZM5.25 13.42C5.25 12.8677 5.69772 12.42 6.25 12.42H13.75C14.3023 12.42 14.75 12.8677 14.75 13.42C14.75 13.9723 14.3023 14.42 13.75 14.42H6.25C5.69772 14.42 5.25 13.9723 5.25 13.42ZM5.25 15.92C5.25 15.3677 5.69772 14.92 6.25 14.92H8.75C9.30228 14.92 9.75 15.3677 9.75 15.92C9.75 16.4723 9.30228 16.92 8.75 16.92H6.25C5.69772 16.92 5.25 16.4723 5.25 15.92Z" fill="white"/>
<path d="M13.75 6.85748C13.9226 6.85748 14.0625 6.71757 14.0625 6.54498C14.0625 6.37239 13.9226 6.23248 13.75 6.23248C13.5774 6.23248 13.4375 6.37239 13.4375 6.54498C13.4375 6.71757 13.5774 6.85748 13.75 6.85748Z" fill="white"/>
<path fill-rule="evenodd" clip-rule="evenodd" d="M13.75 6.73248C13.8536 6.73248 13.9375 6.64854 13.9375 6.54498C13.9375 6.44143 13.8536 6.35748 13.75 6.35748C13.6464 6.35748 13.5625 6.44143 13.5625 6.54498C13.5625 6.64854 13.6464 6.73248 13.75 6.73248ZM12.9375 6.54498C12.9375 6.09625 13.3013 5.73248 13.75 5.73248C14.1987 5.73248 14.5625 6.09625 14.5625 6.54498C14.5625 6.99371 14.1987 7.35748 13.75 7.35748C13.3013 7.35748 12.9375 6.99371 12.9375 6.54498Z" fill="white"/>
</g>
<defs>
<clipPath id="clip0_676_628">
<rect width="20" height="20" fill="white" transform="translate(0 0.919983)"/>
</clipPath>
</defs>
</svg>
